<svg viewBox="0 0 118 86" fill="none" xmlns="http://www.w3.org/2000/svg">
<path d="M115.687 -2.30345e-06C117.662 -2.38983e-06 118.544 1.43263 117.651 3.18731L86.5395 63.8127C85.6353 65.5674 83.2798 67 81.3039 67L65.3182 67C63.3423 67 62.4493 65.5674 63.3535 63.8127L94.4318 3.20951C95.3361 1.45483 97.6915 0.0222144 99.6674 0.0222143L115.687 -2.30345e-06Z" fill="#23262D"/>
<path d="M46.6054 53.9288H17.9189C20.4754 48.4703 26.0236 44.7885 32.2619 44.7885C38.5001 44.7885 44.0484 48.4703 46.6054 53.9288Z" fill="#DDDFE7"/>
<path d="M46.6185 67.3516C44.062 72.8101 38.5011 76.4792 32.2629 76.4792C26.0246 76.4792 20.4635 72.8101 17.9072 67.3516H46.6185Z" fill="#DDDFE7"/>
<path d="M88.2232 64.1089C87.1645 64.1089 86.3508 64.8814 86.2422 65.988C86.2434 67.2013 87.1311 68.089 88.2232 68.089C89.3153 68.089 90.2043 67.2013 90.2043 66.1104C90.2043 66.034 90.2043 65.9879 90.197 65.9043C90.0933 64.8468 89.282 64.1089 88.2232 64.1089Z" fill="#DDDFE7"/>
<path d="M98.5574 65.0899C98.0335 59.7466 93.5847 55.7064 88.2286 55.7064C82.8592 55.7064 78.411 59.746 77.8864 65.0638C77.3959 71.6853 82.459 76.4799 88.2286 76.4799C94.5482 76.4799 99.2487 70.8425 98.5574 65.0899ZM88.2232 70.646C85.5837 70.646 83.5026 68.3946 83.6954 65.7659C83.935 63.3125 85.8378 61.5522 88.2232 61.5522C90.6086 61.5522 92.5089 63.2773 92.7411 65.6543C93.0092 68.3011 90.913 70.6459 88.2232 70.6459V70.646Z" fill="#DDDFE7"/>
<path d="M53.1498 57.7647V63.5173C53.1498 64.2207 52.5744 64.7955 51.8716 64.7955H12.6513C11.9479 64.7955 11.373 64.2201 11.373 63.5173V57.7647C11.373 57.0613 11.9485 56.4865 12.6513 56.4865H51.8716C52.5743 56.4858 53.1498 57.0613 53.1498 57.7647Z" fill="#DDDFE7"/>
<path d="M76.0497 61.7277H55.7068V63.5176C55.7068 65.6272 53.9811 67.3529 51.8716 67.3529H49.3915C49.0337 68.2606 48.6117 69.1295 48.126 69.9609H75.8795C75.341 68.2375 75.2161 66.6441 75.3295 64.8857C75.4392 63.7796 75.6921 62.7258 76.0492 61.7277H76.0497Z" fill="#DDDFE7"/>
<path d="M88.2292 53.1496C88.6513 53.1496 89.0727 53.1751 89.482 53.2133V46.1698C89.482 42.6414 87.0917 39.5731 83.6523 38.7169L68.9128 35.0611V22.4178H72.9907C75.4452 22.4178 77.4396 20.4234 77.4396 17.9689C77.4396 15.5144 75.4452 13.52 72.9907 13.52H34.6909C33.3872 13.52 32.1471 14.0955 31.3032 15.0923C30.4597 16.0892 30.0886 17.3935 30.2936 18.6972C30.6386 20.8195 32.5947 22.4173 34.857 22.4173H41.2742V44.6089C42.1692 45.1201 43.0253 45.6955 43.8307 46.3474L43.8319 22.4172H66.3573V49.0577H63.9416V43.6755C63.9416 41.2082 61.9472 39.2012 59.4672 39.2012C56.9999 39.2012 54.9929 41.2083 54.9929 43.6755V49.0577H48.7418V44.0976L51.1193 41.7068V44.1485H53.6758V34.7269H51.1193V38.0891L46.5559 42.6653C46.3127 42.9085 46.1854 43.228 46.1854 43.5603V48.6228C47.5279 50.1824 48.6271 51.9723 49.3943 53.9279H51.8744C53.9839 53.9279 55.7096 55.6536 55.7096 57.7632V59.1687H77.2803C79.5846 55.5112 83.6387 53.1482 88.2295 53.1482L88.2292 53.1496Z" fill="#DDDFE7"/>
</svg>
