<svg viewBox="0 0 118 86" xmlns="http://www.w3.org/2000/svg">
  <path fill="var(--color-1)" class="path1" d="M115.687 -2.30345e-06C117.662 -2.38983e-06 118.544 1.43263 117.651 3.18731L86.5395 63.8127C85.6353 65.5674 83.2798 67 81.3039 67L65.3182 67C63.3423 67 62.4493 65.5674 63.3535 63.8127L94.4318 3.20951C95.3361 1.45483 97.6915 0.0222144 99.6674 0.0222143L115.687 -2.30345e-06Z" />
  <path fill="var(--color-2)" class="path2" d="M71.8549 22.9399C75.4862 22.9399 79.1188 22.9423 82.7501 22.9376C83.2679 22.9376 83.7868 22.9153 84.3022 22.8731C84.3977 22.8649 84.5487 22.722 84.5581 22.6294C84.5853 22.3775 84.5546 22.1174 84.5416 21.862C84.5227 21.4777 84.5003 21.0934 84.4803 20.709C84.4732 20.5778 84.6926 20.2896 84.8129 20.2697C85.7717 20.1115 86.7306 19.9521 87.6894 19.7975C88.265 19.7049 88.8417 19.6217 89.4172 19.535C89.6531 19.4999 89.8972 19.7002 89.9751 19.9603C90.2169 20.7665 90.277 21.6054 90.4409 22.4256C90.4857 22.647 90.7476 22.879 90.9905 22.8919C91.3137 22.9095 91.6368 22.9352 91.96 22.9364C93.5168 22.9411 95.0724 22.9364 96.6292 22.9411C97.0172 22.9423 97.4052 22.9657 97.7933 22.9844C98.0291 22.995 98.2921 23.2434 98.3216 23.4695C98.3381 23.5972 98.3747 23.7238 98.3747 23.8503C98.3782 26.4913 98.3794 29.1334 98.3771 31.7744C98.3771 31.9021 98.3464 32.0298 98.3323 32.1575C98.3193 32.2665 98.0634 32.5372 97.9501 32.5559C97.7602 32.5875 97.5704 32.645 97.3805 32.6461C96.2129 32.6555 95.0453 32.6485 93.8789 32.6555C93.4908 32.6578 93.1005 32.6719 92.7148 32.7059C92.5957 32.7164 92.4565 32.7867 92.374 32.8734C92.2914 32.9601 92.2607 33.0996 92.223 33.2214C92.2041 33.28 92.2171 33.3503 92.223 33.4136C92.269 33.8623 92.2831 34.3169 92.3704 34.7575C92.5332 35.58 92.6429 36.4096 92.7632 37.2379C92.8092 37.5543 92.9188 37.8624 93.0002 38.1729C93.0309 38.2878 93.3151 38.5127 93.4366 38.5209C93.7586 38.542 94.0805 38.583 94.4025 38.5865C95.3755 38.5983 96.3485 38.5924 97.3203 38.6041C97.5114 38.6065 97.7013 38.6557 97.8923 38.6861C98.0221 38.7061 98.2874 38.9498 98.3039 39.0634C98.3311 39.2532 98.3782 39.443 98.3794 39.6329C98.383 42.2094 98.3794 44.7871 98.3747 47.3636C98.3747 47.4901 98.3323 47.6167 98.3181 47.7432C98.3051 47.8698 98.0728 48.1369 97.9525 48.1592C97.7626 48.1932 97.5715 48.2459 97.3805 48.2529C96.6681 48.2775 95.9546 48.281 95.2422 48.3056C95.1208 48.3103 94.9958 48.3701 94.8825 48.4251C94.7563 48.4872 94.6761 48.5986 94.675 48.7239C94.675 48.9805 94.6643 49.2406 94.7068 49.4925C95.1102 51.9062 95.4852 54.3246 95.8555 56.7429C96.1575 58.716 96.5065 60.6821 96.825 62.6529C97.1128 64.4327 97.397 66.2136 97.6671 67.9969C97.7343 68.441 97.752 68.8944 97.7602 69.3432C97.7626 69.4486 97.66 69.5962 97.5621 69.6537C97.3982 69.7497 97.2047 69.8153 97.016 69.847C95.7376 70.0579 94.4579 70.2594 93.1771 70.4527C92.9884 70.4809 92.7832 70.4715 92.5992 70.427C92.4907 70.4012 92.3492 70.2864 92.3221 70.1856C92.1876 69.6888 92.0602 69.1873 91.98 68.68C91.6663 66.7081 91.3786 64.7326 91.066 62.7607C90.7429 60.7255 90.3985 58.6938 90.0706 56.6585C89.8866 55.5138 89.718 54.3667 89.5422 53.2208C89.3759 52.1382 89.2179 51.0556 89.0363 49.9753C88.962 49.5324 88.8334 49.0977 88.7273 48.6595C88.6966 48.5306 88.4466 48.3502 88.2815 48.3349C88.0244 48.3115 87.7661 48.274 87.5078 48.2717C86.4699 48.2623 85.4321 48.2635 84.3954 48.2635C75.2504 48.2635 66.1065 48.2635 56.9615 48.2658C56.3777 48.2658 55.7951 48.2799 55.2125 48.3009C55.0886 48.3056 54.953 48.3478 54.8469 48.4111C54.7431 48.4732 54.6145 48.5716 54.5898 48.6759C54.4423 49.3027 54.2926 49.9308 54.197 50.5658C53.8432 52.9221 53.4587 55.2736 53.0731 57.6252C52.7393 59.6592 52.4586 61.7003 52.1296 63.7355C51.8512 65.452 51.5658 67.1674 51.3146 68.8874C51.2497 69.3314 51.1235 69.7685 50.995 70.1997C50.9655 70.2993 50.8204 70.4082 50.7107 70.4328C50.5256 70.4738 50.3215 70.4797 50.1317 70.4516C48.9134 70.2723 47.6974 70.0837 46.4826 69.8892C46.2927 69.8587 46.1099 69.7814 45.9224 69.7322C45.6901 69.6712 45.5202 69.41 45.5474 69.1381C45.5922 68.6894 45.6228 68.2394 45.6924 67.7942C46.0498 65.5036 46.4154 63.2141 46.7834 60.9258C47.1006 58.955 47.4273 56.9854 47.7446 55.0147C47.9286 53.8699 48.1031 52.724 48.2847 51.5793C48.3649 51.0708 48.4522 50.5623 48.5336 50.0538C48.5749 49.7995 48.6138 49.5453 48.648 49.2898C48.7459 48.5681 48.5442 48.3068 47.8696 48.2845C47.5453 48.274 47.2209 48.2705 46.8978 48.2646C46.5734 48.2588 46.2491 48.2588 45.9248 48.2471C45.3233 48.2248 45.0732 47.9811 45.0355 47.4503C45.0261 47.3214 45.0143 47.1937 45.0143 47.0648C45.0119 44.6805 45.0107 42.2973 45.0107 39.9129C45.0107 39.5907 45.0119 39.2638 45.1334 38.9627C45.1759 38.8549 45.2997 38.7353 45.4094 38.7072C45.6582 38.644 45.9201 38.6111 46.1772 38.6065C47.0853 38.5924 47.9934 38.5994 48.9004 38.5877C49.2235 38.583 49.5455 38.5479 49.8675 38.5233C50.0857 38.5069 50.2071 38.3463 50.3145 38.1905C50.3852 38.0874 50.4336 37.9562 50.4513 37.832C50.6659 36.3674 50.9985 34.9192 51.1047 33.4382C51.1094 33.3737 51.1235 33.3046 51.107 33.246C51.0705 33.1242 51.0422 32.9847 50.962 32.8945C50.8829 32.8043 50.7485 32.727 50.6305 32.7141C50.3098 32.6766 49.9842 32.6625 49.6611 32.6602C48.4935 32.652 47.3259 32.6578 46.1595 32.6461C45.9035 32.6438 45.6417 32.6121 45.394 32.5489C45.2867 32.5219 45.1652 32.3989 45.1251 32.2911C45.0591 32.1142 45.0284 31.9138 45.0273 31.724C45.0178 29.1475 45.0166 26.5698 45.0155 23.9933C45.0155 23.8644 45.0355 23.7367 45.0449 23.6078C45.0674 23.2891 45.3575 22.9809 45.6547 22.9716C46.1724 22.9552 46.6914 22.9364 47.2091 22.9352C48.7011 22.9317 50.193 22.9399 51.6837 22.9352C51.9408 22.9352 52.1991 22.8931 52.4562 22.8684C52.6001 22.8544 52.8337 22.6365 52.862 22.5017C53.0507 21.6206 53.1191 20.7161 53.3903 19.8525C53.4363 19.7049 53.684 19.5256 53.8326 19.5444C55.3741 19.7401 56.9096 19.9791 58.4369 20.2638C58.654 20.3036 58.8474 20.5966 58.8533 20.8461C58.8662 21.4261 58.6964 21.9967 58.7813 22.5779C58.799 22.6974 58.8922 22.7911 59.0278 22.838C59.1481 22.879 59.2743 22.9153 59.3993 22.9188C59.9183 22.9329 60.436 22.9399 60.9549 22.9399C64.5863 22.9411 68.2188 22.9399 71.8502 22.9399H71.8549ZM71.4504 38.5912C76.1785 38.5901 80.9067 38.5912 85.6349 38.5877C86.0194 38.5877 86.4098 38.6205 86.7848 38.4764C86.9075 38.4295 87.1186 38.1671 87.1056 38.0347C87.0985 37.9714 87.108 37.9046 87.0985 37.8425C86.8674 36.3814 86.6362 34.9204 86.4003 33.4604C86.3803 33.3351 86.326 33.2156 86.2906 33.0937C86.2564 32.9754 85.9911 32.7504 85.872 32.7246C85.3589 32.6145 84.84 32.6555 84.3234 32.6555C79.3358 32.6532 74.3493 32.6555 69.3617 32.6555C65.8636 32.6555 62.3667 32.6532 58.8686 32.6578C58.4169 32.6578 57.9652 32.6906 57.5147 32.7235C57.3059 32.7387 57.162 32.891 57.0747 33.0586C56.9875 33.2261 56.932 33.4183 56.9014 33.6057C56.6749 35.0024 56.4579 36.4002 56.2397 37.798C56.2303 37.8613 56.2397 37.9269 56.2303 37.9902C56.2032 38.1987 56.4697 38.5268 56.6855 38.5362C57.2021 38.5584 57.7199 38.5877 58.2376 38.5877C62.6415 38.5912 67.0465 38.5901 71.4504 38.5901V38.5912ZM69.2838 31.0151C69.2838 31.0233 69.2838 31.0327 69.2838 31.0409C70.3158 31.028 71.3466 31.0163 72.3785 30.9999C72.5802 30.9964 72.7524 30.9003 72.8869 30.7609C73.0649 30.5769 73.2336 30.3824 73.3893 30.1786C74.5604 28.6495 75.728 27.117 76.8956 25.5844C76.9735 25.4825 77.0442 25.3758 77.1103 25.2669C77.1421 25.2142 77.148 25.145 77.1787 25.09C77.2589 24.9435 77.0949 24.6904 76.9133 24.6646C75.9509 24.5299 74.9826 24.6143 74.0179 24.6025C73.0508 24.592 72.0837 24.6072 71.1166 24.6213C70.7757 24.6271 70.4844 24.7877 70.2839 25.0478C68.9489 26.776 67.6256 28.5113 66.3 30.2465C66.1856 30.3953 66.09 30.5523 66.1195 30.7609C66.1407 30.9132 66.2988 31.0128 66.5771 31.014C67.4805 31.0151 68.3828 31.014 69.2862 31.014L69.2838 31.0151ZM54.0885 31.0257C55.1146 31.0257 55.9543 31.028 56.7941 31.0245C56.9875 31.0245 57.1809 31.0116 57.3731 30.9905C57.5701 30.9694 57.7529 30.8909 57.8756 30.7363C59.3168 28.926 60.7379 27.1006 62.0872 25.2212C62.2428 25.0044 62.0813 24.6752 61.8135 24.6564C60.0728 24.5311 58.3308 24.6248 56.5888 24.6002C56.3954 24.5978 56.2008 24.6072 56.0086 24.626C55.7432 24.6517 55.5168 24.7713 55.3269 24.954C55.2349 25.0431 55.1512 25.1427 55.0733 25.2446C53.7477 26.981 52.4232 28.7187 51.1011 30.4586C51.0634 30.5078 51.0351 30.5758 51.0327 30.6367C51.028 30.7738 51.0799 30.9238 51.1872 30.9425C52.2109 31.1229 53.2464 30.9777 54.0885 31.0269V31.0257ZM84.3494 31.048C84.3494 31.0409 84.3494 31.0339 84.3494 31.0269C85.0629 31.0269 85.7753 31.028 86.4888 31.0269C86.7483 31.0269 87.0065 31.0151 87.266 31.014C87.6116 31.0116 87.8887 30.8816 88.0998 30.6062C89.3948 28.9155 90.691 27.2248 91.9848 25.5329C92.0626 25.4309 92.1204 25.3137 92.1912 25.206C92.315 25.0173 92.0992 24.6623 91.8479 24.6494C89.9055 24.5498 87.9619 24.5803 86.0194 24.6377C85.8213 24.6435 85.6526 24.7584 85.5052 24.8837C85.4073 24.9658 85.3153 25.0595 85.2386 25.1603C83.9437 26.851 82.6499 28.5429 81.3596 30.2383C81.283 30.3391 81.237 30.4645 81.1733 30.5758C81.0966 30.7093 81.2664 30.9788 81.4375 30.9823C82.4081 31.0046 83.3799 31.0269 84.3506 31.048H84.3494ZM69.4501 46.5809C70.4172 46.5692 71.389 46.5622 72.3608 46.5399C72.6274 46.5341 72.8656 46.4087 73.0307 46.199C74.4295 44.4274 75.8271 42.6546 77.1291 40.8116C77.2152 40.6897 77.2141 40.5725 77.1268 40.4495C77.0572 40.3523 76.9546 40.2761 76.8131 40.2749C75.3872 40.262 73.9625 40.2527 72.5366 40.248C72.0188 40.2468 71.4999 40.2538 70.9821 40.2714C70.7109 40.2808 70.4951 40.4202 70.3146 40.6171C70.271 40.6651 70.2203 40.7061 70.1813 40.7577C68.8887 42.4496 67.5973 44.1415 66.3094 45.8369C66.2351 45.9342 66.1761 46.0619 66.1608 46.1814C66.1431 46.3243 66.2268 46.4497 66.3483 46.4743C67.3744 46.6793 68.4134 46.5106 69.4489 46.5809H69.4501ZM58.9924 40.2667C58.9924 40.2597 58.9924 40.2538 58.9924 40.2468C58.2152 40.2468 57.438 40.2445 56.662 40.248C56.4037 40.2492 56.143 40.2538 55.8871 40.282C55.6984 40.3031 55.5038 40.3394 55.3693 40.5058C55.288 40.6053 55.1842 40.6874 55.1063 40.7893C53.8526 42.4273 52.6013 44.0677 51.3523 45.7092C51.2757 45.81 51.2261 45.9318 51.1589 46.0419C51.0705 46.1861 51.1955 46.4708 51.3559 46.4919C51.4196 46.5001 51.4809 46.5376 51.5434 46.5376C53.421 46.5446 55.2986 46.5505 57.175 46.554C57.2387 46.554 57.3035 46.5364 57.3672 46.5294C57.6373 46.5001 57.859 46.3782 58.0218 46.165C58.9665 44.9406 59.9088 43.7126 60.8523 42.4871C61.1271 42.1297 61.4043 41.7735 61.6756 41.4126C61.7923 41.258 61.8961 41.0951 62.007 40.9369C62.1461 40.7389 62.1697 40.4847 62.0447 40.4167C61.9374 40.3593 61.823 40.2749 61.7098 40.2726C60.804 40.2609 59.897 40.2656 58.9913 40.2656L58.9924 40.2667ZM84.5923 46.5598V46.5669C85.3047 46.5669 86.017 46.5704 86.7282 46.5657C86.9865 46.5633 87.2471 46.5575 87.5031 46.5259C87.6941 46.5012 87.8675 46.4192 88.009 46.2728C88.5492 45.7139 88.9738 45.0648 89.4479 44.4555C90.2794 43.3869 91.092 42.3055 91.9105 41.2275C92.026 41.0752 92.1428 40.924 92.2029 40.7319C92.2442 40.5983 92.0909 40.3171 91.9388 40.3077C89.9998 40.1917 88.0586 40.2574 86.1185 40.2644C85.7776 40.2656 85.4969 40.4226 85.2905 40.6932C83.9979 42.3816 82.7053 44.0712 81.415 45.7619C81.3372 45.8639 81.2511 45.9787 81.2322 46.097C81.2146 46.2072 81.2794 46.3302 81.3089 46.4473C81.4976 46.4848 81.6863 46.5528 81.875 46.5551C82.7808 46.5669 83.6877 46.5598 84.5935 46.5598H84.5923Z" />
  <path fill="var(--color-2)" class="path2" d="M23.0355 70.465C19.6906 70.465 16.3448 70.465 12.9999 70.4641C12.6614 70.4641 12.3212 70.4904 11.9871 70.4028C11.8778 70.3739 11.6945 70.2067 11.6901 70.113C11.6875 70.0666 11.6522 70.0219 11.6496 69.9755C11.6134 69.3985 11.6011 68.8214 11.6601 68.2453C11.6769 68.085 11.8796 67.8643 12.0338 67.8512C12.2745 67.8302 12.5151 67.8013 12.7566 67.7996C13.7261 67.7934 14.6957 67.7996 15.6652 67.7943C15.8574 67.7934 16.0513 67.7733 16.2399 67.7365C16.3862 67.7076 16.4964 67.6008 16.5555 67.4651C16.6127 67.3337 16.6621 67.1954 16.6841 67.0553C17.0191 64.9633 17.3434 62.8706 17.681 60.7795C17.926 59.2585 18.201 57.7428 18.4355 56.2201C18.5598 55.411 18.6752 54.6019 18.8621 53.8042C18.8832 53.7131 18.959 53.6483 19.0542 53.6063C19.0974 53.587 19.1424 53.566 19.1882 53.5607C19.3319 53.5432 19.4773 53.5222 19.6219 53.5222C21.9488 53.5205 24.2757 53.5213 26.6026 53.5257C26.7454 53.5257 26.8873 53.5669 27.031 53.5844C27.142 53.5984 27.1931 53.6641 27.2398 53.763C27.365 54.0292 27.4241 54.3112 27.4655 54.5957C27.7237 56.3584 28.0243 58.1141 28.316 59.8706C28.5602 61.3426 28.7567 62.8233 29.015 64.2926C29.1974 65.3355 29.2953 66.3933 29.5659 67.4204C29.6099 67.5876 29.7977 67.7479 29.9837 67.7584C30.2736 67.7742 30.5636 67.7943 30.8536 67.796C31.7747 67.8004 32.6957 67.7934 33.6168 67.8013C33.8081 67.8031 33.9993 67.8451 34.1897 67.8731C34.2902 67.888 34.448 68.0771 34.4603 68.1822C34.5326 68.8057 34.5167 69.43 34.4727 70.0543C34.4612 70.2137 34.2567 70.4177 34.0857 70.4256C33.7473 70.4422 33.4088 70.4668 33.0703 70.4668C29.7254 70.4703 26.3796 70.4685 23.0347 70.4685V70.4659L23.0355 70.465Z" />
  <path fill="var(--color-2)" class="path2" d="M23.107 44.7868C22.4292 44.7868 21.7523 44.7877 21.0745 44.7859C20.9784 44.7859 20.8815 44.7702 20.7854 44.7649C20.5325 44.7509 20.328 44.5215 20.3659 44.2842C20.5774 42.9559 20.7907 41.6275 21.004 40.2992C21.1406 39.4445 21.2764 38.5908 21.4139 37.7362C21.4368 37.5943 21.472 37.4542 21.502 37.3132C21.5293 37.1863 21.7849 36.9875 21.9365 36.9752C22.661 36.9157 23.3864 36.9332 24.111 36.9638C24.3824 36.9752 24.5781 37.1293 24.6336 37.3736C24.7077 37.702 24.7905 38.0286 24.8434 38.3605C25.0779 39.8316 25.3009 41.3044 25.5327 42.7763C25.5926 43.1564 25.6728 43.5329 25.7345 43.9121C25.7574 44.0539 25.7662 44.2001 25.7574 44.3429C25.7521 44.4348 25.7257 44.5425 25.6702 44.6108C25.6146 44.6791 25.5124 44.7422 25.4269 44.7474C24.9924 44.7737 24.5578 44.7851 24.1224 44.7938C23.784 44.8008 23.4446 44.7956 23.1062 44.7956C23.1062 44.793 23.1062 44.7903 23.1062 44.7868H23.107Z" />
  <path fill="var(--color-2)" class="path2" d="M23.1198 51.1466C22.1538 51.1466 21.1878 51.1501 20.2209 51.1439C20.0296 51.1431 19.8392 51.1089 19.648 51.0879C19.5404 51.0765 19.3782 50.8926 19.3809 50.7814C19.3871 50.5432 19.3782 50.3016 19.4117 50.0669C19.5157 49.355 19.6303 48.644 19.7555 47.9356C19.7881 47.7499 19.8771 47.5748 19.9362 47.3936C19.9706 47.2885 20.0367 47.2333 20.1468 47.2193C20.242 47.2079 20.3355 47.172 20.4298 47.1711C22.1688 47.1668 23.9078 47.1668 25.6468 47.1659C25.6953 47.1659 25.7429 47.1711 25.7913 47.1738C26.0628 47.186 26.2638 47.3463 26.307 47.5862C26.3925 48.0582 26.4859 48.5293 26.5599 49.003C26.649 49.5722 26.7195 50.1431 26.7997 50.7131C26.8191 50.8541 26.5987 51.108 26.4506 51.115C26.2576 51.1238 26.0655 51.1457 25.8724 51.1457C24.9549 51.1492 24.0365 51.1474 23.1189 51.1474V51.1457L23.1198 51.1466Z" />
</svg>