<svg width="80" height="60" viewBox="0 0 80 60" fill="none" xmlns="http://www.w3.org/2000/svg">
<path d="M24.6031 30.5964C23.9211 31.6882 22.6177 31.8677 21.7658 31.3368L16.0517 28.048C15.0656 27.4719 14.7369 26.2383 15.3112 25.2523C15.8874 24.2662 17.1606 23.9375 18.1069 24.4721L23.821 27.8025C24.809 28.3352 25.1793 29.6084 24.6031 30.5964Z" fill="#E52421"/>
<path d="M37.9648 19.6189V13.0411C37.9648 11.8907 38.8697 10.9858 40.0201 10.9858C41.1309 10.9858 42.0754 11.8907 42.0754 13.0411V19.6189C42.0754 20.7693 41.1309 21.6742 40.0201 21.6742C38.8697 21.6742 37.9648 20.7693 37.9648 19.6189Z" fill="#E52421"/>
<path d="M21.3581 39.4752C21.3581 40.6257 20.4533 41.5305 19.3029 41.5305H12.7251C11.5746 41.5305 10.6698 40.6257 10.6698 39.4752C10.6698 38.3645 11.5746 37.42 12.7251 37.42H19.3029C20.4533 37.42 21.3581 38.3664 21.3581 39.4752Z" fill="#E52421"/>
<path d="M28.3024 23.3185L25.0136 17.6044C24.4375 16.6183 24.7661 15.3848 25.7541 14.8087C26.7402 14.2325 27.9737 14.5612 28.5498 15.5491L31.8386 21.2632C32.4148 22.2493 32.0861 23.5244 31.0981 24.059C30.1593 24.6445 28.8596 24.3083 28.3024 23.3185Z" fill="#E52421"/>
<path d="M69.3303 39.4752C69.3303 40.6257 68.4254 41.5305 67.275 41.5305H60.6972C59.5468 41.5305 58.642 40.6257 58.642 39.4752C58.642 38.3645 59.5468 37.42 60.6972 37.42H67.275C68.4254 37.42 69.3303 38.3664 69.3303 39.4752Z" fill="#E52421"/>
<path d="M63.9479 28.0431L58.2338 31.3319C57.3271 31.8986 56.0369 31.6153 55.3965 30.5914C54.8619 29.6053 55.1906 28.3303 56.1767 27.7957L61.8908 24.4654C62.8769 23.8892 64.1104 24.2595 64.6865 25.2455C65.2627 26.2354 64.934 27.4688 63.9479 28.0431Z" fill="#E52421"/>
<path d="M54.9868 17.6024L51.698 23.3165C51.1427 24.3063 49.8411 24.6426 48.9023 24.0569C47.9162 23.5223 47.5875 22.2473 48.1618 21.2612L51.4506 15.5471C52.0268 14.561 53.2603 14.2323 54.2463 14.8066C55.2324 15.3809 55.5611 16.6144 54.9868 17.6024Z" fill="#E52421"/>
<path d="M50.6685 43.5855V44.7322C50.6685 47.0963 48.752 49.0129 46.3878 49.0129H33.6127C31.2486 49.0129 29.332 47.0963 29.332 44.7322V43.5855C29.332 37.707 34.1018 32.8972 39.9807 32.8972C45.8989 32.8953 50.6685 37.7048 50.6685 43.5855Z" fill="#E52421"/>
</svg>
