<svg width="80" height="60" viewBox="0 0 80 60" fill="none" xmlns="http://www.w3.org/2000/svg">
<path d="M27.9999 45.8811C29.0686 44.8115 29.0668 43.0778 27.996 42.0103C26.9261 40.9437 25.1942 40.9463 24.1275 42.0162L16.8302 49.3351C15.7677 50.4008 15.7677 52.1252 16.8303 53.1907C17.8964 54.2599 19.6279 54.2607 20.6951 53.1926L27.9999 45.8811Z" fill="#E52421"/>
<path fill-rule="evenodd" clip-rule="evenodd" d="M30.49 39.4824C38.0045 46.9969 50.1879 46.9969 57.7024 39.4824C65.2169 31.9679 65.2169 19.7845 57.7024 12.27C50.1879 4.75553 38.0045 4.75553 30.49 12.27C22.9755 19.7845 22.9755 31.9679 30.49 39.4824ZM43.3594 15.1166L34.3713 19.61C33.8579 19.8667 33.8561 20.5988 34.3683 20.858L43.6692 25.5652C43.8673 25.6655 44.1012 25.6656 44.2994 25.5656L53.6119 20.8671C54.1246 20.6082 54.1232 19.8756 53.6094 19.6187L44.6095 15.1167C44.2161 14.9199 43.7529 14.9198 43.3594 15.1166ZM42.88 36.1165V27.6497C42.88 27.3863 42.7319 27.1454 42.4969 27.0264L33.341 22.3931C32.8763 22.158 32.327 22.4957 32.327 23.0164V31.5398C32.327 31.8045 32.4765 32.0464 32.7132 32.1647L41.8692 36.7414C42.3336 36.9735 42.88 36.6358 42.88 36.1165ZM45.5009 27.0264L54.6549 22.4044C55.1195 22.1698 55.6683 22.5075 55.6683 23.028L55.6685 31.5414C55.6685 31.806 55.519 32.0479 55.2823 32.1662L46.128 36.7415C45.6635 36.9735 45.1172 36.6358 45.1172 36.1166V27.65C45.1172 27.3864 45.2656 27.1453 45.5009 27.0264Z" fill="#E52421"/>
</svg>
