<svg width="80" height="60" viewBox="0 0 80 60" fill="none" xmlns="http://www.w3.org/2000/svg">
<path d="M44.7139 21.1313L47.444 22.8507V15.0567H39.9998V22.8507L42.7299 21.1309C43.0269 20.9435 43.3709 20.8446 43.7219 20.8446C44.0729 20.8446 44.4168 20.9439 44.7139 21.1313Z" fill="#E52421"/>
<path d="M34.4163 15.0568C32.9354 15.0568 31.5155 15.645 30.4682 16.6919C29.4214 17.7391 28.8332 19.159 28.8332 20.64V35.5284C28.8332 37.0094 29.4214 38.4292 30.4682 39.4765C31.5155 40.5233 32.9354 41.1116 34.4163 41.1116H53.0269C54.5078 41.1116 55.9277 40.5233 56.975 39.4765C58.0218 38.4292 58.61 37.0094 58.61 35.5284V20.64C58.61 19.159 58.0218 17.7392 56.975 16.6919C55.9277 15.645 54.5078 15.0568 53.0269 15.0568H51.1658V26.2231C51.1658 26.6689 51.0059 27.0997 50.7147 27.4374C50.4239 27.7751 50.0214 27.9974 49.5806 28.0634C49.1399 28.1295 48.69 28.0352 48.3127 27.7975L43.7216 24.9055L39.1304 27.7975C38.7532 28.0352 38.3033 28.1295 37.8626 28.0634C37.4218 27.9974 37.0193 27.7751 36.7285 27.4374C36.4373 27.0997 36.2773 26.6689 36.2773 26.2231V15.0568H34.4163Z" fill="#E52421"/>
<path d="M17.6668 9.47364H23.25V43.315C21.8346 43.8019 20.672 44.8329 20.0197 46.1801C19.3671 47.5269 19.2795 49.0789 19.7755 50.4908C20.2715 51.9028 21.3109 53.0586 22.6622 53.702C24.0136 54.345 25.566 54.4223 26.9747 53.9167C28.3833 53.4112 29.532 52.3643 30.1659 51.0084C30.8002 49.6529 30.8671 48.1 30.352 46.6948H51.5084C51.2883 47.2909 51.1724 47.9202 51.1661 48.5558C51.1661 50.5507 52.2305 52.3939 53.9577 53.3908C55.685 54.3883 57.8136 54.3883 59.5409 53.3908C61.2682 52.3939 62.3325 50.5507 62.3325 48.5558C62.3262 47.9202 62.2103 47.2908 61.9902 46.6948H62.3325C62.9975 46.6948 63.6119 46.34 63.9442 45.7642C64.2766 45.1885 64.2766 44.4789 63.9442 43.9032C63.6119 43.3274 62.9975 42.9727 62.3325 42.9727H26.9724V7.61264C26.9724 7.11913 26.7764 6.64555 26.4274 6.29661C26.0785 5.94767 25.6049 5.75159 25.1114 5.75159H17.6672C17.0021 5.75159 16.3877 6.10635 16.0554 6.68211C15.7231 7.25788 15.7231 7.96741 16.0554 8.54317C16.3877 9.11892 17.0018 9.47364 17.6668 9.47364Z" fill="#E52421"/>
</svg>
