<svg width="80" height="60" viewBox="0 0 80 60" fill="none" xmlns="http://www.w3.org/2000/svg">
<path fill-rule="evenodd" clip-rule="evenodd" d="M63.1616 48.1978H16.8385V49.8522C16.8385 50.766 16.0979 51.5066 15.1841 51.5066C14.2702 51.5066 13.5297 50.766 13.5297 49.8522V10.1466C13.5297 9.23273 14.2702 8.49219 15.1841 8.49219C16.0979 8.49219 16.8385 9.23273 16.8385 10.1466V23.9339H63.1616V10.1466C63.1616 9.23273 63.9022 8.49219 64.816 8.49219C65.7299 8.49219 66.4704 9.23273 66.4704 10.1466V49.8522C66.4704 50.766 65.7299 51.5066 64.816 51.5066C63.9022 51.5066 63.1616 50.766 63.1616 49.8522V48.1978ZM63.1616 44.889V27.242H16.8385V44.889H63.1616ZM60.9558 9.59512V20.6244C60.9558 21.2335 60.4619 21.7274 59.8528 21.7274H47.7206C47.1115 21.7274 46.6176 21.2335 46.6176 20.6244V9.59512C46.6176 8.98605 47.1115 8.49219 47.7206 8.49219H59.8528C60.4619 8.49219 60.9558 8.98605 60.9558 9.59512ZM33.3825 30.5508V41.5802C33.3825 42.1892 32.8886 42.6831 32.2795 42.6831H20.1473C19.5382 42.6831 19.0443 42.1892 19.0443 41.5802V30.5508C19.0443 29.9418 19.5382 29.4479 20.1473 29.4479H32.2795C32.8886 29.4479 33.3825 29.9418 33.3825 30.5508ZM49.9264 30.5508V41.5802C49.9264 42.1892 49.4326 42.6831 48.8235 42.6831H36.6913C36.0822 42.6831 35.5883 42.1892 35.5883 41.5802V30.5508C35.5883 29.9418 36.0822 29.4479 36.6913 29.4479H48.8235C49.4326 29.4479 49.9264 29.9418 49.9264 30.5508Z" fill="#E52421"/>
</svg>
