<svg width="55" height="692" viewBox="0 0 55 692" fill="none" xmlns="http://www.w3.org/2000/svg">
<rect opacity="0.27" x="35" y="198" width="5" height="17" transform="rotate(90 35 198)" fill="url(#paint0_linear_304_14091)"/>
<rect opacity="0.53" x="55" y="395" width="5" height="37" transform="rotate(90 55 395)" fill="url(#paint1_linear_304_14091)"/>
<rect opacity="0.8" x="55" y="572" width="5" height="37" transform="rotate(90 55 572)" fill="url(#paint2_linear_304_14091)"/>
<path d="M17 2L17 8.74228e-08L13 -8.74228e-08L13 2L17 2ZM13.5858 691.414C14.3668 692.195 15.6331 692.195 16.4142 691.414L29.1421 678.686C29.9232 677.905 29.9232 676.639 29.1421 675.858C28.3611 675.077 27.0947 675.077 26.3137 675.858L15 687.172L3.68626 675.858C2.90521 675.077 1.63888 675.077 0.857835 675.858C0.0767861 676.639 0.0767861 677.905 0.857835 678.686L13.5858 691.414ZM13 2L13 690L17 690L17 2L13 2Z" fill="url(#paint3_linear_304_14091)"/>
<defs>
<linearGradient id="paint0_linear_304_14091" x1="35.0295" y1="214.998" x2="34.1209" y2="198.044" gradientUnits="userSpaceOnUse">
<stop stop-color="#888A96"/>
<stop offset="1" stop-color="#888A96" stop-opacity="0"/>
</linearGradient>
<linearGradient id="paint1_linear_304_14091" x1="55.0295" y1="431.997" x2="50.7711" y2="395.486" gradientUnits="userSpaceOnUse">
<stop stop-color="#888A96"/>
<stop offset="1" stop-color="#888A96" stop-opacity="0"/>
</linearGradient>
<linearGradient id="paint2_linear_304_14091" x1="55.0107" y1="606.84" x2="50.8885" y2="571.324" gradientUnits="userSpaceOnUse">
<stop stop-color="#888A96"/>
<stop offset="1" stop-color="#888A96" stop-opacity="0"/>
</linearGradient>
<linearGradient id="paint3_linear_304_14091" x1="14.9843" y1="690" x2="14.9896" y2="-2.05729" gradientUnits="userSpaceOnUse">
<stop stop-color="#888A96"/>
<stop offset="1" stop-color="#888A96" stop-opacity="0"/>
</linearGradient>
</defs>
</svg>
