<svg viewBox="0 0 1193 83" fill="none" xmlns="http://www.w3.org/2000/svg">
<rect opacity="0.27" x="315" y="39.9998" width="5" height="17" fill="url(#paint0_linear_99_3941)"/>
<rect opacity="0.53" x="630" y="-0.000244141" width="5" height="57" fill="url(#paint1_linear_99_3941)"/>
<rect opacity="0.8" x="945" y="-0.000244141" width="5" height="57" fill="url(#paint2_linear_99_3941)"/>
<path d="M3 56.9999L-2.62268e-07 56.9999L2.62268e-07 62.9999L3 62.9999L3 56.9999ZM1192.12 62.1211C1193.29 60.9495 1193.29 59.05 1192.12 57.8785L1173.03 38.7866C1171.86 37.615 1169.96 37.615 1168.79 38.7866C1167.62 39.9581 1167.62 41.8576 1168.79 43.0292L1185.76 59.9998L1168.79 76.9703C1167.62 78.1419 1167.62 80.0414 1168.79 81.213C1169.96 82.3846 1171.86 82.3846 1173.03 81.213L1192.12 62.1211ZM3 62.9999L1190 62.9998L1190 56.9998L3 56.9999L3 62.9999Z" fill="url(#paint3_linear_99_3941)"/>
<defs>
<linearGradient id="paint0_linear_99_3941" x1="315.029" y1="56.9982" x2="314.121" y2="40.0437" gradientUnits="userSpaceOnUse">
<stop stop-color="#888A96"/>
<stop offset="1" stop-color="#888A96" stop-opacity="0"/>
</linearGradient>
<linearGradient id="paint1_linear_99_3941" x1="630.029" y1="56.9945" x2="620.106" y2="1.76691" gradientUnits="userSpaceOnUse">
<stop stop-color="#888A96"/>
<stop offset="1" stop-color="#888A96" stop-opacity="0"/>
</linearGradient>
<linearGradient id="paint2_linear_99_3941" x1="945.011" y1="53.6728" x2="935.403" y2="-0.0611789" gradientUnits="userSpaceOnUse">
<stop stop-color="#888A96"/>
<stop offset="1" stop-color="#888A96" stop-opacity="0"/>
</linearGradient>
<linearGradient id="paint3_linear_99_3941" x1="1190" y1="60.0154" x2="-4.00001" y2="59.9998" gradientUnits="userSpaceOnUse">
<stop stop-color="#888A96"/>
<stop offset="1" stop-color="#888A96" stop-opacity="0"/>
</linearGradient>
</defs>
</svg>
