<svg width="375" height="265" viewBox="0 0 375 265" fill="none" xmlns="http://www.w3.org/2000/svg">
<rect width="375" height="265" fill="#313438"/>
<mask id="mask0_290_3234" style="mask-type:alpha" maskUnits="userSpaceOnUse" x="0" y="0" width="375" height="265">
<rect width="375" height="265" fill="#313438"/>
</mask>
<g mask="url(#mask0_290_3234)">
<g opacity="0.1">
<path d="M24.701 128.93C26.2942 128.958 27.8909 128.987 29.4841 129.008C29.8436 129.011 30.2031 129.008 30.5627 128.99C30.7142 128.983 30.8693 128.941 31.0032 128.87C31.2782 128.733 31.5425 128.571 31.8069 128.409C35.0109 126.455 38.2113 124.493 41.4153 122.539C41.8101 122.3 42.2119 122.071 42.6208 121.852C42.7053 121.807 42.8217 121.814 42.9239 121.821C43.0261 121.824 43.1283 121.845 43.227 121.874C45.0563 122.398 46.8821 122.923 48.7115 123.448C48.9089 123.504 49.1063 123.564 49.3036 123.624C49.7125 123.747 50.1249 123.719 50.5197 123.595C51.207 123.384 51.8802 123.131 52.5358 122.831C54.6577 121.849 56.5434 120.521 58.2353 118.919C60.4136 116.856 62.257 114.521 63.8185 111.965C63.8713 111.877 63.9031 111.778 63.9489 111.687C64.0158 111.549 63.9242 111.331 63.7903 111.327C63.5858 111.32 63.3814 111.303 63.177 111.306C62.2006 111.327 61.2207 111.356 60.2444 111.377C60.1422 111.377 60.04 111.349 59.9413 111.345C59.8108 111.342 59.7474 111.278 59.7685 111.144C59.7756 111.102 59.7791 111.042 59.8073 111.018C59.9201 110.915 60.0364 110.81 60.1633 110.725C61.9609 109.528 63.755 108.324 65.5597 107.141C66.2047 106.718 66.8744 106.334 67.537 105.94C68.2455 105.517 68.9998 105.19 69.7717 104.905C69.8669 104.869 69.9726 104.866 70.0713 104.838C70.1841 104.806 70.2758 104.827 70.3568 104.912C70.4167 104.975 70.4167 105.067 70.3181 105.151C70.163 105.285 69.9938 105.401 69.8281 105.521C69.5602 105.722 69.4474 105.989 69.4686 106.324C69.4792 106.514 69.6907 106.679 69.8951 106.665C70.103 106.648 70.2969 106.591 70.4872 106.507C71.379 106.109 72.2672 105.704 73.1625 105.313C73.9168 104.986 74.6746 104.665 75.4359 104.355C76.296 104.003 77.1948 103.771 78.1183 103.679C79.433 103.549 80.0498 104.324 79.9194 105.542C79.8595 106.102 79.6938 106.644 79.4718 107.169C79.2109 107.789 78.8902 108.37 78.5201 108.929C77.8962 109.877 77.1701 110.743 76.37 111.546C75.0588 112.863 73.5961 113.993 72.0381 115.004C71.9077 115.088 71.7808 115.176 71.6469 115.25C69.9409 116.208 68.3266 117.31 66.6629 118.331C63.2016 120.458 59.6452 122.419 56.0394 124.293C51.704 126.543 47.3016 128.656 42.8851 130.737C41.0699 131.592 39.2511 132.427 37.4288 133.265C35.3246 134.23 33.1956 135.128 30.9997 135.867C30.5556 136.015 30.1467 136.216 29.7555 136.473C29.0682 136.923 28.3738 137.364 27.6759 137.804C27.4574 137.941 27.2318 138.061 27.0027 138.177C26.4987 138.434 25.9982 138.357 25.5329 138.089C25.3602 137.99 25.2051 137.835 25.0852 137.673C24.8702 137.388 24.6728 137.082 24.4896 136.776C24.3204 136.497 24.0842 136.321 23.7917 136.195C21.8037 135.325 19.9744 134.18 18.1838 132.973C17.1194 132.254 16.0514 131.539 15.0609 130.715C14.9552 130.627 14.9939 130.413 15.1244 130.335C15.1667 130.31 15.2019 130.261 15.2442 130.24C16.2417 129.825 17.2357 129.409 18.2402 129.008C18.427 128.934 18.6385 128.898 18.8394 128.895C19.5585 128.884 20.281 128.898 21.0001 128.902C22.2337 128.902 23.4709 128.902 24.7046 128.902V128.93H24.701Z" fill="white"/>
<path d="M51.3339 112.077C53.7271 112.091 56.554 112.112 59.3808 112.123C60.2549 112.123 61.1291 112.098 61.9997 112.088C62.1512 112.088 62.3063 112.081 62.4544 112.151C62.546 112.193 62.6059 112.267 62.6024 112.387C62.5954 112.546 62.5108 112.676 62.4297 112.799C61.0797 114.81 59.5535 116.672 57.7947 118.345C56.2967 119.768 54.64 120.972 52.7896 121.905C52.0071 122.299 51.2034 122.627 50.3681 122.894C50.0086 123.011 49.6737 122.986 49.3142 122.88C46.8011 122.144 44.2844 121.423 41.7713 120.701C38.021 119.623 34.2742 118.549 30.5239 117.472C30.0798 117.345 29.6392 117.211 29.1986 117.077C28.9377 117 28.8532 116.679 29.0294 116.465C29.0928 116.387 29.1528 116.299 29.2233 116.229C29.403 116.046 29.5828 115.859 29.7766 115.694C30.4076 115.165 31.0843 114.704 31.8139 114.313C33.0899 113.63 34.4398 113.148 35.8462 112.827C37.3513 112.482 38.881 112.285 40.4213 112.218C43.9143 112.067 47.4073 111.954 51.3339 112.074V112.077Z" fill="white"/>
<path d="M69.0385 128.74C69.0174 129.35 68.9469 129.959 68.8094 130.557C68.753 130.807 68.4534 130.941 68.2067 130.821C68.1609 130.8 68.1115 130.783 68.0657 130.758C67.9741 130.712 67.8824 130.666 67.7943 130.617C64.6362 128.923 61.478 127.23 58.3198 125.533C58.0943 125.413 57.8828 125.272 57.6642 125.135C57.622 125.106 57.555 125.047 57.562 125.029C57.6008 124.937 57.6466 124.835 57.7171 124.772C57.8299 124.673 57.9638 124.592 58.0978 124.518C60.5193 123.184 62.9196 121.814 65.2741 120.363C65.3587 120.311 65.4609 120.279 65.5526 120.233C65.6478 120.187 65.9015 120.258 65.9685 120.356C66.1447 120.606 66.3315 120.849 66.4937 121.11C67.255 122.328 67.8859 123.61 68.3653 124.969C68.7953 126.191 68.9927 127.445 69.035 128.737L69.0385 128.74Z" fill="white"/>
<path d="M43.4916 111.397C42.8571 111.408 42.1416 111.425 41.4296 111.429C41.345 111.429 41.2534 111.362 41.1758 111.309C41.0736 111.242 41.1336 111.08 41.3098 110.943C41.8702 110.503 42.4342 110.066 42.9946 109.626C43.1991 109.464 43.4423 109.39 43.6855 109.316C43.8864 109.253 44.0837 109.27 44.2847 109.32C44.6407 109.408 44.9579 109.566 45.187 109.855C45.5007 110.256 45.8038 110.661 46.114 111.066C46.1105 111.179 46.0823 111.281 46.0012 111.32C45.9131 111.362 45.8074 111.39 45.7122 111.39C45.0002 111.397 44.2847 111.39 43.4951 111.39L43.4916 111.397Z" fill="white"/>
<path d="M70.1598 123.461C70.1493 123.668 70.1281 123.876 69.9942 124.038C69.8003 124.271 69.5888 124.489 69.3738 124.704C69.2998 124.778 69.2011 124.746 69.12 124.647C69.0883 124.609 69.046 124.573 69.0284 124.528C68.7147 123.778 68.401 123.031 68.0908 122.281C68.0238 122.119 68.1684 121.88 68.3657 121.813C68.5666 121.746 68.7676 121.735 68.9649 121.785C69.0601 121.809 69.1623 121.855 69.2328 121.922C69.61 122.274 69.8814 122.7 70.0964 123.165C70.1387 123.253 70.1422 123.362 70.1598 123.461Z" fill="white"/>
</g>
<g opacity="0.1">
<path d="M300.573 20.8153C301.888 21.9308 303.207 23.0488 304.527 24.1584C304.826 24.4078 305.129 24.6512 305.443 24.8829C305.574 24.9809 305.733 25.0518 305.894 25.0846C306.218 25.158 306.551 25.2035 306.883 25.249C310.907 25.8077 314.932 26.3581 318.956 26.9169C319.451 26.9868 319.944 27.0705 320.436 27.1678C320.539 27.1874 320.631 27.2731 320.712 27.349C320.795 27.422 320.866 27.5098 320.93 27.601C322.103 29.2944 323.273 30.9853 324.446 32.6787C324.572 32.8612 324.697 33.0466 324.821 33.232C325.079 33.6155 325.444 33.8746 325.859 34.0419C326.58 34.336 327.318 34.585 328.072 34.7836C330.523 35.4149 333.013 35.5952 335.528 35.4125C338.767 35.1768 341.912 34.4845 344.972 33.413C345.077 33.3755 345.171 33.3146 345.272 33.2693C345.422 33.2002 345.495 32.9544 345.385 32.8597C345.219 32.7137 345.06 32.5588 344.886 32.4216C344.054 31.7702 343.213 31.1222 342.381 30.4707C342.295 30.4006 342.229 30.307 342.149 30.2364C342.042 30.144 342.032 30.0474 342.142 29.9498C342.176 29.9193 342.22 29.8716 342.261 29.8702C342.425 29.862 342.595 29.8532 342.759 29.8694C345.086 30.0985 347.414 30.3192 349.737 30.5649C350.567 30.653 351.391 30.7905 352.217 30.9142C353.1 31.0458 353.956 31.2884 354.798 31.5786C354.902 31.6143 354.993 31.6838 355.095 31.7279C355.212 31.7786 355.274 31.8591 355.284 31.9855C355.291 32.0797 355.228 32.1564 355.087 32.1595C354.866 32.1653 354.644 32.1467 354.423 32.1335C354.061 32.118 353.783 32.2649 353.572 32.5596C353.45 32.7262 353.514 33.0098 353.695 33.1381C353.881 33.2659 354.082 33.3516 354.3 33.4112C355.32 33.6891 356.341 33.9586 357.359 34.2448C358.216 34.4874 359.07 34.7384 359.92 35.0006C360.882 35.295 361.794 35.7164 362.631 36.2726C363.821 37.0646 363.807 38.1363 362.863 39.0676C362.429 39.4956 361.919 39.8364 361.373 40.1237C360.73 40.4642 360.063 40.7311 359.369 40.9464C358.197 41.3124 356.995 41.5404 355.775 41.6646C353.773 41.8693 351.773 41.8136 349.775 41.5925C349.608 41.5739 349.442 41.5607 349.279 41.5308C347.193 41.164 345.085 40.9809 342.992 40.6961C338.634 40.1056 334.31 39.3111 330.006 38.4092C324.831 37.3227 319.695 36.0754 314.569 34.7918C312.462 34.2645 310.366 33.7171 308.265 33.1702C305.841 32.5363 303.442 31.8293 301.095 30.9438C300.622 30.7633 300.142 30.6512 299.638 30.5984C298.753 30.5049 297.87 30.3978 296.983 30.2882C296.706 30.2534 296.435 30.1991 296.163 30.1395C295.565 30.0093 295.199 29.6014 294.992 29.0583C294.915 28.8573 294.892 28.6212 294.902 28.4034C294.918 28.0171 294.962 27.6251 295.019 27.2429C295.068 26.8939 294.99 26.5845 294.832 26.2778C293.763 24.1866 293.015 21.9741 292.342 19.735C291.943 18.4036 291.538 17.0728 291.273 15.7037C291.245 15.5574 291.425 15.4041 291.587 15.4285C291.639 15.4369 291.703 15.4197 291.753 15.431C292.873 15.7666 293.99 16.0998 295.107 16.452C295.314 16.5181 295.516 16.6335 295.686 16.7683C296.296 17.2522 296.892 17.7593 297.492 18.2551C298.525 19.1006 299.562 19.9485 300.595 20.7941L300.576 20.8177L300.573 20.8153Z" fill="white"/>
<path d="M334.435 24.9507C336.43 26.6028 338.784 28.558 341.145 30.5043C341.877 31.1034 342.626 31.6819 343.363 32.2698C343.49 32.3737 343.625 32.4741 343.701 32.6345C343.748 32.7327 343.748 32.8358 343.663 32.9336C343.548 33.0616 343.388 33.1127 343.236 33.1604C340.727 33.9196 338.171 34.4341 335.552 34.6298C333.322 34.7949 331.108 34.6684 328.919 34.1818C327.993 33.9759 327.095 33.6994 326.212 33.3511C325.831 33.202 325.567 32.9519 325.338 32.617C323.737 30.2779 322.124 27.9483 320.513 25.6211C318.11 22.1479 315.707 18.6802 313.304 15.2071C313.018 14.7965 312.741 14.3824 312.464 13.9683C312.298 13.7247 312.447 13.3982 312.742 13.3391C312.848 13.3177 312.959 13.285 313.066 13.2743C313.342 13.2441 313.621 13.211 313.896 13.2052C314.787 13.1951 315.67 13.2725 316.549 13.4451C318.086 13.7473 319.548 14.2685 320.946 14.9639C322.443 15.7064 323.86 16.5896 325.196 17.5893C328.226 19.8565 331.23 22.1562 334.437 24.9477L334.435 24.9507Z" fill="white"/>
<path d="M337.848 51.0454C337.412 51.5413 336.936 52.0033 336.41 52.4106C336.192 52.5814 335.849 52.4881 335.724 52.2187C335.701 52.1696 335.671 52.121 335.65 52.069C335.604 51.9678 335.559 51.8667 335.519 51.765C334.034 48.1815 332.549 44.5979 331.067 41.0115C330.96 40.7566 330.879 40.4936 330.79 40.2288C330.774 40.1762 330.759 40.0802 330.777 40.0702C330.872 40.0201 330.98 39.966 331.083 39.9612C331.245 39.9559 331.413 39.9798 331.576 40.0097C334.519 40.5513 337.469 41.0489 340.436 41.4473C340.543 41.461 340.65 41.5045 340.758 41.529C340.869 41.5559 341.034 41.7888 341.022 41.9173C340.998 42.2476 340.988 42.5791 340.946 42.9086C340.748 44.4511 340.398 45.9573 339.868 47.4246C339.391 48.7429 338.697 49.9284 337.847 51.04L337.848 51.0454Z" fill="white"/>
<path d="M328.331 19.0055C327.792 18.5795 327.181 18.1038 326.582 17.6188C326.511 17.5608 326.48 17.4419 326.451 17.3445C326.412 17.2184 326.573 17.1238 326.815 17.1296C327.586 17.1449 328.358 17.1657 329.129 17.181C329.411 17.1854 329.666 17.2902 329.92 17.3949C330.132 17.4795 330.285 17.6296 330.42 17.8086C330.657 18.1263 330.815 18.4765 330.809 18.8754C330.796 19.4267 330.773 19.9737 330.755 20.5256C330.675 20.6175 330.581 20.6838 330.487 20.6607C330.384 20.6357 330.276 20.5868 330.196 20.5216C329.595 20.0395 329 19.5432 328.339 19.002L328.331 19.0055Z" fill="white"/>
<path d="M342.404 47.3916C342.253 47.5584 342.093 47.7179 341.869 47.7618C341.548 47.8237 341.221 47.8616 340.894 47.8942C340.781 47.9054 340.72 47.8112 340.72 47.6731C340.72 47.6189 340.708 47.5604 340.725 47.51C340.976 46.6666 341.225 45.8262 341.479 44.9853C341.534 44.8037 341.819 44.7021 342.031 44.7813C342.245 44.863 342.42 44.9919 342.552 45.1684C342.615 45.2543 342.669 45.3627 342.682 45.4671C342.757 46.0206 342.692 46.5636 342.554 47.1003C342.529 47.2031 342.457 47.2969 342.404 47.3916Z" fill="white"/>
</g>
<g opacity="0.1">
<path d="M307.937 265C299.554 265 291.172 265 282.786 265C282.224 265 281.658 265 281.096 264.991C280.402 264.982 279.729 264.866 279.064 264.663C278.687 264.546 278.399 264.3 278.241 263.946C278.112 263.661 278.005 263.358 277.953 263.052C277.885 262.62 277.863 262.175 277.846 261.734C277.79 260.408 277.602 259.099 277.43 257.786C277.25 256.396 276.791 255.095 275.917 253.972C275.299 253.178 274.759 252.335 274.343 251.407C274.107 250.875 274.013 250.327 274 249.757C273.987 249.135 274.498 248.5 275.089 248.392C275.334 248.349 275.582 248.305 275.831 248.284C276.08 248.262 276.333 248.271 276.581 248.271C279.711 248.271 282.837 248.271 285.967 248.275C286.28 248.275 286.593 248.284 286.902 248.314C287.656 248.392 288.167 248.815 288.45 249.51C288.544 249.739 288.612 249.99 288.647 250.236C288.707 250.672 288.728 251.113 288.767 251.553C288.797 251.869 288.81 252.184 288.861 252.495C289.028 253.489 289.307 253.683 290.147 253.886C290.448 253.959 290.765 253.99 291.074 254.003C291.824 254.029 292.574 254.041 293.325 254.033C297.076 253.99 300.832 253.959 304.584 253.882C309.712 253.774 314.84 253.735 319.972 253.7C321.348 253.692 322.725 253.657 324.101 253.648C325.357 253.644 326.592 253.454 327.831 253.281C328.209 253.229 328.543 253.052 328.882 252.893C329.113 252.785 329.293 252.603 329.439 252.396C329.619 252.141 329.795 251.877 329.949 251.605C330.661 250.348 331.36 249.083 331.965 247.765C332.093 247.48 332.239 247.195 332.423 246.949C332.612 246.699 332.856 246.495 333.191 246.448C333.375 246.422 333.56 246.383 333.748 246.366C333.937 246.349 334.121 246.349 334.31 246.349C339.627 246.349 344.943 246.349 350.264 246.349C350.642 246.349 351.015 246.349 351.383 246.452C351.701 246.539 351.936 246.724 352.116 246.997C352.224 247.161 352.275 247.342 352.292 247.528C352.344 248.102 352.241 248.655 351.975 249.174C351.889 249.346 351.756 249.485 351.555 249.502C351.246 249.528 350.933 249.536 350.62 249.536C349.055 249.536 347.49 249.536 345.929 249.536C345.681 249.536 345.428 249.545 345.183 249.584C345.072 249.601 344.926 249.692 344.888 249.787C344.737 250.141 344.746 250.517 344.862 250.88C344.892 250.979 345.038 251.078 345.145 251.1C345.385 251.152 345.638 251.178 345.887 251.182C347.387 251.191 348.888 251.191 350.393 251.199C350.577 251.199 350.762 251.243 350.937 251.286C350.98 251.294 351.023 251.381 351.036 251.441C351.057 251.558 351.096 251.696 351.057 251.8C350.187 253.972 349.077 256.007 347.644 257.855C347.22 258.4 346.766 258.922 346.285 259.419C345.145 260.594 343.889 261.631 342.559 262.581C341.217 263.544 339.725 264.166 338.126 264.538C338.006 264.568 337.882 264.598 337.757 264.611C336.45 264.741 335.15 264.957 333.834 264.97C332.959 264.978 332.08 264.995 331.206 264.995C323.449 264.995 315.693 265 307.937 265ZM321.203 256.922C321.271 256.404 320.894 255.903 320.384 255.882C319.762 255.851 319.488 256.115 319.372 256.737C319.29 257.169 319.805 257.717 320.289 257.722C320.692 257.726 321.151 257.329 321.203 256.922ZM326.884 256.827C326.916 256.461 326.729 256.162 326.438 255.998C325.988 255.752 325.263 255.825 325.079 256.504C325.006 256.763 325.023 256.996 325.156 257.221C325.503 257.812 326.224 257.912 326.691 257.298C326.798 257.156 326.866 257.026 326.884 256.827ZM314.647 255.882C314.21 255.873 313.991 256.011 313.789 256.46C313.738 256.573 313.699 256.702 313.704 256.823C313.717 257.203 314.137 257.648 314.527 257.735C314.737 257.782 315.333 257.514 315.453 257.212C315.607 256.819 315.547 256.478 315.316 256.158C315.247 256.067 315.123 256.002 315.011 255.955C314.9 255.912 314.771 255.907 314.647 255.882ZM309.901 256.931C309.901 256.629 309.836 256.391 309.695 256.175C309.66 256.123 309.618 256.072 309.566 256.041C309.219 255.847 308.85 255.795 308.503 256.002C308.224 256.167 308.083 256.452 308.048 256.78C308.04 256.84 308.044 256.91 308.07 256.957C308.16 257.121 308.237 257.303 308.366 257.428C308.781 257.821 309.202 257.851 309.673 257.385C309.798 257.264 309.84 257.061 309.901 256.931ZM304.241 256.745C304.215 256.624 304.189 256.491 304.155 256.374C304.095 256.184 303.962 256.059 303.786 255.977C303.731 255.951 303.671 255.929 303.611 255.916C303.135 255.791 302.727 255.964 302.513 256.387C302.299 256.797 302.41 257.225 302.822 257.536C302.972 257.648 303.143 257.726 303.336 257.73C303.825 257.743 304.279 257.242 304.241 256.745ZM297.694 255.877C297.333 255.907 297.059 256.015 296.896 256.326C296.806 256.495 296.72 256.663 296.742 256.858C296.793 257.268 297.196 257.657 297.616 257.722C297.947 257.773 298.538 257.419 298.568 256.996C298.577 256.871 298.59 256.745 298.573 256.624C298.508 256.158 298.144 255.869 297.694 255.877Z" fill="white"/>
<path d="M290.096 239.749C293.097 239.749 296.095 239.749 299.096 239.749C299.409 239.749 299.722 239.767 300.031 239.801C300.678 239.875 301.283 240.453 301.45 241.14C301.488 241.291 301.313 241.52 301.162 241.542C300.416 241.637 299.666 241.564 298.916 241.594C298.731 241.602 298.538 241.607 298.371 241.667C298.273 241.702 298.157 241.836 298.144 241.935C298.054 242.687 298.054 243.438 298.144 244.19C298.161 244.328 298.384 244.522 298.538 244.527C299.413 244.548 300.288 244.566 301.158 244.587C301.287 244.587 301.497 244.829 301.506 244.976C301.506 245.041 301.523 245.101 301.523 245.166C301.523 246.928 301.523 248.691 301.523 250.453C301.523 250.639 301.501 250.833 301.458 251.014C301.33 251.541 300.802 252.107 300.348 252.198C300.103 252.245 299.855 252.306 299.606 252.31C296.858 252.345 294.105 252.397 291.361 252.181C290.816 252.137 290.328 251.671 290.238 251.083C290.092 250.15 289.937 249.218 289.895 248.272C289.882 248.021 289.839 247.771 289.8 247.524C289.766 247.291 289.389 246.946 289.157 246.894C288.724 246.799 288.291 246.79 287.854 246.79C286.04 246.79 284.231 246.79 282.417 246.79C281.791 246.79 281.165 246.79 280.543 246.777C280.29 246.773 280.055 246.686 279.819 246.6C279.24 246.384 278.897 245.943 278.76 245.369C278.61 244.756 278.622 244.121 278.76 243.499C278.781 243.399 278.901 243.283 279.004 243.248C279.176 243.188 279.364 243.166 279.549 243.157C280.419 243.123 281.298 243.209 282.164 243.093C282.258 243.08 282.383 242.937 282.404 242.838C282.468 242.531 282.477 242.207 282.383 241.905C282.348 241.801 282.237 241.676 282.138 241.654C281.898 241.602 281.65 241.594 281.401 241.585C280.65 241.568 279.904 241.559 279.154 241.542C278.91 241.538 278.764 241.253 278.837 240.998C278.965 240.544 279.244 240.22 279.643 240.009C279.862 239.896 280.106 239.801 280.346 239.775C280.779 239.732 281.221 239.736 281.658 239.736C284.471 239.736 287.283 239.736 290.096 239.736V239.745V239.749ZM295.059 243.148C295.248 243.139 295.674 243.14 296.039 243.097C296.133 243.084 296.262 242.95 296.283 242.851C296.347 242.548 296.339 242.237 296.279 241.931C296.253 241.801 296.03 241.611 295.88 241.611C295.207 241.611 294.534 241.611 293.861 241.62C293.801 241.62 293.728 241.62 293.681 241.654C293.586 241.728 293.462 241.805 293.432 241.909C293.342 242.207 293.346 242.522 293.415 242.825C293.436 242.924 293.561 243.036 293.663 243.071C294.079 243.205 294.455 243.135 295.059 243.148ZM290.259 243.166C290.684 243.149 291.057 243.144 291.421 243.11C291.524 243.097 291.683 243.002 291.708 242.911C291.815 242.553 291.82 242.181 291.687 241.827C291.653 241.736 291.502 241.633 291.4 241.628C290.662 241.572 289.925 241.559 289.187 241.637C289.063 241.65 288.848 241.879 288.844 242.017C288.84 242.263 288.831 242.514 288.836 242.76C288.836 242.903 289.05 243.097 289.204 243.106C289.573 243.127 289.925 243.149 290.238 243.166H290.259ZM285.748 243.166C286.134 243.149 286.507 243.14 286.872 243.101C286.979 243.088 287.133 242.998 287.163 242.911C287.283 242.557 287.279 242.186 287.146 241.831C287.112 241.741 286.962 241.646 286.855 241.633C286.117 241.564 285.38 241.564 284.642 241.633C284.522 241.641 284.308 241.879 284.304 242.017C284.295 242.263 284.295 242.514 284.295 242.76C284.295 242.903 284.509 243.106 284.659 243.11C285.028 243.127 285.397 243.144 285.748 243.166Z" fill="white"/>
<path d="M288.792 238.518C286.794 238.518 284.792 238.509 282.794 238.509C282.545 238.509 282.301 238.293 282.284 238.069C282.28 238.008 282.25 237.943 282.254 237.883C282.258 236.501 282.262 235.118 282.275 233.732C282.275 233.46 282.468 233.27 282.734 233.253C283.043 233.231 283.356 233.218 283.669 233.196C283.827 233.183 284.012 233.006 284.05 232.838C284.093 232.652 284.098 232.471 284.02 232.294C283.969 232.168 283.883 232.091 283.755 232.043C283.45 231.935 283.137 231.987 282.828 231.97C282.395 231.948 282.215 231.628 282.37 231.175C282.593 230.501 283.098 230.177 283.75 230.052C283.995 230.004 284.248 230 284.496 230C287.429 230 290.366 230 293.299 230C293.607 230 293.925 230.017 294.229 230.082C294.812 230.207 295.241 230.553 295.464 231.127C295.507 231.24 295.52 231.369 295.528 231.495C295.541 231.676 295.374 231.883 295.232 231.913C294.739 232.021 294.238 231.948 293.74 231.974C293.556 231.983 293.367 232.004 293.183 232.013C293.05 232.021 292.814 232.246 292.806 232.371C292.776 232.872 292.741 233.373 292.814 233.874C292.849 234.095 293.08 234.311 293.329 234.315C293.95 234.328 294.576 234.341 295.198 234.358C295.331 234.358 295.545 234.592 295.55 234.738C295.593 235.87 295.623 236.997 295.533 238.129C295.524 238.254 295.288 238.488 295.16 238.492C294.847 238.501 294.538 238.518 294.225 238.518C292.416 238.518 290.606 238.518 288.792 238.518ZM290.499 233.218C290.387 233.222 290.692 233.222 290.992 233.179C291.095 233.166 291.228 233.067 291.275 232.972C291.382 232.747 291.374 232.492 291.292 232.263C291.258 232.168 291.125 232.065 291.018 232.043C290.478 231.922 289.929 231.957 289.384 232.017C289.286 232.03 289.174 232.142 289.118 232.242C289.063 232.341 289.054 232.475 289.05 232.592C289.037 232.954 289.243 233.214 289.534 233.218C289.719 233.218 289.899 233.218 290.499 233.218ZM286.074 233.218C286.64 233.218 286.884 233.218 287.129 233.218C287.189 233.218 287.249 233.205 287.309 233.205C287.429 233.201 287.635 232.976 287.643 232.825C287.652 232.704 287.652 232.583 287.656 232.458C287.656 232.22 287.433 232.004 287.206 231.991C286.722 231.965 286.233 231.948 285.748 232.017C285.624 232.034 285.41 232.242 285.401 232.384C285.392 232.505 285.392 232.626 285.392 232.751C285.397 232.989 285.611 233.201 285.851 233.209C286.036 233.218 286.216 233.227 286.074 233.218Z" fill="white"/>
<path d="M314.042 248.413C312.919 248.413 311.796 248.409 310.672 248.409C310.424 248.409 310.179 248.366 309.931 248.348C309.819 248.34 309.553 248.085 309.545 247.981C309.54 247.921 309.519 247.856 309.519 247.795C309.519 246.288 309.519 244.785 309.528 243.277C309.528 242.984 309.832 242.711 310.145 242.699C310.269 242.694 310.394 242.69 310.518 242.686C310.582 242.686 310.642 242.686 310.707 242.686C312.889 242.686 315.067 242.686 317.25 242.686C317.498 242.686 317.747 242.724 317.991 242.746C318.124 242.759 318.343 242.988 318.356 243.122C318.36 243.182 318.386 243.247 318.386 243.308C318.386 244.815 318.386 246.318 318.386 247.826C318.386 248.141 318.116 248.387 317.781 248.396C317.533 248.404 317.284 248.413 317.035 248.413C316.036 248.413 315.041 248.413 314.042 248.413Z" fill="white"/>
<path d="M323.72 241.628C322.408 241.606 321.1 241.597 319.788 241.559C319.689 241.559 319.582 241.42 319.501 241.33C319.466 241.291 319.466 241.209 319.462 241.148C319.376 239.576 319.389 238.008 319.453 236.436C319.462 236.194 319.698 235.935 319.916 235.926C320.289 235.913 320.667 235.892 321.04 235.892C322.913 235.892 324.787 235.887 326.661 235.892C327.034 235.892 327.407 235.917 327.784 235.93C327.926 235.935 328.162 236.151 328.179 236.276C328.187 236.336 328.213 236.401 328.213 236.462C328.247 238.034 328.273 239.606 328.196 241.174C328.187 241.308 327.964 241.55 327.84 241.559C327.591 241.576 327.343 241.606 327.094 241.606C325.971 241.61 324.847 241.628 323.72 241.628Z" fill="white"/>
<path d="M333.62 241.61C333.62 241.61 331.004 241.593 329.692 241.567C329.555 241.567 329.328 241.338 329.315 241.204C329.31 241.144 329.289 241.079 329.289 241.018C329.289 239.511 329.289 237.999 329.293 236.492C329.293 236.431 329.323 236.371 329.328 236.306C329.345 236.176 329.576 235.947 329.701 235.934C329.825 235.921 329.949 235.896 330.074 235.896C332.509 235.896 334.944 235.896 337.38 235.9C337.5 235.9 337.633 235.917 337.736 235.973C337.839 236.025 337.95 236.124 337.989 236.228C338.122 236.587 338.087 236.971 338.083 237.347C338.074 238.604 338.057 239.861 338.044 241.118C338.044 241.342 337.791 241.571 337.551 241.58C337.238 241.588 336.93 241.606 336.617 241.61C335.618 241.61 334.619 241.61 333.62 241.61Z" fill="white"/>
<path d="M323.865 248.414C322.678 248.414 321.49 248.41 320.306 248.41C320.182 248.41 320.058 248.392 319.933 248.384C319.702 248.371 319.462 248.137 319.453 247.9C319.436 247.274 319.415 246.643 319.41 246.017C319.406 245.2 319.41 244.38 319.419 243.563C319.419 243.378 319.453 243.183 319.518 243.01C319.556 242.907 319.685 242.833 319.779 242.76C319.826 242.725 319.895 242.721 319.955 242.721C322.515 242.717 325.074 242.708 327.634 242.708C327.973 242.708 328.209 242.954 328.213 243.304C328.213 244.812 328.213 246.323 328.213 247.831C328.213 248.168 327.973 248.384 327.613 248.397C327.424 248.401 327.24 248.414 327.051 248.414C325.988 248.414 324.929 248.414 323.865 248.414Z" fill="white"/>
<path d="M334.606 244.919C334.606 244.919 332.908 244.854 331.973 244.98C331.87 244.993 331.75 245.096 331.69 245.191C331.63 245.291 331.635 245.433 331.609 245.554C331.553 245.8 331.532 246.06 331.433 246.284C331.18 246.859 330.897 247.42 330.61 247.977C330.43 248.327 330.155 248.427 329.649 248.357C329.504 248.336 329.294 248.12 329.289 247.982C329.276 247.416 329.259 246.85 329.259 246.284C329.259 245.278 329.276 244.271 329.289 243.265C329.294 242.937 329.547 242.716 329.907 242.708C330.22 242.699 330.533 242.69 330.841 242.69C331.652 242.69 332.466 242.69 333.277 242.69C334.589 242.69 335.901 242.69 337.213 242.69C337.393 242.69 337.577 242.738 337.753 242.785C337.886 242.82 337.967 242.924 337.993 243.045C338.096 243.541 338.135 244.038 337.989 244.535C337.955 244.656 337.71 244.88 337.586 244.885C337.024 244.898 334.606 244.919 334.606 244.919Z" fill="white"/>
<path d="M313.755 252.293C312.696 252.306 311.641 252.314 310.582 252.323C310.398 252.323 310.213 252.301 310.025 252.284C309.81 252.267 309.544 252.003 309.527 251.796C309.476 251.17 309.459 250.543 309.553 249.922C309.57 249.809 309.814 249.563 309.93 249.546C310.055 249.528 310.175 249.49 310.299 249.49C312.73 249.485 315.157 249.485 317.588 249.49C317.712 249.49 317.832 249.52 317.957 249.537C318.09 249.55 318.334 249.77 318.351 249.887C318.445 250.513 318.42 251.135 318.377 251.766C318.36 251.978 318.115 252.206 317.867 252.215C316.872 252.237 315.873 252.258 314.878 252.276C314.505 252.28 314.132 252.293 313.755 252.293Z" fill="white"/>
<path d="M322.545 252.18C321.67 252.18 320.796 252.18 319.921 252.18C319.685 252.18 319.466 251.942 319.445 251.7C319.398 251.134 319.385 250.573 319.449 250.007C319.475 249.774 319.702 249.528 319.929 249.519C320.178 249.506 320.427 249.489 320.68 249.484C322.056 249.484 323.428 249.476 324.805 249.484C325.804 249.489 326.803 249.51 327.802 249.528C327.934 249.528 328.17 249.756 328.179 249.89C328.183 249.951 328.217 250.011 328.217 250.076C328.226 250.391 328.235 250.707 328.226 251.018C328.217 251.471 327.99 251.735 327.579 251.795C326.155 252.003 324.727 252.171 323.287 252.162C323.038 252.162 322.794 252.18 322.545 252.18Z" fill="white"/>
<path d="M343.541 242.686C344.725 242.686 345.908 242.686 347.091 242.686C347.276 242.686 347.469 242.707 347.64 242.764C347.747 242.798 347.885 242.902 347.91 243.001C348.035 243.489 348.06 243.99 347.936 244.487C347.906 244.612 347.675 244.846 347.554 244.859C347.43 244.871 347.31 244.906 347.186 244.906C344.759 244.906 342.328 244.906 339.901 244.906C339.777 244.906 339.652 244.876 339.532 244.863C339.408 244.85 339.181 244.617 339.155 244.491C339.048 243.99 339.065 243.494 339.181 243.001C339.202 242.902 339.335 242.781 339.438 242.755C339.678 242.699 339.931 242.682 340.175 242.677C341.295 242.669 342.422 242.686 343.541 242.686Z" fill="white"/>
</g>
</g>
</svg>
