<svg viewBox="0 0 375 1239" fill="none" xmlns="http://www.w3.org/2000/svg">
<mask id="mask0_290_3020" style="mask-type:alpha" maskUnits="userSpaceOnUse" x="0" y="0" width="375" height="1239">
<rect width="375" height="1239" fill="#313438"/>
</mask>
<g mask="url(#mask0_290_3020)">
<path opacity="0.5" d="M62.8337 110.317C63.6326 107.891 63.0086 105.197 60.9643 103.636C59.7165 102.706 58.4358 101.826 57.1124 101.033L55.6655 100.187C54.2956 99.4205 52.8696 98.7179 51.4242 98.0889C49.0775 97.0773 46.42 97.8352 44.7355 99.7447L39.444 105.704C35.7753 105.083 31.9508 105.051 28.2273 105.678L22.9047 99.7168C21.2108 97.7976 18.543 97.0341 16.2133 98.0388C14.5604 98.7143 12.9516 99.5202 11.3735 100.433L11.2111 100.527C9.633 101.44 8.13201 102.433 6.70812 103.506C4.67485 105.025 4.01437 107.745 4.81289 110.15L7.31771 117.772C4.90478 120.727 3.03005 124.024 1.73246 127.518L-6.07461 129.166C-8.56742 129.673 -10.5513 131.599 -10.8502 134.141C-11.0293 135.71 -11.135 137.298 -11.1808 138.883L-11.163 140.525C-11.1391 142.07 -11.0187 143.621 -10.825 145.192C-10.5116 147.723 -8.52801 149.662 -6.01807 150.205L1.80144 151.854C2.44881 153.568 3.25263 155.285 4.20917 156.944C5.1657 158.604 6.24801 160.16 7.41941 161.602L4.93496 169.211C4.13601 171.637 4.81998 174.327 6.86421 175.888C8.11201 176.818 9.39275 177.698 10.7296 178.515L12.1264 179.328C13.5097 180.117 14.9222 180.797 16.3909 181.412C18.7376 182.424 21.3951 181.666 23.0796 179.756L28.3711 173.797C32.0398 174.418 35.8643 174.45 39.5878 173.823L44.9238 179.808C46.6177 181.727 49.2856 182.49 51.6152 181.486C53.2779 180.773 54.9099 179.954 56.5112 179.028C58.1125 178.102 59.6367 177.095 61.0837 176.009C63.117 174.49 63.7775 171.77 62.979 169.364L60.4742 161.742C62.8871 158.788 64.7618 155.49 66.0594 151.997L73.8567 150.386C76.3496 149.879 78.3335 147.952 78.6324 145.41C78.8114 143.841 78.9306 142.276 78.9397 140.681L78.9316 139.003C78.9078 137.458 78.7874 135.907 78.6071 134.359C78.2937 131.828 76.3101 129.89 73.8002 129.347L65.9807 127.698C65.3199 125.96 64.516 124.243 63.5595 122.584C62.603 120.924 61.5207 119.368 60.3493 117.926L62.8337 110.317ZM22.7749 146.206C21.0598 143.229 20.5885 139.696 21.4648 136.384C22.3411 133.071 24.4932 130.25 27.4475 128.541C30.4019 126.832 33.9166 126.375 37.2184 127.271C40.5202 128.167 43.3386 130.343 45.0537 133.319C46.7688 136.295 47.24 139.828 46.3637 143.141C45.4874 146.454 43.3354 149.275 40.381 150.984C37.4267 152.693 33.912 153.149 30.6102 152.253C27.3084 151.357 24.4899 149.182 22.7749 146.206Z" fill="#23262D"/>
<path opacity="0.5" d="M437.284 -25.6984C439.652 -32.8873 437.802 -40.87 431.745 -45.4947C428.047 -48.2515 424.252 -50.8595 420.33 -53.2096L416.042 -55.7175C411.983 -57.9881 407.757 -60.07 403.474 -61.9339C396.519 -64.9316 388.644 -62.6857 383.652 -57.0272L367.972 -39.3666C357.1 -41.2067 345.767 -41.3019 334.733 -39.4458L318.96 -57.11C313.94 -62.7971 306.034 -65.0597 299.13 -62.0825C294.232 -60.0806 289.465 -57.6925 284.788 -54.9875L284.307 -54.709C279.631 -52.0041 275.183 -49.0617 270.963 -45.8821C264.938 -41.3808 262.98 -33.3208 265.347 -26.1914L272.769 -3.60474C265.619 5.14981 260.064 14.9216 256.218 25.2745L233.083 30.1584C225.696 31.6602 219.817 37.37 218.931 44.9026C218.4 49.551 218.087 54.2584 217.952 58.9554L218.004 63.8206C218.075 68.3983 218.432 72.9953 219.006 77.6513C219.935 85.1503 225.813 90.8951 233.251 92.5046L256.423 97.3908C258.341 102.47 260.723 107.558 263.558 112.477C266.392 117.396 269.6 122.007 273.071 126.28L265.709 148.828C263.341 156.017 265.368 163.989 271.426 168.614C275.123 171.371 278.919 173.979 282.88 176.398L287.019 178.807C291.119 181.147 295.305 183.16 299.657 184.984C306.611 187.982 314.486 185.736 319.478 180.077L335.158 162.417C346.03 164.257 357.364 164.352 368.398 162.496L384.211 180.229C389.23 185.917 397.136 188.179 404.04 185.202C408.967 183.091 413.803 180.663 418.548 177.918C423.293 175.174 427.81 172.191 432.098 168.972C438.124 164.471 440.081 156.411 437.715 149.281L430.292 126.695C437.442 117.94 442.998 108.168 446.843 97.8154L469.95 93.0406C477.337 91.5388 483.216 85.8289 484.102 78.2963C484.632 73.648 484.985 69.0099 485.012 64.2833L484.988 59.3091C484.918 54.7314 484.561 50.1344 484.027 45.5477C483.098 38.0487 477.22 32.3039 469.782 30.6944L446.61 25.8082C444.652 20.6596 442.27 15.5715 439.435 10.6527C436.6 5.7339 433.393 1.12308 429.922 -3.1503L437.284 -25.6984ZM318.575 80.6537C313.492 71.8343 312.096 61.3644 314.693 51.5473C317.29 41.7301 323.667 33.37 332.422 28.306C341.177 23.2419 351.592 21.8888 361.376 24.5443C371.161 27.1998 379.513 33.6463 384.595 42.4657C389.678 51.2852 391.074 61.7551 388.477 71.5722C385.881 81.3893 379.503 89.7494 370.748 94.8135C361.994 99.8775 351.578 101.231 341.794 98.5752C332.009 95.9197 323.657 89.4731 318.575 80.6537Z" fill="#23262D"/>
<path opacity="0.5" d="M408.474 700.065C409.643 696.517 408.73 692.577 405.74 690.294C403.915 688.933 402.041 687.646 400.105 686.486L397.989 685.248C395.985 684.127 393.9 683.1 391.785 682.18C388.353 680.7 384.466 681.809 382.002 684.602L374.262 693.319C368.896 692.411 363.302 692.364 357.855 693.28L350.07 684.561C347.592 681.754 343.69 680.637 340.283 682.107C337.865 683.095 335.512 684.273 333.203 685.609L332.966 685.746C330.658 687.081 328.462 688.533 326.379 690.103C323.405 692.325 322.439 696.303 323.607 699.822L327.271 710.971C323.742 715.292 320.999 720.115 319.101 725.225L307.682 727.636C304.036 728.377 301.134 731.195 300.697 734.913C300.435 737.208 300.28 739.531 300.213 741.85L300.239 744.251C300.274 746.511 300.45 748.78 300.734 751.078C301.192 754.779 304.094 757.615 307.765 758.409L319.202 760.821C320.149 763.328 321.325 765.84 322.724 768.268C324.123 770.695 325.706 772.971 327.42 775.081L323.786 786.21C322.617 789.759 323.618 793.694 326.608 795.976C328.433 797.337 330.306 798.624 332.262 799.819L334.305 801.008C336.328 802.163 338.394 803.156 340.542 804.056C343.975 805.536 347.862 804.428 350.326 801.635L358.066 792.917C363.432 793.826 369.026 793.873 374.472 792.956L382.277 801.71C384.755 804.517 388.657 805.633 392.065 804.164C394.497 803.122 396.884 801.924 399.226 800.569C401.568 799.214 403.798 797.742 405.914 796.153C408.888 793.931 409.855 789.953 408.687 786.434L405.023 775.285C408.552 770.964 411.294 766.141 413.192 761.031L424.597 758.674C428.244 757.933 431.145 755.114 431.583 751.396C431.845 749.102 432.019 746.813 432.032 744.48L432.02 742.024C431.986 739.765 431.809 737.496 431.546 735.232C431.087 731.53 428.186 728.695 424.515 727.9L413.077 725.489C412.111 722.947 410.935 720.436 409.536 718.008C408.137 715.58 406.553 713.304 404.84 711.195L408.474 700.065ZM349.88 752.56C347.371 748.207 346.682 743.039 347.964 738.193C349.246 733.348 352.393 729.221 356.715 726.722C361.036 724.222 366.177 723.554 371.007 724.865C375.836 726.175 379.959 729.357 382.467 733.711C384.976 738.064 385.665 743.232 384.383 748.077C383.102 752.923 379.954 757.049 375.633 759.549C371.311 762.049 366.17 762.716 361.341 761.406C356.511 760.095 352.389 756.913 349.88 752.56Z" fill="#23262D"/>
<path opacity="0.5" d="M379.704 1186.41C383.448 1183.07 385.036 1177.87 383.095 1173.21C381.889 1170.4 380.577 1167.65 379.107 1165L377.479 1162.14C375.904 1159.49 374.17 1156.89 372.332 1154.4C369.337 1150.37 364.074 1149.05 359.332 1150.64L344.476 1155.56C338.85 1150.9 332.38 1147.09 325.434 1144.49L322.247 1129.12C321.254 1124.19 317.47 1120.27 312.521 1119.69C309.047 1119.21 305.519 1119 301.939 1119H301.57C297.99 1119 294.462 1119.21 290.986 1119.64C286.036 1120.22 282.238 1124.19 281.23 1129.07L277.993 1144.49C270.986 1147.14 264.557 1150.9 258.915 1155.56L244.022 1150.69C239.286 1149.1 234.019 1150.42 231.011 1154.45C229.164 1156.94 227.422 1159.54 225.786 1162.19L224.202 1165C222.723 1167.65 221.402 1170.4 220.187 1173.26C218.231 1177.87 219.697 1183.12 223.43 1186.51L235.102 1197C234.517 1200.55 234.195 1204.26 234.189 1208.03C234.183 1211.79 234.493 1215.5 235.066 1219.1L223.36 1229.59C219.617 1232.93 218.134 1238.18 220.075 1242.84C221.281 1245.65 222.593 1248.41 224.063 1251.11L225.638 1253.86C227.213 1256.57 228.947 1259.11 230.838 1261.6C233.833 1265.63 239.096 1266.95 243.837 1265.36L258.693 1260.44C264.32 1265.1 270.79 1268.91 277.736 1271.51L280.923 1286.93C281.915 1291.86 285.7 1295.78 290.649 1296.36C294.176 1296.79 297.756 1297 301.389 1297C305.022 1297 308.603 1296.79 312.131 1296.36C317.081 1295.78 320.879 1291.81 321.887 1286.93L325.124 1271.51C332.131 1268.86 338.561 1265.1 344.202 1260.44L359.042 1265.36C363.778 1266.95 369.046 1265.63 372.054 1261.6C373.9 1259.11 375.642 1256.57 377.226 1253.86L378.863 1251C380.341 1248.35 381.662 1245.6 382.878 1242.79C384.833 1238.18 383.367 1232.93 379.635 1229.54L367.963 1219.05C368.548 1215.45 368.869 1211.74 368.875 1207.97C368.882 1204.21 368.572 1200.5 367.998 1196.9L379.704 1186.41ZM276.311 1208.03C276.322 1201.28 278.995 1194.81 283.743 1190.04C288.49 1185.27 294.923 1182.59 301.626 1182.59C308.329 1182.59 314.753 1185.27 319.485 1190.04C324.217 1194.81 326.869 1201.28 326.858 1208.03C326.847 1214.77 324.174 1221.24 319.427 1226.01C314.679 1230.78 308.247 1233.46 301.544 1233.46C294.841 1233.46 288.417 1230.78 283.685 1226.01C278.953 1221.24 276.301 1214.77 276.311 1208.03Z" fill="#23262D"/>
<path opacity="0.5" d="M113.541 63.4784C114.878 62.3156 115.444 60.5067 114.747 58.8824C114.313 57.9041 113.842 56.9443 113.315 56.0214L112.731 55.0247C112.166 54.1018 111.544 53.1974 110.885 52.3299C109.811 50.9271 107.928 50.4656 106.232 51.0194L100.92 52.7359C98.9045 51.1116 96.5875 49.7827 94.101 48.8782L92.9519 43.5255C92.594 41.8089 91.2377 40.443 89.467 40.24C88.2238 40.0738 86.9617 40 85.6807 40H85.5489C84.2679 40 83.0058 40.0738 81.7626 40.2215C79.9919 40.4245 78.6356 41.8089 78.2777 43.507L77.1286 48.8782C74.6233 49.8011 72.3251 51.1116 70.3095 52.7359L64.9786 51.0378C63.2832 50.4841 61.3995 50.9455 60.3258 52.3483C59.6665 53.2158 59.0448 54.1203 58.4609 55.0432L57.8958 56.0214C57.3683 56.9443 56.8974 57.9041 56.4641 58.9009C55.7671 60.5067 56.2946 62.334 57.632 63.5153L61.8139 67.17C61.6067 68.4067 61.4937 69.6987 61.4937 71.0092C61.4937 72.3197 61.6067 73.6118 61.8139 74.8669L57.632 78.5216C56.2946 79.6844 55.7671 81.5118 56.4641 83.1361C56.8974 84.1143 57.3683 85.0741 57.8958 86.0155L58.4609 86.9753C59.026 87.9166 59.6476 88.8026 60.3258 89.6701C61.3995 91.0729 63.2832 91.5344 64.9786 90.9807L70.2907 89.2641C72.3063 90.8884 74.6233 92.2173 77.1098 93.1218L78.2588 98.493C78.6168 100.21 79.973 101.575 81.7437 101.779C83.0058 101.926 84.2868 102 85.5865 102C86.8863 102 88.1672 101.926 89.4293 101.779C91.2 101.575 92.5563 100.191 92.9142 98.493L94.0633 93.1218C96.5687 92.1989 98.8668 90.8884 100.882 89.2641L106.195 90.9807C107.89 91.5344 109.774 91.0729 110.847 89.6701C111.507 88.8026 112.128 87.9166 112.693 86.9753L113.277 85.9786C113.805 85.0557 114.276 84.0959 114.709 83.1176C115.406 81.5118 114.878 79.6844 113.541 78.5031L109.359 74.8485C109.566 73.5933 109.679 72.3013 109.679 70.9908C109.679 69.6803 109.566 68.3882 109.359 67.1331L113.541 63.4784ZM76.5635 71.0092C76.5635 68.6595 77.5161 66.4059 79.2118 64.7444C80.9075 63.0829 83.2073 62.1494 85.6054 62.1494C88.0034 62.1494 90.3033 63.0829 91.999 64.7444C93.6946 66.4059 94.6473 68.6595 94.6473 71.0092C94.6473 73.359 93.6946 75.6125 91.999 77.274C90.3033 78.9356 88.0034 79.869 85.6054 79.869C83.2073 79.869 80.9075 78.9356 79.2118 77.274C77.5161 75.6125 76.5635 73.359 76.5635 71.0092Z" fill="#23262D"/>
<path opacity="0.5" d="M145.003 125.526C145.889 124.757 146.263 123.561 145.801 122.487C145.514 121.84 145.203 121.205 144.853 120.595L144.467 119.936C144.092 119.325 143.681 118.727 143.244 118.154C142.533 117.226 141.285 116.921 140.163 117.287L136.645 118.422C135.31 117.348 133.776 116.469 132.129 115.871L131.368 112.331C131.131 111.196 130.233 110.293 129.06 110.159C128.237 110.049 127.401 110 126.553 110H126.465C125.617 110 124.781 110.049 123.958 110.146C122.785 110.281 121.887 111.196 121.65 112.319L120.889 115.871C119.23 116.481 117.708 117.348 116.373 118.422L112.843 117.299C111.72 116.933 110.472 117.238 109.761 118.166C109.325 118.74 108.913 119.338 108.526 119.948L108.152 120.595C107.803 121.205 107.491 121.84 107.204 122.499C106.742 123.561 107.092 124.769 107.977 125.55L110.747 127.967C110.61 128.785 110.535 129.639 110.535 130.506C110.535 131.373 110.61 132.227 110.747 133.057L107.977 135.474C107.092 136.243 106.742 137.451 107.204 138.525C107.491 139.172 107.803 139.807 108.152 140.43L108.526 141.064C108.9 141.687 109.312 142.273 109.761 142.846C110.472 143.774 111.72 144.079 112.843 143.713L116.361 142.578C117.695 143.652 119.23 144.531 120.876 145.129L121.637 148.681C121.874 149.816 122.773 150.719 123.945 150.854C124.781 150.951 125.629 151 126.49 151C127.351 151 128.199 150.951 129.035 150.854C130.208 150.719 131.106 149.804 131.343 148.681L132.104 145.129C133.763 144.519 135.285 143.652 136.62 142.578L140.138 143.713C141.26 144.079 142.508 143.774 143.219 142.846C143.656 142.273 144.067 141.687 144.442 141.064L144.828 140.405C145.178 139.795 145.49 139.16 145.776 138.513C146.238 137.451 145.889 136.243 145.003 135.462L142.234 133.045C142.371 132.215 142.446 131.361 142.446 130.494C142.446 129.627 142.371 128.773 142.234 127.943L145.003 125.526ZM120.515 130.506C120.515 128.952 121.146 127.462 122.268 126.363C123.391 125.264 124.915 124.647 126.503 124.647C128.091 124.647 129.614 125.264 130.737 126.363C131.86 127.462 132.491 128.952 132.491 130.506C132.491 132.06 131.86 133.55 130.737 134.649C129.614 135.748 128.091 136.365 126.503 136.365C124.915 136.365 123.391 135.748 122.268 134.649C121.146 133.55 120.515 132.06 120.515 130.506Z" fill="#23262D"/>
</g>
</svg>
