<svg viewBox="0 0 768 1011" fill="none" xmlns="http://www.w3.org/2000/svg">
<mask id="mask0_304_14082" style="mask-type:alpha" maskUnits="userSpaceOnUse" x="0" y="0" width="768" height="1011">
<rect width="768" height="1011" fill="#313438"/>
</mask>
<g mask="url(#mask0_304_14082)">
<path opacity="0.5" d="M87.8337 110.317C88.6326 107.891 88.0086 105.197 85.9643 103.636C84.7165 102.706 83.4358 101.826 82.1124 101.033L80.6655 100.187C79.2956 99.4205 77.8696 98.7179 76.4242 98.0889C74.0775 97.0773 71.42 97.8352 69.7355 99.7447L64.444 105.704C60.7753 105.083 56.9508 105.051 53.2273 105.678L47.9047 99.7168C46.2108 97.7976 43.543 97.0341 41.2133 98.0388C39.5604 98.7143 37.9516 99.5202 36.3735 100.433L36.2111 100.527C34.633 101.44 33.132 102.433 31.7081 103.506C29.6748 105.025 29.0144 107.745 29.8129 110.15L32.3177 117.772C29.9048 120.727 28.0301 124.024 26.7325 127.518L18.9254 129.166C16.4326 129.673 14.4487 131.599 14.1498 134.141C13.9707 135.71 13.865 137.298 13.8192 138.883L13.837 140.525C13.8609 142.07 13.9813 143.621 14.175 145.192C14.4884 147.723 16.472 149.662 18.9819 150.205L26.8014 151.854C27.4488 153.568 28.2526 155.285 29.2092 156.944C30.1657 158.604 31.248 160.16 32.4194 161.602L29.935 169.211C29.136 171.637 29.82 174.327 31.8642 175.888C33.112 176.818 34.3927 177.698 35.7296 178.515L37.1264 179.328C38.5097 180.117 39.9222 180.797 41.3909 181.412C43.7376 182.424 46.3951 181.666 48.0796 179.756L53.3711 173.797C57.0398 174.418 60.8643 174.45 64.5878 173.823L69.9238 179.808C71.6177 181.727 74.2856 182.49 76.6152 181.486C78.2779 180.773 79.9099 179.954 81.5112 179.028C83.1125 178.102 84.6367 177.095 86.0837 176.009C88.117 174.49 88.7775 171.77 87.979 169.364L85.4742 161.742C87.8871 158.788 89.7618 155.49 91.0594 151.997L98.8567 150.386C101.35 149.879 103.333 147.952 103.632 145.41C103.811 143.841 103.931 142.276 103.94 140.681L103.932 139.003C103.908 137.458 103.787 135.907 103.607 134.359C103.294 131.828 101.31 129.89 98.8002 129.347L90.9807 127.698C90.3199 125.96 89.516 124.243 88.5595 122.584C87.603 120.924 86.5207 119.368 85.3493 117.926L87.8337 110.317ZM47.7749 146.206C46.0598 143.229 45.5885 139.696 46.4648 136.384C47.3411 133.071 49.4932 130.25 52.4475 128.541C55.4019 126.832 58.9166 126.375 62.2184 127.271C65.5202 128.167 68.3386 130.343 70.0537 133.319C71.7688 136.295 72.24 139.828 71.3637 143.141C70.4874 146.454 68.3354 149.275 65.381 150.984C62.4267 152.693 58.912 153.149 55.6102 152.253C52.3084 151.357 49.4899 149.182 47.7749 146.206Z" fill="#23262D"/>
<path opacity="0.5" d="M777.451 -19.0362C780.562 -28.4818 778.132 -38.9705 770.173 -45.047C765.314 -48.6694 760.328 -52.0961 755.175 -55.184L749.541 -58.4792C744.207 -61.4625 738.655 -64.198 733.027 -66.647C723.889 -70.5858 713.542 -67.6348 706.983 -60.2L686.38 -36.9951C672.095 -39.413 657.204 -39.5381 642.706 -37.0992L621.981 -60.3088C615.386 -67.7812 604.998 -70.754 595.927 -66.8422C589.491 -64.2119 583.227 -61.0741 577.083 -57.5199L576.45 -57.1541C570.306 -53.5999 564.461 -49.7339 558.917 -45.5561C551 -39.6417 548.429 -29.0514 551.538 -19.6838L561.291 9.99336C551.896 21.4962 544.596 34.3357 539.544 47.9387L509.146 54.3557C499.439 56.3289 491.715 63.8313 490.551 73.7286C489.854 79.8362 489.442 86.0214 489.264 92.193L489.333 98.5855C489.426 104.6 489.895 110.64 490.649 116.758C491.87 126.611 499.593 134.159 509.366 136.274L539.812 142.694C542.333 149.368 545.463 156.054 549.187 162.517C552.912 168.979 557.126 175.038 561.687 180.653L552.013 210.279C548.902 219.725 551.566 230.2 559.525 236.277C564.384 239.899 569.37 243.326 574.576 246.505L580.014 249.67C585.4 252.744 590.9 255.389 596.619 257.786C605.756 261.724 616.104 258.773 622.662 251.339L643.266 228.134C657.55 230.552 672.442 230.677 686.94 228.238L707.717 251.538C714.312 259.011 724.7 261.984 733.771 258.072C740.244 255.298 746.599 252.108 752.834 248.502C759.069 244.895 765.003 240.977 770.638 236.747C778.555 230.833 781.126 220.242 778.017 210.875L768.264 181.198C777.659 169.695 784.959 156.855 790.011 143.252L820.372 136.978C830.078 135.005 837.802 127.503 838.966 117.606C839.663 111.498 840.127 105.404 840.163 99.1935L840.131 92.6577C840.039 86.6429 839.57 80.6028 838.868 74.5762C837.648 64.723 829.924 57.1748 820.151 55.06L789.705 48.6398C787.132 41.875 784.002 35.1895 780.277 28.7266C776.553 22.2637 772.339 16.2054 767.778 10.5905L777.451 -19.0362ZM621.476 120.703C614.798 109.115 612.963 95.3581 616.375 82.4592C619.787 69.5602 628.166 58.5756 639.67 51.9218C651.173 45.268 664.858 43.4901 677.714 46.9792C690.57 50.4683 701.544 58.9386 708.222 70.5267C714.9 82.1148 716.735 95.8715 713.323 108.77C709.911 121.669 701.532 132.654 690.028 139.308C678.525 145.962 664.84 147.74 651.984 144.25C639.128 140.761 628.154 132.291 621.476 120.703Z" fill="#23262D"/>
<path opacity="0.5" d="M691.574 560.607C692.543 557.666 691.786 554.399 689.308 552.507C687.795 551.379 686.242 550.312 684.637 549.351L682.883 548.324C681.222 547.395 679.493 546.544 677.74 545.781C674.895 544.554 671.673 545.473 669.63 547.789L663.214 555.015C658.766 554.262 654.129 554.223 649.614 554.982L643.16 547.755C641.107 545.428 637.872 544.502 635.047 545.72C633.043 546.539 631.092 547.516 629.179 548.623L628.982 548.737C627.069 549.844 625.249 551.048 623.522 552.349C621.057 554.19 620.256 557.488 621.224 560.405L624.261 569.647C621.336 573.229 619.063 577.227 617.489 581.463L608.023 583.461C605.001 584.076 602.595 586.412 602.233 589.494C602.016 591.396 601.887 593.322 601.832 595.244L601.854 597.235C601.882 599.108 602.028 600.989 602.263 602.894C602.643 605.962 605.048 608.313 608.092 608.971L617.573 610.97C618.358 613.049 619.332 615.13 620.492 617.143C621.652 619.156 622.964 621.042 624.385 622.791L621.372 632.016C620.403 634.958 621.233 638.22 623.711 640.112C625.224 641.24 626.777 642.307 628.398 643.297L630.092 644.283C631.769 645.24 633.482 646.064 635.262 646.81C638.108 648.037 641.33 647.118 643.373 644.802L649.788 637.576C654.237 638.329 658.874 638.368 663.389 637.609L669.859 644.865C671.912 647.192 675.147 648.117 677.972 646.899C679.988 646.035 681.967 645.042 683.908 643.919C685.85 642.796 687.698 641.576 689.452 640.259C691.918 638.417 692.719 635.119 691.75 632.202L688.713 622.96C691.639 619.378 693.912 615.38 695.485 611.144L704.94 609.19C707.962 608.576 710.368 606.24 710.73 603.158C710.947 601.256 711.092 599.358 711.103 597.424L711.093 595.389C711.064 593.516 710.918 591.635 710.699 589.758C710.319 586.69 707.914 584.339 704.871 583.681L695.39 581.682C694.589 579.575 693.614 577.493 692.454 575.48C691.294 573.468 689.982 571.581 688.562 569.833L691.574 560.607ZM643.003 604.122C640.923 600.514 640.352 596.23 641.415 592.213C642.477 588.196 645.086 584.776 648.669 582.704C652.251 580.632 656.512 580.078 660.516 581.164C664.519 582.251 667.937 584.889 670.016 588.497C672.096 592.106 672.667 596.39 671.604 600.406C670.542 604.423 667.933 607.844 664.35 609.916C660.768 611.988 656.507 612.541 652.503 611.455C648.5 610.368 645.083 607.731 643.003 604.122Z" fill="#23262D"/>
<path opacity="0.5" d="M246.577 975.406C250.321 972.067 251.909 966.874 249.968 962.211C248.762 959.402 247.45 956.647 245.98 953.997L244.352 951.135C242.777 948.486 241.044 945.889 239.205 943.399C236.21 939.371 230.947 938.046 226.206 939.636L211.35 944.564C205.723 939.901 199.253 936.086 192.307 933.489L189.12 918.121C188.128 913.193 184.343 909.272 179.394 908.689C175.92 908.212 172.393 908 168.812 908H168.444C164.863 908 161.335 908.212 157.859 908.636C152.909 909.219 149.112 913.193 148.103 918.068L144.867 933.489C137.86 936.139 131.43 939.901 125.788 944.564L110.896 939.689C106.159 938.099 100.892 939.424 97.8842 943.452C96.0373 945.942 94.2955 948.539 92.659 951.188L91.0749 953.997C89.5964 956.647 88.2756 959.402 87.06 962.264C85.1044 966.874 86.5702 972.12 90.3031 975.512L101.975 986.004C101.39 989.555 101.068 993.264 101.062 997.026C101.056 1000.79 101.366 1004.5 101.94 1008.1L90.2337 1018.59C86.4899 1021.93 85.0072 1027.18 86.9478 1031.84C88.1543 1034.65 89.4662 1037.41 90.9361 1040.11L92.5113 1042.86C94.0865 1045.57 95.82 1048.11 97.7115 1050.6C100.706 1054.63 105.969 1055.95 110.711 1054.36L125.567 1049.44C131.193 1054.1 137.663 1057.91 144.609 1060.51L147.796 1075.93C148.789 1080.86 152.573 1084.78 157.522 1085.36C161.049 1085.79 164.629 1086 168.262 1086C171.895 1086 175.476 1085.79 179.004 1085.36C183.955 1084.78 187.752 1080.81 188.76 1075.93L191.997 1060.51C199.004 1057.86 205.434 1054.1 211.075 1049.44L225.915 1054.36C230.652 1055.95 235.919 1054.63 238.927 1050.6C240.774 1048.11 242.515 1045.57 244.099 1042.86L245.736 1040C247.215 1037.35 248.535 1034.6 249.751 1031.79C251.707 1027.18 250.241 1021.93 246.508 1018.54L234.836 1008.05C235.421 1004.45 235.743 1000.74 235.749 996.974C235.755 993.211 235.445 989.502 234.872 985.898L246.577 975.406ZM143.185 997.026C143.196 990.28 145.869 983.811 150.616 979.04C155.363 974.27 161.796 971.59 168.499 971.59C175.202 971.59 181.626 974.27 186.358 979.04C191.09 983.811 193.742 990.28 193.732 997.026C193.721 1003.77 191.048 1010.24 186.3 1015.01C181.553 1019.78 175.12 1022.46 168.417 1022.46C161.714 1022.46 155.29 1019.78 150.558 1015.01C145.826 1010.24 143.174 1003.77 143.185 997.026Z" fill="#23262D"/>
<path opacity="0.5" d="M138.541 63.4784C139.878 62.3156 140.444 60.5067 139.747 58.8824C139.313 57.9041 138.842 56.9443 138.315 56.0214L137.731 55.0247C137.166 54.1018 136.544 53.1974 135.885 52.3299C134.811 50.9271 132.928 50.4656 131.232 51.0194L125.92 52.7359C123.904 51.1116 121.588 49.7827 119.101 48.8782L117.952 43.5255C117.594 41.8089 116.238 40.443 114.467 40.24C113.224 40.0738 111.962 40 110.681 40H110.549C109.268 40 108.006 40.0738 106.763 40.2215C104.992 40.4245 103.636 41.8089 103.278 43.507L102.129 48.8782C99.6233 49.8011 97.3251 51.1116 95.3095 52.7359L89.9786 51.0378C88.2832 50.4841 86.3995 50.9455 85.3258 52.3483C84.6665 53.2158 84.0448 54.1203 83.4609 55.0432L82.8958 56.0214C82.3683 56.9443 81.8974 57.9041 81.4641 58.9009C80.7671 60.5067 81.2946 62.334 82.632 63.5153L86.8139 67.17C86.6067 68.4067 86.4937 69.6987 86.4937 71.0092C86.4937 72.3197 86.6067 73.6118 86.8139 74.8669L82.632 78.5216C81.2946 79.6844 80.7671 81.5118 81.4641 83.1361C81.8974 84.1143 82.3683 85.0741 82.8958 86.0155L83.4609 86.9753C84.026 87.9166 84.6476 88.8026 85.3258 89.6701C86.3995 91.0729 88.2832 91.5344 89.9786 90.9807L95.2907 89.2641C97.3063 90.8884 99.6233 92.2173 102.11 93.1218L103.259 98.493C103.617 100.21 104.973 101.575 106.744 101.779C108.006 101.926 109.287 102 110.587 102C111.886 102 113.167 101.926 114.429 101.779C116.2 101.575 117.556 100.191 117.914 98.493L119.063 93.1218C121.569 92.1989 123.867 90.8884 125.882 89.2641L131.195 90.9807C132.89 91.5344 134.774 91.0729 135.847 89.6701C136.507 88.8026 137.128 87.9166 137.693 86.9753L138.277 85.9786C138.805 85.0557 139.276 84.0959 139.709 83.1176C140.406 81.5118 139.878 79.6844 138.541 78.5031L134.359 74.8485C134.566 73.5933 134.679 72.3013 134.679 70.9908C134.679 69.6803 134.566 68.3882 134.359 67.1331L138.541 63.4784ZM101.563 71.0092C101.563 68.6595 102.516 66.4059 104.212 64.7444C105.907 63.0829 108.207 62.1494 110.605 62.1494C113.003 62.1494 115.303 63.0829 116.999 64.7444C118.695 66.4059 119.647 68.6595 119.647 71.0092C119.647 73.359 118.695 75.6125 116.999 77.274C115.303 78.9356 113.003 79.869 110.605 79.869C108.207 79.869 105.907 78.9356 104.212 77.274C102.516 75.6125 101.563 73.359 101.563 71.0092Z" fill="#23262D"/>
<path opacity="0.5" d="M170.003 125.526C170.889 124.757 171.263 123.561 170.801 122.487C170.514 121.84 170.203 121.205 169.853 120.595L169.467 119.936C169.092 119.325 168.681 118.727 168.244 118.154C167.533 117.226 166.285 116.921 165.163 117.287L161.645 118.422C160.31 117.348 158.776 116.469 157.129 115.871L156.368 112.331C156.131 111.196 155.233 110.293 154.06 110.159C153.237 110.049 152.401 110 151.553 110H151.465C150.617 110 149.781 110.049 148.958 110.146C147.785 110.281 146.887 111.196 146.65 112.319L145.889 115.871C144.23 116.481 142.708 117.348 141.373 118.422L137.843 117.299C136.72 116.933 135.472 117.238 134.761 118.166C134.325 118.74 133.913 119.338 133.526 119.948L133.152 120.595C132.803 121.205 132.491 121.84 132.204 122.499C131.742 123.561 132.092 124.769 132.977 125.55L135.747 127.967C135.61 128.785 135.535 129.639 135.535 130.506C135.535 131.373 135.61 132.227 135.747 133.057L132.977 135.474C132.092 136.243 131.742 137.451 132.204 138.525C132.491 139.172 132.803 139.807 133.152 140.43L133.526 141.064C133.9 141.687 134.312 142.273 134.761 142.846C135.472 143.774 136.72 144.079 137.843 143.713L141.361 142.578C142.695 143.652 144.23 144.531 145.876 145.129L146.637 148.681C146.874 149.816 147.773 150.719 148.945 150.854C149.781 150.951 150.629 151 151.49 151C152.351 151 153.199 150.951 154.035 150.854C155.208 150.719 156.106 149.804 156.343 148.681L157.104 145.129C158.763 144.519 160.285 143.652 161.62 142.578L165.138 143.713C166.26 144.079 167.508 143.774 168.219 142.846C168.656 142.273 169.067 141.687 169.442 141.064L169.828 140.405C170.178 139.795 170.49 139.16 170.776 138.513C171.238 137.451 170.889 136.243 170.003 135.462L167.234 133.045C167.371 132.215 167.446 131.361 167.446 130.494C167.446 129.627 167.371 128.773 167.234 127.943L170.003 125.526ZM145.515 130.506C145.515 128.952 146.146 127.462 147.268 126.363C148.391 125.264 149.915 124.647 151.503 124.647C153.091 124.647 154.614 125.264 155.737 126.363C156.86 127.462 157.491 128.952 157.491 130.506C157.491 132.06 156.86 133.55 155.737 134.649C154.614 135.748 153.091 136.365 151.503 136.365C149.915 136.365 148.391 135.748 147.268 134.649C146.146 133.55 145.515 132.06 145.515 130.506Z" fill="#23262D"/>
</g>
</svg>
