<svg width="768" height="181" viewBox="0 0 768 181" fill="none" xmlns="http://www.w3.org/2000/svg">
<mask id="mask0_304_14346" style="mask-type:alpha" maskUnits="userSpaceOnUse" x="0" y="0" width="768" height="181">
<rect width="768" height="181" fill="#313438"/>
</mask>
<g mask="url(#mask0_304_14346)">
<g opacity="0.1">
<path d="M21.802 50.7369C23.7402 50.7711 25.6827 50.8054 27.621 50.8311C28.0583 50.8354 28.4957 50.8311 28.9331 50.8097C29.1175 50.8011 29.3062 50.7497 29.4691 50.664C29.8036 50.497 30.1252 50.2999 30.4468 50.1029C34.3447 47.7253 38.2383 45.3392 42.1361 42.9617C42.6164 42.6704 43.1052 42.3919 43.6027 42.1263C43.7056 42.0706 43.8471 42.0792 43.9714 42.0878C44.0958 42.092 44.2201 42.1178 44.3402 42.152C46.5657 42.7903 48.7869 43.4286 51.0125 44.0669C51.2526 44.1354 51.4927 44.2083 51.7329 44.2811C52.2303 44.431 52.732 44.3968 53.2122 44.2468C54.0484 43.9898 54.8675 43.6814 55.6651 43.3172C58.2465 42.122 60.5406 40.507 62.5989 38.5579C65.2489 36.0475 67.4916 33.2073 69.3912 30.0972C69.4555 29.9901 69.4941 29.8702 69.5499 29.7588C69.6313 29.5918 69.5199 29.3262 69.3569 29.3219C69.1082 29.3133 68.8595 29.2919 68.6108 29.2962C67.423 29.3219 66.2309 29.3561 65.0431 29.3818C64.9187 29.3818 64.7944 29.3476 64.6743 29.3433C64.5157 29.339 64.4385 29.2619 64.4642 29.0991C64.4728 29.0477 64.4771 28.9749 64.5114 28.9449C64.6486 28.8207 64.7901 28.6921 64.9445 28.5893C67.1314 27.1328 69.314 25.6677 71.5095 24.2284C72.2943 23.7143 73.109 23.2474 73.9151 22.7676C74.777 22.2535 75.6947 21.8551 76.6338 21.5081C76.7496 21.4653 76.8782 21.461 76.9983 21.4267C77.1355 21.3882 77.247 21.4139 77.3456 21.5167C77.4185 21.5938 77.4185 21.7052 77.2985 21.808C77.1098 21.9708 76.9039 22.1121 76.7024 22.2578C76.3765 22.502 76.2393 22.8275 76.265 23.2345C76.2779 23.4658 76.5352 23.6672 76.7839 23.65C77.0369 23.6286 77.2727 23.5601 77.5043 23.4573C78.5892 22.9732 79.6697 22.4805 80.7589 22.005C81.6766 21.6066 82.5985 21.2168 83.5247 20.8398C84.571 20.4114 85.6645 20.1287 86.788 20.0173C88.3874 19.8588 89.1379 20.8013 88.9792 22.2835C88.9063 22.9646 88.7048 23.6243 88.4346 24.2626C88.1173 25.0166 87.7271 25.7234 87.2768 26.4046C86.5178 27.5569 85.6345 28.6107 84.6611 29.5875C83.0659 31.1896 81.2864 32.5647 79.391 33.7942C79.2324 33.897 79.078 34.0041 78.915 34.0941C76.8396 35.2593 74.8757 36.6001 72.8517 37.8425C68.6408 40.4299 64.3141 42.816 59.9274 45.095C54.6531 47.8324 49.2972 50.4027 43.9243 52.9345C41.7159 53.9755 39.5033 54.9907 37.2863 56.0103C34.7263 57.1841 32.1363 58.2765 29.4648 59.1761C28.9245 59.356 28.4271 59.6002 27.9511 59.9129C27.115 60.4612 26.2702 60.9967 25.4212 61.5322C25.1553 61.6993 24.8809 61.8449 24.6022 61.9863C23.989 62.299 23.3801 62.2048 22.814 61.8792C22.6039 61.7592 22.4152 61.5707 22.2694 61.3737C22.0079 61.0267 21.7677 60.654 21.5447 60.2813C21.3389 59.9429 21.0516 59.7287 20.6957 59.5745C18.2772 58.5164 16.0517 57.1241 13.8734 55.6547C12.5784 54.7808 11.2791 53.9112 10.0741 52.9088C9.94547 52.8017 9.99264 52.5404 10.1513 52.4461C10.2028 52.4161 10.2456 52.3562 10.2971 52.3305C11.5106 51.825 12.7199 51.3195 13.942 50.8311C14.1692 50.7412 14.4265 50.6983 14.6709 50.694C15.5457 50.6812 16.4248 50.6983 17.2995 50.7026C18.8004 50.7026 20.3055 50.7026 21.8063 50.7026V50.7369H21.802Z" fill="white"/>
<path d="M54.2028 30.2344C57.1144 30.2515 60.5535 30.2772 63.9925 30.2901C65.056 30.2901 66.1194 30.2601 67.1786 30.2472C67.363 30.2472 67.5517 30.2387 67.7318 30.3243C67.8432 30.3757 67.9161 30.4657 67.9118 30.6113C67.9033 30.8041 67.8004 30.9626 67.7017 31.1126C66.0594 33.5586 64.2026 35.8248 62.0629 37.8596C60.2405 39.5903 58.225 41.0554 55.9738 42.1906C55.0218 42.6704 54.0442 43.0688 53.0279 43.3944C52.5905 43.5357 52.1831 43.5058 51.7458 43.3772C48.6883 42.4819 45.6266 41.6037 42.5692 40.7255C38.0067 39.4147 33.4485 38.1081 28.886 36.7972C28.3457 36.643 27.8097 36.4802 27.2736 36.3174C26.9563 36.2232 26.8534 35.8334 27.0678 35.5721C27.145 35.4778 27.2179 35.3707 27.3037 35.285C27.5224 35.0623 27.7411 34.8352 27.9769 34.6339C28.7445 33.9913 29.5678 33.4301 30.4554 32.9546C32.0077 32.1235 33.65 31.5367 35.361 31.1468C37.192 30.727 39.053 30.4871 40.9269 30.4057C45.1764 30.2215 49.4259 30.0844 54.2028 30.2301V30.2344Z" fill="white"/>
<path d="M75.7422 50.5059C75.7164 51.247 75.6307 51.9881 75.4634 52.7163C75.3948 53.0205 75.0303 53.1833 74.7302 53.0376C74.6744 53.0119 74.6144 52.9905 74.5587 52.9605C74.4472 52.9048 74.3357 52.8491 74.2285 52.7891C70.3863 50.7286 66.5442 48.6681 62.7021 46.6033C62.4277 46.4576 62.1704 46.2863 61.9045 46.1192C61.8531 46.0849 61.7716 46.0121 61.7802 45.9907C61.8273 45.8793 61.8831 45.7551 61.9688 45.6779C62.1061 45.558 62.269 45.4595 62.4319 45.3695C65.3779 43.7459 68.2981 42.0795 71.1625 40.3146C71.2654 40.2503 71.3898 40.2117 71.5013 40.1561C71.617 40.1004 71.9258 40.186 72.0072 40.306C72.2216 40.6101 72.4489 40.9057 72.6462 41.2227C73.5724 42.7049 74.34 44.2643 74.9231 45.9178C75.4463 47.4043 75.6864 48.9294 75.7379 50.5016L75.7422 50.5059Z" fill="white"/>
<path d="M44.6616 29.4076C43.8898 29.4205 43.0193 29.4419 42.1531 29.4462C42.0502 29.4462 41.9387 29.3648 41.8444 29.3005C41.72 29.2192 41.7929 29.0221 42.0073 28.855C42.6891 28.3195 43.3752 27.7883 44.057 27.2529C44.3057 27.0558 44.6016 26.9658 44.8975 26.8759C45.1419 26.7988 45.382 26.8202 45.6265 26.8802C46.0596 26.9873 46.4455 27.18 46.7242 27.5313C47.1058 28.0197 47.4746 28.5123 47.852 29.005C47.8477 29.142 47.8134 29.2663 47.7148 29.3134C47.6076 29.3648 47.4789 29.3991 47.3632 29.3991C46.497 29.4076 45.6265 29.3991 44.6659 29.3991L44.6616 29.4076Z" fill="white"/>
<path d="M77.1054 44.0838C77.0926 44.3365 77.0668 44.5893 76.9039 44.7863C76.668 45.0691 76.4107 45.3347 76.1492 45.596C76.0591 45.6859 75.939 45.6474 75.8404 45.5274C75.8018 45.4803 75.7504 45.4375 75.7289 45.3818C75.3473 44.4693 74.9657 43.5612 74.5883 42.6487C74.5068 42.4516 74.6826 42.1603 74.9228 42.0789C75.1672 41.9975 75.4116 41.9847 75.6517 42.0447C75.7675 42.0747 75.8919 42.1303 75.9776 42.2117C76.4365 42.6401 76.7667 43.1585 77.0282 43.7239C77.0797 43.831 77.084 43.9638 77.1054 44.0838Z" fill="white"/>
</g>
<g opacity="0.1">
<path d="M375.208 181C361.078 181 346.947 181 332.81 181C331.863 181 330.909 181 329.962 180.985C328.791 180.971 327.657 180.774 326.536 180.432C325.9 180.236 325.416 179.82 325.149 179.223C324.932 178.743 324.751 178.233 324.664 177.716C324.549 176.988 324.513 176.238 324.484 175.495C324.39 173.26 324.072 171.054 323.783 168.84C323.479 166.496 322.706 164.304 321.231 162.411C320.19 161.071 319.28 159.651 318.579 158.086C318.181 157.19 318.022 156.266 318 155.304C317.979 154.256 318.839 153.186 319.836 153.004C320.248 152.931 320.667 152.858 321.087 152.822C321.506 152.785 321.932 152.8 322.351 152.8C327.628 152.8 332.897 152.8 338.173 152.807C338.701 152.807 339.228 152.822 339.749 152.873C341.021 153.004 341.881 153.717 342.358 154.889C342.517 155.275 342.632 155.698 342.69 156.113C342.791 156.848 342.828 157.591 342.893 158.333C342.943 158.865 342.965 159.397 343.052 159.921C343.334 161.595 343.803 161.923 345.22 162.265C345.726 162.389 346.261 162.44 346.781 162.462C348.046 162.506 349.311 162.527 350.576 162.513C356.9 162.44 363.231 162.389 369.556 162.258C378.2 162.076 386.844 162.011 395.496 161.952C397.816 161.938 400.136 161.879 402.456 161.865C404.574 161.858 406.656 161.537 408.744 161.246C409.38 161.159 409.944 160.86 410.515 160.591C410.905 160.409 411.209 160.103 411.455 159.753C411.758 159.324 412.055 158.88 412.315 158.421C413.515 156.302 414.693 154.169 415.712 151.948C415.929 151.467 416.174 150.987 416.485 150.572C416.803 150.149 417.215 149.807 417.779 149.727C418.09 149.683 418.401 149.618 418.719 149.589C419.037 149.56 419.347 149.56 419.665 149.56C428.628 149.56 437.59 149.56 446.56 149.56C447.196 149.56 447.825 149.56 448.446 149.734C448.981 149.88 449.379 150.193 449.682 150.652C449.863 150.928 449.949 151.234 449.978 151.547C450.065 152.516 449.892 153.448 449.444 154.322C449.299 154.613 449.075 154.846 448.735 154.875C448.215 154.919 447.687 154.933 447.16 154.933C444.521 154.933 441.883 154.933 439.252 154.933C438.833 154.933 438.407 154.948 437.995 155.013C437.807 155.042 437.561 155.195 437.496 155.355C437.243 155.953 437.258 156.586 437.453 157.198C437.503 157.365 437.749 157.533 437.93 157.569C438.335 157.656 438.761 157.7 439.18 157.707C441.71 157.722 444.24 157.722 446.777 157.736C447.087 157.736 447.398 157.809 447.694 157.882C447.767 157.897 447.839 158.042 447.861 158.144C447.897 158.341 447.962 158.574 447.897 158.749C446.43 162.411 444.558 165.84 442.144 168.957C441.428 169.874 440.662 170.755 439.852 171.593C437.93 173.573 435.812 175.321 433.572 176.923C431.309 178.546 428.794 179.595 426.098 180.221C425.896 180.272 425.686 180.323 425.476 180.345C423.272 180.563 421.082 180.927 418.863 180.949C417.389 180.964 415.907 180.993 414.433 180.993C401.358 180.993 388.283 181 375.208 181ZM397.57 167.384C397.686 166.51 397.05 165.666 396.19 165.629C395.142 165.578 394.679 166.022 394.484 167.071C394.347 167.799 395.214 168.724 396.031 168.731C396.71 168.738 397.484 168.069 397.57 167.384ZM407.147 167.224C407.202 166.605 406.887 166.103 406.395 165.826C405.636 165.411 404.415 165.535 404.104 166.678C403.981 167.115 404.01 167.508 404.234 167.886C404.82 168.884 406.034 169.051 406.822 168.018C407.002 167.777 407.118 167.558 407.147 167.224ZM386.519 165.629C385.782 165.615 385.413 165.848 385.074 166.605C384.987 166.794 384.922 167.013 384.929 167.217C384.951 167.857 385.659 168.607 386.317 168.753C386.671 168.833 387.676 168.382 387.878 167.872C388.138 167.209 388.037 166.634 387.647 166.095C387.531 165.942 387.321 165.833 387.133 165.753C386.946 165.68 386.729 165.673 386.519 165.629ZM378.518 167.399C378.518 166.889 378.41 166.488 378.171 166.124C378.113 166.037 378.041 165.95 377.954 165.899C377.369 165.571 376.747 165.484 376.162 165.833C375.692 166.11 375.453 166.59 375.396 167.144C375.381 167.246 375.388 167.362 375.432 167.442C375.584 167.719 375.714 168.025 375.931 168.236C376.632 168.899 377.34 168.95 378.135 168.163C378.345 167.959 378.417 167.617 378.518 167.399ZM368.977 167.086C368.934 166.882 368.891 166.656 368.833 166.459C368.732 166.139 368.508 165.928 368.211 165.789C368.117 165.746 368.016 165.709 367.915 165.688C367.113 165.476 366.426 165.768 366.065 166.481C365.703 167.173 365.891 167.894 366.585 168.418C366.838 168.607 367.127 168.738 367.452 168.746C368.276 168.768 369.042 167.923 368.977 167.086ZM357.941 165.622C357.334 165.673 356.871 165.855 356.596 166.379C356.445 166.663 356.3 166.947 356.336 167.275C356.423 167.967 357.102 168.622 357.811 168.731C358.367 168.818 359.365 168.221 359.415 167.508C359.43 167.297 359.451 167.086 359.422 166.882C359.314 166.095 358.7 165.607 357.941 165.622Z" fill="white"/>
<path d="M345.133 138.434C350.192 138.434 355.245 138.434 360.304 138.434C360.832 138.434 361.359 138.463 361.88 138.521C362.971 138.645 363.99 139.621 364.272 140.778C364.337 141.033 364.041 141.419 363.788 141.455C362.53 141.616 361.265 141.492 360 141.543C359.69 141.557 359.364 141.565 359.083 141.667C358.916 141.725 358.721 141.951 358.699 142.118C358.548 143.385 358.548 144.652 358.699 145.919C358.728 146.152 359.104 146.479 359.364 146.487C360.839 146.523 362.313 146.552 363.781 146.589C363.997 146.589 364.352 146.996 364.366 147.244C364.366 147.353 364.395 147.455 364.395 147.564C364.395 150.535 364.395 153.506 364.395 156.477C364.395 156.79 364.359 157.117 364.286 157.423C364.07 158.312 363.181 159.265 362.415 159.418C362.003 159.498 361.583 159.6 361.164 159.608C356.531 159.666 351.891 159.753 347.265 159.389C346.347 159.316 345.523 158.53 345.372 157.54C345.126 155.967 344.866 154.394 344.793 152.8C344.772 152.377 344.699 151.955 344.634 151.54C344.577 151.147 343.94 150.564 343.55 150.477C342.82 150.317 342.09 150.302 341.353 150.302C338.296 150.302 335.246 150.302 332.188 150.302C331.133 150.302 330.078 150.302 329.03 150.28C328.603 150.273 328.206 150.127 327.808 149.982C326.833 149.618 326.254 148.875 326.023 147.907C325.77 146.873 325.792 145.802 326.023 144.754C326.059 144.586 326.262 144.39 326.435 144.331C326.724 144.23 327.042 144.193 327.353 144.179C328.82 144.12 330.302 144.266 331.762 144.069C331.921 144.048 332.13 143.807 332.167 143.64C332.275 143.123 332.289 142.577 332.13 142.067C332.073 141.892 331.885 141.681 331.718 141.645C331.314 141.557 330.894 141.543 330.475 141.528C329.21 141.499 327.953 141.485 326.688 141.455C326.276 141.448 326.03 140.968 326.153 140.538C326.37 139.773 326.84 139.227 327.512 138.871C327.881 138.681 328.293 138.521 328.697 138.477C329.427 138.405 330.172 138.412 330.909 138.412C335.65 138.412 340.392 138.412 345.133 138.412V138.426V138.434ZM353.5 144.163C353.818 144.148 354.536 144.149 355.151 144.077C355.31 144.055 355.527 143.829 355.563 143.662C355.671 143.152 355.657 142.628 355.555 142.111C355.512 141.892 355.136 141.572 354.883 141.572C353.748 141.572 352.614 141.572 351.479 141.586C351.378 141.586 351.255 141.586 351.175 141.645C351.016 141.768 350.807 141.9 350.756 142.074C350.604 142.577 350.612 143.108 350.727 143.618C350.763 143.785 350.973 143.975 351.147 144.033C351.848 144.259 352.481 144.141 353.5 144.163ZM345.408 144.193C346.123 144.164 346.752 144.157 347.366 144.098C347.54 144.077 347.807 143.916 347.851 143.764C348.031 143.159 348.039 142.533 347.815 141.936C347.757 141.783 347.504 141.608 347.33 141.601C346.087 141.506 344.844 141.485 343.601 141.616C343.391 141.637 343.03 142.023 343.023 142.256C343.015 142.671 343.001 143.094 343.008 143.509C343.008 143.749 343.37 144.077 343.63 144.091C344.251 144.128 344.844 144.164 345.372 144.193H345.408ZM337.804 144.193C338.455 144.164 339.083 144.149 339.698 144.084C339.879 144.062 340.139 143.909 340.189 143.764C340.392 143.166 340.384 142.54 340.16 141.943C340.103 141.79 339.85 141.63 339.669 141.608C338.426 141.492 337.183 141.492 335.939 141.608C335.737 141.623 335.376 142.023 335.368 142.256C335.354 142.671 335.354 143.094 335.354 143.509C335.354 143.749 335.715 144.091 335.968 144.098C336.59 144.128 337.212 144.157 337.804 144.193Z" fill="white"/>
<path d="M342.936 136.359C339.568 136.359 336.193 136.344 332.824 136.344C332.405 136.344 331.993 135.98 331.964 135.601C331.957 135.499 331.907 135.39 331.914 135.288C331.921 132.958 331.928 130.628 331.95 128.291C331.95 127.832 332.275 127.512 332.723 127.483C333.244 127.446 333.771 127.425 334.299 127.388C334.566 127.366 334.877 127.068 334.942 126.784C335.014 126.471 335.022 126.165 334.892 125.866C334.805 125.655 334.66 125.524 334.443 125.444C333.93 125.262 333.403 125.349 332.882 125.32C332.152 125.284 331.849 124.745 332.109 123.981C332.485 122.845 333.338 122.299 334.436 122.087C334.848 122.007 335.275 122 335.694 122C340.638 122 345.589 122 350.532 122C351.053 122 351.588 122.029 352.101 122.138C353.084 122.349 353.807 122.932 354.182 123.9C354.255 124.09 354.276 124.308 354.291 124.519C354.312 124.825 354.031 125.175 353.792 125.226C352.961 125.408 352.115 125.284 351.277 125.328C350.966 125.342 350.648 125.379 350.337 125.393C350.113 125.408 349.716 125.786 349.701 125.997C349.651 126.842 349.593 127.687 349.716 128.531C349.773 128.903 350.164 129.267 350.583 129.274C351.631 129.296 352.686 129.318 353.734 129.347C353.958 129.347 354.32 129.74 354.327 129.988C354.399 131.895 354.45 133.796 354.298 135.703C354.284 135.914 353.886 136.308 353.669 136.315C353.142 136.33 352.621 136.359 352.094 136.359C349.043 136.359 345.993 136.359 342.936 136.359ZM345.813 127.425C345.625 127.432 346.138 127.432 346.644 127.359C346.817 127.337 347.041 127.17 347.121 127.01C347.302 126.631 347.287 126.201 347.15 125.815C347.092 125.655 346.868 125.48 346.687 125.444C345.777 125.24 344.851 125.298 343.933 125.4C343.767 125.422 343.579 125.612 343.485 125.779C343.391 125.946 343.377 126.172 343.37 126.369C343.348 126.98 343.695 127.417 344.186 127.425C344.497 127.425 344.801 127.425 345.813 127.425ZM338.354 127.425C339.308 127.425 339.72 127.425 340.132 127.425C340.233 127.425 340.334 127.403 340.435 127.403C340.638 127.395 340.985 127.017 340.999 126.762C341.013 126.558 341.013 126.354 341.021 126.143C341.021 125.743 340.645 125.379 340.262 125.357C339.445 125.313 338.621 125.284 337.804 125.4C337.595 125.429 337.233 125.779 337.219 126.019C337.204 126.223 337.204 126.427 337.204 126.638C337.212 127.039 337.573 127.395 337.978 127.41C338.289 127.425 338.592 127.439 338.354 127.425Z" fill="white"/>
<path d="M385.5 153.04C383.606 153.04 381.713 153.033 379.819 153.033C379.4 153.033 378.988 152.96 378.569 152.931C378.381 152.916 377.933 152.487 377.918 152.312C377.911 152.21 377.875 152.101 377.875 151.999C377.875 149.458 377.875 146.924 377.889 144.383C377.889 143.888 378.402 143.429 378.93 143.407C379.14 143.4 379.349 143.393 379.559 143.385C379.667 143.385 379.768 143.385 379.877 143.385C383.556 143.385 387.227 143.385 390.906 143.385C391.326 143.385 391.745 143.451 392.157 143.487C392.381 143.509 392.749 143.895 392.771 144.121C392.778 144.223 392.822 144.332 392.822 144.434C392.822 146.975 392.822 149.509 392.822 152.05C392.822 152.581 392.366 152.997 391.803 153.011C391.383 153.026 390.964 153.04 390.545 153.04C388.861 153.04 387.184 153.04 385.5 153.04Z" fill="white"/>
<path d="M401.813 141.601C399.601 141.565 397.397 141.55 395.185 141.484C395.019 141.484 394.838 141.251 394.701 141.099C394.643 141.033 394.643 140.895 394.636 140.793C394.491 138.142 394.513 135.499 394.621 132.849C394.636 132.441 395.033 132.004 395.402 131.99C396.031 131.968 396.667 131.931 397.296 131.931C400.454 131.931 403.613 131.924 406.771 131.931C407.4 131.931 408.029 131.975 408.665 131.997C408.903 132.004 409.301 132.368 409.33 132.579C409.344 132.681 409.388 132.791 409.388 132.893C409.445 135.543 409.489 138.193 409.359 140.836C409.344 141.062 408.968 141.47 408.759 141.484C408.34 141.514 407.92 141.565 407.501 141.565C405.607 141.572 403.714 141.601 401.813 141.601Z" fill="white"/>
<path d="M418.502 141.572C418.502 141.572 414.093 141.543 411.881 141.499C411.65 141.499 411.267 141.113 411.245 140.888C411.238 140.786 411.202 140.676 411.202 140.575C411.202 138.033 411.202 135.485 411.209 132.944C411.209 132.842 411.259 132.74 411.267 132.631C411.296 132.412 411.686 132.026 411.895 132.004C412.105 131.983 412.315 131.939 412.524 131.939C416.63 131.939 420.735 131.939 424.84 131.946C425.043 131.946 425.267 131.975 425.44 132.07C425.614 132.157 425.802 132.325 425.867 132.5C426.091 133.104 426.033 133.752 426.026 134.385C426.011 136.504 425.982 138.623 425.961 140.742C425.961 141.121 425.534 141.507 425.129 141.521C424.602 141.536 424.081 141.565 423.554 141.572C421.87 141.572 420.186 141.572 418.502 141.572Z" fill="white"/>
<path d="M402.059 153.04C400.057 153.04 398.054 153.033 396.06 153.033C395.85 153.033 395.64 153.004 395.431 152.989C395.04 152.967 394.636 152.574 394.621 152.173C394.592 151.118 394.556 150.055 394.549 148.999C394.542 147.623 394.549 146.239 394.563 144.863C394.563 144.55 394.621 144.222 394.73 143.931C394.795 143.756 395.012 143.633 395.171 143.509C395.25 143.451 395.366 143.443 395.467 143.443C399.782 143.436 404.097 143.421 408.412 143.421C408.983 143.421 409.38 143.836 409.387 144.426C409.387 146.967 409.387 149.516 409.387 152.057C409.387 152.625 408.983 152.989 408.376 153.011C408.058 153.018 407.747 153.04 407.429 153.04C405.636 153.04 403.851 153.04 402.059 153.04Z" fill="white"/>
<path d="M420.164 147.15C420.164 147.15 417.302 147.04 415.726 147.252C415.553 147.273 415.35 147.448 415.249 147.608C415.148 147.776 415.155 148.016 415.112 148.22C415.018 148.635 414.982 149.072 414.816 149.451C414.389 150.419 413.912 151.366 413.428 152.305C413.124 152.895 412.662 153.062 411.809 152.946C411.563 152.909 411.209 152.545 411.202 152.312C411.18 151.358 411.151 150.404 411.151 149.451C411.151 147.754 411.18 146.058 411.202 144.361C411.209 143.808 411.635 143.436 412.243 143.422C412.77 143.407 413.298 143.393 413.818 143.393C415.184 143.393 416.557 143.393 417.923 143.393C420.135 143.393 422.347 143.393 424.559 143.393C424.862 143.393 425.173 143.473 425.469 143.553C425.693 143.611 425.831 143.786 425.874 143.99C426.047 144.827 426.112 145.664 425.867 146.502C425.809 146.706 425.397 147.084 425.187 147.091C424.24 147.113 420.164 147.15 420.164 147.15Z" fill="white"/>
<path d="M385.016 159.579C383.23 159.6 381.452 159.615 379.667 159.63C379.356 159.63 379.046 159.593 378.728 159.564C378.366 159.535 377.918 159.091 377.889 158.741C377.802 157.686 377.774 156.63 377.933 155.581C377.961 155.392 378.373 154.977 378.569 154.948C378.778 154.919 378.981 154.853 379.19 154.853C383.288 154.846 387.379 154.846 391.477 154.853C391.687 154.853 391.889 154.904 392.099 154.933C392.323 154.955 392.735 155.326 392.764 155.523C392.923 156.579 392.879 157.627 392.807 158.69C392.778 159.047 392.366 159.433 391.947 159.448C390.27 159.484 388.586 159.52 386.909 159.55C386.281 159.557 385.652 159.579 385.016 159.579Z" fill="white"/>
<path d="M399.833 159.389C398.358 159.389 396.884 159.389 395.409 159.389C395.012 159.389 394.643 158.989 394.607 158.581C394.527 157.627 394.506 156.681 394.614 155.727C394.658 155.334 395.041 154.919 395.424 154.904C395.843 154.882 396.262 154.853 396.689 154.846C399.009 154.846 401.322 154.831 403.642 154.846C405.326 154.853 407.01 154.89 408.694 154.919C408.918 154.919 409.315 155.305 409.33 155.53C409.337 155.632 409.395 155.734 409.395 155.843C409.409 156.375 409.424 156.906 409.409 157.431C409.395 158.195 409.012 158.639 408.318 158.741C405.918 159.091 403.512 159.375 401.083 159.36C400.664 159.36 400.252 159.389 399.833 159.389Z" fill="white"/>
<path d="M435.227 143.385C437.221 143.385 439.216 143.385 441.211 143.385C441.522 143.385 441.847 143.421 442.136 143.516C442.317 143.574 442.548 143.749 442.592 143.916C442.801 144.739 442.845 145.584 442.635 146.421C442.584 146.632 442.194 147.025 441.992 147.047C441.782 147.069 441.58 147.127 441.37 147.127C437.279 147.127 433.181 147.127 429.09 147.127C428.881 147.127 428.671 147.076 428.469 147.055C428.259 147.033 427.876 146.64 427.833 146.428C427.652 145.584 427.681 144.746 427.876 143.916C427.912 143.749 428.136 143.545 428.31 143.501C428.714 143.407 429.141 143.378 429.553 143.37C431.439 143.356 433.34 143.385 435.227 143.385Z" fill="white"/>
</g>
<g opacity="0.1">
<path d="M675.486 27.1207C677.064 28.4592 678.646 29.8007 680.23 31.1322C680.589 31.4314 680.953 31.7235 681.329 32.0015C681.487 32.119 681.678 32.2041 681.87 32.2435C682.26 32.3315 682.659 32.3861 683.058 32.4407C687.886 33.1111 692.716 33.7716 697.544 34.442C698.138 34.526 698.73 34.6263 699.32 34.7431C699.443 34.7667 699.554 34.8694 699.651 34.9606C699.751 35.0482 699.836 35.1535 699.912 35.2629C701.32 37.2948 702.724 39.3238 704.131 41.3556C704.283 41.5746 704.432 41.7971 704.581 42.0196C704.891 42.4797 705.329 42.7906 705.827 42.9913C706.692 43.3442 707.577 43.643 708.482 43.8813C711.423 44.6388 714.41 44.8551 717.429 44.636C721.315 44.3531 725.089 43.5224 728.761 42.2367C728.886 42.1917 728.999 42.1187 729.12 42.0643C729.301 41.9814 729.388 41.6865 729.256 41.5728C729.057 41.3976 728.866 41.2118 728.657 41.0472C727.658 40.2655 726.65 39.488 725.651 38.7063C725.549 38.6222 725.469 38.5098 725.373 38.4251C725.245 38.3143 725.233 38.1984 725.364 38.0813C725.406 38.0446 725.459 37.9874 725.507 37.9858C725.705 37.9759 725.909 37.9653 726.106 37.9847C728.897 38.2596 731.691 38.5245 734.478 38.8193C735.474 38.925 736.463 39.09 737.453 39.2385C738.513 39.3964 739.541 39.6875 740.551 40.0356C740.676 40.0785 740.785 40.1619 740.907 40.2147C741.047 40.2756 741.122 40.3722 741.134 40.5239C741.142 40.6369 741.066 40.7289 740.898 40.7327C740.632 40.7397 740.366 40.7173 740.101 40.7014C739.667 40.6829 739.333 40.8591 739.079 41.2128C738.934 41.4126 739.01 41.7529 739.227 41.9069C739.451 42.0602 739.692 42.163 739.953 42.2346C741.177 42.568 742.402 42.8914 743.624 43.2348C744.651 43.5259 745.677 43.827 746.697 44.1417C747.851 44.495 748.946 45.0006 749.949 45.668C751.378 46.6183 751.361 47.9043 750.228 49.0218C749.707 49.5353 749.095 49.9442 748.44 50.289C747.668 50.6974 746.868 51.0177 746.035 51.2761C744.629 51.7152 743.187 51.9889 741.722 52.1379C739.321 52.3834 736.921 52.3167 734.524 52.0513C734.324 52.029 734.124 52.0131 733.928 51.9773C731.426 51.5371 728.896 51.3175 726.384 50.9758C721.156 50.2672 715.968 49.3139 710.802 48.2316C704.594 46.928 698.431 45.4313 692.28 43.8912C689.751 43.2585 687.237 42.6016 684.716 41.9454C681.807 41.1847 678.928 40.3365 676.113 39.2739C675.545 39.0574 674.969 38.9229 674.364 38.8595C673.302 38.7473 672.242 38.6187 671.179 38.4872C670.846 38.4456 670.521 38.3804 670.195 38.3088C669.477 38.1527 669.038 37.6632 668.79 37.0115C668.697 36.7704 668.669 36.4871 668.682 36.2257C668.7 35.7622 668.754 35.2919 668.821 34.8332C668.88 34.4144 668.787 34.0432 668.598 33.6752C667.315 31.166 666.417 28.5112 665.61 25.8245C665.131 24.227 664.645 22.6301 664.327 20.9873C664.293 20.8118 664.509 20.6278 664.704 20.6572C664.766 20.6672 664.842 20.6466 664.902 20.6601C666.247 21.0628 667.588 21.4626 668.928 21.8852C669.176 21.9645 669.418 22.103 669.623 22.2647C670.354 22.8454 671.069 23.4538 671.789 24.0487C673.029 25.0633 674.273 26.0807 675.513 27.0953L675.49 27.1236L675.486 27.1207Z" fill="white"/>
<path d="M716.118 32.0825C718.512 34.0649 721.336 36.411 724.169 38.7464C725.048 39.4653 725.947 40.1594 726.831 40.8648C726.983 40.9894 727.145 41.1099 727.236 41.3024C727.293 41.4203 727.293 41.5439 727.191 41.6613C727.053 41.8148 726.861 41.8762 726.678 41.9334C723.668 42.8444 720.601 43.4617 717.458 43.6966C714.782 43.8947 712.126 43.7428 709.499 43.159C708.388 42.9119 707.311 42.5802 706.251 42.1622C705.794 41.9834 705.478 41.6832 705.203 41.2813C703.282 38.4747 701.346 35.6794 699.413 32.887C696.529 28.7196 693.646 24.5586 690.762 20.3912C690.42 19.8985 690.087 19.4017 689.755 18.9048C689.556 18.6124 689.735 18.2208 690.088 18.1498C690.216 18.1241 690.348 18.0849 690.477 18.072C690.809 18.0358 691.143 17.996 691.474 17.9891C692.542 17.977 693.602 18.0699 694.657 18.277C696.501 18.6397 698.255 19.2649 699.932 20.0994C701.729 20.9903 703.429 22.0501 705.032 23.2496C708.668 25.9701 712.272 28.7295 716.121 32.079L716.118 32.0825Z" fill="white"/>
<path d="M720.212 63.3927C719.69 63.9876 719.118 64.542 718.487 65.0307C718.225 65.2357 717.814 65.1238 717.664 64.8005C717.636 64.7416 717.601 64.6833 717.575 64.6209C717.52 64.4995 717.466 64.3781 717.418 64.2561C715.636 59.9562 713.854 55.6563 712.075 51.3529C711.947 51.0471 711.85 50.7316 711.744 50.4138C711.724 50.3507 711.706 50.2354 711.728 50.2235C711.842 50.1634 711.972 50.0984 712.095 50.0927C712.289 50.0863 712.491 50.1151 712.686 50.1509C716.218 50.8008 719.757 51.3979 723.317 51.8759C723.446 51.8924 723.574 51.9446 723.704 51.9739C723.838 52.0062 724.035 52.2857 724.021 52.4399C723.993 52.8361 723.981 53.234 723.929 53.6293C723.693 55.4801 723.273 57.2874 722.637 59.048C722.064 60.6299 721.232 62.0524 720.211 63.3862L720.212 63.3927Z" fill="white"/>
<path d="M708.793 24.9496C708.147 24.4385 707.413 23.8677 706.695 23.2857C706.609 23.2161 706.572 23.0735 706.538 22.9566C706.49 22.8053 706.684 22.6918 706.974 22.6987C707.899 22.7171 708.825 22.742 709.75 22.7604C710.089 22.7657 710.394 22.8914 710.7 23.0171C710.954 23.1186 711.138 23.2986 711.299 23.5134C711.585 23.8947 711.773 24.3149 711.766 24.7935C711.751 25.455 711.723 26.1114 711.702 26.7735C711.605 26.8839 711.493 26.9634 711.38 26.9356C711.256 26.9057 711.127 26.847 711.031 26.7688C710.31 26.1903 709.596 25.5948 708.803 24.9454L708.793 24.9496Z" fill="white"/>
<path d="M725.68 59.0086C725.498 59.2087 725.306 59.4002 725.038 59.4529C724.652 59.527 724.26 59.5726 723.868 59.6117C723.732 59.6251 723.659 59.5121 723.659 59.3463C723.659 59.2813 723.645 59.2111 723.665 59.1506C723.967 58.1387 724.265 57.1303 724.57 56.1212C724.636 55.9033 724.978 55.7815 725.232 55.8766C725.489 55.9745 725.699 56.1291 725.857 56.341C725.933 56.4441 725.998 56.5742 726.014 56.6994C726.103 57.3635 726.026 58.015 725.859 58.6591C725.83 58.7824 725.743 58.895 725.68 59.0086Z" fill="white"/>
</g>
</g>
</svg>
