<svg viewBox="0 0 255 136" fill="none" xmlns="http://www.w3.org/2000/svg">
<g clip-path="url(#clip0_42_1270)">
<path d="M86.6258 74.1949C86.3302 74.3102 86.0418 74.4256 85.7463 74.5481C85.3281 74.7212 84.9316 74.6491 84.5495 74.4328C84.1891 74.2237 83.8286 74.0075 83.4682 73.7912C72.2076 66.8849 60.947 59.9786 49.6936 53.0723C49.1602 52.7407 48.6267 52.4019 48.1365 52.0126C47.8986 51.8251 47.6463 51.5295 47.6174 51.2556C47.5814 50.9744 47.8481 50.6861 48.1221 50.5059C48.4681 50.2752 48.8358 50.0733 49.2034 49.8642C49.2899 49.8138 49.398 49.7633 49.4918 49.7633C49.6936 49.7633 49.9171 49.7489 50.1046 49.8138C50.3929 49.9219 50.6668 50.0877 50.9336 50.2535C62.9944 57.6573 75.0552 65.061 87.116 72.4719C87.2025 72.5296 87.2962 72.5801 87.3827 72.6377C87.7287 72.854 87.7504 73.4596 87.4116 73.6758C87.1448 73.8417 86.8925 74.0219 86.633 74.2021L86.6258 74.1949Z" fill="#525252"/>
<path d="M49.946 31.719C51.943 31.719 53.9471 31.719 55.944 31.7262C56.1387 31.7262 56.3405 31.8272 56.5279 31.9065C56.7298 31.9858 56.8884 32.166 56.874 32.3895C56.8019 33.961 56.6433 35.5326 56.3982 37.0826C56.1819 38.4379 56.0377 39.7932 55.8935 41.1557C55.8575 41.4657 55.7566 41.7685 55.6845 42.0713C55.6412 42.2443 55.1726 42.6192 54.978 42.6408C54.877 42.648 54.7761 42.7057 54.668 42.7057C51.3013 42.821 47.9347 42.8426 44.5753 42.6696C44.3302 42.6552 43.9625 42.3452 43.8904 42.1001C43.8328 41.8983 43.7463 41.7036 43.703 41.5017C43.6165 41.0908 43.5156 40.6799 43.4795 40.2618C43.3281 38.4811 43.0614 36.7077 42.8235 34.9415C42.7081 34.1124 42.5712 33.2762 42.6937 32.4327C42.7298 32.2165 43.083 31.8127 43.3137 31.7983C43.7318 31.7695 44.15 31.719 44.5681 31.7118C46.356 31.7046 48.1438 31.7118 49.9316 31.7118V31.7334L49.946 31.719Z" fill="#525252"/>
<path d="M14.672 74.6994C14.5711 74.6634 14.4701 74.6418 14.3764 74.5913C13.8213 74.2957 13.2662 74.0001 12.7183 73.6902C12.3146 73.4595 12.2497 72.8828 12.5813 72.6521C12.9274 72.4142 13.2662 72.1691 13.6267 71.9456C22.9047 66.1783 32.1828 60.411 41.4609 54.6438C41.7277 54.478 42.0016 54.2977 42.29 54.2112C42.4558 54.1608 42.7442 54.2329 42.8523 54.3554C43.3281 54.9105 43.8399 55.444 44.0995 56.1433C44.1283 56.2226 44.0995 56.3307 44.0634 56.4172C44.0202 56.5109 43.9553 56.6119 43.876 56.6695C43.3569 57.03 42.8451 57.3904 42.3044 57.722C33.7472 63.0496 25.1828 68.3771 16.6184 73.6974C16.085 74.029 15.5875 74.4255 14.9675 74.5985C14.8666 74.6273 14.7657 74.6634 14.6648 74.6922L14.672 74.6994Z" fill="#525252"/>
<path d="M49.5784 30.0031C47.5959 30.0031 45.6062 30.0031 43.6237 30.0031C43.0253 30.0031 42.6 29.621 42.5567 29.102C42.4558 27.9557 42.4486 26.8095 42.5784 25.6632C42.6 25.4686 43.0181 25.0865 43.2272 25.0649C43.4362 25.0433 43.6381 25 43.8472 25C47.8194 25 51.7916 25 55.7638 25C55.9656 25 56.1747 25.0721 56.3765 25.1009C56.6 25.1298 56.9677 25.5191 56.9965 25.7353C57.1263 26.8816 57.1407 28.0278 57.0109 29.1741C56.9677 29.5345 56.5496 29.9454 56.1675 29.9599C55.1222 29.9887 54.0841 30.0175 53.0388 30.0247C51.8925 30.0319 50.739 30.0247 49.5928 30.0247V30.0031H49.5784Z" fill="#525252"/>
<path d="M87.5775 75.1032C87.8455 74.9987 88.0062 74.9692 88.2839 74.8941C88.636 74.799 88.8895 74.75 89.1923 74.6779C91.3046 74.1805 94.145 75.3772 95.2552 77.5399C95.6444 78.2968 95.9184 79.061 95.8174 79.9189C94.801 80.0919 93.7773 80.1063 92.7464 79.9765C92.7175 79.8756 92.6959 79.7747 92.6671 79.6738C92.4148 78.6429 91.6938 78.095 90.7206 77.821C90.526 77.7634 90.3025 77.7417 90.1006 77.7778C89.2428 77.9292 88.493 78.2752 88.0749 79.1042C87.9307 79.3854 87.7865 79.6666 87.6424 79.9405C86.6187 80.0631 85.595 80.1279 84.5713 79.9549C84.5713 78.7726 85.0687 77.785 85.7247 76.8478C86.1284 76.2639 86.2973 75.8817 86.8566 75.4636C87.1494 75.2447 87.2842 75.2175 87.5775 75.1032Z" fill="#525252"/>
<path d="M50.0182 43.3977C50.6454 43.3977 51.2725 43.3905 51.8997 43.3977C52.3323 43.3977 52.6999 43.5923 53.0171 43.8879C53.5506 44.3853 54.1057 44.8683 54.6319 45.3729C55.9728 46.6778 56.701 48.2422 56.6217 50.1382C56.6145 50.3472 56.5856 50.5563 56.5784 50.7653C56.564 51.0609 56.1819 51.3204 55.9152 51.2339C54.8194 50.8663 53.8101 50.3184 52.8152 49.7416C52.5557 49.5903 52.3034 49.3668 52.1232 49.1217C51.4239 48.1773 50.5588 47.4492 49.4919 46.9445C49.2107 46.8148 48.9296 46.6562 48.6772 46.4687C47.8698 45.892 47.394 45.1134 47.2859 44.1186C47.2571 43.8663 47.5742 43.477 47.8194 43.4553C48.0284 43.4409 48.2303 43.3832 48.4394 43.376C48.9656 43.3616 49.4847 43.376 50.0109 43.376V43.3977H50.0182Z" fill="#525252"/>
<path d="M15.5875 79.9189C14.571 80.0919 13.5473 80.0991 12.5164 79.9765C12.329 78.9601 11.7595 78.2824 10.7934 77.9075C10.2672 77.7057 9.76976 77.7345 9.26512 77.922C8.65235 78.1527 8.15491 78.4987 7.85213 79.097C7.70795 79.3782 7.56378 79.6594 7.4196 79.9405C6.39591 80.0631 5.37221 80.128 4.34131 79.9477C4.38456 78.5203 4.98294 77.3308 5.94175 76.3143C6.99427 75.1969 8.34956 74.7067 9.84184 74.5553C9.94277 74.5481 10.0509 74.5409 10.1518 74.5553C12.365 74.8004 14.124 75.7304 15.1549 77.7994C15.4866 78.4699 15.6596 79.1619 15.5803 79.9117L15.5875 79.9189Z" fill="#525252"/>
<path d="M50.4435 56.8064C49.9101 56.7704 49.2901 56.7343 48.6701 56.6767C47.7185 56.583 46.8606 56.2153 46.0532 55.7323C44.7123 54.9393 43.5733 53.2307 44.0058 51.2122C44.0779 50.8734 44.7556 50.6355 45.0367 50.8589C45.1953 50.9887 45.3828 51.104 45.4981 51.2626C45.6783 51.515 45.8009 51.8033 45.9595 52.0701C46.3848 52.8198 46.976 53.3749 47.8266 53.6128C48.0285 53.6705 48.2231 53.7282 48.425 53.7858C49.1315 53.9733 49.8019 54.2472 50.3858 54.7086C50.8761 55.0907 51.3735 55.4583 51.8565 55.8404C52.0512 55.9918 52.0584 56.1792 51.943 56.4027C51.8565 56.5757 51.7123 56.6839 51.4672 56.7055C51.1572 56.7343 50.8472 56.7632 50.4435 56.7992V56.8064Z" fill="#525252"/>
<path fill-rule="evenodd" clip-rule="evenodd" d="M-0.13208 85.4743C-0.13208 83.4803 1.48435 81.8639 3.47832 81.8639H95.8621C97.856 81.8639 99.4725 83.4803 99.4725 85.4743V132.594C99.4725 134.588 97.856 136.204 95.8621 136.204H3.47832C1.48435 136.204 -0.13208 134.588 -0.13208 132.594V85.4743ZM5.75438 89.5214C5.75438 88.526 6.56129 87.7191 7.55665 87.7191C8.55202 87.7191 9.35892 88.526 9.35892 89.5214V128.45C9.35892 129.446 8.55202 130.253 7.55665 130.253C6.56129 130.253 5.75438 129.446 5.75438 128.45V89.5214ZM16.9285 87.7191C15.9331 87.7191 15.1262 88.526 15.1262 89.5214V128.45C15.1262 129.446 15.9331 130.253 16.9285 130.253C17.9238 130.253 18.7307 129.446 18.7307 128.45V89.5214C18.7307 88.526 17.9238 87.7191 16.9285 87.7191ZM24.4979 89.5214C24.4979 88.526 25.3048 87.7191 26.3002 87.7191C27.2956 87.7191 28.1025 88.526 28.1025 89.5214V128.45C28.1025 129.446 27.2956 130.253 26.3002 130.253C25.3048 130.253 24.4979 129.446 24.4979 128.45V89.5214ZM35.672 87.7191C34.6767 87.7191 33.8698 88.526 33.8698 89.5214V128.45C33.8698 129.446 34.6767 130.253 35.672 130.253C36.6674 130.253 37.4743 129.446 37.4743 128.45V89.5214C37.4743 88.526 36.6674 87.7191 35.672 87.7191ZM43.2416 89.5214C43.2416 88.526 44.0485 87.7191 45.0439 87.7191C46.0393 87.7191 46.8462 88.526 46.8462 89.5214V128.45C46.8462 129.446 46.0393 130.253 45.0439 130.253C44.0485 130.253 43.2416 129.446 43.2416 128.45V89.5214ZM54.4157 87.7191C53.4203 87.7191 52.6134 88.526 52.6134 89.5214V128.45C52.6134 129.446 53.4203 130.253 54.4157 130.253C55.4111 130.253 56.218 129.446 56.218 128.45V89.5214C56.218 88.526 55.4111 87.7191 54.4157 87.7191ZM61.9852 89.5214C61.9852 88.526 62.7921 87.7191 63.7875 87.7191C64.7829 87.7191 65.5898 88.526 65.5898 89.5214V128.45C65.5898 129.446 64.7829 130.253 63.7875 130.253C62.7921 130.253 61.9852 129.446 61.9852 128.45V89.5214ZM73.1593 87.7191C72.1639 87.7191 71.357 88.526 71.357 89.5214V128.45C71.357 129.446 72.1639 130.253 73.1593 130.253C74.1547 130.253 74.9616 129.446 74.9616 128.45V89.5214C74.9616 88.526 74.1547 87.7191 73.1593 87.7191ZM80.7289 89.5214C80.7289 88.526 81.5358 87.7191 82.5311 87.7191C83.5265 87.7191 84.3334 88.526 84.3334 89.5214V128.45C84.3334 129.446 83.5265 130.253 82.5311 130.253C81.5358 130.253 80.7289 129.446 80.7289 128.45V89.5214ZM91.9029 87.7191C90.9075 87.7191 90.1006 88.526 90.1006 89.5214V128.45C90.1006 129.446 90.9075 130.253 91.9029 130.253C92.8983 130.253 93.7052 129.446 93.7052 128.45V89.5214C93.7052 88.526 92.8983 87.7191 91.9029 87.7191Z" fill="#E52421"/>
</g>
<defs>
<clipPath id="clip0_42_1270">
<rect width="255" height="136" fill="white"/>
</clipPath>
</defs>
</svg>
