<svg viewBox="0 0 255 136" fill="none" xmlns="http://www.w3.org/2000/svg">
<path d="M74.1302 90.4018C72.0515 95.6929 69.1985 99.9065 65.8534 102.496C71.9576 101.041 77.3238 98.0555 81.7832 93.5013C79.5163 92.2724 76.9268 91.2336 74.1302 90.4018ZM42.1936 90.4018C39.3969 91.2147 36.7886 92.2536 34.5217 93.5004C38.9623 98.036 44.2918 101.021 50.4515 102.495C47.1073 99.9065 44.2532 95.6739 42.1936 90.4018ZM38.6603 71.2595H25.0548C25.2816 79.2155 28.3237 86.4713 33.2177 92.0842C35.6934 90.7047 38.4901 89.5332 41.5509 88.6262C39.8129 83.5422 38.7732 77.6083 38.6601 71.2595H38.6603ZM33.7842 57.37C33.0663 57.3323 32.3671 57.1432 31.7056 56.8035C30.5906 56.2173 29.74 55.1784 29.3438 53.988C26.7552 58.5611 25.2054 63.7956 25.054 69.37H38.6595C38.6783 68.7461 38.6971 68.142 38.7348 67.537C37.6959 65.401 34.635 59.09 33.7844 57.3697L33.7842 57.37ZM46.7856 39.2289C47.0876 39.5498 47.4094 39.8716 47.7303 40.2113L47.9759 40.4757C48.7701 39.5874 49.6198 38.7942 50.4892 38.1138C49.2048 38.4159 47.976 38.7942 46.7856 39.2289ZM65.8337 38.1138C69.1788 40.6836 72.0319 44.9169 74.1104 50.2269C76.9071 49.3951 79.4966 48.3563 81.7823 47.1085C77.4746 42.7247 72.0319 39.5884 65.8337 38.1138ZM83.0675 48.5257C80.6106 49.9052 77.8139 51.0766 74.7531 51.9837C76.5109 57.0667 77.5498 63.0006 77.6448 69.3691H91.2503C91.0236 61.3953 87.9812 54.1386 83.0675 48.5257ZM59.107 37.2632V52.4185C63.7178 52.3432 68.2155 51.7382 72.3351 50.6994C69.2919 42.9701 64.5297 37.8119 59.107 37.2632ZM49.1864 41.8364C50.3768 43.6882 50.1312 46.145 48.4685 47.7889C47.8258 48.4504 47.1643 49.0931 46.5028 49.7357C46.6158 50.1705 46.7484 50.7181 46.8999 51.342C50.1876 51.9847 53.6645 52.3629 57.2177 52.4194V37.2641C54.2884 37.5473 51.5483 39.1724 49.1864 41.8364ZM47.3911 53.3641C48.2041 56.7657 49.1112 60.9795 49.0538 62.2271C48.9409 64.2116 48.2794 65.8932 47.0881 67.2161C46.4266 67.9717 45.7087 68.6332 45.0283 69.257L44.9154 69.37H57.2176V54.29C53.8536 54.2514 50.5471 53.9306 47.3911 53.3641ZM42.9308 71.2595L41.5513 72.6013L40.7769 71.2595H40.5501C40.6451 77.4577 41.6463 83.2399 43.3278 88.1348C47.6552 87.0198 52.3789 86.3959 57.2164 86.3206V71.2594L42.9308 71.2595ZM43.9705 89.9104C47.0128 97.6584 51.7938 102.836 57.2174 103.365V88.2101C52.5869 88.2665 48.0901 88.8706 43.9705 89.9104ZM59.107 88.2091V103.364C64.5308 102.817 69.2922 97.6575 72.3351 89.9283C68.2146 88.8706 63.7176 88.2853 59.107 88.2091ZM59.107 71.2594V86.3206C63.9445 86.3959 68.6692 87.0198 72.9966 88.1348C74.6593 83.2408 75.6613 77.4577 75.7554 71.2595L59.107 71.2594ZM72.9769 52.4759C68.6683 53.5909 63.9445 54.2148 59.1061 54.29V69.3701H75.7547C75.6606 63.1521 74.6594 57.3887 72.9771 52.4759L72.9769 52.4759ZM77.6451 71.2594C77.5509 77.6091 76.5112 83.5428 74.7534 88.6261C77.8144 89.5331 80.6109 90.7047 83.0865 92.0841C87.9805 86.4909 91.0236 79.2342 91.2503 71.2594H77.6451Z" fill="#525252"/>
<path d="M4.04541 51.6937C3.61875 52.1123 3.00746 52.7218 2.49027 53.2399C1.97577 53.7544 1.97846 54.5871 2.49296 55.1016L12.8564 65.465C13.3727 65.9813 14.2081 65.9813 14.7217 65.4632C15.1932 64.9873 15.7399 64.4387 16.1316 64.0506C16.4256 63.7593 16.5618 63.3515 16.5063 62.9418L15.7507 57.3577C15.687 56.8889 15.8708 56.429 16.2472 56.1413C19.4794 53.6666 29.21 45.966 30.2543 44.9532C30.6603 44.5597 30.7616 44.5776 30.9911 45.0661C31.5934 46.3497 32.2227 47.6207 32.8071 48.9124C32.9021 49.1221 32.8985 49.3623 32.8053 49.573C32.4181 50.4487 32.1026 51.3388 31.9565 52.2898C31.8381 53.066 32.3168 53.9346 33.0016 54.2868C33.6254 54.6068 34.2206 54.5925 34.8472 54.3657C35.2012 54.2375 35.4441 54.2528 35.6467 54.6759C36.7277 56.9427 40.7281 65.1611 41.6253 67.0147C41.7956 67.367 42.0117 67.6978 42.2026 68.0303C43.1751 67.0945 44.1369 66.2735 44.9687 65.3378C45.7745 64.4316 46.1438 63.3183 46.2146 62.0732C46.2953 60.6409 43.8599 50.7821 43.4944 49.425C43.3725 48.9742 43.4567 48.7115 43.7695 48.4149C44.6829 47.5517 45.5837 46.6751 46.4738 45.7878C47.2697 44.9945 47.3011 43.849 46.5697 43.0863C45.7459 42.2276 44.907 41.3832 44.0958 40.5138C43.3608 39.7259 42.3784 39.5296 41.5181 40.0997C41.2841 40.2547 41.0959 40.2359 41.0152 39.8846C40.7167 38.5849 40.4102 37.2852 40.066 35.9972C39.9781 35.6683 40.0633 35.3259 40.3053 35.0857C42.0469 33.3539 47.5504 27.8558 48.4253 26.7559C49.7779 25.0547 50.7764 23.1258 51.5061 21.0813C51.8243 20.1904 52.0627 19.2331 52.1147 18.2938C52.1846 17.0076 51.6163 15.9884 50.0235 16.0001C48.921 16.0082 47.8696 16.2125 46.8351 16.6114C44.8193 17.3876 42.8957 18.3395 41.225 19.7082C40.0347 20.6834 34.5814 26.0884 32.9403 27.6919C32.7816 27.847 32.4966 28.02 32.3155 27.9796C30.8948 27.6641 29.4849 27.3011 28.0732 26.9462C27.7819 26.8727 27.6537 26.5894 27.8177 26.3376C28.3251 25.5613 28.2632 24.7394 27.6206 24.0716C26.7816 23.1995 25.9301 22.339 25.0795 21.4785C24.2755 20.6646 22.9803 20.6467 22.1378 21.4202C21.1706 22.3094 20.2277 23.2245 19.2902 24.1451C19.0015 24.4292 18.7299 24.5699 18.3096 24.4409C17.7682 24.275 9.3291 22.1642 7.60905 21.7321C5.74556 21.2624 4.06661 21.6792 2.61113 22.8767C1.76051 23.5758 1.01476 24.4023 0.226787 25.1766C-0.111142 25.5082 -0.0752789 25.6409 0.360339 25.8506C2.44074 26.8519 10.8206 30.9025 12.9333 31.9197C13.3205 32.1061 13.48 32.3186 13.29 32.79C12.8732 33.8226 13.6055 35.1914 14.6032 35.3194C15.5945 35.4467 16.5267 35.2253 17.4418 34.8461C17.7771 34.7072 18.2306 34.5073 18.504 34.6256C20.0224 35.2853 21.5012 36.0329 22.9937 36.7526C23.4266 36.9615 23.4454 37.095 23.0976 37.4455C22.2371 38.3131 14.4228 48.2213 11.9641 51.5072C11.6809 51.8854 11.2255 52.0746 10.7568 52.0172L5.12323 51.3315C4.72435 51.2831 4.33176 51.4131 4.04583 51.6936L4.04541 51.6937Z" fill="#525252"/>
<path d="M91.2319 92.2328V122.448H61.9801C60.2035 119.519 57.0099 117.573 53.3438 117.573C49.6777 117.573 46.4464 119.52 44.6699 122.448H40.7206V101.661C67.5356 116.25 86.2436 92.8935 86.4318 92.7985L86.2615 92.7043C86.6209 92.2508 86.9795 91.7784 87.3201 91.2872H90.287C90.798 91.2872 91.2327 91.722 91.2327 92.232L91.2319 92.2328Z" fill="#525252"/>
<path d="M119.444 127.721C119.444 129.592 117.913 131.104 116.062 131.104H111.829C112.207 130.046 112.415 128.912 112.415 127.721C112.415 126.531 112.207 125.397 111.829 124.339H116.062C117.913 124.339 119.444 125.87 119.444 127.721Z" fill="#525252"/>
<path d="M92.12 127.721C92.12 128.912 92.328 130.046 92.7062 131.104L62.8853 131.103C63.2636 130.045 63.4715 128.911 63.4715 127.721C63.4715 126.53 63.2636 125.396 62.8853 124.338H92.704C92.3266 125.396 92.1186 126.53 92.1186 127.721L92.12 127.721Z" fill="#525252"/>
<path d="M43.1757 127.721C43.1757 128.912 43.3836 130.046 43.7619 131.104H40.4929C38.6223 131.104 37.1102 129.592 37.1102 127.721C37.1102 125.87 38.6223 124.339 40.4929 124.339H43.7619C43.3836 125.396 43.1757 126.53 43.1757 127.721Z" fill="#525252"/>
<path d="M53.3294 126.056C52.4071 126.056 51.6577 126.805 51.6577 127.726C51.6577 128.647 52.4071 129.396 53.3294 129.396C54.2464 129.396 54.9939 128.647 54.9939 127.726C54.9939 126.805 54.2464 126.056 53.3294 126.056Z" fill="#525252"/>
<path d="M53.3432 119.465C48.77 119.465 45.0665 123.169 45.0665 127.723C45.0665 132.278 48.7702 136 53.3432 136C57.8787 136 61.5822 132.277 61.5822 127.723C61.5822 123.169 57.8776 119.465 53.3432 119.465ZM53.3297 131.287C51.3659 131.287 49.7678 129.69 49.7678 127.728C49.7678 125.764 51.3659 124.167 53.3297 124.167C55.2891 124.167 56.8836 125.764 56.8836 127.728C56.8845 129.69 55.29 131.287 53.3297 131.287Z" fill="#525252"/>
<path d="M103.944 127.726C103.944 128.648 103.197 129.396 102.273 129.396C101.351 129.396 100.604 128.648 100.604 127.726C100.604 126.803 101.351 126.055 102.273 126.055C103.197 126.055 103.944 126.803 103.944 127.726Z" fill="#525252"/>
<path d="M102.285 119.465C97.712 119.465 94.0085 123.169 94.0085 127.723C94.0085 132.278 97.7122 136 102.285 136C106.821 136 110.524 132.277 110.524 127.723C110.524 123.169 106.821 119.465 102.285 119.465ZM102.273 131.287C100.309 131.287 98.7132 129.69 98.7132 127.728C98.7132 125.764 100.31 124.167 102.273 124.167C104.232 124.167 105.827 125.764 105.827 127.728C105.827 129.69 104.233 131.287 102.273 131.287Z" fill="#525252"/>
<path d="M116.023 106.349L109.466 94.6144C108.842 93.5182 107.689 92.8379 106.442 92.8379H94.0647V121.768C95.9166 119.218 98.9023 117.574 102.285 117.574C105.951 117.574 109.145 119.521 110.921 122.449C115.815 122.449 116.231 122.43 116.458 122.468V108.012C116.458 107.425 116.306 106.859 116.023 106.349L116.023 106.349ZM101.907 113.568H98.0702C97.5414 113.568 97.1255 113.152 97.1255 112.623C97.1255 112.113 97.5414 111.678 98.0702 111.678H101.907C102.435 111.678 102.851 112.113 102.851 112.623C102.851 113.152 102.436 113.568 101.907 113.568ZM97.3522 108.73V98.9797H106.763L112.206 108.73H97.3522Z" fill="#525252"/>
</svg>
