<svg viewBox="0 0 255 136" fill="none" xmlns="http://www.w3.org/2000/svg">
<g clip-path="url(#clip0_42_1395)">
<path d="M5.21132 66.0317C5.21132 59.3657 5.21132 52.7084 5.21132 46.0425C5.21132 44.7602 5.32549 43.4955 5.61531 42.2308C6.05444 40.3162 6.90636 38.6212 8.12714 37.1018C10.191 34.5285 12.7819 32.7368 15.9963 31.9025C18.2271 31.3228 20.493 30.9276 22.7765 30.5675C27.3435 29.8386 31.9455 29.6278 36.5476 29.294C37.1888 29.2501 37.8299 29.2501 38.4535 29.136C38.8048 29.0657 39.1912 28.8637 39.4371 28.6002C39.8762 28.1435 40.21 27.5814 40.6227 27.0896C41.3781 26.2025 42.2914 25.4999 43.3014 24.9291C44.654 24.165 46.0943 23.6468 47.6664 23.6029C47.9211 23.6029 48.1758 23.5853 48.4305 23.5853C51.724 23.5151 54.3851 24.85 56.5544 27.2565C56.9847 27.7307 57.3273 28.2753 57.7576 28.7495C57.9157 28.9252 58.1792 29.0306 58.4163 29.1096C58.6534 29.1886 58.9169 29.215 59.1716 29.2325C61.3409 29.3819 63.519 29.5751 65.6883 29.6541C68.9027 29.7683 72.0645 30.2425 75.235 30.7168C77.3779 31.0418 79.5385 31.4019 81.6111 32.0781C85.4404 33.3253 88.3474 35.7053 90.2883 39.2184C91.2369 40.9222 91.6496 42.8017 91.7726 44.7426C91.8341 45.7614 91.799 46.789 91.799 47.8165C91.799 57.9341 91.799 68.0604 91.799 78.178C91.799 80.6108 91.799 83.0435 91.8165 85.4851C91.8165 86.2492 91.8604 87.0221 91.9219 87.7861C91.9922 88.5854 92.5455 89.1826 92.8968 89.8501C93.573 91.1235 93.8365 92.5024 94.0034 93.8988C94.0473 94.2765 94.0034 94.6717 93.9419 95.0406C93.7048 96.5688 93.292 98.0442 92.4137 99.344C91.9658 100.003 91.8077 100.749 91.8077 101.531C91.8077 103.323 91.8077 105.114 91.7902 106.915C91.7902 107.292 91.7023 107.67 91.6584 108.056C91.6233 108.311 91.149 108.777 90.868 108.812C90.3674 108.882 89.858 108.996 89.3574 109.031C87.1881 109.172 85.01 109.268 82.8495 109.62C78.7568 109.83 74.6905 110.375 70.5978 110.638C68.9379 110.744 67.2692 110.832 65.6268 111.095C65.5039 111.113 65.3721 111.13 65.2492 111.139C60.0147 111.561 54.7803 111.991 49.5459 112.404C49.0365 112.448 48.5183 112.448 48.0089 112.404C45.0755 112.149 42.1246 112.123 39.2 111.675C38.4447 111.561 37.6718 111.526 36.8989 111.482C34.5979 111.35 32.2969 111.209 30.0046 110.884C29.2493 110.779 28.4764 110.744 27.7035 110.7C25.5255 110.577 23.3562 110.445 21.1956 110.138C20.4403 110.032 19.6675 109.989 18.8946 109.945C16.5936 109.813 14.2925 109.646 12.0003 109.339C10.7356 109.172 9.44453 109.163 8.17105 109.066C7.5387 109.014 6.89757 108.926 6.26522 108.856C5.81731 108.803 5.29914 108.258 5.27279 107.828C5.24645 107.45 5.19375 107.064 5.18497 106.686C5.17618 105.281 5.15862 103.867 5.18497 102.462C5.2201 101.153 5.06201 99.9237 4.26279 98.8171C3.56897 97.8598 3.38453 96.7005 3.12984 95.5763C2.92784 94.6893 2.92784 93.8022 3.09471 92.9064C3.33184 91.6329 3.64801 90.3858 4.37697 89.3143C4.98297 88.4185 5.1674 87.4612 5.1674 86.4073C5.15862 79.6183 5.1674 72.8294 5.1674 66.0317H5.18497H5.21132ZM75.3052 65.2763C75.3052 65.2763 75.3052 65.2149 75.3052 65.1885C77.9927 65.3642 80.6714 65.5486 83.3589 65.7067C83.9912 65.7418 84.6411 65.7506 85.2735 65.6891C85.4755 65.6716 85.7302 65.4169 85.8092 65.2061C85.9497 64.8548 86.02 64.4596 86.02 64.0907C86.0376 60.1209 86.0463 56.1512 86.0551 52.1727C86.0551 51.918 86.0376 51.6633 86.0288 51.4086C85.9849 50.1966 85.4843 49.1866 84.6675 48.3171C83.7717 47.3686 82.709 46.6484 81.5057 46.1917C80.4255 45.7877 79.3277 45.4452 78.1684 45.3223C75.112 44.9885 72.0908 44.3825 69.0081 44.3035C68.244 44.2859 67.4799 44.1454 66.7158 44.0752C65.6971 43.9873 64.6783 43.8732 63.6507 43.8468C60.3221 43.7678 56.9935 43.7151 53.6561 43.6711C53.2785 43.6711 52.8745 43.6799 52.5144 43.7853C52.2948 43.8468 52.0401 44.0664 51.9611 44.2771C51.8293 44.6284 51.7767 45.0237 51.7767 45.4013C51.7767 49.2481 51.7767 53.0861 51.7942 56.9329C51.7942 57.1876 51.803 57.4598 51.8996 57.6882C51.9962 57.9078 52.1719 58.18 52.3826 58.2503C52.734 58.3732 53.1292 58.3996 53.5068 58.4083C54.7891 58.4347 56.0801 58.3381 57.3448 58.4786C60.0411 58.7684 62.2104 59.9804 63.5366 62.4483C63.8352 63.0104 64.0635 63.6252 64.3885 64.1697C64.5817 64.4947 64.9242 64.7143 65.3282 64.7582C65.9605 64.8284 66.6017 64.9163 67.234 64.9514C69.9215 65.0743 72.609 65.171 75.2964 65.2851L75.3052 65.2763ZM21.6787 65.1973C21.6787 65.1973 21.6787 65.25 21.6787 65.2763C24.4979 65.1622 27.3083 65.0568 30.1275 64.9163C30.7599 64.8811 31.401 64.7757 32.0246 64.6352C32.2529 64.5825 32.5076 64.3893 32.6218 64.1961C32.938 63.6428 33.1575 63.028 33.4825 62.4835C33.8075 61.939 34.1588 61.3944 34.5803 60.9202C35.9328 59.4271 37.6718 58.6806 39.6479 58.4698C40.412 58.3908 41.1848 58.4435 41.9489 58.4171C42.713 58.3996 43.4859 58.3644 44.25 58.3469C44.7154 58.3293 45.1897 57.8463 45.1897 57.3457C45.2073 53.2442 45.2248 49.1515 45.2336 45.05C45.2336 44.7953 45.1897 44.5231 45.0755 44.3035C44.9614 44.0927 44.7506 43.8644 44.531 43.8029C44.1709 43.6887 43.7757 43.6711 43.3981 43.6711C40.5788 43.6975 37.7596 43.7502 34.9404 43.7853C31.0936 43.838 27.282 44.4352 23.4528 44.646C23.1981 44.6636 22.9434 44.7251 22.6975 44.7602C21.5557 44.9271 20.4228 45.1466 19.281 45.252C18.1217 45.3662 17.0151 45.6912 15.9261 46.0512C14.4418 46.5343 13.1683 47.3862 12.1408 48.5806C11.5436 49.2744 11.1308 50.0649 11.0605 50.9958C11.0254 51.5052 10.9727 52.0146 10.9727 52.5328C10.9727 56.2478 10.9727 59.9629 10.9727 63.6779C10.9727 63.9326 10.9727 64.1873 10.999 64.442C11.0078 64.5649 11.0693 64.6879 11.0693 64.8197C11.0693 65.2149 11.6138 65.7857 12.0881 65.7594C15.285 65.5574 18.4818 65.3817 21.6699 65.1973H21.6787ZM48.1494 62.2991C45.8572 62.2991 43.5561 62.2991 41.2639 62.2991C40.7545 62.2991 40.2363 62.299 39.7357 62.3605C38.3744 62.5362 36.6355 63.6428 36.4949 65.6189C36.3895 67.147 36.3544 68.6752 36.5213 70.2034C36.6794 71.6086 37.4961 72.5308 38.7872 73.0226C39.2615 73.1983 39.7708 73.2949 40.2715 73.3563C40.7721 73.4178 41.2902 73.4002 41.7996 73.4002C46.2612 73.4002 50.7315 73.4002 55.1931 73.4002C55.7025 73.4002 56.2206 73.4178 56.7213 73.3563C57.2219 73.2949 57.7313 73.1983 58.2055 73.0226C59.5141 72.5571 60.3397 71.6262 60.4978 70.2297C60.691 68.5786 60.7173 66.9187 60.4802 65.2676C60.3309 64.1961 59.6898 63.4144 58.75 62.8787C58.0738 62.4835 57.336 62.2991 56.5632 62.2991C53.7615 62.2991 50.9511 62.2991 48.1494 62.2991ZM55.2019 33.8171C55.1755 33.5624 55.1492 33.1759 55.0965 32.7983C55.0613 32.5436 55.0086 32.2889 54.9296 32.0518C53.9899 29.2589 51.522 27.6166 49.2736 27.5112C48.6325 27.4848 47.9914 27.5024 47.3502 27.5463C46.9726 27.5727 46.5774 27.6517 46.2261 27.7922C43.5298 28.8286 41.8348 31.2262 41.826 33.9752C41.826 34.8798 41.8523 35.7932 42.2212 36.6187C43.3629 39.1657 45.2951 40.6675 48.1407 40.8344C52.1367 41.0715 55.2282 37.9186 55.2019 34.3265C55.2019 34.1947 55.2019 34.0718 55.2019 33.8171ZM84.3162 99.8183C87.6975 99.8183 90.0161 97.3416 90.183 94.0657C89.9019 91.2289 88.0927 88.6205 84.483 88.5327C81.4267 88.4624 78.9412 91.0445 78.8622 94.0833C78.7744 97.3504 81.7165 99.8183 84.3074 99.8095L84.3162 99.8183ZM18.1481 94.3994C18.3413 91.0884 15.566 88.4624 12.4745 88.5327C9.04931 88.6205 7.12592 91.1587 6.83609 94.136C7.04688 97.2099 9.12835 99.6602 12.4043 99.8095C15.4957 99.9501 18.1656 97.2099 18.1481 94.3906V94.3994ZM51.3551 97.6402H51.3639C51.3639 96.4897 51.3727 95.348 51.3639 94.1974C51.3639 93.8198 51.2848 93.4334 51.2409 93.0557C51.1794 92.5024 50.5822 91.8174 50.0553 91.6768C49.0541 91.4046 48.044 91.4309 47.034 91.6505C46.5247 91.7559 45.866 92.4848 45.8045 92.9942C45.7869 93.1172 45.7518 93.2489 45.743 93.3719C45.5849 96.3053 45.6201 99.2387 45.7254 102.163C45.7254 102.286 45.7781 102.418 45.7869 102.541C45.866 103.191 46.3051 103.683 46.9726 103.876C48.1143 104.201 49.2385 104.227 50.3363 103.753C50.6788 103.604 51.0213 103.393 51.1004 102.971C51.197 102.471 51.32 101.97 51.3375 101.469C51.3727 100.196 51.3463 98.9225 51.3463 97.6402H51.3551ZM44.1797 100.336C44.1358 99.6514 44.0919 98.7732 44.0304 97.8949C43.9953 97.4558 43.5122 96.9025 43.0731 96.841C42.7042 96.7883 42.3178 96.7708 41.9489 96.7971C41.2902 96.841 40.7545 97.3767 40.693 97.9915C40.5261 99.6251 40.5261 101.259 40.7106 102.892C40.7545 103.305 41.0443 103.568 41.3605 103.77C41.9226 104.139 42.5374 104.166 43.1521 103.902C43.644 103.691 44.0041 103.34 44.0568 102.796C44.1358 102.049 44.1446 101.285 44.1885 100.336H44.1797ZM56.4314 101.733C56.4314 100.064 56.4402 99.3089 56.4314 98.5536C56.4314 98.3077 56.3436 98.0618 56.3085 97.8159C56.247 97.447 55.6673 96.8674 55.2809 96.8234C55.035 96.7971 54.7803 96.7795 54.5256 96.7883C53.6386 96.8147 53.015 97.3416 52.9711 98.0969C52.8745 99.7305 52.8218 101.364 53.0326 102.998C53.0677 103.261 53.217 103.446 53.419 103.621C53.946 104.06 54.5432 104.157 55.1843 104.016C55.7903 103.876 56.3612 103.252 56.3875 102.717C56.4226 102.084 56.449 101.461 56.4314 101.742V101.733ZM38.9277 100.354C38.8662 99.4933 38.8048 98.5975 38.7345 97.7017C38.7169 97.447 38.2427 96.9903 37.9792 96.8937C37.6015 96.762 37.2327 96.762 36.8462 96.7883C36.1436 96.8322 35.6255 97.2626 35.5113 97.93C35.2302 99.5812 35.2302 101.241 35.5113 102.901C35.5991 103.454 35.9943 103.814 36.4949 103.972C37.1273 104.174 37.7508 104.087 38.3129 103.674C38.5325 103.507 38.7081 103.331 38.7345 103.068C38.8048 102.172 38.8662 101.285 38.9277 100.354ZM58.1265 100.451C58.188 101.32 58.2406 102.207 58.3197 103.103C58.346 103.358 58.5305 103.542 58.75 103.7C59.3121 104.122 59.9269 104.148 60.568 103.972C61.0247 103.85 61.4726 103.305 61.5253 102.875C61.7186 101.346 61.6483 99.8095 61.5693 98.2814C61.5605 98.0355 61.4287 97.7895 61.3585 97.5524C61.2355 97.1396 60.893 96.9376 60.5241 96.8586C60.1553 96.7795 59.76 96.7971 59.3824 96.8147C58.952 96.8322 58.3285 97.3943 58.3021 97.7544C58.2407 98.6414 58.188 99.5373 58.1265 100.459V100.451Z" fill="#525252"/>
<path d="M48.2128 136.026C44.4275 135.895 40.7125 135.772 36.9974 135.614C35.8469 135.561 34.7052 135.403 33.5546 135.28C32.7906 135.201 32.0265 135.078 31.2624 134.999C24.7369 134.34 18.3607 132.97 12.1251 130.968C8.46275 129.791 4.92336 128.289 1.59476 126.348C1.15563 126.093 0.742845 125.777 0.321281 125.487C0.154411 125.373 -0.0563714 124.627 0.0138894 124.416C0.0578024 124.293 0.0841511 124.17 0.128064 124.047C1.75284 120.147 3.38641 116.257 5.01119 112.357C5.17806 111.945 5.56449 111.769 5.93336 111.786C7.72501 111.857 9.51666 111.962 11.3083 112.085C11.9494 112.129 12.5818 112.287 13.2141 112.322C17.4386 112.542 21.6367 113.077 25.8611 113.394C30.2085 113.719 34.5471 114.149 38.8857 114.535C40.1591 114.65 41.4414 114.773 42.7149 114.869C43.7337 114.948 44.77 114.948 45.78 115.08C47.4399 115.308 49.0911 115.308 50.7598 115.08C51.6468 114.957 52.5514 114.957 53.4472 114.895C54.7295 114.799 56.0117 114.737 57.2764 114.571C59.0593 114.342 60.851 114.246 62.6426 114.096C67.113 113.727 71.5833 113.306 76.0448 112.902C77.0636 112.814 78.0912 112.7 79.11 112.647C81.1563 112.524 83.2027 112.34 85.2402 112.111C87.0231 111.909 88.8148 111.865 90.6064 111.786C90.9753 111.769 91.3793 111.909 91.5549 112.313C93.1973 116.204 94.8221 120.104 96.4556 123.994C96.5083 124.108 96.5259 124.24 96.5698 124.363C96.7103 124.75 96.4293 125.443 96.0253 125.68C95.5861 125.944 95.1646 126.234 94.7254 126.497C91.511 128.403 88.0594 129.756 84.5464 130.959C80.7172 132.276 74.947 133.523 70.7489 134.279C67.7102 134.823 64.6363 134.999 61.6063 135.482C60.9739 135.578 60.3328 135.605 59.6917 135.631C55.8449 135.772 52.0069 135.903 48.2216 136.044L48.2128 136.026ZM34.8457 122.686C34.8457 122.686 34.8105 122.686 34.7842 122.686C34.8105 122.299 34.8281 121.922 34.8545 121.535C34.8545 121.403 34.8545 121.28 34.8632 121.149C34.8984 120.13 34.5471 119.673 33.6337 119.612C32.7379 119.55 31.8508 119.489 30.955 119.445C30.7003 119.436 30.428 119.445 30.1997 119.533C29.9801 119.621 29.6815 119.805 29.6376 119.998C29.0492 122.615 28.5046 125.241 27.9513 127.859C27.8811 128.184 28.1797 128.719 28.4432 128.781C30.0679 129.158 31.6839 129.501 33.3614 129.483C33.6425 129.483 34.0904 129.088 34.1255 128.781C34.3626 126.752 34.5998 124.723 34.8281 122.686H34.8457ZM61.7995 122.053C61.9049 124.714 62.2035 126.866 62.5109 129.018C62.7041 129.167 62.8973 129.448 63.0993 129.448C64.891 129.492 66.6387 129.185 68.3425 128.623C68.5972 128.535 68.6938 128.245 68.6499 127.99C68.202 125.347 67.5609 122.747 67.0076 120.121C66.9461 119.849 66.4455 119.498 66.1469 119.48C64.8646 119.419 63.5999 119.506 62.3352 119.726C62.142 119.761 61.9049 120.042 61.8434 120.262C61.615 121.008 61.7907 121.781 61.7995 122.053ZM51.0496 125.531C51.0496 125.531 51.0232 125.531 51.0144 125.531C51.0144 126.673 51.0144 127.815 51.0144 128.956C51.0144 129.202 51.0408 129.475 51.155 129.685C51.2691 129.887 51.4887 130.142 51.6907 130.16C53.2101 130.326 54.7295 130.239 56.2401 130.072C56.609 130.037 57.092 129.378 57.0569 128.948C56.8022 126.295 56.5475 123.643 56.2664 120.999C56.2489 120.797 55.9766 120.49 55.7922 120.464C54.3957 120.297 53.0169 120.42 51.6731 120.85C51.3745 120.947 51.0584 121.368 51.0584 121.728C51.0584 122.993 51.0584 124.266 51.0584 125.531H51.0496ZM45.5692 125.391C45.5692 125.391 45.6219 125.391 45.6483 125.391C45.6044 124.126 45.5604 122.861 45.5253 121.588C45.5253 121.333 45.0774 120.841 44.8227 120.78C43.5844 120.464 42.3284 120.341 41.0462 120.411C40.7564 120.429 40.326 120.824 40.2997 121.149C40.1416 122.659 39.9747 124.179 39.8166 125.689C39.72 126.699 39.6322 127.709 39.5619 128.728C39.5444 128.974 39.5619 129.255 39.6585 129.475C39.7551 129.685 39.9396 129.931 40.1416 130.002C40.4841 130.133 40.8793 130.177 41.2482 130.186C42.3899 130.212 43.5317 130.204 44.6734 130.212C45.1389 130.212 45.5692 129.738 45.5692 129.202C45.5692 127.929 45.5692 126.664 45.5692 125.391ZM18.2817 122.44C17.8689 123.88 17.5615 124.855 17.3244 125.839C17.2805 126.014 17.4913 126.339 17.6669 126.453C18.8965 127.217 20.3456 127.226 21.6981 127.578C22.0319 127.665 22.4446 127.384 22.5588 127.015C23.2878 124.574 23.8147 122.08 24.1397 119.55C24.1748 119.243 23.7972 118.795 23.481 118.76C22.594 118.654 21.7157 118.514 20.8199 118.435C19.7747 118.338 19.52 118.584 19.1687 119.612C18.7999 120.692 18.4837 121.799 18.2817 122.44ZM74.9734 118.505C74.2532 118.61 73.6209 118.698 72.9885 118.786C72.7162 118.821 72.4176 119.331 72.4616 119.682C72.7865 122.08 73.3135 124.442 73.9458 126.778C73.9809 126.901 74.0512 127.007 74.0951 127.13C74.2005 127.411 74.6748 127.613 75.0436 127.542C75.7902 127.384 76.5542 127.27 77.292 127.077C77.7838 126.954 78.2493 126.734 78.7235 126.559C79.0836 126.418 79.3559 125.979 79.2681 125.68C78.6884 123.731 78.1175 121.772 77.5203 119.831C77.4062 119.471 77.2481 119.111 77.0285 118.804C76.8968 118.619 76.6245 118.444 76.4049 118.435C75.9043 118.409 75.3862 118.479 74.9734 118.505ZM83.431 121.237C83.6857 122.036 83.9843 123.011 84.2917 123.985C84.362 124.223 85.0295 124.609 85.2315 124.539C86.4435 124.126 87.6027 123.617 88.762 123.072C88.8674 123.019 88.9553 122.896 89.008 122.782C89.1046 122.554 89.2978 122.255 89.2275 122.088C88.604 120.692 88.1912 119.208 87.4008 117.89C87.1988 117.557 86.8562 117.337 86.461 117.346C85.3105 117.381 84.16 117.46 83.0797 117.882C82.8953 117.952 82.8075 118.268 82.6757 118.479C82.9128 119.339 83.1588 120.191 83.4398 121.219L83.431 121.237ZM13.3195 120.587C13.3722 120.402 13.6269 119.419 13.8904 118.444C13.7499 118.25 13.6445 117.952 13.4513 117.882C12.371 117.478 11.2205 117.39 10.0787 117.381C9.65718 117.381 9.32344 117.636 9.16536 117.969C8.57692 119.234 8.04119 120.525 7.4791 121.807C7.28588 122.238 7.50545 122.958 7.8831 123.125C8.93701 123.581 9.95579 124.1 11.0536 124.433C11.5103 124.574 12.1954 124.337 12.3095 123.942C12.573 123.09 12.8277 122.238 13.3195 120.604V120.587Z" fill="#E52421"/>
<path d="M70.0903 22.9065C69.6687 22.5727 69.2911 22.2214 68.8695 21.9316C66.8759 20.5439 64.8383 19.209 62.8798 17.7774C61.9928 17.1363 61.0706 16.8816 60.0167 16.8904C58.8661 16.8992 57.7156 16.8904 56.5651 16.8904C51.0584 16.8904 45.5605 16.8904 40.0538 16.8904C38.9033 16.8904 37.7528 16.8904 36.6023 16.8904C35.5483 16.8816 34.6262 17.1275 33.7391 17.7687C31.7806 19.2002 29.743 20.5352 27.7494 21.9228C27.3278 22.2126 26.9502 22.5552 26.5637 22.8625C26.8711 23.8111 27.723 24.2414 28.3115 24.8913C28.5135 25.1197 28.5223 25.3568 28.373 25.5325C28.2939 25.6291 28.1797 25.7345 28.0656 25.7608C26.8184 26.0682 25.5625 26.279 24.2803 26.3405C23.9026 26.358 23.5162 26.3317 23.1912 26.0858C21.9617 25.1636 20.7584 24.2151 19.7221 23.0733C19.5728 22.9065 19.6255 22.6342 19.8187 22.4059C20.3193 21.8174 21.0044 21.4398 21.6279 21.0006C23.1912 19.894 24.8424 18.9016 26.3178 17.672C26.3705 17.6281 26.3266 17.4261 26.2915 17.312C26.2564 17.2153 26.1773 17.11 26.0807 17.0573C25.7294 16.8553 25.343 16.8904 24.9565 16.8904C22.6555 16.8553 20.3544 16.8377 18.0446 16.8026C17.7548 16.8026 17.2718 16.3722 17.2366 16.1C17.2191 15.977 17.1312 15.854 17.14 15.7311C17.14 15.09 17.1664 14.4576 17.2015 13.8165C17.2191 13.5354 17.6758 13.1314 17.9919 13.1051C18.3696 13.07 18.756 13.0173 19.1337 13.0173C20.5389 12.9997 21.9529 12.9997 23.3581 12.9997C40.5105 12.9997 57.6629 12.9997 74.8066 12.9997C76.08 12.9997 77.3623 13.0524 78.6358 13.0875C78.9432 13.0875 79.3911 13.5179 79.4262 13.8077C79.5053 14.5718 79.5755 15.3271 79.3911 16.0912C79.3296 16.3459 78.8641 16.7938 78.5831 16.7938C76.405 16.8201 74.2357 16.8465 72.0576 16.8728C71.5482 16.8728 71.03 16.7938 70.547 17.0397C70.4504 17.0836 70.3626 17.1802 70.3187 17.2768C70.2747 17.391 70.222 17.6018 70.2747 17.6457C70.9773 18.199 71.6887 18.7347 72.4177 19.2529C73.779 20.2102 75.1579 21.1324 76.5104 22.0985C77.0198 22.4586 77.1339 22.9592 76.6773 23.3456C75.597 24.2414 74.5167 25.146 73.4453 26.0506C73.1291 26.3141 72.7427 26.3405 72.3562 26.3317C71.074 26.2878 69.8093 26.0594 68.5709 25.7608C68.2811 25.6906 68.1406 25.471 68.1581 25.2514C68.1669 25.1285 68.2196 24.988 68.2987 24.9089C68.6675 24.5576 69.0803 24.2414 69.4228 23.8638C69.6775 23.5915 69.8532 23.2402 70.0815 22.8977L70.0903 22.9065Z" fill="#E52421"/>
</g>
<defs>
<clipPath id="clip0_42_1395">
<rect width="255" height="136" fill="white" transform="translate(0 -0.000305176)"/>
</clipPath>
</defs>
</svg>
