<svg width="52" height="52" viewBox="0 0 52 52" fill="none" xmlns="http://www.w3.org/2000/svg">
<circle cx="26" cy="26" r="26" fill="#F5F6FA"/>
<path d="M20.0001 32.75C19.5859 32.75 19.2501 33.0858 19.2501 33.5C19.2501 33.9142 19.5859 34.25 20.0001 34.25H24.5001C24.9143 34.25 25.2501 33.9142 25.2501 33.5C25.2501 33.0858 24.9143 32.75 24.5001 32.75H20.0001Z" fill="#E52421"/>
<path d="M19.2501 30.5C19.2501 30.0858 19.5859 29.75 20.0001 29.75H27.5001C27.9143 29.75 28.2501 30.0858 28.2501 30.5C28.2501 30.9142 27.9143 31.25 27.5001 31.25H20.0001C19.5859 31.25 19.2501 30.9142 19.2501 30.5Z" fill="#E52421"/>
<path d="M20.0001 26.75C19.5859 26.75 19.2501 27.0858 19.2501 27.5C19.2501 27.9142 19.5859 28.25 20.0001 28.25H24.5001C24.9143 28.25 25.2501 27.9142 25.2501 27.5C25.2501 27.0858 24.9143 26.75 24.5001 26.75H20.0001Z" fill="#E52421"/>
<path fill-rule="evenodd" clip-rule="evenodd" d="M16.2505 18.4978L16.2505 18.5014V33.4928L16.2505 33.4959L16.2505 33.5C16.2505 34.4938 16.7398 35.4249 17.4076 36.0926C18.0753 36.7603 19.0063 37.2496 20.0001 37.2496H32.0001C32.9937 37.2496 33.9267 36.76 34.5954 36.0923C35.2635 35.4252 35.7544 34.4934 35.7497 33.4981V23C35.7497 22.7479 35.6253 22.5248 35.4344 22.3889L28.0313 14.971L28.0286 14.9683L28.0263 14.9661C27.9554 14.8962 27.8741 14.8433 27.7874 14.8074C27.6989 14.7707 27.6019 14.7504 27.5001 14.7504H20.0036C19.9975 14.7503 19.9914 14.7504 19.9853 14.7505L19.9817 14.7506C19.0011 14.773 18.0774 15.2552 17.4097 15.9176C16.7419 16.5801 16.2505 17.5028 16.2505 18.4978ZM28.2497 17.3123L33.178 22.2504H30.5001C29.9989 22.2504 29.431 21.9894 28.9721 21.5298C28.5138 21.0708 28.2521 20.5017 28.2497 19.9999V17.3123ZM34.2505 23.7496L30.5001 23.7496C29.5074 23.7496 28.5776 23.2565 27.9112 22.5891C27.2448 21.9217 26.7536 20.9918 26.7505 20.0023L26.7505 16.2496H20.0092C19.4924 16.2636 18.9202 16.5309 18.4656 16.9819C18.0088 17.4351 17.7502 17.994 17.7497 18.4965L17.7497 18.5V33.4928L17.7497 33.497L17.7497 33.5C17.7497 34.0062 18.0104 34.5751 18.4677 35.0324C18.925 35.4897 19.4939 35.7504 20.0001 35.7504H32.0001C32.5065 35.7504 33.0777 35.4891 33.536 35.0314C33.9942 34.5738 34.253 34.0068 34.2505 33.5048L34.2505 33.5002L34.9001 23.7507L34.2505 33.4998V23.7496Z" fill="#E52421"/>
</svg>
