<svg viewBox="0 0 28 28" fill="none" xmlns="http://www.w3.org/2000/svg">
<path d="M14.0002 3.1084C11.2093 3.1084 8.41732 4.17526 6.29323 6.29922C2.04548 10.547 2.04548 17.4577 6.29323 21.7055C10.541 25.9532 17.459 25.9532 21.7067 21.7055C25.9545 17.4577 25.9545 10.547 21.7067 6.29922C19.5828 4.17526 16.791 3.1084 13.9998 3.1084H14.0002ZM14.0002 4.99621C15.7789 4.99621 17.5563 5.52848 19.0864 6.58046L17.0209 8.63863C16.0873 8.11347 15.0449 7.8464 14.0005 7.8464C12.9562 7.8464 11.9137 8.11345 10.9801 8.63863L8.91465 6.58046C10.4445 5.52848 12.222 4.99621 14.0009 4.99621H14.0002ZM6.57498 8.91991L8.63299 10.9854C7.58562 12.8532 7.58562 15.1586 8.63299 17.0264L6.57498 19.0918C4.46756 16.033 4.46984 11.9797 6.57498 8.91982V8.91991ZM21.4258 8.91991C23.5309 11.9798 23.5332 16.0329 21.4258 19.0919L19.3678 17.0265C20.4152 15.1588 20.4152 12.8532 19.3678 10.9854L21.4258 8.91991ZM14.0006 9.73426C15.0899 9.73426 16.1771 10.1489 17.0138 10.9854C18.687 12.6585 18.687 15.3456 17.0138 17.0188C15.3406 18.6919 12.6607 18.6919 10.9876 17.0188C9.31442 15.3456 9.31442 12.6585 10.9876 10.9854C11.8242 10.1487 12.9114 9.73426 14.0008 9.73426H14.0006ZM10.9802 19.3732C12.8465 20.4206 15.1549 20.4206 17.0212 19.3732L19.0867 21.4314C16.0272 23.5353 11.9741 23.5353 8.91465 21.4314L10.9802 19.3732Z" fill="#E52421"/>
</svg>
