<svg width="90" height="97" viewBox="0 0 90 97" fill="none" xmlns="http://www.w3.org/2000/svg">
<path d="M2.64993 21C0.386642 21 -0.623516 22.6251 0.399437 24.6155L36.0366 93.3846C37.0723 95.3749 39.7704 97 42.0337 97L60.3446 97C62.6079 97 63.6308 95.3749 62.5951 93.3846L26.9963 24.6406C25.9605 22.6503 23.2625 21.0252 20.9992 21.0252L2.64993 21Z" fill="#23262D"/>
<path d="M41.8934 22.9718H47.1306V35.8844C48.1349 36.602 49.0677 37.3912 49.9999 38.1803C50.8606 37.3911 51.8649 36.6021 52.8691 35.8844V22.9718H58.1058C58.9665 22.9718 59.7556 22.4694 60.1859 21.6807C60.5447 20.8916 60.4726 19.9589 59.8992 19.3134L51.7933 9.19837C50.9326 8.12252 49.1391 8.12252 48.278 9.19837L40.1 19.3129C39.526 20.0305 39.4545 20.9627 39.8133 21.6802C40.2436 22.4694 41.0328 22.9718 41.8934 22.9718Z" fill="#EFBA00"/>
<path d="M31.9218 36.817H30.5586V31.5803C30.5586 30.7196 30.0562 29.9305 29.2676 29.5002C28.4785 29.1414 27.5458 29.2135 26.9003 29.7869L16.7853 37.8214C16.2828 38.2517 15.9246 38.8972 15.9246 39.6148C15.9246 40.3324 16.2113 40.9779 16.7853 41.4082L26.9003 49.5146C27.3307 49.8734 27.833 50.017 28.3349 50.017C28.6937 50.017 28.9804 49.9455 29.3392 49.8019C30.1283 49.4431 30.6302 48.654 30.6302 47.7218V42.4851H31.9934C40.315 42.4846 47.1299 49.2995 47.1299 57.692V68.7393C47.1299 70.3175 48.4209 71.6085 49.9991 71.6085C51.5773 71.6085 52.8683 70.3175 52.8683 68.7393V57.692C52.8683 46.1424 43.4716 36.817 31.9218 36.817Z" fill="#EFBA00"/>
<path d="M83.2137 37.8213L73.0986 29.7869C72.381 29.2129 71.4488 29.1414 70.7313 29.5002C69.9422 29.859 69.4403 30.6481 69.4403 31.5803V36.817H68.0771C62.4817 36.817 57.4602 38.9692 53.7297 42.4839C54.8776 44.1338 55.8099 45.8556 56.599 47.7206C59.3251 44.4926 63.486 42.412 68.0771 42.412H69.4403V47.6486C69.4403 48.5093 69.9427 49.2985 70.7313 49.7288C71.018 49.8724 71.3768 49.9439 71.7356 49.9439C72.238 49.9439 72.7399 49.8003 73.1702 49.4415L83.2136 41.4081C83.716 40.9778 84.0743 40.3323 84.0743 39.6147C84.0743 38.9692 83.7876 38.2516 83.2137 37.8213Z" fill="#EFBA00"/>
</svg>
