<svg width="24" height="24" viewBox="0 0 24 24" fill="none" xmlns="http://www.w3.org/2000/svg">
<path d="M22.2075 2.45514C22.0913 2.3548 21.9499 2.28806 21.7986 2.26213C21.6473 2.23619 21.4917 2.25203 21.3487 2.30795L2.34937 9.74327C2.0801 9.84797 1.85214 10.0373 1.6998 10.2828C1.54745 10.5283 1.47898 10.8166 1.50468 11.1043C1.53037 11.3921 1.64886 11.6637 1.84229 11.8783C2.03572 12.0929 2.29362 12.2389 2.57718 12.2942L7.49999 13.2608V18.7498C7.49902 19.0488 7.58787 19.3412 7.75503 19.5891C7.92219 19.837 8.15995 20.029 8.43749 20.1401C8.71461 20.2533 9.01936 20.2805 9.31213 20.2181C9.60489 20.1557 9.87211 20.0067 10.0791 19.7905L12.4528 17.3286L16.2187 20.6248C16.4904 20.8658 16.8409 20.9992 17.2041 20.9998C17.3632 20.9997 17.5214 20.9747 17.6728 20.9258C17.9203 20.8472 18.1428 20.7053 18.3183 20.514C18.4938 20.3227 18.6162 20.0887 18.6731 19.8355L22.4784 3.28108C22.5125 3.13178 22.5052 2.97603 22.4575 2.83053C22.4098 2.68503 22.3234 2.55527 22.2075 2.45514ZM16.4756 5.83014L8.07656 11.8451L3.42656 10.933L16.4756 5.83014ZM8.99999 18.7498V14.2986L11.3241 16.3367L8.99999 18.7498ZM17.2059 19.4998L9.45468 12.703L20.6109 4.70702L17.2059 19.4998Z" fill="#F5F6FA"/>
</svg>
