<svg viewBox="0 0 28 28" fill="none" xmlns="http://www.w3.org/2000/svg">
<path d="M13.7899 8.33797L9.83398 10.1428L14.0123 12.0465L18.1907 10.1428L14.2348 8.33797C14.0865 8.26364 13.9382 8.26364 13.7899 8.33797Z" fill="#E52421"/>
<path d="M19.1797 17.0163V11.5029L14.853 13.4809V19.3404L18.883 17.4861C19.056 17.412 19.1797 17.2388 19.1797 17.0163Z" fill="#E52421"/>
<path d="M8.8451 17.0163C8.8451 17.2141 8.96876 17.4119 9.14173 17.4861L13.1717 19.3404V13.4809L8.84509 11.5029L8.8451 17.0163Z" fill="#E52421"/>
<path d="M12.4189 5.67061V3.61621L12.2001 3.65437C7.86996 4.40967 4.44741 7.83275 3.66717 12.1618L3.62756 12.3815H5.68283L5.71451 12.2341C6.4161 8.96835 8.98056 6.40381 12.2711 5.70212L12.4189 5.67061Z" fill="#E52421"/>
<path d="M5.68315 15.5932H3.62875L3.6669 15.8119C4.42225 20.1424 7.84556 23.5648 12.1992 24.3449L12.4188 24.3843V22.329L12.2711 22.2975C8.98066 21.5958 6.41629 19.0313 5.71466 15.7409L5.68315 15.5932Z" fill="#E52421"/>
<path d="M15.8242 3.67909L15.6057 3.64118V5.69627L15.7547 5.72696C19.0441 6.40432 21.6082 8.96801 22.3099 12.2585L22.3214 12.3125L22.4152 12.4063H24.3957L24.3576 12.1875C23.6022 7.85728 20.1789 4.43423 15.8242 3.67909Z" fill="#E52421"/>
<path d="M24.3969 15.5931H22.3416L22.3101 15.7408C21.6084 19.0314 19.0439 21.5957 15.7536 22.2973L15.6058 22.3331V22.4026V24.3831L15.8245 24.345C20.1549 23.5896 23.5774 20.1663 24.3575 15.8127L24.3969 15.5931Z" fill="#E52421"/>
<path d="M13.4684 6.78059H14.5314C14.6797 6.78059 14.828 6.65694 14.828 6.48396V2.52808C14.828 2.37976 14.7044 2.23145 14.5314 2.23145H13.4684C13.3201 2.23145 13.1718 2.3551 13.1718 2.52808V6.48396C13.1964 6.65694 13.3201 6.78059 13.4684 6.78059Z" fill="#E52421"/>
<path d="M25.4594 13.1836H21.5035C21.3552 13.1836 21.2069 13.3072 21.2069 13.4802V14.5433C21.2069 14.6916 21.3306 14.8399 21.5035 14.8399H25.4594C25.6077 14.8399 25.7561 14.7162 25.7561 14.5433V13.4802C25.7561 13.3072 25.6324 13.1836 25.4594 13.1836Z" fill="#E52421"/>
<path d="M14.5563 21.2188H13.4933C13.345 21.2188 13.1967 21.3424 13.1967 21.5154V25.4713C13.1967 25.6196 13.3203 25.7679 13.4933 25.7679H14.5563C14.7046 25.7679 14.8529 25.6442 14.8529 25.4713V21.5154C14.8283 21.3424 14.7046 21.2188 14.5563 21.2188Z" fill="#E52421"/>
<path d="M6.79304 14.5442V13.4812C6.79304 13.3329 6.66939 13.1846 6.49641 13.1846H2.54053C2.39221 13.1846 2.2439 13.3082 2.2439 13.4812V14.5442C2.2439 14.6925 2.36755 14.8409 2.54053 14.8409H6.49641C6.66939 14.8162 6.79304 14.6925 6.79304 14.5442Z" fill="#E52421"/>
</svg>
