<svg viewBox="0 0 42 42" fill="none" xmlns="http://www.w3.org/2000/svg">
<path d="M21.0008 31.9501C20.7174 31.9501 20.4798 31.8544 20.2878 31.663C20.0958 31.4717 20.0001 31.2341 20.0008 30.9501V29.9501C17.9174 29.7167 16.1298 28.8544 14.6378 27.3631C13.1458 25.8717 12.2834 24.084 12.0508 22H11.0508C10.7674 22 10.5301 21.904 10.3388 21.712C10.1474 21.52 10.0514 21.2827 10.0508 21C10.0508 20.7167 10.1468 20.479 10.3388 20.287C10.5308 20.095 10.7681 19.9994 11.0508 20H12.0508C12.2841 17.9167 13.1468 16.129 14.6388 14.637C16.1308 13.145 17.9181 12.2827 20.0008 12.05V11.05C20.0008 10.7667 20.0968 10.5294 20.2888 10.338C20.4808 10.1467 20.7181 10.0507 21.0008 10.05C21.2841 10.05 21.5218 10.146 21.7138 10.338C21.9058 10.53 22.0014 10.7674 22.0008 11.05V12.05C24.0841 12.2834 25.8718 13.146 27.3638 14.638C28.8558 16.13 29.7181 17.9174 29.9508 20H30.9508C31.2341 20 31.4718 20.096 31.6638 20.288C31.8558 20.48 31.9515 20.7174 31.9508 21C31.9508 21.2834 31.8551 21.521 31.6638 21.713C31.4724 21.905 31.2348 22.0007 30.9508 22H29.9508C29.7174 24.0834 28.8551 25.8711 27.3638 27.3631C25.8724 28.8551 24.0848 29.7174 22.0008 29.9501V30.9501C22.0008 31.2334 21.9048 31.4711 21.7128 31.663C21.5208 31.855 21.2834 31.9507 21.0008 31.9501ZM21.0008 28C22.9341 28 24.5841 27.3167 25.9508 25.95C27.3174 24.5834 28.0008 22.9334 28.0008 21C28.0008 19.0667 27.3174 17.4167 25.9508 16.05C24.5841 14.6834 22.9341 14 21.0008 14C19.0674 14 17.4174 14.6834 16.0508 16.05C14.6841 17.4167 14.0008 19.0667 14.0008 21C14.0008 22.9334 14.6841 24.5834 16.0508 25.95C17.4174 27.3167 19.0674 28 21.0008 28ZM21.0008 25C19.9008 25 18.9591 24.6084 18.1758 23.825C17.3924 23.0417 17.0008 22.1 17.0008 21C17.0008 19.9 17.3924 18.9584 18.1758 18.175C18.9591 17.3917 19.9008 17 21.0008 17C22.1008 17 23.0424 17.3917 23.8258 18.175C24.6091 18.9584 25.0008 19.9 25.0008 21C25.0008 22.1 24.6091 23.0417 23.8258 23.825C23.0424 24.6084 22.1008 25 21.0008 25Z" fill="#888A96"/>
</svg>
