<svg viewBox="0 0 52 52" fill="none" xmlns="http://www.w3.org/2000/svg">
<path d="M25.2221 20.9675C24.7499 21.4397 23.9844 21.4397 23.5122 20.9675L21.0636 18.519L21.0636 36.4C21.0636 37.0677 20.5223 37.6091 19.8545 37.6091C19.1868 37.6091 18.6454 37.0677 18.6454 36.4L18.6454 18.519L16.1969 20.9675C15.7247 21.4397 14.9591 21.4397 14.4869 20.9675C14.0148 20.4954 14.0148 19.7298 14.4869 19.2576L18.9996 14.745C19.4718 14.2728 20.2373 14.2728 20.7095 14.745L25.2221 19.2576C25.6943 19.7298 25.6943 20.4954 25.2221 20.9675Z" fill="#313438"/>
<path d="M37.5131 31.0324C37.041 30.5602 36.2754 30.5602 35.8032 31.0324L33.3546 33.481V15.6C33.3546 14.9322 32.8133 14.3909 32.1455 14.3909C31.4778 14.3909 30.9365 14.9322 30.9365 15.6V33.481L28.4879 31.0324C28.0157 30.5602 27.2501 30.5602 26.778 31.0324C26.3058 31.5046 26.3058 32.2702 26.778 32.7423L31.2906 37.255C31.7628 37.7271 32.5283 37.7271 33.0005 37.255L37.5131 32.7423C37.9853 32.2702 37.9853 31.5046 37.5131 31.0324Z" fill="#313438"/>
</svg>
