<svg viewBox="0 0 42 42" fill="none" xmlns="http://www.w3.org/2000/svg">
<path d="M16.7491 11.5C16.7491 11.3011 16.6701 11.1103 16.5295 10.9697C16.3888 10.829 16.198 10.75 15.9991 10.75C15.8002 10.75 15.6094 10.829 15.4688 10.9697C15.3281 11.1103 15.2491 11.3011 15.2491 11.5V13.08C13.8091 13.195 12.8651 13.477 12.1711 14.172C11.4761 14.866 11.1941 15.811 11.0781 17.25H30.9201C30.8041 15.81 30.5221 14.866 29.8271 14.172C29.1331 13.477 28.1881 13.195 26.7491 13.079V11.5C26.7491 11.3011 26.6701 11.1103 26.5295 10.9697C26.3888 10.829 26.198 10.75 25.9991 10.75C25.8002 10.75 25.6094 10.829 25.4688 10.9697C25.3281 11.1103 25.2491 11.3011 25.2491 11.5V13.013C24.5841 13 23.8381 13 22.9991 13H18.9991C18.1601 13 17.4141 13 16.7491 13.013V11.5Z" fill="#888A96"/>
<path fill-rule="evenodd" clip-rule="evenodd" d="M11 21C11 20.161 11 19.415 11.013 18.75H30.987C31 19.415 31 20.161 31 21V23C31 26.771 31 28.657 29.828 29.828C28.657 31 26.771 31 23 31H19C15.229 31 13.343 31 12.172 29.828C11 28.657 11 26.771 11 23V21ZM26 23C26.2652 23 26.5196 22.8946 26.7071 22.7071C26.8946 22.5196 27 22.2652 27 22C27 21.7348 26.8946 21.4804 26.7071 21.2929C26.5196 21.1054 26.2652 21 26 21C25.7348 21 25.4804 21.1054 25.2929 21.2929C25.1054 21.4804 25 21.7348 25 22C25 22.2652 25.1054 22.5196 25.2929 22.7071C25.4804 22.8946 25.7348 23 26 23ZM26 27C26.2652 27 26.5196 26.8946 26.7071 26.7071C26.8946 26.5196 27 26.2652 27 26C27 25.7348 26.8946 25.4804 26.7071 25.2929C26.5196 25.1054 26.2652 25 26 25C25.7348 25 25.4804 25.1054 25.2929 25.2929C25.1054 25.4804 25 25.7348 25 26C25 26.2652 25.1054 26.5196 25.2929 26.7071C25.4804 26.8946 25.7348 27 26 27ZM22 22C22 22.2652 21.8946 22.5196 21.7071 22.7071C21.5196 22.8946 21.2652 23 21 23C20.7348 23 20.4804 22.8946 20.2929 22.7071C20.1054 22.5196 20 22.2652 20 22C20 21.7348 20.1054 21.4804 20.2929 21.2929C20.4804 21.1054 20.7348 21 21 21C21.2652 21 21.5196 21.1054 21.7071 21.2929C21.8946 21.4804 22 21.7348 22 22ZM22 26C22 26.2652 21.8946 26.5196 21.7071 26.7071C21.5196 26.8946 21.2652 27 21 27C20.7348 27 20.4804 26.8946 20.2929 26.7071C20.1054 26.5196 20 26.2652 20 26C20 25.7348 20.1054 25.4804 20.2929 25.2929C20.4804 25.1054 20.7348 25 21 25C21.2652 25 21.5196 25.1054 21.7071 25.2929C21.8946 25.4804 22 25.7348 22 26ZM16 23C16.2652 23 16.5196 22.8946 16.7071 22.7071C16.8946 22.5196 17 22.2652 17 22C17 21.7348 16.8946 21.4804 16.7071 21.2929C16.5196 21.1054 16.2652 21 16 21C15.7348 21 15.4804 21.1054 15.2929 21.2929C15.1054 21.4804 15 21.7348 15 22C15 22.2652 15.1054 22.5196 15.2929 22.7071C15.4804 22.8946 15.7348 23 16 23ZM16 27C16.2652 27 16.5196 26.8946 16.7071 26.7071C16.8946 26.5196 17 26.2652 17 26C17 25.7348 16.8946 25.4804 16.7071 25.2929C16.5196 25.1054 16.2652 25 16 25C15.7348 25 15.4804 25.1054 15.2929 25.2929C15.1054 25.4804 15 25.7348 15 26C15 26.2652 15.1054 26.5196 15.2929 26.7071C15.4804 26.8946 15.7348 27 16 27Z" fill="#888A96"/>
</svg>
