<svg viewBox="0 0 24 24" fill="none" xmlns="http://www.w3.org/2000/svg">
<rect x="2.75" y="2.75" width="18.5" height="18.5" rx="9.25" fill="#DDDFE7" stroke="#DDDFE7" stroke-width="1.5"/>
<path d="M11.1033 13.896C10.7727 13.4907 10.6073 13 10.6073 12.424C10.6073 12.0934 10.6767 11.7947 10.8153 11.528C10.9647 11.2507 11.1407 11.0267 11.3433 10.856C11.546 10.6854 11.7487 10.5307 11.9513 10.392C12.154 10.2534 12.3247 10.1147 12.4633 9.97604C12.6127 9.8267 12.6873 9.6827 12.6873 9.54404C12.6873 9.12804 12.3727 8.92004 11.7433 8.92004C11.1033 8.92004 10.5433 9.19737 10.0633 9.75204L8.52734 7.99204C8.95401 7.50137 9.47668 7.12804 10.0953 6.87204C10.7247 6.61604 11.3753 6.48804 12.0473 6.48804C13.0927 6.48804 13.9247 6.7227 14.5433 7.19204C15.162 7.66137 15.4713 8.28004 15.4713 9.04804C15.4713 9.4747 15.386 9.85337 15.2153 10.184C15.0447 10.5147 14.8367 10.7867 14.5913 11C14.3567 11.2027 14.1167 11.3894 13.8713 11.56C13.626 11.7307 13.418 11.912 13.2473 12.104C13.0767 12.296 12.9913 12.4987 12.9913 12.712C12.9913 12.9787 13.0713 13.192 13.2313 13.352L11.1033 13.896ZM13.1353 17.064C12.8367 17.3627 12.4847 17.512 12.0793 17.512C11.674 17.512 11.322 17.3627 11.0233 17.064C10.7247 16.7654 10.5753 16.4134 10.5753 16.008C10.5753 15.6027 10.7247 15.2507 11.0233 14.952C11.322 14.6534 11.674 14.504 12.0793 14.504C12.4847 14.504 12.8367 14.6534 13.1353 14.952C13.434 15.2507 13.5833 15.6027 13.5833 16.008C13.5833 16.4134 13.434 16.7654 13.1353 17.064Z" fill="#525252"/>
</svg>
