<svg viewBox="0 0 91 97" fill="none" xmlns="http://www.w3.org/2000/svg">
<path d="M2.64993 21C0.386642 21 -0.623516 22.6251 0.399437 24.6155L36.0366 93.3846C37.0723 95.3749 39.7704 97 42.0337 97L60.3446 97C62.6079 97 63.6308 95.3749 62.5951 93.3846L26.9963 24.6406C25.9605 22.6503 23.2625 21.0252 20.9992 21.0252L2.64993 21Z" fill="#DDDFE7"/>
<path d="M43.7386 61.314L38.3339 72.1525C37.8251 73.1716 36.4212 73.2976 35.7403 72.3849L31.108 66.1782H23.3993C22.2621 66.1782 21.523 64.9823 22.0318 63.9653L27.1941 53.6414C28.3175 56.3211 30.9655 58.2096 34.0482 58.2096H40.4408C40.5631 58.2096 40.6769 58.2583 40.7632 58.343L43.7386 61.314Z" fill="#E52421"/>
<path d="M60.2851 58.3432C60.3714 58.2591 60.4852 58.2098 60.6075 58.2098H67C70.0838 58.2098 72.7308 56.3214 73.8542 53.6416L79.0164 63.9655C79.5252 64.9825 78.7856 66.1784 77.649 66.1784H69.9403L65.3069 72.3852C64.6255 73.2984 63.221 73.1724 62.7133 72.1528L57.3086 61.3142L60.2851 58.3432Z" fill="#E52421"/>
<path fill-rule="evenodd" clip-rule="evenodd" d="M76.6544 31.4654L72.1487 26.9528C71.4239 26.2275 71.0168 25.2439 71.0168 24.2183V17.8258C71.0168 15.6082 69.2195 13.8108 67.0018 13.8108H60.6093C59.5838 13.8108 58.6002 13.4042 57.8738 12.6794L53.3611 8.1737C51.7941 6.60877 49.2545 6.60877 47.687 8.1737L43.1743 12.6794C42.4496 13.4042 41.4664 13.8108 40.441 13.8108H34.0484C31.8308 13.8108 30.0334 15.6087 30.0334 17.8258V24.2183C30.0334 25.2438 29.6269 26.2274 28.9021 26.9538L24.3964 31.4665C22.8314 33.0335 22.8314 35.5731 24.3964 37.1406L28.9021 41.6533C29.6263 42.378 30.0334 43.3616 30.0334 44.3866V50.7792C30.0334 52.9968 31.8308 54.7942 34.0484 54.7942H40.441C41.4665 54.7942 42.4501 55.2007 43.1765 55.9255L47.6892 60.4313C49.2561 61.9962 51.7958 61.9962 53.3633 60.4313L57.8759 55.9255C58.6007 55.2013 59.5839 54.7942 60.6093 54.7942H67.0018C69.2195 54.7942 71.0168 52.9968 71.0168 50.7792V44.3866C71.0168 43.3611 71.4234 42.3775 72.1482 41.6511L76.6539 37.1385C78.2194 35.5724 78.2194 33.0329 76.6544 31.4654ZM48.2606 36.0945L58.3545 25.4217C59.5433 24.1577 61.4993 24.1539 62.696 25.4082C63.9001 26.6594 63.9075 28.695 62.7113 29.9564C61.2959 31.454 59.8834 32.9546 58.4707 34.4553C55.8027 37.2896 53.1344 40.1242 50.4467 42.9387C49.2426 44.1969 47.2941 44.1969 46.09 42.9387L39.2716 35.7983C38.0675 34.5394 38.0675 32.498 39.2716 31.2391C40.4683 29.9802 42.4164 29.9802 43.6205 31.2391L48.2606 36.0945Z" fill="#E52421"/>
</svg>
