<svg viewBox="0 0 485 153" fill="none" xmlns="http://www.w3.org/2000/svg">
<path d="M4.45911 100.014V0H95.4189V5.23274H99.8446V0H190.804V5.23274H195.23V0H286.19V100.014H267.381V108.67H276.802V113.573H295.209V111.204C295.209 107.419 298.36 104.326 302.216 104.326V50.1224H295.209V0H299.836C342.918 0 384.224 16.7843 414.7 46.6997C416.343 48.3123 417.55 50.3528 418.187 52.5578L425.127 77.043C447.121 77.043 463.248 83.296 472.233 87.9692C477.263 90.6021 480.414 95.7361 480.414 101.331V129.699C482.493 129.699 484.605 131.082 484.94 133.089C485.376 135.656 483.365 137.861 480.85 137.861H452.855C450.34 146.582 442.193 152.967 432.503 152.967C422.814 152.967 414.667 146.582 412.152 137.861H369.807C369.807 141.119 367.125 143.752 363.806 143.752H301.646C298.327 143.752 295.645 141.119 295.645 137.861V136.644H266.811C264.732 145.99 256.283 153 246.158 153C236.033 153 227.55 145.99 225.505 136.644H215.849C213.771 145.99 205.322 153 195.197 153C183.529 153 174.041 143.719 174.041 132.234C174.041 128.515 175.047 125.026 176.79 121.998H111.412L101.655 131.575H97.0618C97.0618 131.806 97.0618 132.003 97.0618 132.201C97.0618 143.653 87.6071 152.967 75.906 152.967C64.205 152.967 54.7502 143.686 54.7502 132.201C54.7502 131.97 54.7502 131.773 54.7502 131.575H49.8552L42.3116 124.138H32.1863L15.7914 108.045H4.45911C2.17923 108.045 0 106.234 0 104.029C0 101.824 2.21277 100.014 4.45911 100.014ZM196.202 108.67H218.532V100.014H196.202V108.67ZM64.3726 108.67V100.014H52.0345V108.67H64.3726ZM95.4189 94.7817V100.014H82.0415V108.67H113.256V100.014H99.8446V94.7817H95.4189ZM190.804 94.7817V97.974H195.23V94.7817H190.804ZM249.712 100.014H236.234V108.67H249.712V100.014Z" fill="#23262D"/>
</svg>
