<svg width="43" height="60" viewBox="0 0 43 60" fill="none" xmlns="http://www.w3.org/2000/svg">
<path d="M33.5415 17.3196C34.7994 17.3196 35.3608 18.2322 34.7923 19.35L14.9858 57.9696C14.4101 59.0874 12.9106 60 11.6527 60L1.47584 60C0.217942 60 -0.350594 59.0874 0.225053 57.9696L20.0102 19.3641C20.5859 18.2463 22.0854 17.3337 23.3433 17.3337L33.5415 17.3196Z" fill="#F5F6FA"/>
<path d="M41.5462 -2.71164e-09C42.7886 1.21865e-08 43.3432 0.912617 42.7816 2.03039L38.1456 10.9593C37.577 12.0771 36.0959 12.9897 34.8535 12.9897L24.8015 12.9897C23.559 12.9897 22.9975 12.0771 23.566 10.9593L28.181 2.04453C28.7495 0.926758 30.2307 0.0141519 31.4731 0.0141519L41.5462 -2.71164e-09Z" fill="#F5F6FA"/>
</svg>
