<svg width="24" height="24" viewBox="0 0 24 24" fill="none" xmlns="http://www.w3.org/2000/svg">
<path d="M22.2075 2.45538C22.0913 2.35504 21.9499 2.28831 21.7986 2.26237C21.6473 2.23643 21.4917 2.25228 21.3487 2.3082L2.34937 9.74351C2.0801 9.84821 1.85214 10.0376 1.6998 10.283C1.54745 10.5285 1.47898 10.8168 1.50468 11.1046C1.53037 11.3923 1.64886 11.664 1.84229 11.8786C2.03572 12.0932 2.29362 12.2391 2.57718 12.2944L7.49999 13.261V18.7501C7.49902 19.0491 7.58787 19.3414 7.75503 19.5893C7.92219 19.8372 8.15995 20.0292 8.43749 20.1404C8.71461 20.2535 9.01936 20.2807 9.31213 20.2183C9.60489 20.156 9.87211 20.007 10.0791 19.7907L12.4528 17.3288L16.2187 20.6251C16.4904 20.8661 16.8409 20.9994 17.2041 21.0001C17.3632 20.9999 17.5214 20.975 17.6728 20.926C17.9203 20.8475 18.1428 20.7055 18.3183 20.5142C18.4938 20.3229 18.6162 20.089 18.6731 19.8357L22.4784 3.28132C22.5125 3.13202 22.5052 2.97628 22.4575 2.83078C22.4098 2.68528 22.3234 2.55551 22.2075 2.45538ZM16.4756 5.83038L8.07656 11.8454L3.42656 10.9332L16.4756 5.83038ZM8.99999 18.7501V14.2988L11.3241 16.3369L8.99999 18.7501ZM17.2059 19.5001L9.45468 12.7032L20.6109 4.70726L17.2059 19.5001Z" fill="#F5F6FA"/>
</svg>
