<svg viewBox="0 0 118 86" xmlns="http://www.w3.org/2000/svg">
  <path fill="var(--color-1)" class="path1" d="M115.687 -2.30345e-06C117.662 -2.38983e-06 118.544 1.43263 117.651 3.18731L86.5395 63.8127C85.6353 65.5674 83.2798 67 81.3039 67L65.3182 67C63.3423 67 62.4493 65.5674 63.3535 63.8127L94.4318 3.20951C95.3361 1.45483 97.6915 0.0222144 99.6674 0.0222143L115.687 -2.30345e-06Z" />
  <path fill="var(--color-2)" class="path2" d="M33.8857 79.6391C33.8857 79.6392 33.8856 79.6393 33.8856 79.6392C33.7647 79.5936 33.6475 79.5299 33.5222 79.5052C32.1899 79.2419 31.0777 78.6077 30.1998 77.5778C27.9905 74.9869 28.6202 71.0123 31.5242 69.2048C32.4601 68.6225 33.4799 68.3424 34.5847 68.3431C39.2565 68.3454 43.928 68.3424 48.5998 68.3424C52.2394 68.3424 55.879 68.3457 59.519 68.3437C60.6831 68.3431 61.7663 68.6278 62.7165 69.2967C64.6222 70.6377 65.5055 72.4868 65.1617 74.7781C64.8102 77.1213 63.4038 78.6576 61.1136 79.3754C60.8538 79.4569 60.5907 79.5276 60.3282 79.601C60.2389 79.626 60.1466 79.639 60.0538 79.639H33.8859C33.8858 79.639 33.8857 79.639 33.8857 79.6391ZM39.0898 74.0032C39.0897 74.0032 39.0896 74.0032 39.0896 74.0031C39.1102 72.1468 37.6073 70.6077 35.7572 70.5905C33.8438 70.5726 32.3051 72.0531 32.2835 73.9325C32.2618 75.8001 33.7715 77.3284 35.6516 77.3423C37.5466 77.3565 39.0689 75.8778 39.0899 74.0034C39.0899 74.0033 39.0899 74.0032 39.0898 74.0032ZM47.0529 77.3422C47.0529 77.3422 47.0529 77.3423 47.053 77.3423C48.9407 77.3373 50.4629 75.8324 50.4653 73.9689C50.4673 72.1106 48.9336 70.5898 47.0572 70.5902C45.1634 70.5905 43.6395 72.1155 43.6515 73.9986C43.6631 75.8509 45.185 77.3469 47.0527 77.342C47.0528 77.342 47.0529 77.3421 47.0529 77.3422ZM58.4008 77.3422C58.4008 77.3422 58.4009 77.3423 58.401 77.3423C60.2907 77.3465 61.8209 75.8506 61.8319 73.9877C61.8429 72.1271 60.3143 70.5945 58.4428 70.5902C56.5471 70.5859 54.9971 72.0974 55.0158 73.9798C55.0368 76.1006 56.7941 77.3578 58.4007 77.342C58.4008 77.342 58.4008 77.3421 58.4008 77.3422Z" />
  <path fill="var(--color-2)" class="path2" d="M33.41 23.2772C33.41 23.2773 33.4099 23.2774 33.4098 23.2773C33.2636 23.2701 33.1557 23.2605 33.0475 23.2599C32.4371 23.2562 31.8261 23.2371 31.2164 23.2556C29.8673 23.2965 28.8052 22.1784 28.8668 20.8542C29.0281 17.3999 30.6147 14.7977 33.6382 13.0848C34.9293 12.3531 36.3386 12.0043 37.8406 12.0053C48.4959 12.0126 59.1512 12.0271 69.8065 12C73.8539 11.9898 77.6638 14.7948 78.6417 18.9563C78.7883 19.5802 78.8632 20.2138 78.8802 20.8522C78.9162 22.2167 77.9697 23.21 76.5963 23.2473C75.9863 23.2638 75.3755 23.2562 74.7652 23.2595C74.5401 23.2607 74.3462 23.4341 74.3369 23.659C74.3356 23.6914 74.3348 23.7237 74.3347 23.756C74.331 25.5274 74.3297 27.2992 74.329 29.0706C74.3274 33.7692 74.3264 38.4678 74.325 43.1664C74.325 43.1801 74.325 43.1937 74.325 43.2074C74.325 43.3834 74.4598 43.5433 74.6359 43.5427C76.9445 43.5417 79.2531 43.538 81.562 43.5384C81.8502 43.5384 82.14 43.543 82.4259 43.5731C82.948 43.6285 83.3201 43.9876 83.4064 44.4999C83.4264 44.6185 83.4294 44.741 83.4294 44.8616C83.4301 46.2152 83.4307 47.5684 83.4261 48.922C83.4254 49.0971 83.4144 49.2755 83.3788 49.4462C83.2878 49.8829 82.9326 50.2056 82.4859 50.2624C82.2663 50.2902 82.0437 50.305 81.8225 50.3054C78.6926 50.31 75.5625 50.3116 72.4326 50.313C72.223 50.313 72.0573 50.1332 72.056 49.9236C72.0515 49.2256 72.0543 48.5381 72.0534 47.8509C72.0524 47.0254 72.0534 46.2003 72.0534 45.3749C72.0534 44.5607 72.0531 43.7465 72.0534 42.9319C72.0534 42.1177 72.0541 41.3035 72.0544 40.489C72.0544 39.6635 72.0544 38.8384 72.0544 38.013C72.0544 37.1988 72.0544 36.3846 72.0544 35.5701C72.0544 34.7446 72.0544 33.9195 72.0548 33.0941C72.0548 32.2799 72.0548 31.4657 72.0548 30.6511C72.0548 29.8369 72.0548 29.0227 72.0548 28.2082C72.0548 27.3827 72.0558 26.5576 72.0561 25.7322C72.0561 25.2417 72.0561 24.7511 72.0561 24.2504C72.0561 23.6985 71.6089 23.2509 71.057 23.2504C59.5915 23.2409 48.1576 23.2445 36.6832 23.248C36.1351 23.2482 35.6891 23.6895 35.6867 24.2375C35.6806 25.6114 35.6891 26.9665 35.6873 28.3211C35.6849 30.0047 35.6866 31.6883 35.6863 33.3719C35.6863 35.0554 35.6863 36.739 35.6859 38.4226C35.6859 39.8569 35.6859 41.2912 35.6859 42.7217C35.6859 43.1625 35.3881 43.5123 34.9475 43.5266C34.7396 43.5333 34.5113 43.5364 34.291 43.5355C33.7872 43.5333 33.4099 43.12 33.4091 42.6162C33.3984 36.1871 33.4065 29.7512 33.4097 23.2772C33.4097 23.277 33.4099 23.277 33.41 23.2772Z" />
  <path fill="var(--color-2)" class="path2" d="M35.7041 66.0616V53.5845C35.7041 53.0322 36.1518 52.5845 36.7041 52.5845H73.3604C73.8929 52.5845 74.3314 53.0019 74.33 53.5344C74.3292 53.8274 74.3243 54.1228 74.3208 54.4233C74.3184 54.6366 74.1452 54.8091 73.9318 54.8091C72.8997 54.8101 71.8675 54.8091 70.8353 54.8131C65.0293 54.8339 60.052 58.8904 58.7516 64.419C58.656 64.825 58.6024 65.2408 58.5301 65.6524C58.4886 65.888 58.2877 66.062 58.0485 66.062H35.7044C35.7042 66.062 35.7041 66.0618 35.7041 66.0616ZM42.4889 55.9582C42.4889 55.9584 42.4888 55.9585 42.4886 55.9585C42.4149 55.945 42.3829 55.9338 42.3513 55.9338C41.664 55.9344 40.9766 55.9275 40.2893 55.9397C39.5693 55.9526 39.1195 56.4048 39.1012 57.1249C39.0892 57.5863 39.0922 58.0481 39.0925 58.5095C39.0932 59.4988 39.0849 60.4881 39.1018 61.4767C39.1148 62.2347 39.5047 62.6456 40.262 62.6826C40.9586 62.7166 41.658 62.7028 42.3563 62.7074C42.4402 62.7074 42.4889 62.6073 42.4889 62.5234V55.9582ZM44.8013 55.9452C44.8013 55.945 44.8015 55.9451 44.8015 55.9452V61.6859C44.8015 62.2382 45.2492 62.6879 45.8015 62.691C46.2342 62.6934 46.6617 62.6934 47.0888 62.6806C47.7018 62.6625 48.0903 62.2843 48.1756 61.6805C48.1922 61.5612 48.1929 61.4393 48.1929 61.3188C48.1929 59.9883 48.1916 58.6578 48.1886 57.3273C48.1886 57.1847 48.1882 57.0403 48.1666 56.8999C48.0866 56.3797 47.6938 55.9747 47.1647 55.9533C46.3915 55.9219 45.6159 55.9453 44.8014 55.9453C44.8013 55.9453 44.8012 55.9452 44.8013 55.9452Z" />
  <path fill="var(--color-2)" class="path2" d="M33.402 52.7849C33.402 52.7849 33.402 52.785 33.402 52.785V65.3205C33.402 65.7934 33.0684 66.1969 32.6135 66.326C29.6383 67.1708 27.7233 69.0688 26.8568 72.0323C26.7249 72.4833 26.3232 72.8128 25.8533 72.8128H22.3381C22.1822 72.8128 22.038 72.6952 22.038 72.5393C22.0386 70.3285 22.004 68.1171 22.0513 65.9074C22.1339 62.0418 23.6199 58.7708 26.4742 56.1382C28.3867 54.3744 30.6509 53.2662 33.227 52.8005C33.2789 52.7909 33.3328 52.7909 33.4019 52.7847C33.402 52.7847 33.4021 52.7848 33.402 52.7849Z" />
  <path fill="var(--color-2)" class="path2" d="M87.5708 57.0806C87.7854 57.0806 87.9593 57.2545 87.9593 57.4691V63.7053C87.9593 63.7288 87.951 63.7521 87.934 63.7683C87.9263 63.7759 87.9186 63.7878 87.9096 63.7891C87.855 63.7971 87.8004 63.808 87.7454 63.808C82.5625 63.8152 77.3796 63.8218 72.1967 63.8271C72.1224 63.8271 72.0715 63.7442 72.0614 63.6705C72.0587 63.6505 72.0569 63.6303 72.0568 63.6101C72.0471 61.4919 72.5182 59.4885 73.5228 57.6141C73.813 57.0727 73.815 57.0727 74.419 57.073C78.8029 57.0753 83.1869 57.078 87.5708 57.0806ZM76.6276 60.5758C76.6276 61.128 77.0753 61.5758 77.6276 61.5758C78.057 61.5758 78.4823 61.5758 78.9076 61.5758C79.6615 61.5758 80.4158 61.5791 81.1698 61.5764C81.5965 61.5749 82.0234 61.5809 82.4491 61.5804C82.9844 61.5796 83.4061 61.1399 83.4061 60.6046V60.3317C83.4061 59.7794 82.9584 59.3317 82.4061 59.3317H77.6276C77.0753 59.3317 76.6276 59.7794 76.6276 60.3317V60.5758Z" />
  <path fill="var(--color-2)" class="path2" d="M60.7695 66.1802C61.1556 61.7721 64.7614 57.7147 69.7288 57.1428C70.4398 57.061 70.9062 57.8001 70.6623 58.473C70.4214 59.1377 70.2243 59.8134 70.0828 60.5065C69.8901 61.451 69.807 62.4051 69.7875 63.3792C69.7784 63.8303 69.4809 64.224 69.0566 64.3775C67.5343 64.928 66.2386 65.7991 65.1681 67.0083C64.7963 67.4283 64.1648 67.5216 63.6829 67.2347C62.7911 66.7036 61.8261 66.345 60.7699 66.1799C60.7697 66.1799 60.7695 66.1801 60.7695 66.1802Z" />
  <path fill="var(--color-2)" class="path2" d="M22.0549 34.5331C22.0547 34.533 22.0547 34.5329 22.0547 34.5327V32.4864C22.0547 32.3884 22.1246 32.2905 22.2226 32.2905C23.3654 32.2905 24.5089 32.2753 25.6513 32.2974C27.2366 32.3281 28.6562 33.6329 28.8275 35.1939C28.8585 35.4776 28.8685 35.7647 28.8685 36.0504C28.8705 41.2101 28.8685 46.3698 28.8731 51.5295C28.8731 51.7528 28.8152 51.877 28.6006 51.9887C28.0125 52.2949 27.4451 52.6404 26.8694 52.9703C26.7561 53.0353 26.6104 52.9597 26.6042 52.8292C26.6027 52.7994 26.6019 52.7703 26.6019 52.7411C26.5969 47.9556 26.5935 43.1698 26.5889 38.3843C26.5882 37.8344 26.5759 37.2841 26.5812 36.7341C26.5932 35.5159 25.5024 34.5052 24.313 34.5316C23.6919 34.5455 23.0702 34.5336 22.4488 34.5333C22.33 34.5333 22.2111 34.5333 22.0553 34.5333C22.0551 34.5333 22.055 34.5332 22.0549 34.5331Z" />
  <path fill="var(--color-2)" class="path2" d="M50.4532 50.2433C50.4533 50.2433 50.4534 50.2434 50.4533 50.2434C50.2428 50.3063 47.3345 50.3365 46.2774 50.2984C46.0772 50.2912 45.918 50.1335 45.918 49.9332C45.916 48.9984 45.9163 48.064 45.916 47.1292C45.916 46.4709 45.8067 45.84 45.4625 45.262C45.1753 44.7794 44.8052 44.3797 44.3227 44.0851C44.2758 44.0563 44.2315 44.024 44.1865 43.9923C44.1569 43.9711 44.1637 43.9237 44.1798 43.891C44.2233 43.8024 44.2701 43.7061 44.3181 43.6104C44.9065 42.4402 45.4949 41.2699 46.0849 40.1003C46.1592 39.9529 46.2352 39.8053 46.3245 39.6672C46.6973 39.0912 47.4489 38.855 48.043 39.1989C48.721 39.5913 49.3647 40.0444 50.0067 40.4943C50.3003 40.7001 50.4322 41.0225 50.4602 41.3789C50.4688 41.4882 50.4665 41.5985 50.4665 41.7085C50.4665 44.4682 50.4658 47.2283 50.4645 49.988C50.4645 50.0745 50.4569 50.1614 50.4532 50.2433C50.4532 50.2433 50.4532 50.2433 50.4532 50.2433Z" />
  <path fill="var(--color-2)" class="path2" d="M68.0242 77.3397C67.393 77.3341 66.9819 76.7528 67.1648 76.1487C67.1997 76.0335 67.2347 75.918 67.2698 75.8018C67.3975 75.38 67.7863 75.0916 68.227 75.0917C74.4522 75.0926 80.6983 75.0856 86.9576 75.0983C87.509 75.0994 87.9553 75.5468 87.9553 76.0981V76.5232C87.9553 76.9713 87.6576 77.297 87.2096 77.3042C84.0705 77.3543 71.9491 77.3746 68.0242 77.3397Z" />
  <path fill="var(--color-2)" class="path2" d="M32.3887 50.614C32.3887 50.614 32.3887 50.614 32.3888 50.614C32.4777 50.3716 32.5516 50.1669 32.6282 49.9632C33.031 48.892 33.4338 47.8208 33.8383 46.7506C33.881 46.6377 33.9276 46.5244 33.9859 46.419C34.1932 46.0451 34.5043 45.8172 34.9448 45.8099C35.6548 45.798 36.3651 45.7944 37.0755 45.7941C38.6514 45.7931 40.2276 45.7951 41.8036 45.7987C42.0808 45.7994 42.3586 45.8063 42.6352 45.8264C43.1376 45.8634 43.5484 46.2499 43.6204 46.7457C43.6394 46.8758 43.6424 47.0089 43.6427 47.1407C43.6444 48.1089 43.6437 49.0773 43.6427 50.0455C43.6427 50.1815 43.5261 50.2914 43.3903 50.3001C43.3407 50.3032 43.2913 50.3054 43.2419 50.3054C40.8447 50.308 38.4471 50.316 36.0499 50.3077C34.8702 50.3038 33.7001 50.3817 32.5423 50.6133C32.512 50.6192 32.4793 50.6139 32.3887 50.6139C32.3887 50.6139 32.3887 50.6139 32.3887 50.614Z" />
  <path fill="var(--color-2)" class="path2" d="M57.0328 35.293C57.503 35.5844 57.6473 36.2022 57.3548 36.6717C57.3088 36.7455 57.2629 36.8193 57.2169 36.8932C56.9254 37.3611 56.3103 37.5051 55.8415 37.2149C55.1413 36.7816 54.4412 36.3483 53.7332 35.9101C53.2611 35.6179 52.6413 35.7663 52.3526 36.2406C52.0905 36.6714 51.8279 37.1028 51.5634 37.5374C51.27 38.0196 50.636 38.1636 50.1631 37.8555C50.0886 37.8069 50.0141 37.7584 49.9396 37.7098C49.4881 37.4156 49.351 36.8165 49.6295 36.3552C49.8956 35.9145 50.1618 35.4734 50.4307 35.0281C50.7134 34.5598 50.5674 33.9512 50.1029 33.6622C49.5518 33.3194 49.0021 32.9774 48.4493 32.6335C47.9787 32.3407 47.8361 31.7209 48.1314 31.2519C48.1776 31.1787 48.2237 31.1054 48.2699 31.032C48.5628 30.567 49.176 30.4252 49.6431 30.7146C52.1081 32.2418 54.5585 33.7599 57.0328 35.293Z" />
  <path fill="var(--color-2)" class="path2" d="M65.2418 35.5482C65.2456 34.999 65.6921 34.556 66.2413 34.556H66.4977C67.05 34.556 67.4977 35.0037 67.4977 35.556V44.7617C67.4977 45.314 67.05 45.7617 66.4977 45.7617H66.2326C65.6833 45.7617 65.2367 45.3185 65.2335 44.7692C65.2156 41.6978 65.2209 38.6317 65.2418 35.5482Z" />
  <path fill="var(--color-2)" class="path2" d="M67.4915 49.4953C67.4915 49.9415 67.1887 50.2738 66.7427 50.2836C64.791 50.3262 59.5876 50.3238 57.4282 50.2791C56.8923 50.268 56.5764 49.8261 56.717 49.3089C56.7591 49.1542 56.8033 49.0002 56.8518 48.8474C57.0134 48.3394 57.3756 48.0887 57.9187 48.0636C58.1069 48.055 58.2958 48.0537 58.4844 48.0537C61.347 48.0577 64.21 48.0626 67.0727 48.0676C67.304 48.0676 67.4915 48.2551 67.4915 48.4864V49.4953Z" />
  <path fill="var(--color-2)" class="path2" d="M68.2606 72.8174C67.7773 72.8174 67.3692 72.47 67.2451 72.0029C67.065 71.3252 66.8137 70.679 66.4687 70.0712C66.2734 69.727 66.2503 69.2985 66.4839 68.979C67.0296 68.2328 67.6872 67.6251 68.4666 67.1514C69.0623 66.7893 69.7617 67.2704 69.7617 67.9676V71.8174C69.7617 72.3697 69.3139 72.8174 68.7617 72.8174H68.2606Z" />
  <path fill="var(--color-2)" class="path2" d="M76.6244 66.1102C76.6244 66.11 76.6245 66.1099 76.6247 66.1099H77.8646C78.4169 66.1099 78.8646 66.5576 78.8646 67.1099V71.8091C78.8646 72.3614 78.4169 72.8091 77.8646 72.8091H76.9128C76.7574 72.8091 76.605 72.6967 76.605 72.5413C76.6037 70.4613 76.605 68.3817 76.607 66.3018C76.607 66.2483 76.6164 66.1944 76.6244 66.1102Z" />
  <path fill="var(--color-2)" class="path2" d="M82.0261 72.838C81.5318 72.8348 81.168 72.4315 81.168 71.9372V66.8897C81.168 66.4509 81.4641 66.1054 81.9028 66.0933C82.16 66.0862 82.4483 66.0847 82.711 66.0893C83.1164 66.0965 83.4022 66.3869 83.412 66.7922C83.4427 68.0712 83.4535 70.8343 83.4315 72.1259C83.4247 72.5202 83.1582 72.8141 82.7641 72.8279C82.5352 72.8359 82.2742 72.8395 82.0261 72.838Z" />
  <path fill="var(--color-2)" class="path2" d="M87.9591 72.0021C87.9506 72.4758 87.5863 72.8121 87.1124 72.8121H86.5276C86.072 72.8121 85.7299 72.4975 85.7206 72.042C85.6946 70.7715 85.6892 68.2622 85.71 66.9464C85.7176 66.4623 86.093 66.1132 86.5771 66.1132H87.1623C87.6086 66.1132 87.9414 66.4173 87.951 66.8635C87.9785 68.135 87.9828 70.6872 87.9591 72.0021Z" />
  <path fill="var(--color-2)" class="path2" d="M72.0791 72.8095V67.0862C72.0791 66.5378 72.5209 66.0908 73.0693 66.0902C73.1552 66.0901 73.2412 66.0901 73.3272 66.0902C73.8736 66.0912 74.312 66.5368 74.312 67.0831V72.0265C74.312 72.4712 74.0094 72.8233 73.5649 72.8361C73.0584 72.8506 72.4298 72.8441 72.0794 72.8092C72.0792 72.8092 72.0791 72.8093 72.0791 72.8095Z" />
  <path fill="var(--color-2)" class="path2" d="M22.0518 77.3232V75.927C22.0518 75.4695 22.3701 75.1178 22.8274 75.1056C23.7103 75.0822 25.1258 75.0763 25.9785 75.0931C26.3774 75.1009 26.7087 75.3681 26.8241 75.7501C26.8528 75.8448 26.8815 75.9397 26.9102 76.0346C27.1042 76.6765 26.6237 77.3235 25.9532 77.3235H22.0521C22.0519 77.3235 22.0518 77.3234 22.0518 77.3232Z" />
</svg>