<svg viewBox="0 0 118 86" xmlns="http://www.w3.org/2000/svg">
  <path fill="var(--color-1)" class="path1" d="M115.687 -2.30345e-06C117.662 -2.38983e-06 118.544 1.43263 117.651 3.18731L86.5395 63.8127C85.6353 65.5674 83.2798 67 81.3039 67L65.3182 67C63.3423 67 62.4493 65.5674 63.3535 63.8127L94.4318 3.20951C95.3361 1.45483 97.6915 0.0222144 99.6674 0.0222143L115.687 -2.30345e-06Z" />
  <path fill="var(--color-2)" class="path2" d="M57.6607 78.247H62.8473V77.4587C62.8473 75.0933 64.8422 73.1222 67.2361 73.1222H78.5405C80.9344 73.1222 82.9293 75.0933 82.9293 77.4587V78.247H88.2492C88.9142 78.247 89.5791 78.7727 89.5791 79.561V84.6859C89.5791 85.3429 89.047 85.9999 88.2492 85.9999H57.661C56.9961 85.9999 56.3312 85.4742 56.3312 84.6859V79.561C56.3312 78.7728 56.9961 78.247 57.661 78.247H57.6607Z" />
  <path fill="var(--color-2)" class="path2" d="M64.5748 28.967V22.5282C64.5748 22.1338 64.7077 21.8712 64.974 21.6086L66.7031 20.0314H81.8643V28.9669C81.8643 29.624 81.3322 30.281 80.5344 30.281H65.7718C65.1069 30.1497 64.5748 29.624 64.5748 28.967Z" />
  <path fill="var(--color-2)" class="path2" d="M78.6728 70.6241H67.6341V32.7786H78.9385V70.6241H78.6728Z" />
  <path fill="var(--color-2)" class="path2" d="M85.3222 47.3647V37.9033C85.3222 37.2463 85.8543 36.5893 86.6521 36.5893L90.1101 36.5887V20.1625C88.3811 19.6368 87.1841 18.0602 87.1841 16.0885C87.1841 13.7231 89.046 11.8833 91.4399 11.8833C93.8338 11.8839 95.6958 13.7237 95.6958 16.0885C95.6958 17.9283 94.3659 19.6367 92.6368 20.1625V36.5887L96.2278 36.5881C96.8927 36.5881 97.5576 37.1138 97.5576 37.9021V47.3635C97.5576 48.0205 97.0256 48.6775 96.2278 48.6775H86.6524C85.9868 48.6781 85.3219 48.0211 85.3219 47.3641L85.3222 47.3647Z" />
  <path fill="var(--color-2)" class="path2" d="M84.5245 16.0894C84.5245 16.4838 84.5245 17.009 84.6573 17.4034H34.3855V21.8713H37.8435C38.2427 21.8713 38.6413 22.0026 38.9076 22.397C39.1734 22.7915 39.1734 23.1853 39.0405 23.5797L36.7793 30.9388C36.6465 31.3333 36.2473 31.7271 35.8487 31.8584H35.4495H30.5286C29.9965 31.8584 29.4644 31.464 29.3316 30.9388L27.0704 23.5797C26.9375 23.1853 27.0704 22.7915 27.2033 22.397C27.469 22.1344 27.8682 21.8713 28.2674 21.8713H31.7255V17.4034H16.8301C16.1652 17.4034 15.5002 16.8777 15.5002 16.0894C15.5002 15.3011 16.0323 14.7753 16.8301 14.7753H21.3518C21.6175 10.4388 25.3413 7.02194 29.8637 7.02194H30.5286L81.1986 4C81.4643 4 81.8635 4.13128 81.9964 4.26256L89.0449 9.78188C86.5181 10.7021 84.5232 13.1988 84.5232 16.0895L84.5245 16.0894ZM30.1303 24.4999L31.5936 29.2309H34.6526L36.1153 24.4999H30.1303Z" />
  <path fill="var(--color-2)" class="path2" d="M13.2384 47.8913L29.9956 40.9267C29.1979 40.1384 28.7987 39.0869 28.7987 37.9041C28.7987 37.2471 29.3307 36.5901 30.1285 36.5901C30.9263 36.5901 31.4584 37.1158 31.4584 37.9041C31.4584 38.8237 32.2562 39.6126 33.1874 39.6126C34.1181 39.6126 34.9164 38.8243 34.9164 37.9041C34.9164 36.9845 34.1186 36.1957 33.1874 36.1957C32.5225 36.1957 31.8575 35.67 31.8575 34.8817C31.8575 34.6191 31.8575 34.4872 31.9904 34.2246C32.2561 33.8302 32.6553 33.5676 33.0545 33.5676C33.8523 33.5676 34.6508 33.8302 35.3157 34.2246C36.5127 35.0129 37.4433 36.3269 37.4433 37.9042C37.4433 38.9557 37.0441 40.0065 36.3792 40.7954L55.6631 47.76C55.796 47.8913 56.3281 48.0226 56.4609 48.9428V70.6254C56.4609 71.2824 55.9289 71.9395 55.1311 71.9395L13.77 71.9389C13.105 71.9389 12.4401 71.4131 12.4401 70.6248V49.0738C12.4401 48.5481 12.8393 48.1536 13.2379 47.8911L13.2384 47.8913ZM43.9598 66.1574C43.9598 66.8144 44.4919 67.4714 45.2897 67.4714C45.9546 67.4714 46.6195 66.9457 46.6195 66.1574V53.6736C46.6195 53.0166 46.0875 52.3596 45.2897 52.3596C44.6247 52.3596 43.9598 52.8853 43.9598 53.6736V66.1574ZM36.7785 66.1574C36.7785 66.8144 37.3106 67.4714 38.1084 67.4714C38.9061 67.4714 39.4382 66.9457 39.4382 66.1574V53.6736C39.4382 53.0166 38.9062 52.3596 38.1084 52.3596C37.3106 52.3596 36.7785 52.8853 36.7785 53.6736V66.1574ZM29.4637 66.1574C29.4637 66.8144 29.9957 67.4714 30.7935 67.4714C31.4585 67.4714 32.1234 66.9457 32.1234 66.1574V53.6736C32.1234 53.0166 31.5913 52.3596 30.7935 52.3596C30.1286 52.3596 29.4637 52.8853 29.4637 53.6736V66.1574ZM22.2824 66.1574C22.2824 66.8144 22.8144 67.4714 23.6122 67.4714C24.41 67.4714 24.9421 66.9457 24.9421 66.1574V53.6736C24.9421 53.0166 24.41 52.3596 23.6122 52.3596C22.8144 52.3596 22.2824 52.8853 22.2824 53.6736V66.1574ZM47.8172 47.7597L33.1875 42.3723L20.2869 47.7603L47.8172 47.7597Z" />
</svg>