<svg viewBox="0 0 678 100" fill="none" xmlns="http://www.w3.org/2000/svg">
<rect x="0.5" y="0.500122" width="677" height="99" fill="white" stroke="#DDDFE7"/>
<mask id="mask0_304_13958" style="mask-type:alpha" maskUnits="userSpaceOnUse" x="0" y="0" width="678" height="100">
<rect x="0.5" y="0.5" width="677" height="99" fill="white" stroke="#DDDFE7"/>
</mask>
<g mask="url(#mask0_304_13958)">
<path d="M707.999 -18.9545L707.999 118L583.528 117.955C579.459 117.955 577.62 115.026 579.482 111.44L643.473 -12.4392C645.335 -16.0259 650.185 -18.9543 654.253 -18.9543L707.999 -18.9545Z" fill="#F5F6FA"/>
<path d="M623.985 -19C628.054 -19 629.869 -16.0716 628.031 -12.4848L563.971 111.439C562.109 115.026 557.259 117.954 553.191 117.954L500.276 117.954C496.208 117.954 494.369 115.026 496.231 111.439L560.221 -12.4394C562.083 -16.0262 566.933 -18.9546 571.002 -18.9546L623.985 -19Z" fill="#F5F6FA"/>
<path d="M-29.9998 -18.9545L-30 118L94.4716 117.955C98.54 117.955 100.379 115.026 98.517 111.44L34.5263 -12.4392C32.6645 -16.0259 27.8147 -18.9543 23.7463 -18.9543L-29.9998 -18.9545Z" fill="#F5F6FA"/>
<path d="M54.014 -19C49.9456 -19 48.1299 -16.0716 49.9687 -12.4848L114.028 111.439C115.89 115.026 120.74 117.954 124.808 117.954L177.723 117.954C181.791 117.954 183.63 115.026 181.768 111.439L117.778 -12.4394C115.916 -16.0262 111.066 -18.9546 106.998 -18.9546L54.014 -19Z" fill="#F5F6FA"/>
<rect x="0.5" y="0.5" width="677" height="99" stroke="#DDDFE7"/>
</g>
</svg>
