<svg viewBox="0 0 28 28" fill="none" xmlns="http://www.w3.org/2000/svg">
<path d="M7.53831 3.4541C5.85948 3.4541 4.47351 4.83478 4.47351 6.51346V21.4863C4.47351 23.165 5.85952 24.5457 7.53831 24.5457H20.4617C22.1405 24.5457 23.5265 23.165 23.5265 21.4863V6.51346C23.5265 4.83478 22.1404 3.4541 20.4617 3.4541H7.53831ZM7.53831 5.49277H20.4617C21.0449 5.49277 21.4878 5.93036 21.4877 6.51346V11.1437H6.51361V6.51346C6.51361 5.93036 6.95514 5.49277 7.53839 5.49277H7.53831ZM9.83349 7.36676C9.56328 7.36706 9.30417 7.4746 9.1131 7.66568C8.92202 7.85675 8.81448 8.11587 8.81418 8.38607C8.81418 8.65658 8.92141 8.91602 9.11264 9.1074C9.30372 9.29878 9.56299 9.40647 9.8335 9.40677H17.91C18.1816 9.40814 18.4425 9.30121 18.6351 9.10968C18.8277 8.91815 18.936 8.65766 18.9358 8.3861C18.9355 8.11467 18.8271 7.85463 18.6347 7.66325C18.4421 7.47202 18.1813 7.36524 17.91 7.36676L9.83349 7.36676ZM6.5135 13.1853H21.4876V21.4865C21.4876 22.0696 21.0448 22.5072 20.4615 22.5072H7.5382C6.95494 22.5072 6.51342 22.0696 6.51342 21.4865L6.5135 13.1853ZM10.8727 15.1483C10.6025 15.1486 10.3434 15.2561 10.1523 15.4472C9.96126 15.6383 9.85372 15.8974 9.85342 16.1676V16.7857H9.23537C8.96516 16.786 8.70604 16.8935 8.51497 17.0846C8.3239 17.2757 8.21636 17.5348 8.21605 17.805C8.21605 18.0755 8.32344 18.3349 8.51452 18.5263C8.70574 18.7177 8.96502 18.8254 9.23538 18.8257H9.85343V19.4423C9.85343 19.7128 9.96082 19.9723 10.1519 20.1637C10.3431 20.355 10.6024 20.4627 10.8728 20.463C11.1436 20.463 11.4032 20.3555 11.5945 20.1641C11.7859 19.9727 11.8934 19.7131 11.8934 19.4424V18.8257H12.5101C12.7809 18.8257 13.0405 18.7182 13.2318 18.5268C13.4232 18.3354 13.5308 18.0758 13.5308 17.805C13.5305 17.5347 13.4228 17.2752 13.2314 17.0842C13.04 16.8931 12.7806 16.7857 12.5101 16.7857H11.8934V16.1676C11.8931 15.8973 11.7854 15.6379 11.594 15.4468C11.4026 15.2557 11.1432 15.1483 10.8727 15.1483L10.8727 15.1483ZM16.3324 15.1483C15.7695 15.1489 15.3137 15.6047 15.313 16.1676C15.3136 16.7305 15.7695 17.1879 16.3324 17.1883H18.0069C18.5718 17.1906 19.0311 16.7325 19.0316 16.1676C19.0311 15.6028 18.5718 15.146 18.0069 15.1483H16.3324ZM16.3324 18.4244C15.7695 18.4248 15.3137 18.8808 15.313 19.4437C15.3136 20.0066 15.7695 20.4626 16.3324 20.4631H18.0069C18.5718 20.4653 19.0311 20.0086 19.0316 19.4437C19.0311 18.8789 18.5718 18.4221 18.0069 18.4244H16.3324Z" fill="#E52421"/>
</svg>
