<svg viewBox="0 0 284 325" fill="none" xmlns="http://www.w3.org/2000/svg">
<path d="M146.886 188.232C146.886 192.301 149.818 194.117 153.409 192.278L277.477 128.206C281.068 126.344 284 121.493 284 117.424V84.5027C284 80.4335 281.068 78.5944 277.477 80.4565L153.454 144.46C149.863 146.322 146.932 151.173 146.932 155.242L146.886 188.232Z" fill="#F5F6FA"/>
<path d="M148.523 1.39662C144.932 -0.465539 139.068 -0.465539 135.477 1.39662L6.52273 68.3193C2.93182 70.1815 0 75.0322 0 79.1244V249.293C0 253.362 2.93182 258.236 6.52273 260.075L55.7045 285.525C59.2954 287.387 62.2272 285.571 62.2272 281.479V110.459C62.2272 106.39 65.159 101.539 68.7499 99.6771L197.136 33.3751C200.727 31.513 200.727 28.4784 197.136 26.6162L148.523 1.39662Z" fill="#F5F6FA"/>
<path d="M146.773 320.236C146.773 324.305 149.705 326.121 153.296 324.282L277.477 260.072C281.068 258.21 284 253.359 284 249.29V214.875C284 210.806 281.068 208.989 277.477 210.828L153.341 274.9C149.75 276.763 146.818 281.613 146.796 285.683L146.773 320.236Z" fill="#F5F6FA"/>
<path d="M283.772 144.142C283.772 140.073 280.841 138.257 277.25 140.096L143.045 209.387C139.454 211.249 136.523 209.41 136.523 205.34L136.568 148.786C136.568 144.717 139.523 139.866 143.113 138.004L271.341 71.817C274.931 69.9549 274.931 66.9202 271.341 65.081L221.432 39.3097C217.841 37.4475 211.977 37.4475 208.386 39.3097L79.1136 106.049C75.5227 107.911 72.5908 112.761 72.5908 116.831V287.045C72.5908 291.115 75.5227 295.965 79.1136 297.828L129.909 324.082C133.5 325.944 136.432 324.128 136.454 320.036V279.252C136.454 275.183 139.409 270.332 143 268.47L277.25 199.156C280.841 197.294 283.772 192.443 283.772 188.374V144.142Z" fill="#F5F6FA"/>
</svg>
