<svg viewBox="0 0 255 136" fill="none" xmlns="http://www.w3.org/2000/svg">
<path d="M29.3895 56.6441V57.6827C29.3895 63.24 29.3866 68.7973 29.3895 74.3546C29.3895 76.525 31.0441 77.5536 32.977 76.59C33.9025 76.1279 34.8139 75.6348 35.755 75.2052C35.9867 75.0992 36.3499 75.0978 36.5802 75.2052C37.5198 75.6362 38.4425 76.1081 39.3511 76.6041C40.1875 77.0605 40.9972 77.0718 41.8407 76.6394C42.7832 76.1576 43.7497 75.7252 44.6851 75.2307C45.0581 75.0328 45.3478 75.0201 45.7251 75.2222C46.6152 75.7012 47.5309 76.1321 48.4394 76.5772C50.3625 77.5183 51.9931 76.5179 51.9959 74.3885C52.0016 68.7846 51.9973 63.1792 51.9973 57.5753C51.9973 57.2941 51.9973 57.0129 51.9973 56.6229C52.2488 56.6229 52.4721 56.6229 52.6954 56.6229C61.4079 56.6229 70.1204 56.6215 78.8343 56.6229C80.5002 56.6229 81.3876 57.523 81.389 59.2115C81.3904 67.5708 81.3847 75.9301 81.4017 84.2908C81.4017 84.8093 81.2449 85.0185 80.7546 85.1555C75.5957 86.6038 70.4425 88.0776 65.2879 89.54C63.8651 89.9442 63.3041 90.662 63.3041 92.1343C63.3013 98.3981 63.3069 104.662 63.3027 110.926C63.2984 117.146 64.9559 122.86 68.4841 128.009C68.6692 128.28 68.843 128.558 69.0762 128.916C68.8247 128.937 68.6325 128.965 68.4389 128.965C46.4683 128.967 24.4977 128.968 2.52706 128.965C0.903529 128.965 0.000627997 128.053 0.000627997 126.421C0.000627997 104.003 -0.000784996 81.5849 0.000627997 59.1677C0.000627997 57.5852 0.88516 56.6244 2.38152 56.6244C11.2353 56.6187 20.0891 56.6215 28.9444 56.6229C29.0602 56.6229 29.1761 56.6342 29.3923 56.6455L29.3895 56.6441ZM18.0615 110.879C21.0048 110.879 23.948 110.883 26.8899 110.878C28.3763 110.875 29.3993 109.925 29.3838 108.589C29.3683 107.284 28.3481 106.362 26.8983 106.36C21.0358 106.357 15.1733 106.357 9.31083 106.36C7.80317 106.36 6.78723 107.275 6.78299 108.613C6.77875 109.945 7.80741 110.876 9.30236 110.879C12.2216 110.883 15.1408 110.879 18.0601 110.879H18.0615ZM18.1081 122.182C21.098 122.182 24.0879 122.193 27.0778 122.176C28.4004 122.169 29.3866 121.174 29.3838 119.915C29.381 118.659 28.3876 117.669 27.0637 117.666C21.0839 117.656 15.1027 117.663 9.12291 117.661C8.2525 117.661 7.56438 118.013 7.11363 118.755C6.67702 119.471 6.64452 120.233 7.05287 120.973C7.49938 121.783 8.2087 122.183 9.13704 122.183C12.1269 122.183 15.1168 122.183 18.1067 122.183L18.1081 122.182Z" fill="#525252"/>
<path d="M67.8542 93.4215C71.7413 92.3123 75.6016 91.2116 79.4633 90.1108C81.4514 89.5442 83.4381 88.9677 85.4318 88.4223C85.7285 88.3418 86.086 88.3333 86.3799 88.4181C92.0715 90.0529 97.7573 91.7061 103.445 93.3579C103.621 93.4088 103.792 93.4808 103.994 93.5515C103.994 94.5307 103.994 95.4943 103.994 96.458C103.994 101.378 104.01 106.299 103.99 111.22C103.946 122.252 96.9067 132.047 86.5085 135.533C86.1468 135.654 85.6635 135.653 85.3103 135.517C75.8588 131.887 70.0754 125.139 68.158 115.166C67.9149 113.904 67.8443 112.593 67.8358 111.303C67.8019 105.559 67.8202 99.8138 67.8217 94.07C67.8217 93.8623 67.8414 93.6532 67.8527 93.4215H67.8542ZM83.8351 114.259C82.456 112.98 81.1377 111.737 79.7925 110.523C79.452 110.215 79.0564 109.914 78.6311 109.767C77.6519 109.428 76.5893 109.869 76.0608 110.733C75.5041 111.645 75.6341 112.75 76.4508 113.576C78.1704 115.319 79.9098 117.042 81.6421 118.775C83.0891 120.222 84.2025 120.227 85.6353 118.802C89.3062 115.148 92.9786 111.496 96.6439 107.838C96.8064 107.677 96.935 107.465 97.0282 107.253C97.4663 106.268 97.13 105.115 96.2454 104.498C95.3397 103.866 94.1726 103.955 93.3403 104.773C91.7973 106.292 90.2784 107.838 88.7453 109.369C87.0638 111.047 85.3795 112.722 83.8365 114.259H83.8351Z" fill="#E52421"/>
<path d="M0.349487 52.0531C0.90338 49.8701 1.37956 47.7633 1.97725 45.6918C3.16417 41.5843 4.41467 37.4951 5.64538 33.4002C6.03819 32.0946 6.78425 31.5082 8.11388 31.5223C15.1025 31.5916 22.0926 31.6749 29.0813 31.7555C29.1505 31.7555 29.2183 31.7739 29.337 31.7894V52.0546H0.349487V52.0531Z" fill="#525252"/>
<path d="M52.0455 31.7516C54.0717 31.7516 56.0471 31.7516 58.0224 31.7516C63.1304 31.7516 68.2398 31.7502 73.3478 31.753C74.6534 31.753 75.4206 32.2701 75.7795 33.4768C77.2165 38.3206 78.6564 43.1643 80.0355 48.0236C80.424 49.3928 80.612 50.8199 80.8748 52.1382C71.2198 52.0478 61.6567 52.1312 52.0441 52.0902V31.7516H52.0455Z" fill="#525252"/>
<path d="M33.9406 52.0486V31.7877H47.4191V52.0472H33.9406V52.0486Z" fill="#525252"/>
<path d="M47.4248 70.9035C47.3541 70.9106 47.3245 70.9233 47.3103 70.9134C45.7998 69.8692 44.3162 70.1151 42.9286 71.1098C41.3871 72.2162 39.9161 72.2487 38.4127 71.0858C38.2304 70.9445 37.986 70.8866 37.7882 70.7608C36.7143 70.0755 35.6433 69.9907 34.5553 70.7297C34.4281 70.8159 34.2656 70.8484 34.0551 70.9304V56.6634H47.422V70.9021L47.4248 70.9035Z" fill="#525252"/>
</svg>
