<svg viewBox="0 0 255 136" fill="none" xmlns="http://www.w3.org/2000/svg">
<path d="M79.3107 124.044C59.7212 124.044 40.1316 124.044 20.532 124.044C19.2194 124.044 17.8967 124.044 16.584 124.024C14.9608 124.004 13.3876 123.733 11.8345 123.262C10.9527 122.992 10.2813 122.421 9.91058 121.599C9.60998 120.938 9.35943 120.236 9.23918 119.525C9.07886 118.523 9.02876 117.491 8.98868 116.469C8.85842 113.392 8.41755 110.356 8.01674 107.31C7.59589 104.084 6.5237 101.067 4.47957 98.4622C3.03666 96.6185 1.77413 94.6645 0.802163 92.5102C0.25105 91.2777 0.030617 90.0051 0.000556342 88.6825C-0.0295044 87.2395 1.16288 85.7666 2.54567 85.5161C3.11683 85.4159 3.69804 85.3157 4.27922 85.2656C4.86039 85.2155 5.45158 85.2355 6.03276 85.2355C13.3475 85.2355 20.6522 85.2355 27.967 85.2455C28.6985 85.2455 29.43 85.2656 30.1515 85.3357C31.915 85.5161 33.1074 86.498 33.7688 88.1113C33.9892 88.6424 34.1495 89.2236 34.2297 89.7947C34.3699 90.8067 34.4201 91.8288 34.5103 92.8509C34.5804 93.5823 34.6104 94.3138 34.7307 95.0353C35.1215 97.3399 35.7728 97.7908 37.7367 98.2618C38.4382 98.4321 39.1797 98.5023 39.9011 98.5323C41.6547 98.5925 43.4082 98.6225 45.1618 98.6025C53.9295 98.5023 62.7072 98.4321 71.4749 98.2518C83.4591 98.0013 95.4433 97.9111 107.438 97.8309C110.654 97.8109 113.87 97.7307 117.087 97.7107C120.023 97.7007 122.909 97.2598 125.805 96.859C126.686 96.7387 127.468 96.3279 128.26 95.9571C128.801 95.7066 129.221 95.2858 129.562 94.8048C129.983 94.2136 130.394 93.6024 130.755 92.9711C132.418 90.0552 134.051 87.1193 135.464 84.0631C135.765 83.4018 136.105 82.7405 136.536 82.1693C136.977 81.5881 137.548 81.1172 138.33 81.007C138.761 80.9468 139.192 80.8567 139.633 80.8166C140.073 80.7765 140.504 80.7765 140.945 80.7765C153.37 80.7765 165.795 80.7765 178.23 80.7765C179.112 80.7765 179.984 80.7765 180.846 81.017C181.587 81.2174 182.138 81.6482 182.559 82.2795C182.81 82.6603 182.93 83.0811 182.97 83.512C183.09 84.8447 182.85 86.1273 182.229 87.3297C182.028 87.7305 181.718 88.0512 181.247 88.0913C180.525 88.1514 179.794 88.1714 179.062 88.1714C175.405 88.1714 171.747 88.1714 168.1 88.1714C167.519 88.1714 166.928 88.1915 166.357 88.2816C166.096 88.3217 165.755 88.5322 165.665 88.7526C165.314 89.5743 165.334 90.446 165.605 91.2877C165.675 91.5182 166.016 91.7487 166.266 91.7988C166.827 91.919 167.419 91.9791 168 91.9891C171.507 92.0092 175.014 92.0092 178.531 92.0292C178.962 92.0292 179.393 92.1294 179.804 92.2296C179.904 92.2497 180.004 92.4501 180.034 92.5904C180.084 92.8609 180.174 93.1815 180.084 93.422C178.05 98.4622 175.455 103.182 172.108 107.47C171.116 108.733 170.054 109.945 168.932 111.098C166.266 113.823 163.33 116.228 160.224 118.433C157.088 120.667 153.601 122.11 149.863 122.972C149.583 123.042 149.292 123.112 149.001 123.142C145.945 123.443 142.909 123.944 139.833 123.974C137.789 123.994 135.735 124.034 133.691 124.034C115.564 124.034 97.4273 124.034 79.3007 124.034L79.3107 124.044ZM110.313 105.306C110.474 104.104 109.592 102.941 108.399 102.891C106.947 102.821 106.305 103.432 106.035 104.875C105.844 105.877 107.047 107.15 108.179 107.16C109.121 107.17 110.193 106.248 110.313 105.306ZM123.58 105.096C123.46 104.244 123.229 103.542 122.548 103.162C121.496 102.591 119.803 102.761 119.372 104.334C119.201 104.935 119.241 105.476 119.552 105.997C120.364 107.37 122.047 107.601 123.139 106.178C123.39 105.847 123.47 105.396 123.59 105.086L123.58 105.096ZM94.9924 102.881C93.9703 102.861 93.4593 103.192 92.9883 104.234C92.8681 104.494 92.7779 104.795 92.7879 105.076C92.818 105.957 93.8 106.989 94.7118 107.19C95.2028 107.3 96.5956 106.679 96.8762 105.977C97.2369 105.066 97.0966 104.274 96.5555 103.532C96.3952 103.322 96.1047 103.172 95.8441 103.061C95.5836 102.961 95.283 102.951 94.9924 102.891V102.881ZM83.8899 105.326C83.8899 104.625 83.7497 104.074 83.419 103.573C83.3389 103.452 83.2387 103.332 83.1184 103.262C82.3068 102.811 81.445 102.691 80.6334 103.172C79.982 103.552 79.6514 104.214 79.5712 104.975C79.5512 105.116 79.5612 105.276 79.6214 105.386C79.8318 105.767 80.0122 106.188 80.3128 106.478C81.2847 107.39 82.2667 107.46 83.3689 106.378C83.6595 106.098 83.7597 105.627 83.9 105.326H83.8899ZM70.6633 104.875C70.6032 104.595 70.5531 104.304 70.4729 104.033C70.3326 103.593 70.0219 103.302 69.6111 103.112C69.4808 103.051 69.3406 103.001 69.2003 102.971C68.0881 102.681 67.1361 103.082 66.6351 104.064C66.1341 105.015 66.3946 106.007 67.3566 106.729C67.7073 106.989 68.1081 107.17 68.559 107.18C69.7013 107.21 70.7634 106.048 70.6732 104.895L70.6633 104.875ZM55.3724 102.871C54.5307 102.941 53.8894 103.202 53.5086 103.923C53.2982 104.314 53.0978 104.705 53.1479 105.156C53.2681 106.108 54.2101 107.009 55.192 107.16C55.9636 107.28 57.3464 106.458 57.4165 105.476C57.4365 105.186 57.4666 104.895 57.4265 104.615C57.2762 103.532 56.4245 102.861 55.3724 102.881V102.871Z" fill="#525252"/>
<path d="M37.6166 65.4655C44.6308 65.4655 51.6349 65.4655 58.6491 65.4655C59.3805 65.4655 60.1121 65.5056 60.8335 65.5858C62.3466 65.7561 63.7594 67.0988 64.1502 68.692C64.2404 69.0427 63.8295 69.5738 63.4788 69.6239C61.7353 69.8444 59.9818 69.674 58.2282 69.7442C57.7974 69.7642 57.3465 69.7742 56.9557 69.9145C56.7252 69.9947 56.4547 70.3053 56.4246 70.5358C56.2142 72.2793 56.2142 74.0228 56.4246 75.7663C56.4647 76.087 56.9857 76.5379 57.3464 76.5479C59.3906 76.598 61.4347 76.6381 63.4689 76.6882C63.7695 76.6882 64.2605 77.2493 64.2805 77.59C64.2805 77.7403 64.3206 77.8806 64.3206 78.0309C64.3206 82.1192 64.3206 86.2074 64.3206 90.2957C64.3206 90.7265 64.2704 91.1774 64.1702 91.5983C63.8696 92.8208 62.6372 94.1334 61.575 94.3438C61.0039 94.4541 60.4226 94.5943 59.8415 94.6044C53.4185 94.6845 46.9855 94.8048 40.5726 94.3038C39.3 94.2036 38.1577 93.1214 37.9473 91.7586C37.6066 89.5942 37.2459 87.4299 37.1457 85.2354C37.1156 84.6543 37.0154 84.0731 36.9252 83.5019C36.845 82.9609 35.9633 82.1592 35.4222 82.039C34.4101 81.8185 33.3981 81.7985 32.376 81.7985C28.1375 81.7985 23.9089 81.7985 19.6704 81.7985C18.2074 81.7985 16.7445 81.7985 15.2916 81.7684C14.7004 81.7584 14.1492 81.558 13.5981 81.3576C12.2454 80.8566 11.4437 79.8345 11.1231 78.5018C10.7724 77.079 10.8025 75.606 11.1231 74.1631C11.1732 73.9326 11.4538 73.6621 11.6943 73.5819C12.0951 73.4416 12.536 73.3915 12.9669 73.3715C15.001 73.2913 17.0551 73.4917 19.0792 73.2212C19.2996 73.1911 19.5902 72.8605 19.6403 72.63C19.7906 71.9186 19.8107 71.167 19.5902 70.4656C19.51 70.2251 19.2495 69.9345 19.0191 69.8844C18.4579 69.7642 17.8768 69.7442 17.2956 69.7241C15.5421 69.684 13.7985 69.664 12.045 69.6239C11.4739 69.6139 11.1331 68.9526 11.3035 68.3614C11.6041 67.3092 12.2554 66.5577 13.1873 66.0667C13.6983 65.8062 14.2695 65.5858 14.8306 65.5256C15.8426 65.4254 16.8747 65.4355 17.8968 65.4355C24.4701 65.4355 31.0433 65.4355 37.6166 65.4355V65.4555V65.4655ZM49.3503 73.3615C49.7912 73.3414 50.653 73.3314 51.5047 73.2312C51.7251 73.2011 52.0257 72.8905 52.0758 72.66C52.2261 71.9586 52.2061 71.2372 52.0658 70.5257C52.0057 70.2251 51.4846 69.7842 51.1339 69.7842C49.5607 69.7842 47.9876 69.7842 46.4144 69.8043C46.2741 69.8043 46.1038 69.8043 45.9936 69.8844C45.7731 70.0548 45.4825 70.2352 45.4124 70.4756C45.202 71.167 45.2119 71.8985 45.3723 72.5999C45.4224 72.8304 45.713 73.0909 45.9534 73.1711C46.9254 73.4817 47.9375 73.3314 49.3503 73.3615ZM37.9974 73.3915C38.9894 73.3514 39.8612 73.3414 40.7129 73.2613C40.9534 73.2312 41.3241 73.0108 41.3842 72.8003C41.6347 71.9687 41.6448 71.1069 41.3341 70.2853C41.254 70.0748 40.9033 69.8343 40.6628 69.8243C38.9393 69.6941 37.2158 69.664 35.4923 69.8444C35.2017 69.8744 34.7007 70.4055 34.6907 70.7261C34.6807 71.2973 34.6606 71.8785 34.6707 72.4496C34.6707 72.7803 35.1717 73.2312 35.5324 73.2512C36.3942 73.3013 37.2559 73.3514 37.9873 73.3915H37.9974ZM27.4561 73.3815C28.358 73.3414 29.2297 73.3314 30.0814 73.2412C30.3319 73.2112 30.6927 73.0007 30.7628 72.8003C31.0434 71.9787 31.0333 71.1169 30.7227 70.2953C30.6425 70.0848 30.2918 69.8644 30.0413 69.8343C28.3178 69.674 26.5944 69.674 24.8709 69.8343C24.5903 69.8544 24.0893 70.4055 24.0793 70.7261C24.0592 71.2973 24.0593 71.8785 24.0593 72.4496C24.0593 72.7803 24.5602 73.2512 24.911 73.2613C25.7727 73.3013 26.6345 73.3414 27.4561 73.3915V73.3815Z" fill="#525252"/>
<path d="M34.5603 62.5898C29.8908 62.5898 25.2214 62.5898 20.552 62.5898C19.9708 62.5898 19.3997 62.0888 19.3596 61.5677C19.3496 61.4274 19.2794 61.2771 19.2894 61.1368C19.2994 57.9304 19.3095 54.7239 19.3395 51.5074C19.3395 50.8761 19.7904 50.4352 20.4117 50.3952C21.1331 50.345 21.8646 50.315 22.5961 50.2649C22.9668 50.2348 23.3977 49.824 23.4879 49.4332C23.5881 49.0023 23.5981 48.5815 23.4178 48.1707C23.2975 47.8801 23.0971 47.6997 22.7965 47.5895C22.0851 47.339 21.3536 47.4592 20.6322 47.4191C19.6201 47.369 19.1993 46.6275 19.56 45.5754C20.081 44.0123 21.2634 43.2607 22.7865 42.9702C23.3576 42.8599 23.9488 42.8499 24.53 42.8499C31.3838 42.8499 38.2477 42.8499 45.1016 42.8499C45.823 42.8499 46.5645 42.89 47.2759 43.0403C48.6387 43.3309 49.6407 44.1325 50.1618 45.4652C50.262 45.7257 50.2921 46.0263 50.3121 46.3169C50.3422 46.7378 49.9514 47.2187 49.6207 47.2889C48.4684 47.5394 47.296 47.369 46.1336 47.4292C45.7028 47.4492 45.2619 47.4993 44.831 47.5193C44.5204 47.5394 43.9693 48.0604 43.9492 48.351C43.8791 49.5134 43.7989 50.6757 43.9693 51.8381C44.0494 52.3491 44.5905 52.8501 45.1717 52.8601C46.6247 52.8902 48.0876 52.9203 49.5405 52.9603C49.8512 52.9603 50.3522 53.5014 50.3622 53.8421C50.4624 56.4674 50.5325 59.0827 50.3221 61.708C50.302 61.9986 49.7509 62.5397 49.4503 62.5497C48.7188 62.5697 47.9974 62.6098 47.2659 62.6098C43.0374 62.6098 38.8089 62.6098 34.5703 62.6098V62.5697L34.5603 62.5898ZM38.5583 50.315C38.2978 50.325 39.0093 50.325 39.7107 50.2248C39.9512 50.1947 40.2618 49.9643 40.372 49.7438C40.6225 49.2228 40.6025 48.6316 40.4121 48.1005C40.3319 47.8801 40.0213 47.6396 39.7708 47.5895C38.5082 47.3089 37.2257 47.3891 35.9531 47.5294C35.7226 47.5594 35.4621 47.82 35.3318 48.0504C35.2016 48.2809 35.1815 48.5915 35.1715 48.8621C35.1414 49.7038 35.6224 50.305 36.3038 50.315C36.7346 50.315 37.1555 50.315 38.5583 50.315ZM28.2174 50.315C29.5401 50.315 30.1113 50.315 30.6824 50.315C30.8227 50.315 30.963 50.2849 31.1033 50.2849C31.3838 50.2749 31.8648 49.7539 31.8849 49.4031C31.9049 49.1226 31.9049 48.842 31.9149 48.5514C31.9149 48.0003 31.3939 47.4993 30.8628 47.4692C29.7305 47.4091 28.5882 47.369 27.4559 47.5294C27.1654 47.5694 26.6644 48.0504 26.6443 48.3811C26.6243 48.6617 26.6242 48.9422 26.6242 49.2328C26.6343 49.7839 27.1353 50.2749 27.6964 50.295C28.1273 50.315 28.5481 50.335 28.2174 50.315Z" fill="#525252"/>
<path d="M93.5695 85.5561C90.9442 85.5561 88.3289 85.5561 85.7036 85.5561C85.1224 85.5561 84.5513 85.4559 83.9701 85.4158C83.7096 85.3958 83.0883 84.8046 83.0683 84.5641C83.0583 84.4238 83.0082 84.2735 83.0082 84.1332C83.0082 80.6362 83.0081 77.1491 83.0282 73.6521C83.0282 72.9707 83.7396 72.3394 84.4711 72.3094C84.7617 72.2993 85.0523 72.2893 85.3428 72.2793C85.4932 72.2793 85.6334 72.2793 85.7837 72.2793C90.884 72.2793 95.9743 72.2793 101.075 72.2793C101.656 72.2793 102.237 72.3695 102.808 72.4196C103.119 72.4496 103.63 72.9807 103.66 73.2913C103.67 73.4316 103.73 73.5819 103.73 73.7222C103.73 77.2193 103.73 80.7063 103.73 84.2034C103.73 84.9349 103.099 85.506 102.317 85.526C101.736 85.5461 101.155 85.5661 100.574 85.5661C98.2389 85.5661 95.9142 85.5661 93.5795 85.5661L93.5695 85.5561Z" fill="#E52421"/>
<path d="M116.195 69.8444C113.129 69.7943 110.073 69.7542 107.007 69.664C106.776 69.664 106.526 69.3434 106.335 69.1329C106.255 69.0427 106.255 68.8524 106.245 68.7121C106.045 65.0647 106.075 61.4274 106.225 57.78C106.245 57.2189 106.796 56.6177 107.307 56.5976C108.179 56.5676 109.061 56.5175 109.933 56.5175C114.312 56.5175 118.69 56.5074 123.069 56.5175C123.941 56.5175 124.813 56.5776 125.694 56.6076C126.025 56.6177 126.576 57.1187 126.616 57.4093C126.636 57.5495 126.697 57.6998 126.697 57.8401C126.777 61.4875 126.837 65.1349 126.656 68.7722C126.636 69.0828 126.115 69.644 125.825 69.664C125.244 69.7041 124.662 69.7742 124.081 69.7742C121.456 69.7842 118.831 69.7742 116.195 69.7742C116.195 69.7943 116.195 69.8143 116.195 69.8243V69.8444Z" fill="#E52421"/>
<path d="M139.342 69.8442C136.276 69.7941 133.22 69.744 130.153 69.6839C129.833 69.6839 129.302 69.1528 129.272 68.8422C129.262 68.7019 129.212 68.5516 129.212 68.4113C129.212 64.9143 129.212 61.4072 129.222 57.9101C129.222 57.7699 129.292 57.6296 129.302 57.4793C129.342 57.1787 129.883 56.6476 130.173 56.6175C130.464 56.5875 130.755 56.5273 131.045 56.5273C136.737 56.5273 142.428 56.5273 148.12 56.5374C148.4 56.5374 148.711 56.5774 148.951 56.7077C149.192 56.828 149.452 57.0584 149.543 57.2989C149.853 58.1306 149.773 59.0224 149.763 59.8941C149.743 62.81 149.703 65.7259 149.673 68.6418C149.673 69.1629 149.082 69.6939 148.521 69.714C147.789 69.734 147.068 69.7741 146.336 69.7841C144.001 69.7841 141.667 69.7841 139.332 69.7841C139.332 69.8042 139.332 69.8142 139.332 69.8342L139.342 69.8442Z" fill="#E52421"/>
<path d="M116.536 85.5561C113.76 85.5561 110.985 85.5561 108.219 85.5561C107.928 85.5561 107.638 85.516 107.347 85.496C106.806 85.4659 106.245 84.9248 106.225 84.3737C106.185 82.9208 106.135 81.4578 106.125 80.0049C106.115 78.1111 106.125 76.2072 106.145 74.3134C106.145 73.8825 106.225 73.4316 106.375 73.0308C106.465 72.7903 106.766 72.62 106.987 72.4497C107.097 72.3695 107.257 72.3595 107.397 72.3595C113.379 72.3494 119.362 72.3294 125.344 72.3294C126.135 72.3294 126.686 72.9006 126.696 73.7122C126.696 77.2093 126.696 80.7163 126.696 84.2134C126.696 84.995 126.135 85.496 125.293 85.5261C124.853 85.5361 124.422 85.5661 123.981 85.5661C121.496 85.5661 119.021 85.5661 116.536 85.5661V85.5561Z" fill="#E52421"/>
<path d="M141.637 77.4598C139.863 77.53 137.669 77.3095 135.484 77.6001C135.244 77.6302 134.963 77.8706 134.823 78.0911C134.683 78.3215 134.693 78.6522 134.632 78.9328C134.502 79.5039 134.452 80.1052 134.222 80.6262C133.63 81.9589 132.969 83.2615 132.298 84.5541C131.877 85.3658 131.236 85.5962 130.053 85.4359C129.712 85.3858 129.222 84.8848 129.212 84.5642C129.181 83.2515 129.141 81.9389 129.141 80.6262C129.141 78.2915 129.181 75.9568 129.212 73.6221C129.222 72.8605 129.813 72.3495 130.654 72.3294C131.386 72.3094 132.117 72.2894 132.839 72.2894C134.733 72.2894 136.636 72.2894 138.53 72.2894C141.597 72.2894 144.663 72.2894 147.729 72.2894C148.15 72.2894 148.581 72.3996 148.991 72.5098C149.302 72.59 149.492 72.8305 149.553 73.111C149.793 74.2634 149.883 75.4157 149.543 76.568C149.462 76.8486 148.891 77.3696 148.601 77.3796C147.288 77.4097 145.975 77.4398 144.663 77.4598C143.791 77.4698 142.909 77.4598 141.617 77.4598H141.637Z" fill="#E52421"/>
<path d="M92.9182 94.5443C90.4432 94.5744 87.9682 94.6145 85.4932 94.6345C85.0624 94.6345 84.6315 94.5844 84.1906 94.5443C83.6896 94.5042 83.0683 93.893 83.0282 93.412C82.908 91.9591 82.8679 90.5062 83.0883 89.0632C83.1284 88.8027 83.6996 88.2316 83.9701 88.1915C84.2607 88.1514 84.5413 88.0612 84.8319 88.0612C90.5133 88.0512 96.1848 88.0512 101.866 88.0612C102.157 88.0612 102.437 88.1314 102.728 88.1714C103.039 88.2015 103.61 88.7125 103.65 88.9831C103.87 90.436 103.81 91.8789 103.71 93.3419C103.67 93.8329 103.099 94.364 102.518 94.384C100.193 94.4341 97.8582 94.4842 95.5335 94.5243C94.6618 94.5343 93.7899 94.5243 92.9082 94.5243V94.5644L92.9182 94.5443Z" fill="#E52421"/>
<path d="M113.45 94.3037C111.405 94.3037 109.361 94.3037 107.317 94.3037C106.766 94.3037 106.255 93.7526 106.205 93.1915C106.095 91.8788 106.065 90.5762 106.215 89.2635C106.275 88.7224 106.806 88.1513 107.337 88.1312C107.918 88.1012 108.5 88.0611 109.091 88.0511C112.307 88.0511 115.514 88.031 118.73 88.0511C121.065 88.0611 123.4 88.1112 125.734 88.1513C126.045 88.1513 126.596 88.6824 126.616 88.993C126.626 89.1333 126.706 89.2735 126.706 89.4239C126.726 90.1553 126.746 90.8868 126.726 91.6083C126.706 92.6604 126.175 93.2716 125.213 93.4119C121.887 93.8929 118.55 94.2837 115.183 94.2636C114.602 94.2636 114.011 94.2636 113.43 94.2636V94.3137L113.45 94.3037Z" fill="#E52421"/>
<path d="M162.519 72.2793C165.284 72.2793 168.05 72.2793 170.815 72.2793C171.246 72.2793 171.697 72.3294 172.098 72.4596C172.349 72.5398 172.669 72.7803 172.729 73.0107C173.02 74.143 173.08 75.3054 172.79 76.4577C172.719 76.7483 172.178 77.2894 171.898 77.3194C171.607 77.3495 171.327 77.4297 171.036 77.4297C165.365 77.4297 159.683 77.4297 154.012 77.4297C153.721 77.4297 153.43 77.3595 153.15 77.3295C152.859 77.2994 152.328 76.7583 152.268 76.4677C152.018 75.3054 152.058 74.153 152.328 73.0107C152.378 72.7803 152.689 72.4997 152.929 72.4396C153.491 72.3093 154.082 72.2692 154.653 72.2592C157.268 72.2392 159.893 72.2592 162.509 72.2592L162.519 72.2793Z" fill="#E52421"/>
</svg>
