<svg width="255" height="136" viewBox="0 0 255 136" fill="none" xmlns="http://www.w3.org/2000/svg">
<path d="M149.488 110.972C149.488 107.882 146.975 105.369 143.885 105.369C140.813 105.369 138.313 107.882 138.313 110.972C138.313 114.045 140.813 116.545 143.885 116.545C146.975 116.545 149.488 114.045 149.488 110.972Z" fill="#525252"/>
<path d="M65.1545 110.972C65.1545 107.882 62.6422 105.369 59.5517 105.369C56.4796 105.369 53.9797 107.882 53.9797 110.972C53.9797 114.045 56.4797 116.545 59.5517 116.545C62.641 116.545 65.1545 114.045 65.1545 110.972Z" fill="#525252"/>
<path d="M33.0634 110.972C33.0634 107.882 30.5511 105.369 27.4606 105.369C24.3885 105.369 21.8887 107.882 21.8887 110.972C21.8887 114.045 24.3886 116.545 27.4606 116.545C30.5511 116.545 33.0634 114.045 33.0634 110.972Z" fill="#525252"/>
<path d="M153.743 133.406H119.059C118.342 133.406 117.763 133.986 117.763 134.703C117.763 135.42 118.342 136 119.059 136H153.743C154.46 136 155.039 135.42 155.039 134.703C155.041 133.986 154.461 133.406 153.744 133.406H153.743Z" fill="#525252"/>
<path d="M108.672 133.406H58.0048C57.2875 133.406 56.708 133.986 56.708 134.703C56.708 135.42 57.2875 136 58.0048 136H108.672C109.389 136 109.969 135.42 109.969 134.703C109.968 133.986 109.388 133.406 108.671 133.406H108.672Z" fill="#525252"/>
<path d="M47.3594 133.406H12.2541C11.5369 133.406 10.9574 133.986 10.9574 134.703C10.9574 135.42 11.5369 136 12.2541 136H47.3594C48.0766 136 48.6561 135.42 48.6561 134.703C48.6561 133.986 48.0766 133.406 47.3594 133.406Z" fill="#525252"/>
<path d="M164.703 123.032H149.547C154.097 120.894 157.27 116.31 157.27 110.973C157.27 103.585 151.275 97.5901 143.887 97.5901C136.499 97.5901 130.532 103.585 130.532 110.973C130.532 116.309 133.69 120.895 138.231 123.032H65.2143C69.7639 120.894 72.9371 116.31 72.9371 110.973C72.9371 103.585 66.9419 97.5901 59.5539 97.5901C52.1659 97.5901 46.199 103.585 46.199 110.973C46.199 116.309 49.3571 120.895 53.8982 123.032H33.1245C37.6741 120.894 40.8473 116.31 40.8473 110.973C40.8473 103.585 34.8521 97.5901 27.4641 97.5901C20.0761 97.5901 14.1092 103.585 14.1092 110.973C14.1092 116.309 17.2673 120.895 21.8084 123.032H1.29674C0.57949 123.032 0 123.611 0 124.328C0 125.046 0.579458 125.625 1.29674 125.625H164.703C165.421 125.625 166 125.046 166 124.328C166 123.611 165.419 123.032 164.702 123.032H164.703ZM135.719 110.973C135.719 106.453 139.381 102.777 143.885 102.777C148.404 102.777 152.082 106.453 152.082 110.973C152.082 115.478 148.404 119.141 143.885 119.141C139.381 119.14 135.719 115.476 135.719 110.973ZM51.3855 110.973C51.3855 106.453 55.0481 102.777 59.5523 102.777C64.0713 102.777 67.7485 106.453 67.7485 110.973C67.7485 115.478 64.071 119.141 59.5523 119.141C55.0481 119.14 51.3855 115.476 51.3855 110.973ZM19.2944 110.973C19.2944 106.453 22.957 102.777 27.4612 102.777C31.9803 102.777 35.6574 106.453 35.6574 110.973C35.6574 115.478 31.9799 119.141 27.4612 119.141C22.957 119.14 19.2944 115.476 19.2944 110.973Z" fill="#525252"/>
<path d="M104.464 78.213C106.104 75.0831 107.254 71.7428 107.95 68.2758H73.7327C70.7935 75.077 64.0244 79.8517 56.1565 79.8517C48.2885 79.8517 41.5194 75.077 38.5802 68.2758H4.35376C5.75998 75.2527 8.48885 82.9052 15.6123 82.9052H96.6919C99.941 82.9052 102.994 81.0635 104.463 78.213H104.464Z" fill="#E52421"/>
<path d="M56.1561 77.2587C68.0826 77.2587 75.5311 65.2361 71.6813 55.0393C69.3585 48.7033 63.2858 44.1622 56.1561 44.1622C43.9553 44.1622 36.7493 56.6462 40.68 66.4984C40.883 66.7592 44.6724 77.2587 56.1561 77.2587ZM47.2119 54.4094C47.5441 53.8558 48.2282 53.6269 48.8224 53.8804C49.4179 54.1289 49.739 54.776 49.5803 55.3985C49.0352 57.5196 50.1068 59.2149 51.2473 60.3494C51.3741 53.6934 56.4429 49.8068 56.6876 49.6235C57.1514 49.2753 57.79 49.2765 58.2476 49.6272C58.7115 49.9778 58.8837 50.5905 58.6733 51.1306C57.4799 54.199 58.6758 56.8565 59.9701 58.6096C60.8596 56.0001 63.3338 53.8865 63.4863 53.7586C63.9169 53.3957 64.5295 53.3526 65.0008 53.6454C65.4769 53.9382 65.7131 54.5042 65.5839 55.0492C64.5862 59.2715 69.4866 62.7064 64.7129 68.953C64.4594 69.2889 64.0719 69.4648 63.6819 69.4648C63.4088 69.4648 63.132 69.3787 62.897 69.2003C62.3273 68.766 62.2154 67.9528 62.6509 67.3831C63.1295 66.752 63.4691 66.17 63.7176 65.55C64.3438 63.9666 64.3303 62.1286 63.6819 60.3752C63.4494 59.7429 63.2131 58.9837 63.0557 58.1582C62.3925 59.2003 61.9767 60.3568 62.4627 61.2573C62.7542 61.7925 62.6324 62.4569 62.1711 62.8543C61.7097 63.2504 61.0367 63.2787 60.5471 62.9145C58.7287 61.5612 56.0404 58.4878 55.6407 54.6359C54.4178 56.5502 53.3658 59.3429 54.0647 62.8494C54.1606 63.3366 53.9712 63.8373 53.5762 64.1362C53.1764 64.4352 52.6486 64.4807 52.2032 64.258C50.9065 63.5961 49.0598 62.2022 47.9069 60.2571C47.6005 62.4065 47.8441 65.0098 49.7535 67.35C50.2038 67.9048 50.1239 68.7218 49.569 69.1733C49.0166 69.6285 48.196 69.5436 47.7432 68.9888C42.4604 62.5101 47.0137 54.7382 47.2117 54.4097L47.2119 54.4094Z" fill="#E52421"/>
<path d="M20.9313 85.501H92.726V90.688H20.9313V85.501Z" fill="#525252"/>
<path d="M74.6379 65.684H108.389C108.881 61.9747 108.837 59.1291 108.389 55.7493H74.6505C75.5265 58.9776 75.4662 62.7017 74.6407 65.684H74.6379Z" fill="#E52421"/>
<path d="M121.532 43.0132H147.787C148.237 43.0132 148.602 42.6478 148.602 42.1963C148.602 38.7673 145.813 35.9784 142.384 35.9784H121.533C119.596 35.9784 118.017 37.5569 118.017 39.4958C118.016 41.436 119.594 43.0132 121.532 43.0132Z" fill="#525252"/>
<path d="M87.3714 32.8086C87.3714 32.3276 86.9789 31.9363 86.4979 31.9363H70.8313C70.3502 31.9363 69.9602 32.3276 69.9602 32.8086V35.9348H87.3714V32.8086Z" fill="#E52421"/>
<path d="M42.3514 32.8086C42.3514 32.3276 41.9614 31.9363 41.4803 31.9363H25.8137C25.3327 31.9363 24.9402 32.3276 24.9402 32.8086V35.9348H42.3514V32.8086Z" fill="#E52421"/>
<path d="M37.6712 65.684C36.8493 62.7214 36.7706 59.022 37.6614 55.7493H3.92306C3.43462 59.4192 3.46662 62.2516 3.92183 65.684H37.6712Z" fill="#E52421"/>
<path d="M118.023 49.5801V90.6916H162.454V73.4426C162.454 68.8795 160.859 67.237 154.024 48.439C153.376 46.7535 151.716 45.6118 149.9 45.6118H121.992C119.787 45.6118 118.023 47.376 118.023 49.5809L118.023 49.5801ZM130.085 54.1961C130.085 53.0286 131.045 52.0948 132.187 52.0948H147.023C147.879 52.0948 148.657 52.6398 148.968 53.4432L154.259 67.3457C154.779 68.72 153.74 70.1988 152.288 70.1988H132.187C131.045 70.1988 130.085 69.265 130.085 68.0974V54.1961Z" fill="#525252"/>
<path d="M27.4761 94.9971C35.8288 94.9971 42.727 101.455 43.4023 109.678H43.6619C44.3361 101.456 51.2098 94.9971 59.561 94.9971C67.9137 94.9971 74.8119 101.455 75.4871 109.678H87.2625C87.6254 103.998 86.3287 100.834 88.5592 100.834C115.093 101.353 118.025 99.6918 118.025 102.13V109.678H127.986C128.66 101.456 135.534 94.9971 143.885 94.9971C152.263 94.9971 159.136 101.455 159.811 109.678H162.456V93.2856H10.8762L9.21652 100.47C9.08734 101.067 8.56815 101.482 7.97146 101.482H3.56079V109.678H11.5749C12.2503 101.456 19.1229 94.9968 27.4752 94.9968L27.4761 94.9971Z" fill="#525252"/>
<path d="M56.1561 41.5707C64.0276 41.5707 70.8004 46.3492 73.7371 53.1564H107.951C107.252 49.6881 106.104 46.3492 104.467 43.2267C102.995 40.37 99.9432 38.5282 96.6925 38.5282H57.896H55.0343H15.611C12.3361 38.5282 9.35498 40.3294 7.83436 43.2267C6.19806 46.3505 5.05019 49.6884 4.35376 53.1564H38.5708C41.5088 46.3492 48.2803 41.5707 56.153 41.5707H56.1561Z" fill="#E52421"/>
</svg>
