<svg width="255" height="136" viewBox="0 0 255 136" fill="none" xmlns="http://www.w3.org/2000/svg">
<g clip-path="url(#clip0_42_1404)">
<path d="M35.7107 38.3827C35.3692 41.0031 34.7771 43.2582 33.9796 45.0574L64.1181 49.2716C65.5531 49.4542 66.624 50.6612 66.624 52.1189C66.624 53.2578 65.9173 54.3059 64.8702 54.7382L62.5924 55.4676C61.4988 55.8317 60.7467 56.8572 60.7467 57.9961V60.7981H82.7765V57.9961C82.7765 56.8572 82.0244 55.8317 80.9308 55.4676L78.653 54.7382C77.6048 54.3049 76.8992 53.2578 76.8992 52.1189C76.8992 50.6612 77.9701 49.4531 79.4051 49.2716L109.544 45.0574C108.746 43.2583 108.154 41.0021 107.812 38.3827H35.7107Z" fill="#525252"/>
<path d="M32.7038 31.0466H28.7715V24.9381L29.5939 25.2785C34.6487 27.3921 40.163 28.128 45.6092 27.3921L55.2599 26.0824L53.2835 25.232C48.2287 23.1184 42.7144 22.4063 37.2682 23.1411L28.7705 24.2919L28.7716 23.1389C28.7716 22.509 28.2626 22 27.6326 22C27.0027 22 26.4937 22.5089 26.4937 23.1389V25.4784L25.6887 25.1412C20.6339 23.0276 15.0958 22.2917 9.67336 23.0276L0 24.3589L1.97636 25.1866C7.03116 27.3002 12.5692 28.0361 17.9917 27.3002L26.4946 26.1288V31.0464H22.5679C21.9304 31.0464 21.429 31.5478 21.429 32.1854C21.429 41.594 23.9122 47.9271 27.6249 47.9271C31.3376 47.9271 33.8434 41.5937 33.8434 32.1854C33.8424 31.5478 33.3183 31.0464 32.7034 31.0464L32.7038 31.0466Z" fill="#525252"/>
<path d="M60.7427 63.069L42.1113 73.7916V87.3753H46.2143V134.861C46.2143 135.499 46.7157 136 47.3532 136H96.1723C96.8098 136 97.3112 135.499 97.3112 134.861V87.3753H101.414V73.7916L82.7828 63.069H60.7427ZM86.1957 129.327H57.3325C56.6949 129.327 56.1935 128.803 56.1935 128.188C56.1935 127.55 56.6949 127.049 57.3325 127.049H86.1957C86.8332 127.049 87.3346 127.55 87.3346 128.188C87.3357 128.803 86.8343 129.327 86.1968 129.327H86.1957ZM57.3325 113.426L62.959 106.045L68.5856 113.426H65.3505V123.472H60.5441V113.426H57.3325ZM74.9425 113.426L80.5918 106.045L86.1957 113.426H82.9843V123.472H78.1779V113.426H74.9425ZM96.0461 84.881H78.0643V96.3394C78.0643 96.9543 77.5402 97.4784 76.9253 97.4784H66.6047C65.9898 97.4784 65.4657 96.9543 65.4657 96.3394V84.881H47.4839L48.2749 76.5108L62.2445 69.2311H81.282L95.2538 76.5119L96.0461 84.881Z" fill="#E52421"/>
<path d="M71.7496 28.108C66.8514 28.108 62.7745 31.5249 61.749 36.1042H81.7732C80.7261 31.5258 76.6481 28.108 71.7499 28.108H71.7496Z" fill="#525252"/>
<path d="M141.546 25.2327C136.491 23.1191 130.976 22.407 125.53 23.1418L117.034 24.2926V23.1397C117.034 22.5097 116.525 22.0007 115.895 22.0007C115.265 22.0007 114.756 22.5097 114.756 23.1397V25.4791L113.95 25.1419C108.895 23.0283 103.357 22.2924 97.9344 23.0283L88.261 24.3607L90.2373 25.1884C95.2922 27.302 100.83 28.0379 106.253 27.302L114.756 26.1307V31.0483H110.821C110.206 31.0483 109.682 31.5496 109.682 32.1872C109.682 41.5958 112.188 47.9289 115.901 47.9289C119.614 47.9289 122.097 41.5955 122.097 32.1872C122.097 31.5496 121.595 31.0483 120.958 31.0483H117.033V24.9398L117.855 25.2802C122.91 27.3938 128.424 28.1297 133.871 27.3938L143.52 26.083L141.546 25.2327Z" fill="#525252"/>
<path d="M67.7412 84.8782H75.7828V95.1977H67.7412V84.8782Z" fill="#525252"/>
<path d="M71.9792 80.2087C76.7856 80.2087 80.6595 76.3132 80.6595 71.5068H63.2773C63.2773 76.3132 67.1728 80.2087 71.9792 80.2087ZM70.8176 75.8347C70.8176 75.2198 71.3417 74.6957 71.9565 74.6957C72.5941 74.6957 73.0954 75.2198 73.0954 75.8347C73.0954 76.4722 72.5941 76.9963 71.9565 76.9963C71.3417 76.9963 70.8176 76.4949 70.8176 75.88V75.8347Z" fill="#525252"/>
</g>
<defs>
<clipPath id="clip0_42_1404">
<rect width="255" height="136" fill="white"/>
</clipPath>
</defs>
</svg>
