<svg width="90" height="97" viewBox="0 0 90 97" fill="none" xmlns="http://www.w3.org/2000/svg">
<path d="M2.64993 21C0.386642 21 -0.623516 22.6251 0.399437 24.6155L36.0366 93.3846C37.0723 95.3749 39.7704 97 42.0337 97L60.3446 97C62.6079 97 63.6308 95.3749 62.5951 93.3846L26.9963 24.6406C25.9605 22.6503 23.2625 21.0252 20.9992 21.0252L2.64993 21Z" fill="#313438"/>
<path fill-rule="evenodd" clip-rule="evenodd" d="M36.8651 26.8527L36.864 34.7508H65.775C70.098 34.7508 73.653 38.3058 73.653 42.6288V63.6632C73.653 67.9862 70.098 71.5412 65.775 71.5412H34.2249C29.9019 71.5412 26.3469 67.9862 26.3469 63.6632V42.6288C26.3469 39.2222 28.5545 36.2925 31.6058 35.2035V26.8527C31.6451 16.756 39.8951 8.45882 50.002 8.45882C60.1317 8.45882 68.3958 16.7216 68.3958 26.8527C68.3988 27.5502 68.1242 28.2197 67.6331 28.7149C67.1415 29.2095 66.4738 29.4894 65.7767 29.4917C65.0756 29.4946 64.4033 29.2171 63.9075 28.7219C63.4123 28.2262 63.1347 27.5532 63.1377 26.8527C63.1377 19.5632 57.2909 13.7164 50.0014 13.7164C42.7119 13.7164 36.8651 19.5632 36.8651 26.8527ZM48.9208 46.4736C48.4602 46.1398 47.9574 45.9796 47.4627 45.9655C45.9788 45.9227 44.583 47.1789 44.7619 48.8763L44.9063 50.2006L43.6841 50.745C41.6013 51.6697 41.6013 54.6257 43.6841 55.5503L44.9063 56.0948L44.7619 57.4191C44.5239 59.6821 47.079 61.1583 48.9208 59.8217L49.9986 59.0314L51.0764 59.8217C52.9194 61.1741 55.4916 59.6921 55.2451 57.4191L55.0914 56.0948L56.3136 55.5503C58.3964 54.6257 58.3964 51.6697 56.3136 50.745L55.0914 50.2006L55.2451 48.8763C55.3971 47.4617 54.3961 46.1826 52.9862 45.9908C52.3109 45.8981 51.6268 46.0711 51.0764 46.4736L49.9986 47.264L48.9208 46.4736Z" fill="#EFBA00"/>
</svg>
