<svg viewBox="0 0 52 52" fill="none" xmlns="http://www.w3.org/2000/svg">
<rect width="52" height="52" fill="#F5F6FA"/>
<path d="M32.5962 16.8701H24.8362C24.5098 15.65 23.6089 14.6661 22.4223 14.2337C21.2357 13.8016 19.9129 13.9754 18.8783 14.6996C17.8437 15.4237 17.2276 16.6072 17.2276 17.8701C17.2276 19.1328 17.8437 20.3163 18.8783 21.0404C19.9129 21.7647 21.2357 21.9384 22.4223 21.5062C23.609 21.0738 24.5098 20.0899 24.8362 18.87H32.5962C33.5656 18.9276 34.4377 19.4783 34.9065 20.3287C35.3752 21.1792 35.3752 22.2107 34.9065 23.0611C34.4377 23.9115 33.5656 24.4622 32.5962 24.52H19.1961C17.5245 24.5961 16.0113 25.5321 15.1968 26.9937C14.3823 28.4553 14.3823 30.2345 15.1968 31.6961C16.0113 33.158 17.5245 34.0939 19.1961 34.17H25.4762L23.356 36.2901L23.3563 36.2899C23.167 36.4776 23.0605 36.7332 23.0605 37C23.0605 37.2667 23.167 37.5223 23.3563 37.71C23.5449 37.8971 23.8005 38.0015 24.0663 38C24.3319 38.0015 24.5875 37.8971 24.7762 37.71L28.5963 33.8801V33.8799C28.7824 33.6926 28.8871 33.4393 28.8871 33.175C28.8871 32.9107 28.7824 32.6574 28.5963 32.4701L24.7762 28.6402V28.64C24.5884 28.4507 24.3329 28.3442 24.0663 28.3442C23.7996 28.3442 23.544 28.4507 23.3563 28.64C23.1699 28.8275 23.0654 29.0808 23.0654 29.3451C23.0654 29.6092 23.1699 29.8627 23.3563 30.05L25.4764 32.1701H19.1964C18.2269 32.1123 17.3548 31.5617 16.8861 30.7112C16.4173 29.8608 16.4173 28.8293 16.8861 27.9789C17.3548 27.1284 18.2269 26.5777 19.1964 26.5202H32.5964C34.2681 26.4441 35.7812 25.5081 36.5957 24.0463C37.4102 22.5847 37.4102 20.8054 36.5957 19.3438C35.7812 17.8822 34.2681 16.9463 32.5964 16.8702L32.5962 16.8701ZM21.1162 19.74C20.6202 19.74 20.1445 19.5431 19.7938 19.1922C19.4431 18.8416 19.246 18.3659 19.246 17.8701C19.246 17.3741 19.4431 16.8985 19.7938 16.5478C20.1445 16.1971 20.6202 16 21.1162 16C21.6119 16 22.0876 16.1971 22.4383 16.5478C22.7892 16.8984 22.986 17.3741 22.986 17.8701C22.986 18.3659 22.7892 18.8416 22.4383 19.1922C22.0876 19.5431 21.6119 19.74 21.1162 19.74Z" fill="#525252"/>
<path d="M33.5459 36.9998C32.5196 36.9998 31.5352 36.592 30.8093 35.8663C30.0836 35.1406 29.6758 34.1562 29.6758 33.1297C29.6758 32.1033 30.0836 31.1189 30.8093 30.3933C31.5352 29.6674 32.5196 29.2598 33.5459 29.2598C34.5722 29.2598 35.5567 29.6674 36.2825 30.3933C37.0082 31.1189 37.416 32.1033 37.416 33.1297C37.416 34.1562 37.0082 35.1406 36.2825 35.8663C35.5567 36.592 34.5722 36.9998 33.5459 36.9998ZM33.5459 31.2598C33.0499 31.2598 32.5742 31.4566 32.2236 31.8075C31.8729 32.1582 31.6758 32.6339 31.6758 33.1297C31.6758 33.6256 31.8729 34.1013 32.2236 34.452C32.5742 34.8027 33.0499 34.9998 33.5459 34.9998C34.0419 34.9998 34.5176 34.8027 34.8682 34.452C35.2189 34.1013 35.416 33.6257 35.416 33.1297C35.4055 32.6408 35.2037 32.1754 34.8542 31.8332C34.5046 31.491 34.035 31.2995 33.5459 31.2997L33.5459 31.2598Z" fill="#525252"/>
</svg>
