<svg viewBox="0 0 495 15" fill="none" xmlns="http://www.w3.org/2000/svg">
<path d="M493.5 6.63373C494.167 7.01863 494.167 7.98088 493.5 8.36578L485.25 13.1289C484.583 13.5138 483.75 13.0327 483.75 12.2629L483.75 2.73662C483.75 1.96682 484.583 1.48569 485.25 1.87059L493.5 6.63373Z" fill="#525252"/>
<path d="M469.5 6.63373C470.167 7.01863 470.167 7.98088 469.5 8.36578L461.25 13.1289C460.583 13.5138 459.75 13.0327 459.75 12.2629L459.75 2.73662C459.75 1.96682 460.583 1.48569 461.25 1.87059L469.5 6.63373Z" fill="#525252"/>
<path d="M445.5 6.63373C446.167 7.01863 446.167 7.98088 445.5 8.36578L437.25 13.1289C436.583 13.5138 435.75 13.0327 435.75 12.2629L435.75 2.73662C435.75 1.96682 436.583 1.48569 437.25 1.87059L445.5 6.63373Z" fill="#525252"/>
<path d="M421.5 6.63373C422.167 7.01863 422.167 7.98088 421.5 8.36578L413.25 13.1289C412.583 13.5138 411.75 13.0327 411.75 12.2629L411.75 2.73662C411.75 1.96682 412.583 1.48569 413.25 1.87059L421.5 6.63373Z" fill="#525252"/>
<path d="M397.5 6.63373C398.167 7.01863 398.167 7.98088 397.5 8.36578L389.25 13.1289C388.583 13.5138 387.75 13.0327 387.75 12.2629L387.75 2.73662C387.75 1.96682 388.583 1.48569 389.25 1.87059L397.5 6.63373Z" fill="#525252"/>
<path d="M373.5 6.63373C374.167 7.01863 374.167 7.98088 373.5 8.36578L365.25 13.1289C364.583 13.5138 363.75 13.0327 363.75 12.2629L363.75 2.73662C363.75 1.96682 364.583 1.48569 365.25 1.87059L373.5 6.63373Z" fill="#525252"/>
<path d="M349.5 6.63373C350.167 7.01863 350.167 7.98088 349.5 8.36578L341.25 13.1289C340.583 13.5138 339.75 13.0327 339.75 12.2629L339.75 2.73662C339.75 1.96682 340.583 1.48569 341.25 1.87059L349.5 6.63373Z" fill="#525252"/>
<path d="M325.5 6.63373C326.167 7.01863 326.167 7.98088 325.5 8.36578L317.25 13.1289C316.583 13.5138 315.75 13.0327 315.75 12.2629L315.75 2.73662C315.75 1.96682 316.583 1.48569 317.25 1.87059L325.5 6.63373Z" fill="#525252"/>
<path d="M301.5 6.63373C302.167 7.01863 302.167 7.98088 301.5 8.36578L293.25 13.1289C292.583 13.5138 291.75 13.0327 291.75 12.2629L291.75 2.73662C291.75 1.96682 292.583 1.48569 293.25 1.87059L301.5 6.63373Z" fill="#525252"/>
<path d="M277.5 6.63373C278.167 7.01863 278.167 7.98088 277.5 8.36578L269.25 13.1289C268.583 13.5138 267.75 13.0327 267.75 12.2629L267.75 2.73662C267.75 1.96682 268.583 1.48569 269.25 1.87059L277.5 6.63373Z" fill="#525252"/>
<path d="M253.5 6.63373C254.167 7.01863 254.167 7.98088 253.5 8.36578L245.25 13.1289C244.583 13.5138 243.75 13.0327 243.75 12.2629L243.75 2.73662C243.75 1.96682 244.583 1.48569 245.25 1.87059L253.5 6.63373Z" fill="#525252"/>
<path d="M229.5 6.63373C230.167 7.01863 230.167 7.98088 229.5 8.36578L221.25 13.1289C220.583 13.5138 219.75 13.0327 219.75 12.2629L219.75 2.73662C219.75 1.96682 220.583 1.48569 221.25 1.87059L229.5 6.63373Z" fill="#525252"/>
<path d="M205.5 6.63373C206.167 7.01863 206.167 7.98088 205.5 8.36578L197.25 13.1289C196.583 13.5138 195.75 13.0327 195.75 12.2629L195.75 2.73662C195.75 1.96682 196.583 1.48569 197.25 1.87059L205.5 6.63373Z" fill="#525252"/>
<path d="M181.5 6.63373C182.167 7.01863 182.167 7.98088 181.5 8.36578L173.25 13.1289C172.583 13.5138 171.75 13.0327 171.75 12.2629L171.75 2.73662C171.75 1.96682 172.583 1.48569 173.25 1.87059L181.5 6.63373Z" fill="#525252"/>
<path d="M157.5 6.63373C158.167 7.01863 158.167 7.98088 157.5 8.36578L149.25 13.1289C148.583 13.5138 147.75 13.0327 147.75 12.2629L147.75 2.73662C147.75 1.96682 148.583 1.48569 149.25 1.87059L157.5 6.63373Z" fill="#525252"/>
<path d="M133.5 6.63373C134.167 7.01863 134.167 7.98088 133.5 8.36578L125.25 13.1289C124.583 13.5138 123.75 13.0327 123.75 12.2629L123.75 2.73662C123.75 1.96682 124.583 1.48569 125.25 1.87059L133.5 6.63373Z" fill="#525252"/>
<path d="M109.5 6.63373C110.167 7.01863 110.167 7.98088 109.5 8.36578L101.25 13.1289C100.583 13.5138 99.75 13.0327 99.75 12.2629L99.75 2.73662C99.75 1.96682 100.583 1.48569 101.25 1.87059L109.5 6.63373Z" fill="#525252"/>
<path d="M85.5 6.63373C86.1667 7.01863 86.1667 7.98088 85.5 8.36578L77.25 13.1289C76.5833 13.5138 75.75 13.0327 75.75 12.2629L75.75 2.73662C75.75 1.96682 76.5833 1.48569 77.25 1.87059L85.5 6.63373Z" fill="#525252"/>
<path d="M61.5 6.63373C62.1667 7.01863 62.1667 7.98088 61.5 8.36578L53.25 13.1289C52.5833 13.5138 51.75 13.0327 51.75 12.2629L51.75 2.73662C51.75 1.96682 52.5833 1.48569 53.25 1.87059L61.5 6.63373Z" fill="#525252"/>
<path d="M37.5 6.63373C38.1667 7.01863 38.1667 7.98088 37.5 8.36578L29.25 13.1289C28.5833 13.5138 27.75 13.0327 27.75 12.2629L27.75 2.73662C27.75 1.96682 28.5833 1.48569 29.25 1.87059L37.5 6.63373Z" fill="#525252"/>
<path d="M13.5 6.63373C14.1667 7.01863 14.1667 7.98088 13.5 8.36578L5.25 13.1289C4.58333 13.5138 3.75 13.0327 3.75 12.2629L3.75 2.73662C3.75 1.96682 4.58333 1.48569 5.25 1.87059L13.5 6.63373Z" fill="#525252"/>
</svg>
