<svg width="75" height="91" viewBox="0 0 75 91" fill="none" xmlns="http://www.w3.org/2000/svg">
<path d="M71.8453 8.55538e-07C74.5397 8.87623e-07 75.7423 1.94581 74.5245 4.32904L32.0993 86.671C30.8662 89.0542 27.6543 91 24.9599 91L3.16122 91C0.466829 91 -0.750966 89.0542 0.48206 86.671L42.8616 4.35919C44.0946 1.97597 47.3066 0.0301744 50.001 0.0301745L71.8453 8.55538e-07Z" fill="#F5F6FA"/>
<path d="M24.9064 2.96586e-07C25.8404 3.07709e-07 26.2573 0.705625 25.8352 1.56987L11.1277 31.4301C10.7003 32.2944 9.58682 33 8.65277 33L1.09589 33C0.161834 33 -0.260335 32.2944 0.167114 31.4301L14.8587 1.58081C15.2861 0.716559 16.3996 0.0109424 17.3337 0.0109424L24.9064 2.96586e-07Z" fill="#F5F6FA"/>
</svg>
