<svg viewBox="0 0 24 24" fill="none" xmlns="http://www.w3.org/2000/svg">
<rect width="24" height="24" rx="12" fill="#F5F6FA"/>
<path d="M4.57255 14.8202C4.39995 14.8202 4.22446 14.7828 4.05831 14.7034C3.46216 14.4187 3.20772 13.7074 3.49046 13.1101C3.65045 12.772 5.13511 9.78917 7.89867 9.27535C9.5104 8.97721 11.1181 9.57975 12.6807 11.0686C13.7133 12.0519 14.6818 12.4724 15.5576 12.3191C16.9518 12.0752 18.0712 10.4078 18.3534 9.84294C18.6496 9.25063 19.369 9.01066 19.9619 9.30645C20.5542 9.60247 20.7942 10.3225 20.4984 10.9149C20.4318 11.0479 18.8367 14.1799 15.9706 14.6809C14.3033 14.9737 12.6403 14.3411 11.0269 12.8048C10.0545 11.8788 9.15142 11.4837 8.34299 11.6318C7.01175 11.8748 5.95191 13.5245 5.65587 14.1397C5.44929 14.5689 5.01958 14.8202 4.57252 14.8202L4.57255 14.8202Z" fill="#525252"/>
</svg>
