<svg viewBox="0 0 118 86" fill="none" xmlns="http://www.w3.org/2000/svg">
<path d="M115.687 -2.30345e-06C117.662 -2.38983e-06 118.544 1.43263 117.651 3.18731L86.5395 63.8127C85.6353 65.5674 83.2798 67 81.3039 67L65.3182 67C63.3423 67 62.4493 65.5674 63.3535 63.8127L94.4318 3.20951C95.3361 1.45483 97.6915 0.0222144 99.6674 0.0222143L115.687 -2.30345e-06Z" fill="#23262D"/>
<path d="M70.4707 19.3292V27.8405C70.557 30.1495 71.924 31.504 74.5718 31.9177H88.1549V31.0336H87.5075V19.9708H88.1549V13.8981H88.9317V19.9708H89.5651V31.0336H88.9317V31.9177H97.5937C102.17 32.1026 104.63 34.2416 104.961 38.3326V49.794C104.932 53.372 103.205 55.0832 99.7518 54.9549H47.504C45.7917 55.0404 44.3954 54.1992 43.3024 52.4321L37.2451 40.714C36.2805 38.9609 36.2805 37.1928 37.2451 35.4396L43.8214 20.0142C44.4828 17.7907 46.152 16.5786 48.8288 16.3647L66.6425 16.3637C69.0022 16.2931 70.2678 17.2766 70.4698 19.329M60.8152 20.1414C59.8225 20.1414 59.3327 20.6256 59.3327 21.6101V33.7986C59.3327 34.7821 59.8215 35.2674 60.8152 35.2674H65.0458C66.0385 35.2674 66.5283 34.7831 66.5283 33.7986V21.6101C66.5283 20.6266 66.0395 20.1414 65.0458 20.1414H60.8152ZM48.1094 20.1414C47.1167 20.1414 46.6128 20.6256 46.6128 21.6101L43.6338 42.0243C43.6338 42.4658 43.7341 42.8228 43.95 43.0654C44.0654 43.1937 44.2089 43.3081 44.3816 43.3787C44.5833 43.4642 44.8423 43.5069 45.1293 43.5069H48.4966C49.6479 43.5497 50.3956 43.0505 50.7128 42.0243L52.2525 36.6068C52.4974 35.7377 53.0585 35.2813 53.9357 35.2524H55.1161C56.1087 35.2524 56.6126 34.7681 56.6126 33.7837V21.5952C56.6126 20.6117 56.1087 20.1264 55.1161 20.1264L48.1091 20.1274M85.3614 43.5926C85.1597 43.7925 85.1748 43.9913 85.3755 44.1912L86.2527 45.0604C86.3531 45.1598 86.4545 45.2175 86.5408 45.2314C86.6703 45.2314 86.7707 45.1747 86.872 45.0892L93.4484 38.5888C93.6642 38.375 93.6642 38.1612 93.4484 37.9474L92.5561 37.0783C92.3403 36.8645 92.1385 36.8645 91.9227 37.0783L85.3614 43.5926ZM86.3834 38.5599C86.5851 38.36 86.5991 38.1462 86.3974 37.9324L85.5202 37.0633C85.3044 36.8495 85.0886 36.8495 84.8728 37.0493L78.3116 43.5925C78.1099 43.7924 78.1249 43.9913 78.3257 44.1912L79.2029 45.0603C79.3033 45.1597 79.3896 45.2174 79.4759 45.2313C79.5913 45.2313 79.6917 45.1747 79.7921 45.0891L86.3834 38.5599ZM99.6213 37.0783C99.4055 36.8645 99.2037 36.8645 98.988 37.0783L92.4268 43.5937C92.225 43.7936 92.2401 43.9925 92.4408 44.1924L93.3181 45.0615C93.4185 45.1609 93.5048 45.2186 93.5911 45.2325C93.7206 45.2325 93.8209 45.1759 93.9223 45.0903L100.499 38.5899C100.714 38.3761 100.714 38.1623 100.499 37.9485L99.6213 37.0783Z" fill="#DDDFE7"/>
<path d="M89.9042 57.6991C95.9465 57.6991 100.854 62.6071 100.854 68.6494C100.854 74.6916 95.9465 79.5997 89.9042 79.5997C83.8619 79.5997 78.9539 74.6916 78.9539 68.6494C78.9539 62.6071 83.8619 57.6991 89.9042 57.6991ZM89.9042 73.0876C92.351 73.0876 94.3426 71.097 94.3426 68.6491C94.3426 66.2024 92.352 64.2107 89.9042 64.2107C87.4574 64.2107 85.4658 66.2013 85.4658 68.6491C85.4658 71.0959 87.4564 73.0876 89.9042 73.0876Z" fill="#DDDFE7"/>
<path d="M42.6817 57.6991C49.1016 57.6991 54.3164 62.6071 54.3164 68.6494C54.3164 74.6916 49.1016 79.5997 42.6817 79.5997C36.2618 79.5997 31.0471 74.6916 31.0471 68.6494C31.0471 62.6071 36.2618 57.6991 42.6817 57.6991ZM42.6817 73.0876C45.2814 73.0876 47.3976 71.097 47.3976 68.6491C47.3976 66.2024 45.2826 64.2107 42.6817 64.2107C40.082 64.2107 37.9659 66.2013 37.9659 68.6491C37.9659 71.0959 40.0809 73.0876 42.6817 73.0876Z" fill="#DDDFE7"/>
<path d="M53.0815 57.3116H79.0211L80.6621 59.6884C80.6351 59.7147 80.6091 59.7537 80.569 59.7791C80.556 59.7918 80.542 59.8053 80.542 59.8053C79.4744 60.793 78.6339 61.923 78.0065 63.2089C77.3661 64.5336 77.0059 65.9237 76.9118 67.3916L56.2164 67.3925C56.1494 66.0931 55.8431 64.8336 55.3088 63.6257C54.7215 62.2619 53.894 61.0668 52.8274 60.0273C52.4671 59.6766 52.0799 59.3522 51.6797 59.0532L53.0815 57.3116ZM67.3721 65.8467C67.5192 66.0025 67.7053 66.0804 67.9325 66.0804H72.5633C72.7904 66.0804 72.9766 66.0025 73.1236 65.8467C73.2707 65.6908 73.3368 65.5087 73.3368 65.3011C73.3368 65.08 73.2698 64.8988 73.1236 64.7556C72.9635 64.6125 72.7765 64.5345 72.5633 64.5345H67.9325C67.7193 64.5345 67.5322 64.6125 67.3721 64.7556C67.212 64.9115 67.132 65.0936 67.132 65.3011C67.1459 65.5213 67.226 65.7035 67.3721 65.8467Z" fill="#DDDFE7"/>
<path d="M6.77146 53.0782L5.04012 19.3427C5.29758 16.4689 7.31432 15.8836 11.1053 17.5848L39.2598 27.176L38.215 29.6489L15.884 21.687C14.8113 21.4297 14.1247 21.7298 13.8094 22.5734C13.495 23.417 13.9381 24.0033 15.1256 24.3463L37.1561 32.1936L35.6683 35.6955L15.5558 28.577C14.011 27.9907 13.1239 28.7196 12.8665 30.7637L10.8348 58.6817L19.5754 66.0146H22.8226C20.6771 67.8304 18.2731 69.0449 15.5838 69.6601C12.6649 70.3321 10.248 70.0599 8.3591 68.8314C6.90018 67.8882 5.99907 66.6448 5.64073 65.0722C5.29744 63.6284 5.41222 61.7847 5.95509 59.5261C4.55503 56.9944 4.82646 54.8497 6.77237 53.0777L6.77146 53.0782ZM6.90019 57.6241C7.21453 57.9382 7.60073 58.1097 8.04479 58.1097C8.48787 58.1097 8.87404 57.9522 9.18938 57.6241C9.50373 57.31 9.66141 56.9381 9.66141 56.4804C9.66141 56.0377 9.50373 55.6518 9.18938 55.3367C8.87504 55.0226 8.48886 54.8651 8.04479 54.8651C7.60172 54.8651 7.21553 55.0226 6.90019 55.3367C6.58584 55.6508 6.42818 56.0367 6.42818 56.4804C6.42818 56.9381 6.58484 57.309 6.90019 57.6241Z" fill="#DDDFE7"/>
</svg>
