<svg viewBox="0 0 118 86" xmlns="http://www.w3.org/2000/svg">
<path d="M115.687 -2.30345e-06C117.662 -2.38983e-06 118.544 1.43263 117.651 3.18731L86.5395 63.8127C85.6353 65.5674 83.2798 67 81.3039 67L65.3182 67C63.3423 67 62.4493 65.5674 63.3535 63.8127L94.4318 3.20951C95.3361 1.45483 97.6915 0.0222144 99.6674 0.0222143L115.687 -2.30345e-06Z" />
<path d="M26.174 56.9179V58.2427C26.339 58.1921 26.461 58.1562 26.5819 58.118C26.9722 57.994 27.3565 57.8434 27.7533 57.7482C30.221 57.1561 32.6945 56.5893 35.1605 55.9895C40.6058 54.6648 46.0482 53.3283 51.4907 51.9923C55.6238 50.9775 59.7676 50.0002 63.8843 48.9212C66.4371 48.2515 69.0327 47.797 71.5973 47.1914C73.44 46.7563 75.2956 46.3758 77.1494 45.9895C78.5731 45.6926 79.9458 45.9096 81.2732 46.4734C81.4164 46.5346 81.5596 46.5963 81.7797 46.691C82.3929 46.163 83.0479 45.6391 83.6576 45.067C85.6611 43.1889 87.4586 41.1192 89.1481 38.9607C90.9327 36.6804 92.6463 34.3449 94.3922 32.0341C94.4591 31.9453 94.5378 31.866 94.6557 31.7313C98.2989 36.8174 101.915 41.8659 105.555 46.9468C104.958 47.3172 104.359 47.3531 103.759 47.3331C102.517 47.2919 101.329 46.9626 100.159 46.574C98.3564 45.9754 96.634 45.1863 94.9386 44.3349C94.7666 44.2485 94.5923 44.1667 94.4274 44.0874C94.3822 44.1338 94.3353 44.1591 94.3365 44.1832C94.4204 46.5511 94.793 48.8595 95.83 51.0151C96.492 52.3916 97.3658 53.6052 98.6668 54.4625C99.4673 54.9899 100.315 55.3209 101.298 55.3227C102.714 55.3257 104.107 55.2304 105.449 54.73C107.721 53.8827 109.075 52.2205 109.682 49.9138C109.826 49.3675 109.88 48.7978 109.968 48.2374C110.062 47.6388 109.947 47.0885 109.673 46.5381C108.121 43.4206 106.589 40.2925 105.054 37.1661C102.924 32.8279 100.797 28.4885 98.6692 24.1492C98.3077 23.4112 97.9432 22.6751 97.5911 21.9324C97.4567 21.6484 97.2607 21.4703 96.9562 21.3756C96.1093 21.1128 95.2566 20.9123 94.3635 21.041C93.3905 21.181 92.7913 21.7995 92.6657 22.7832C92.6387 22.9955 92.6047 23.2201 92.644 23.4259C92.7338 23.8987 92.5618 24.2691 92.2661 24.6054C91.556 25.4133 90.8899 26.2671 90.1229 27.0168C87.3788 29.6951 84.603 32.3411 81.8319 34.9923C81.1113 35.682 80.366 36.3465 79.6306 37.0209C79.518 37.1244 79.3977 37.219 79.2509 37.3431C79.1964 37.2502 79.1447 37.1932 79.1271 37.1279C78.5931 35.1234 78.0708 33.1154 77.5256 31.1145C77.3994 30.6506 77.4622 30.3137 77.8243 29.9597C78.3014 29.4934 78.633 28.9048 78.8431 28.2627C79.0649 27.5854 78.8267 27.0062 78.1776 26.711C77.9165 26.5923 77.6219 26.5076 77.3366 26.487C76.1283 26.4 74.9182 26.3159 73.7076 26.28C69.8191 26.1636 65.9307 25.996 62.0393 26.1407C59.9102 26.2201 57.7805 26.2912 55.669 26.6111C54.5945 26.7739 53.5664 27.0562 52.6814 27.7271C52.1262 28.1475 51.6579 28.6391 51.4138 29.307C51.1638 29.9914 51.2166 30.6782 51.5681 31.2962C51.8845 31.8524 52.2806 32.3675 52.6826 32.8673C52.8868 33.1207 52.9549 33.3254 52.8739 33.657C52.2888 36.0513 51.7354 38.4532 51.1638 40.8511C50.9267 41.8465 50.3481 42.5239 49.3188 42.7556C48.3475 42.9743 47.3763 43.1942 46.4039 43.41C46.3511 43.4218 46.2918 43.4012 46.1709 43.3894C46.1973 43.0778 46.2208 42.7714 46.2501 42.4657C46.6316 38.4303 47.0136 34.3955 47.3962 30.3601C47.4074 30.2431 47.4232 30.1267 47.4397 30.0103C47.5341 29.3511 47.2319 28.9119 46.6263 28.8307C45.9737 28.7431 45.5846 29.0395 45.5136 29.7157C45.3927 30.8646 45.2912 32.0153 45.1821 33.1654C44.9661 35.4457 44.7495 37.7265 44.5348 40.0073C44.4303 41.1186 44.327 42.2299 44.2255 43.3412C44.1774 43.868 44.1697 43.888 43.6609 43.9974C42.3053 44.289 40.9456 44.5631 39.5935 44.8723C39.3253 44.9335 39.1622 44.8841 38.972 44.7048C38.1956 43.9733 37.2708 43.6252 36.1986 43.6499C35.3389 43.6693 34.4779 43.6446 33.6182 43.6593C31.7667 43.6911 30.3219 44.8465 29.8958 46.6416C29.819 46.9662 29.708 47.192 29.3683 47.336C28.6042 47.66 28.0883 48.2445 27.9287 49.0712C27.8031 49.7197 27.4774 50.0243 26.8172 50.2007C24.8178 50.7352 23.2316 51.8994 22.0872 53.6405C20.4851 56.0771 18.8895 58.5173 17.2892 60.9551C17.0761 61.2797 16.8531 61.5978 16.5979 61.9735C15.2663 60.5294 13.7182 59.4498 12.0733 58.4173C11.9788 58.5567 11.889 58.6743 11.815 58.8013C9.85967 62.1611 7.66016 65.3439 4.99117 68.1809C3.57805 69.6827 2.05518 71.0544 0.238289 72.0628C0.176086 72.0975 0.129723 72.1605 0.000617981 72.2792C0.416695 72.3333 0.751198 72.3886 1.08746 72.4192C3.80046 72.6638 6.51522 72.7508 9.21648 72.3198C11.3508 71.9794 13.4119 71.3984 15.2604 70.216C16.295 69.5539 17.1424 68.7084 17.8836 67.7276C18.6336 66.7356 18.5814 65.7061 18.1847 64.5313C20.5315 61.7789 22.9176 59.0006 26.174 56.9215V56.9179ZM64.0299 29.5828C64.0299 29.8021 64.0299 30.012 64.0299 30.2219C64.031 35.1969 64.0322 40.1713 64.034 45.1463C64.034 45.7479 64.0381 45.7567 63.4313 45.9425C59.8098 47.0538 56.1878 48.161 52.5646 49.2664C52.4637 49.297 52.3516 49.2911 52.2066 49.3064C52.2166 49.1588 52.2148 49.063 52.2307 48.9706C52.5693 47.0232 52.9132 45.0775 53.2495 43.1295C53.8522 39.6392 54.4443 36.1471 55.0581 32.6592C55.1526 32.1229 55.3058 31.592 55.4854 31.0775C55.7788 30.2372 56.3404 29.8109 57.2905 29.7998C59.0287 29.7798 60.7658 29.6557 62.5041 29.5851C62.9876 29.5657 63.4724 29.5822 64.0304 29.5822L64.0299 29.5828ZM65.3908 45.2839C65.3462 39.9879 65.3391 34.7553 65.3737 29.4752C65.994 29.4393 66.5351 29.397 67.0768 29.3787C68.1889 29.3411 69.3015 29.3053 70.4142 29.2906C71.099 29.2817 71.717 29.5093 72.2628 29.9262C72.4734 30.0867 72.6002 30.2837 72.6272 30.563C72.852 32.9385 73.089 35.3128 73.3185 37.6883C73.5327 39.9073 73.7357 42.1282 73.9582 44.3467C74.0468 45.2322 73.6982 45.5791 72.812 45.4462C70.504 45.0999 68.1906 44.9694 65.8667 45.2822C65.7347 45.2998 65.5985 45.2845 65.3908 45.2845V45.2839Z" />
<path d="M52.3415 74.9235H74.978C79.2672 74.5307 82.5771 72.6345 84.374 68.5832C84.8429 67.526 85.033 66.3371 85.286 65.194C85.7396 63.1449 85.4972 61.091 85.1164 59.0695C84.2678 54.5672 80.4345 51.0769 76.0648 50.5765C74.6071 50.4095 73.1852 50.5307 71.7579 50.8288C64.4546 52.3523 57.1483 53.8634 49.8421 55.3734C43.6837 56.6464 37.5241 57.9129 31.3646 59.1806C30.2742 59.4052 29.1792 59.6081 28.0894 59.838C25.1193 60.4642 23.3506 62.2876 22.4885 65.1969C21.6094 68.1639 23.1065 71.8136 25.0478 73.3248C26.4591 74.4231 28.0424 74.9876 29.8223 74.9958C31.7578 75.0046 33.6926 74.9958 35.628 74.9958C41.199 74.9958 46.7699 74.9958 52.3409 74.9958C52.3409 74.9717 52.3409 74.9476 52.3409 74.9235H52.3415ZM72.971 53.0232C73.5144 53.082 74.0678 53.092 74.5995 53.2066C78.5448 54.0545 81.1581 56.4329 82.1017 60.3431C83.0419 64.2362 81.8206 67.556 78.6728 70.0549C76.5842 71.7131 74.1623 72.3193 71.5074 71.9294C71.1611 71.8783 70.8078 71.8536 70.4575 71.8536C57.2798 71.8518 44.1027 71.8542 30.925 71.8607C30.6545 71.8607 30.3775 71.8877 30.1152 71.9506C27.8564 72.488 25.0255 70.7382 25.1094 67.6842C25.1739 65.3392 27.1369 63.5506 29.4832 63.6376C29.7531 63.6476 30.0336 63.6499 30.2936 63.5882C31.509 63.2995 32.7179 62.9832 33.9309 62.6839C40.3762 61.0939 46.8228 59.5069 53.2681 57.917C57.6284 56.8416 61.9893 55.7673 66.3472 54.6819C67.4998 54.3949 68.6576 54.1374 69.7615 53.6576C70.7697 53.2195 71.8583 53.0449 72.9704 53.0232H72.971Z" />
<path d="M66.7344 69.7515C62.9703 65.9142 62.4651 61.7401 65.1235 57.0879C54.2357 59.775 43.3878 62.4527 32.5135 65.1363C33.605 66.8156 33.6825 67.483 33.0534 69.7756C38.6719 69.8067 44.2669 69.7497 49.8619 69.7509C55.4663 69.7521 61.0701 69.7509 66.7344 69.7509V69.7515Z" />
</svg>
