<svg viewBox="0 0 118 86" fill="none" xmlns="http://www.w3.org/2000/svg">
<path d="M115.687 -2.30345e-06C117.662 -2.38983e-06 118.544 1.43263 117.651 3.18731L86.5395 63.8127C85.6353 65.5674 83.2798 67 81.3039 67L65.3182 67C63.3423 67 62.4493 65.5674 63.3535 63.8127L94.4318 3.20951C95.3361 1.45483 97.6915 0.0222144 99.6674 0.0222143L115.687 -2.30345e-06Z" fill="#23262D"/>
<path d="M82.5304 73.4411C82.7346 73.4411 82.924 73.4411 83.1133 73.4411C85.4778 73.4424 87.8427 73.4625 90.2072 73.4378C91.9702 73.4193 93.4695 74.0451 94.7155 75.2383C95.7119 76.1926 96.3291 77.3903 96.5106 78.7652C96.8213 81.1195 96.0564 83.0926 94.2315 84.6143C93.2397 85.4411 92.068 85.9308 90.7584 85.9584C88.8758 85.9983 86.992 85.9991 85.109 85.9991C78.6063 85.9983 72.1037 85.9868 65.601 85.9855C62.1229 85.9851 58.6449 86.0053 55.1668 85.9987C54.3578 85.997 53.5355 86.0003 52.7421 85.8659C51.2853 85.6192 50.0806 84.8795 49.1349 83.7381C48.0911 82.4779 47.6187 81.0282 47.6864 79.3992C47.8002 76.6535 49.8314 74.1948 52.5173 73.5924C53.0082 73.4822 53.5248 73.4481 54.0298 73.4456C56.8894 73.4325 59.749 73.4395 62.6085 73.4395C62.7843 73.4395 62.9601 73.4395 63.1676 73.4395V70.7604H59.2308C59.2279 70.3936 59.2246 70.0585 59.2233 69.7238C59.2221 69.385 59.2233 69.0458 59.2233 68.6668H51.4895C51.506 68.5167 51.5097 68.4106 51.5304 68.3074C52.084 65.542 52.6381 62.7765 53.1984 60.0123C53.2376 59.8187 53.1939 59.6743 53.0812 59.5185C50.8871 56.4862 48.6947 53.4527 46.5072 50.4159C44.5281 47.6681 42.5572 44.9146 40.5797 42.1656C38.3777 39.1054 36.1708 36.0484 33.9689 32.9882C31.9993 30.2507 30.0333 27.5103 28.0653 24.7716C25.9372 21.8105 23.8083 18.8493 21.679 15.8886C20.8868 14.7867 20.0926 13.686 19.298 12.5857C19.2835 12.5656 19.2551 12.5557 19.2019 12.52C19.1862 12.5899 19.1635 12.6466 19.1622 12.7037C19.1169 14.9906 19.0744 17.2775 19.0302 19.5643C18.9275 24.8777 18.8252 30.1915 18.7204 35.5049C18.6098 41.1065 18.4955 46.7077 18.3841 52.3093C18.3528 53.884 18.3255 55.4592 18.2971 57.0339C18.2946 57.1823 18.2971 57.3307 18.2971 57.5248C18.585 57.5367 18.8408 57.5487 19.0962 57.5577C19.7733 57.582 20.0134 57.8167 20.0183 58.489C20.0262 59.5576 20.0291 60.6258 20.025 61.6944C20.0225 62.3284 19.7597 62.5841 19.1189 62.5985C18.9126 62.603 18.7063 62.6001 18.5005 62.6005C18.2958 62.6005 18.0912 62.6005 17.9026 62.6005C17.8696 62.6392 17.8399 62.6577 17.8379 62.6787C17.7545 63.672 17.1773 64.3599 16.4396 64.9565C16.11 65.2229 15.77 65.4885 15.4903 65.8031C14.9345 66.428 14.8801 67.2442 15.291 67.9402C15.4569 68.2211 15.6883 68.4312 15.9792 68.5705C17.3688 69.2362 18.8574 68.4077 19.1387 67.178C19.1717 67.0336 19.2229 66.8934 19.2712 66.7314C19.6103 66.7734 19.9321 66.8129 20.2482 66.8519C20.2671 66.9181 20.2931 66.9588 20.2874 66.9942C20.0514 68.4406 19.1957 69.5327 17.6514 69.746C16.7643 69.8686 15.8983 69.8155 15.1206 69.2769C14.4287 68.7975 14.0483 68.152 14.0058 67.3182C13.9493 66.2064 14.3 65.2813 15.2394 64.6049C15.6157 64.334 15.9445 63.9956 16.2816 63.6737C16.5783 63.3904 16.7152 63.0207 16.8171 62.5709C16.5176 62.5709 16.247 62.5602 15.978 62.573C15.2366 62.6088 14.9977 62.3374 14.9708 61.5998C14.9449 60.8889 14.9717 60.1755 14.9791 59.4634C14.9828 59.0938 15.0183 58.7225 14.9977 58.3545C14.975 57.9512 15.3104 57.5869 15.7242 57.5602C16.0382 57.54 16.3526 57.5199 16.7206 57.4964C16.7206 57.3546 16.7227 57.2226 16.7206 57.0906C16.6245 51.8998 16.5321 46.7093 16.431 41.5185C16.3183 35.7388 16.1954 29.9596 16.0807 24.18C16.0295 21.6053 15.9887 19.0302 15.9416 16.4556C15.8913 13.7164 15.8393 10.9777 15.7853 8.23858C15.7824 8.08892 15.7857 7.92939 15.7374 7.79165C15.5303 7.20164 15.5043 6.5845 15.4288 5.97393C15.4041 5.77534 15.4672 5.63267 15.591 5.49123C15.8703 5.17094 16.1384 4.84119 16.4178 4.52131C16.8555 4.02093 17.6208 3.85688 18.3127 4.134C19.2584 4.51309 20.067 5.06938 20.7102 5.88142C21.8762 7.35377 23.0818 8.79488 24.2692 10.2504C25.3353 11.557 26.4055 12.8604 27.4634 14.1736C28.0067 14.8483 28.5959 15.4688 29.2729 16.0164C30.8832 17.319 32.4725 18.6483 34.0721 19.9635C35.7995 21.3837 37.5295 22.8005 39.2578 24.2194C39.6926 24.5763 40.125 24.9357 40.5607 25.2913C40.6329 25.3501 40.7158 25.3962 40.812 25.4599C40.8722 25.3682 40.9221 25.2917 40.9873 25.1918C41.0777 25.2473 41.175 25.2946 41.258 25.3596C42.8658 26.6222 44.4703 27.8898 46.0789 29.1513C47.2771 30.0908 48.4835 31.0204 49.6812 31.9607C51.0951 33.0704 52.502 34.1888 53.9151 35.2989C55.5006 36.5443 57.0911 37.7835 58.6771 39.0285C59.1627 39.4096 59.6466 39.7937 60.1178 40.1917C60.3257 40.3672 60.5568 40.3981 60.8085 40.3977C62.1147 40.3964 63.4205 40.3964 64.7267 40.3968C68.3426 40.3981 71.958 40.3997 75.5739 40.4009C75.7104 40.4009 75.847 40.4009 76.0273 40.4009V53.1378C76.6396 53.3618 77.225 53.5765 77.8575 53.8079C77.8575 53.6258 77.8575 53.4811 77.8575 53.3363C77.8612 51.4323 77.8707 49.5282 77.8649 47.6241C77.8633 47.1291 78.0089 46.706 78.3679 46.3689C78.5337 46.2131 78.5189 46.028 78.5193 45.8385C78.5217 44.14 78.5226 42.4411 78.525 40.7426C78.5259 40.3454 78.5226 39.9478 78.5399 39.5511C78.5502 39.32 78.5762 39.0848 78.6323 38.8607C78.8592 37.9537 79.4088 37.3682 80.3569 37.203C80.6399 37.1536 80.9246 37.1158 81.2559 37.0652V38.3303C81.0769 38.3583 80.8759 38.3883 80.6754 38.4204C80.208 38.496 79.9031 38.7818 79.8362 39.2439C79.7892 39.5683 79.757 39.8977 79.7554 40.225C79.7475 42.0468 79.7533 43.869 79.7471 45.6909C79.7463 45.952 79.7863 46.1452 80.0438 46.3019C80.4625 46.556 80.6152 46.9889 80.6457 47.4589C80.6647 47.7454 80.6568 48.0341 80.6568 48.3215C80.6568 50.2531 80.656 52.1847 80.6552 54.1159C80.6552 54.2775 80.6552 54.4391 80.6552 54.6257C80.8409 54.6467 80.9865 54.6706 81.1334 54.6784C82.9867 54.7729 84.8396 54.865 86.6929 54.958C88.4637 55.0464 90.2349 55.1327 92.0057 55.2244C92.3956 55.2445 92.3943 55.2532 92.5111 55.6265C93.092 57.4816 93.6741 59.336 94.2534 61.1915C94.3347 61.4514 94.4019 61.7153 94.4779 61.9842C93.8012 62.4768 93.1403 62.9632 92.474 63.4418C90.5225 64.8426 88.5809 66.2566 86.7391 67.8004C86.676 67.8535 86.6153 67.9098 86.5481 67.9567C86.35 68.0944 86.2832 68.2757 86.289 68.5187C86.3042 69.1347 86.2935 69.7514 86.2915 70.3681C86.2915 70.4759 86.2807 70.5832 86.2725 70.7464C85.8521 70.7464 85.4461 70.7468 85.0401 70.7464C84.6275 70.7456 84.2153 70.7435 83.8028 70.7427C83.3914 70.7419 82.9801 70.7427 82.5291 70.7427V73.4419L82.5304 73.4411ZM74.129 61.5381C74.2165 60.2668 74.1678 43.7042 74.0774 43.3757H67.0165C66.9245 43.9028 66.9481 61.2117 67.0397 61.5381H74.1294H74.129ZM55.5439 48.409C55.6104 48.0505 55.6689 47.7047 55.7391 47.361C56.0052 46.0605 56.2697 44.7596 56.5473 43.4616C56.6067 43.1845 56.5275 43.0052 56.3167 42.8206C55.7395 42.3149 55.1759 41.7931 54.621 41.2627C53.035 39.7464 51.4561 38.223 49.8747 36.7022C48.2735 35.1624 46.6689 33.6259 45.0727 32.0816C44.2545 31.2901 43.457 30.4772 42.6376 29.687C41.9074 28.9827 41.1589 28.2977 40.4212 27.6016C40.2451 27.4351 40.0796 27.2579 39.9117 27.0881C40.0491 26.8369 40.1659 26.6206 40.2855 26.406C40.4848 26.047 40.4827 26.0339 40.1477 25.7728C39.9856 25.6462 39.8193 25.5249 39.6604 25.3937C38.1587 24.1541 36.656 22.9148 35.1571 21.6711C33.6694 20.4364 32.1853 19.1972 30.6984 17.9612C30.6679 17.9361 30.62 17.9316 30.5342 17.9008C31.3676 19.0697 55.1916 48.1369 55.5435 48.4095L55.5439 48.409ZM62.5689 55.9377V43.1553H58.5814C57.7413 47.419 56.9046 51.6658 56.0626 55.9377H62.5689ZM17.356 57.4849C17.5165 57.5371 17.6324 57.5425 17.6514 57.3616C17.66 57.2802 17.6588 57.1975 17.6609 57.1153C17.7067 54.9251 17.7541 52.7344 17.7978 50.5442C17.9105 44.9035 18.0227 39.2624 18.1329 33.6218C18.1832 31.034 18.2245 28.4461 18.2764 25.8587C18.34 22.6825 18.4105 19.5068 18.4782 16.3306C18.51 14.8385 18.538 13.3464 18.5772 11.8543C18.5822 11.6656 18.5463 11.5147 18.4332 11.3605C17.8251 10.532 17.2268 9.69613 16.6224 8.86477C16.5737 8.79775 16.5028 8.74636 16.3914 8.63823C16.7136 24.9632 17.0346 41.2109 17.356 57.4853V57.4849ZM89.8409 84.2887C92.417 84.3154 94.4085 82.2386 94.4494 79.7935C94.4931 77.1744 92.3036 75.1219 89.866 75.1285C87.2041 75.1359 85.1899 77.2682 85.2406 79.7849C85.2918 82.3233 87.2755 84.2969 89.8409 84.2883V84.2887ZM59.2176 79.7326C59.246 77.2234 57.2256 75.124 54.5901 75.1293C52.143 75.1343 49.9828 77.1436 50.0042 79.7585C50.0253 82.3028 52.1496 84.3105 54.5921 84.2977C57.1625 84.2846 59.2473 82.2485 59.2176 79.7326Z" fill="#DDDFE7"/>
<path d="M86.0746 79.7729C86.0201 77.7566 87.6345 75.994 89.7395 75.95C91.9423 75.9035 93.5749 77.6748 93.6161 79.6179C93.6627 81.816 91.9423 83.4034 89.9458 83.4696C87.8004 83.5412 86.0436 81.7185 86.075 79.7729H86.0746Z" fill="#DDDFE7"/>
<path d="M58.3916 79.7531C58.4015 81.7366 56.7182 83.4301 54.7432 83.4667C52.3601 83.5107 50.8562 81.6782 50.8352 79.756C50.8117 77.6168 52.5573 75.9392 54.6173 75.9458C56.7376 75.9528 58.4023 77.6447 58.3916 79.7527V79.7531Z" fill="#DDDFE7"/>
</svg>
