<svg viewBox="0 0 118 86" fill="none" xmlns="http://www.w3.org/2000/svg">
<path d="M115.687 -2.30345e-06C117.662 -2.38983e-06 118.544 1.43263 117.651 3.18731L86.5395 63.8127C85.6353 65.5674 83.2798 67 81.3039 67L65.3182 67C63.3423 67 62.4493 65.5674 63.3535 63.8127L94.4318 3.20951C95.3361 1.45483 97.6915 0.0222144 99.6674 0.0222143L115.687 -2.30345e-06Z" fill="#23262D"/>
<path d="M107.471 83.6019H14.9882C20.2547 73.5039 26.6489 68.8379 37.2735 63.824C67.9153 24.8255 92.1502 62.1527 97.4429 69.9524C102.791 74.4094 106.357 80.9092 107.471 83.6019Z" fill="#DDDFE7"/>
<path d="M13.9152 51.8327C14.137 52.6605 14.9879 53.1518 15.8156 52.93L15.9697 52.8887C16.7975 52.6669 17.2887 51.816 17.0669 50.9882L24.852 48.9022C25.0738 49.73 25.9247 50.2213 26.7525 49.9995L26.9065 49.9582C27.7343 49.7364 28.2255 48.8855 28.0037 48.0577L35.7888 45.9717C36.0106 46.7995 36.8615 47.2908 37.6893 47.069L37.8433 47.0277C38.6711 46.8059 39.1623 45.955 38.9405 45.1272L46.7256 43.0412C46.9474 43.869 47.7983 44.3602 48.6261 44.1384L48.7801 44.0972C49.6079 43.8754 50.0992 43.0245 49.8773 42.1967L57.6624 40.1107C57.8842 40.9385 58.7351 41.4297 59.5629 41.2079L59.7169 41.1667C60.5447 40.9448 61.036 40.094 60.8142 39.2662L68.5993 37.1802C68.8211 38.008 69.6719 38.4992 70.4997 38.2774L70.6538 38.2361C71.4815 38.0143 71.9728 37.1635 71.751 36.3357L79.5361 34.2497C79.7579 35.0775 80.6087 35.5687 81.4365 35.3469L81.5135 35.3263L81.5935 35.3046C82.4201 35.0783 82.9067 34.2248 82.6804 33.3982C82.6725 33.3695 82.6639 33.3411 82.6545 33.3132C84.9735 32.3814 86.9148 30.8479 88.3432 28.9471L88.3705 28.9649C88.3865 28.975 88.4027 28.9848 88.4191 28.9944C89.1589 29.427 90.1093 29.1779 90.5419 28.4381L90.568 28.3932L90.6245 28.2951C91.0489 27.5506 90.7894 26.603 90.0448 26.1786C90.0188 26.1637 89.9925 26.1497 89.9659 26.1365C90.8979 23.949 91.2553 21.5013 90.9027 19.027C90.9316 19.0211 90.9604 19.0144 90.9892 19.0069C91.8182 18.7896 92.3141 17.9414 92.0968 17.1124L92.0756 17.0323L92.0539 16.9523C91.8276 16.1257 90.9741 15.6391 90.1475 15.8654C90.1188 15.8733 90.0904 15.8819 90.0625 15.8913C89.1307 13.5723 87.5972 11.631 85.6964 10.2026C85.7128 10.1779 85.7286 10.1526 85.7438 10.1267C86.1763 9.38692 85.9273 8.43653 85.1875 8.00396C85.1399 7.97617 85.0923 7.94865 85.0444 7.92139C84.2999 7.49699 83.3523 7.75648 82.9279 8.501C82.913 8.52708 82.899 8.5534 82.8858 8.57994C80.6984 7.64799 78.2505 7.29065 75.7763 7.64311C75.7704 7.61427 75.7637 7.58542 75.7562 7.5566C75.5389 6.72762 74.6907 6.23174 73.8617 6.44904L73.7816 6.47027L73.7046 6.49091C72.8768 6.71271 72.3855 7.56358 72.6074 8.39136L64.8223 10.4774C64.6005 9.64959 63.7496 9.15834 62.9218 9.38014L62.7678 9.42142C61.94 9.64322 61.4487 10.4941 61.6705 11.3219L53.8854 13.4079C53.6636 12.5801 52.8128 12.0888 51.985 12.3107L51.831 12.3519C51.0032 12.5737 50.5119 13.4246 50.7337 14.2524L42.9486 16.3384C42.7268 15.5106 41.876 15.0194 41.0482 15.2412L40.8941 15.2824C40.0664 15.5042 39.5751 16.3551 39.7969 17.1829L32.0118 19.2689C31.79 18.4411 30.9392 17.9499 30.1114 18.1717L29.9573 18.213C29.1295 18.4348 28.6383 19.2856 28.8601 20.1134L21.075 22.1994C20.8532 21.3716 20.0023 20.8804 19.1745 21.1022L19.0205 21.1435C18.1927 21.3653 17.7015 22.2161 17.9233 23.0439L10.1382 25.1299C9.91639 24.3021 9.06552 23.8109 8.23774 24.0327L8.08369 24.074C7.25591 24.2958 6.76466 25.1466 6.98647 25.9744L3.10259 27.0151C2.68869 27.126 2.44307 27.5514 2.55397 27.9653C2.66488 28.3792 3.09031 28.6249 3.5042 28.514L74.5848 9.46795C80.8976 7.77645 87.3864 11.5227 89.0779 17.8355C90.7694 24.1483 87.0231 30.6371 80.7103 32.3286L9.62969 51.3746C9.2158 51.4855 8.97018 51.9109 9.08108 52.3248C9.19198 52.7387 9.61741 52.9843 10.0313 52.8734L13.9152 51.8327Z" fill="#DDDFE7"/>
<path d="M16.1916 41.8536C18.5043 41.2339 19.8768 38.8567 19.2571 36.544C18.6374 34.2312 16.2602 32.8588 13.9475 33.4785C11.6347 34.0982 10.2623 36.4753 10.882 38.7881C11.5017 41.1008 13.8788 42.4732 16.1916 41.8536Z" fill="#DDDFE7"/>
<path fill-rule="evenodd" clip-rule="evenodd" d="M17.5485 46.918C12.4388 48.2871 7.18667 45.2548 5.81752 40.1451C4.44838 35.0354 7.48071 29.7832 12.5904 28.4141C17.7001 27.0449 22.9523 30.0773 24.3214 35.187C25.6906 40.2967 22.6582 45.5488 17.5485 46.918ZM16.7453 43.9203C20.1994 42.9948 22.2493 39.4443 21.3237 35.9902C20.3982 32.5361 16.8478 30.4862 13.3936 31.4118C9.93951 32.3373 7.88968 35.8877 8.81521 39.3418C9.74074 42.796 13.2912 44.8458 16.7453 43.9203Z" fill="#DDDFE7"/>
<path d="M81.8352 19.7762C82.4549 22.0889 81.0824 24.4661 78.7697 25.0858C76.4569 25.7055 74.0798 24.333 73.4601 22.0203C72.8404 19.7076 74.2129 17.3304 76.5256 16.7107C78.8383 16.091 81.2155 17.4635 81.8352 19.7762Z" fill="#DDDFE7"/>
<path fill-rule="evenodd" clip-rule="evenodd" d="M86.8995 18.4192C88.2687 23.5289 85.2363 28.7811 80.1266 30.1502C75.0169 31.5194 69.7648 28.487 68.3956 23.3773C67.0265 18.2676 70.0588 13.0155 75.1685 11.6463C80.2782 10.2772 85.5304 13.3095 86.8995 18.4192ZM83.9018 19.2224C84.8274 22.6766 82.7775 26.227 79.3234 27.1525C75.8693 28.0781 72.3189 26.0282 71.3933 22.5741C70.4678 19.12 72.5176 15.5695 75.9718 14.644C79.4259 13.7185 82.9763 15.7683 83.9018 19.2224Z" fill="#DDDFE7"/>
<path d="M57.9103 30.6751C60.223 30.0554 61.5955 27.6782 60.9758 25.3655C60.3561 23.0527 57.9789 21.6803 55.6662 22.3C53.3535 22.9197 51.981 25.2968 52.6007 27.6096C53.2204 29.9223 55.5976 31.2947 57.9103 30.6751Z" fill="#DDDFE7"/>
<path fill-rule="evenodd" clip-rule="evenodd" d="M59.2673 35.7395C64.377 34.3703 67.4093 29.1182 66.0401 24.0085C64.671 18.8988 59.4189 15.8664 54.3092 17.2356C49.1995 18.6047 46.1671 23.8569 47.5363 28.9666C48.9054 34.0763 54.1576 37.1086 59.2673 35.7395ZM58.464 32.7418C61.9182 31.8162 63.968 28.2658 63.0425 24.8117C62.1169 21.3576 58.5665 19.3077 55.1124 20.2333C51.6582 21.1588 49.6084 24.7092 50.5339 28.1633C51.4595 31.6175 55.0099 33.6673 58.464 32.7418Z" fill="#DDDFE7"/>
<path d="M40.1164 30.9547C40.7361 33.2674 39.3637 35.6446 37.0509 36.2643C34.7382 36.884 32.361 35.5115 31.7413 33.1988C31.1216 30.8861 32.4941 28.5089 34.8068 27.8892C37.1196 27.2695 39.4967 28.642 40.1164 30.9547Z" fill="#DDDFE7"/>
<path fill-rule="evenodd" clip-rule="evenodd" d="M45.1808 29.5977C46.5499 34.7074 43.5176 39.9596 38.4079 41.3287C33.2982 42.6979 28.046 39.6655 26.6769 34.5558C25.3078 29.4461 28.3401 24.194 33.4498 22.8248C38.5595 21.4557 43.8116 24.488 45.1808 29.5977ZM42.1831 30.4009C43.1086 33.8551 41.0588 37.4055 37.6047 38.331C34.1505 39.2566 30.6001 37.2067 29.6746 33.7526C28.749 30.2985 30.7989 26.748 34.253 25.8225C37.7071 24.897 41.2576 26.9468 42.1831 30.4009Z" fill="#DDDFE7"/>
</svg>
