<svg viewBox="0 0 118 86" xmlns="http://www.w3.org/2000/svg">
<path d="M115.687 -2.30345e-06C117.662 -2.38983e-06 118.544 1.43263 117.651 3.18731L86.5395 63.8127C85.6353 65.5674 83.2798 67 81.3039 67L65.3182 67C63.3423 67 62.4493 65.5674 63.3535 63.8127L94.4318 3.20951C95.3361 1.45483 97.6915 0.0222144 99.6674 0.0222143L115.687 -2.30345e-06Z" />
<path fill-rule="evenodd" clip-rule="evenodd" d="M99.9842 67.0222H103.522C104.164 67.0222 104.696 66.5049 104.697 65.848V56.9885C104.697 56.6759 104.572 56.3783 104.353 56.1591L100.612 52.4181V46.4862C100.612 46.1886 100.502 45.9068 100.299 45.6876L93.7715 38.6128C93.5522 38.3778 93.2389 38.2369 92.9104 38.2369H90.5471V32.6335H94.0533C94.6951 32.6335 95.227 32.1174 95.227 31.4598V20.2056C95.227 19.5487 94.6951 19.0319 94.0533 19.0319H90.5464V16.2927L93.7707 13.0683C94.225 12.6148 94.225 11.8637 93.7707 11.4095C93.3014 10.9401 92.5661 10.9559 92.1119 11.4095L88.5432 14.9781C88.324 15.1973 88.1989 15.4949 88.1989 15.8075V19.0319H85.3504C84.7086 19.0319 84.1767 19.5479 84.1767 20.2056V31.4598C84.1767 32.1167 84.7086 32.6335 85.3504 32.6335H88.1989V38.237H80.0598V21.0351C80.0598 20.3782 79.5279 19.8614 78.8861 19.8614L58.5223 19.8621C57.8812 19.8621 57.3486 20.3781 57.3486 21.0358C57.3486 21.6777 57.8804 22.2095 58.5223 22.2095H61.089L56.0838 34.0583H50.555V30.4114C50.555 29.7695 50.0389 29.2376 49.3813 29.2376H38.0336C37.3766 29.2376 36.8598 29.7695 36.8598 30.4114V34.0583H32.8529C32.211 34.0583 31.6791 34.5901 31.6791 35.232V51.0901L30.9198 51.8479L23.7117 45.3276C23.4451 45.0768 23.0699 44.9675 22.694 45.03C22.3339 45.1084 22.0205 45.3434 21.8645 45.6719L10.923 68.1976H6.47742C5.82051 68.1976 5.30371 68.7136 5.30371 69.3713C5.30371 70.0132 5.82051 70.545 6.47742 70.545H22.7715C23.0691 70.545 23.3659 70.42 23.5852 70.2007L31.8418 62.1241H32.7104C34.3994 55.3424 40.5573 50.4472 47.6425 50.4472C56.1259 50.4472 63.0439 57.3651 63.0439 65.8485C63.0439 66.2395 63.0288 66.6313 62.9972 67.0222H69.305C69.2741 66.6313 69.2583 66.2395 69.2583 65.8485C69.2583 57.3651 76.1454 50.4472 84.6288 50.4472C93.113 50.4472 100.031 57.3651 100.031 65.8485C100.031 66.2395 100.016 66.6313 99.9842 67.0222ZM50.5557 40.0531V36.4062L55.0938 36.4061L52.1844 43.2933H39.9756C39.7255 43.2933 39.3653 43.4183 39.1461 43.6375L34.0279 48.7467V36.4062H36.8606V40.0531C36.8606 40.6949 37.3766 41.2268 38.0343 41.2268H49.382C50.0389 41.2268 50.5557 40.6949 50.5557 40.0531ZM63.6405 22.2101H70.5743L70.5744 43.2935L54.7344 43.2942L57.943 35.6982C57.9445 35.6952 57.9453 35.6921 57.9468 35.6891L63.6405 22.2101ZM92.5037 46L88.0265 41.1258L86.647 42.393L91.1242 47.2672L92.5037 46ZM82.1691 41.1258L86.6463 46L85.2668 47.2672L80.7895 42.393L82.1691 41.1258ZM80.7889 46L76.3117 41.1258L74.9321 42.393L79.4093 47.2672L80.7889 46Z" fill="#DDDFE7"/>
<path d="M84.6343 70.4474C82.1061 70.4474 80.0501 68.3856 80.0501 65.8512C80.0501 63.3169 82.1059 61.255 84.6343 61.255C87.1686 61.255 89.2305 63.3169 89.2305 65.8512C89.2305 68.3856 87.1686 70.4474 84.6343 70.4474Z" fill="#DDDFE7"/>
<path fill-rule="evenodd" clip-rule="evenodd" d="M71.5546 65.8512C71.5546 73.0781 77.4132 78.9367 84.6401 78.9367C91.867 78.9367 97.7256 73.0781 97.7256 65.8512C97.7256 58.6243 91.867 52.7657 84.6401 52.7657C77.4132 52.7657 71.5546 58.6243 71.5546 65.8512ZM77.5546 65.8512C77.5546 69.7644 80.7269 72.9367 84.6401 72.9367C88.5533 72.9367 91.7256 69.7644 91.7256 65.8512C91.7256 61.938 88.5533 58.7657 84.6401 58.7657C80.7269 58.7657 77.5546 61.938 77.5546 65.8512Z" fill="#DDDFE7"/>
<path d="M47.6411 70.4474C45.113 70.4474 43.0569 68.3856 43.0569 65.8512C43.0569 63.3169 45.1128 61.255 47.6411 61.255C50.1755 61.255 52.2373 63.3169 52.2373 65.8512C52.2373 68.3856 50.1755 70.4474 47.6411 70.4474Z" fill="#DDDFE7"/>
<path fill-rule="evenodd" clip-rule="evenodd" d="M47.6469 78.9367C40.42 78.9367 34.5615 73.0781 34.5615 65.8512C34.5615 58.6243 40.42 52.7657 47.6469 52.7657C54.8738 52.7657 60.7324 58.6243 60.7324 65.8512C60.7324 73.0781 54.8738 78.9367 47.6469 78.9367ZM47.6469 72.9367C43.7337 72.9367 40.5615 69.7644 40.5615 65.8512C40.5615 61.938 43.7337 58.7657 47.6469 58.7657C51.5601 58.7657 54.7324 61.938 54.7324 65.8512C54.7324 69.7644 51.5601 72.9367 47.6469 72.9367Z" />
</svg>
