<svg viewBox="0 0 118 86" fill="none" xmlns="http://www.w3.org/2000/svg">
<path d="M115.687 -2.30345e-06C117.662 -2.38983e-06 118.544 1.43263 117.651 3.18731L86.5395 63.8127C85.6353 65.5674 83.2798 67 81.3039 67L65.3182 67C63.3423 67 62.4493 65.5674 63.3535 63.8127L94.4318 3.20951C95.3361 1.45483 97.6915 0.0222144 99.6674 0.0222143L115.687 -2.30345e-06Z" fill="#23262D"/>
<path d="M50.6644 61.3041C45.832 61.3041 41.8857 65.2308 41.8857 70.0827C41.8857 74.9336 45.832 78.8614 50.6644 78.8614C55.5161 78.8614 59.4624 74.9336 59.4624 70.0827C59.4624 65.231 55.5161 61.3041 50.6644 61.3041ZM50.6705 74.1963C48.4029 74.1963 46.558 72.3513 46.558 70.0838C46.558 67.8162 48.403 65.9712 50.6705 65.9712C52.9423 65.9712 54.7904 67.8162 54.7904 70.0838C54.7904 72.3513 52.9423 74.1963 50.6705 74.1963Z" fill="#DDDFE7"/>
<path d="M52.6297 70.0809C52.6297 71.1642 51.7516 72.0412 50.6693 72.0412C49.5871 72.0412 48.709 71.1642 48.709 70.0809C48.709 68.9986 49.5871 68.1216 50.6693 68.1216C51.7516 68.1216 52.6297 68.9986 52.6297 70.0809Z" fill="#DDDFE7"/>
<path d="M86.4886 65.0288C82.6814 65.0288 79.5723 68.1225 79.5723 71.9451C79.5723 75.7667 82.6814 78.8615 86.4886 78.8615C90.3102 78.8615 93.4204 75.7678 93.4204 71.9451C93.4204 68.1235 90.3113 65.0288 86.4886 65.0288ZM86.4937 75.5462C84.5078 75.5462 82.8937 73.9309 82.8937 71.9451C82.8937 69.9594 84.508 68.3441 86.4937 68.3441C88.4826 68.3441 90.0999 69.9594 90.0999 71.9451C90.0989 73.931 88.4816 75.5462 86.4937 75.5462Z" fill="#DDDFE7"/>
<path d="M87.9425 71.9447C87.9425 72.7441 87.2942 73.3925 86.4947 73.3925C85.6943 73.3925 85.0459 72.7441 85.0459 71.9447C85.0459 71.1442 85.6943 70.4958 86.4947 70.4958C87.2942 70.4958 87.9425 71.1442 87.9425 71.9447Z" fill="#DDDFE7"/>
<path d="M62.024 46.7505L60.7539 52.6702H77.6301V32.5441H74.4015C73.8634 32.5441 73.4111 32.931 73.3254 33.4701L71.5386 45.9123L63.0786 45.9112C62.5834 45.9112 62.1323 46.2553 62.024 46.7505Z" fill="#DDDFE7"/>
<path d="M97.0662 48.3659C96.8722 48.0433 96.5067 47.8278 96.1187 47.8278H81.9337V20.0172C81.9337 19.4362 81.46 18.941 80.8576 18.941H70.3104C63.3787 18.941 57.46 23.6764 55.9101 30.4357L51.1961 51.1H47.7522C43.2894 51.1 39.3442 53.3932 37.0326 56.8647L37.0315 18.0762C37.0315 17.4809 36.5506 17 35.9554 17C35.3601 17 34.8792 17.4809 34.8792 18.0762V51.4385H10.6631C10.0678 51.4385 9.58691 51.9194 9.58691 52.5146C9.58691 53.1099 10.0678 53.5908 10.6631 53.5908H34.8792V68.8987V68.8997V68.9007C34.8792 68.9078 34.8833 68.914 34.8833 68.9221C34.8946 69.4398 35.2734 69.8482 35.7685 69.938C35.8318 69.9503 35.89 69.9768 35.9554 69.9768H39.7218C39.7862 63.9926 44.6726 59.15 50.6569 59.15C56.6625 59.15 61.549 63.9936 61.6133 69.9768H77.6494C78.5315 65.9307 82.148 62.8736 86.4965 62.8736C91.2319 62.8736 95.1495 66.5329 95.5376 71.1611H98.0564C98.5302 71.1611 98.961 70.8385 99.0897 70.3647C101.372 62.0333 100.704 54.8229 97.066 48.3651L97.0662 48.3659ZM79.7815 54.8238H52.5512L53.0892 52.4132V52.3917L55.7968 40.5408H62.0495C62.461 40.5408 62.8357 40.306 63.0164 39.9374L64.841 36.2086L66.2224 36.8845C66.3745 36.959 66.5359 36.9937 66.6941 36.9937C67.0923 36.9937 67.4752 36.7722 67.662 36.3903C67.9224 35.8563 67.7019 35.2121 67.1679 34.9507L62.4722 32.6534C61.9382 32.3931 61.295 32.6157 61.0326 33.1476C60.7722 33.6816 60.9928 34.3258 61.5268 34.5872L62.9082 35.2631L61.3787 38.3895H56.2899L57.9981 30.9106C59.3326 25.142 64.3917 21.0946 70.3103 21.0946H79.7811L79.7815 54.8238Z" fill="#DDDFE7"/>
</svg>
