<svg viewBox="0 0 118 86" xmlns="http://www.w3.org/2000/svg">
<path d="M115.687 -2.30345e-06C117.662 -2.38983e-06 118.544 1.43263 117.651 3.18731L86.5395 63.8127C85.6353 65.5674 83.2798 67 81.3039 67L65.3182 67C63.3423 67 62.4493 65.5674 63.3535 63.8127L94.4318 3.20951C95.3361 1.45483 97.6915 0.0222144 99.6674 0.0222143L115.687 -2.30345e-06Z" />
<path d="M91.0066 16.946H66.6532C62.0294 16.946 58.1755 20.1825 57.7136 24.4983L55.4016 43.1494L23.0334 16.9467V12.9389C23.0334 10.4731 22.1088 8.31515 20.4128 6.61917C18.5635 4.92463 16.4055 4 13.9397 4C9.00724 4 5 8.00778 5 12.9397V36.6772C5 37.4478 5.61664 38.2185 6.54128 38.2185H12.3984V40.2224L10.2404 40.2216C9.3158 40.2216 8.69914 40.8383 8.69914 41.7629C8.69914 42.5336 9.46978 43.3042 10.2404 43.3042H12.5524V48.8534H10.2404C9.3158 48.8534 8.69914 49.624 8.69914 50.3946C8.69914 51.1653 9.46978 51.9359 10.2404 51.9359H12.5524V57.4851H10.2404C9.3158 57.4851 8.69914 58.2557 8.69914 59.0264C8.69914 59.797 9.46978 60.5676 10.2404 60.5676H12.5524V66.1168H10.2404C9.3158 66.1168 8.69914 66.7334 8.69914 67.6581C8.69914 68.4287 9.46978 69.1994 10.2404 69.1994H12.5524V73.3612H10.2404C9.77775 73.3612 9.3158 73.6692 9.00711 73.9778C8.69914 74.4405 8.69914 74.9025 8.85312 75.3651L12.5523 85.0754C12.8602 85.692 13.3229 86 13.9396 86C14.5562 86 15.1729 85.5373 15.3268 85.0754L19.18 75.673C19.334 75.2104 19.334 74.5944 19.026 74.2858C18.7181 73.8231 18.2554 73.6691 17.7927 73.6691H15.6348V69.5073L17.7927 69.508C18.7173 69.508 19.334 68.7373 19.334 67.9667C19.334 67.0421 18.7174 66.4254 17.7927 66.4254L15.6348 66.4247V60.8755L17.7927 60.8763C18.7173 60.8763 19.334 60.1056 19.334 59.335C19.334 58.5643 18.7174 57.7937 17.7927 57.7937H15.6348V52.2445H17.7927C18.7173 52.2445 19.334 51.4739 19.334 50.7033C19.334 49.9326 18.7174 49.162 17.7927 49.162H15.6348V43.6128H17.7927C18.7173 43.6128 19.334 42.8422 19.334 42.0715C19.334 41.1469 18.7174 40.5303 17.7927 40.5303H15.6348V38.5264H21.4919C22.4165 38.5264 23.0331 37.7557 23.0331 36.9851V36.2145L41.5298 59.4887L41.8377 60.7221C43.8416 58.872 46.6163 57.6395 49.3901 57.6395C56.7885 57.6395 62.0289 64.8839 60.3336 71.6656H76.3651V71.5116C75.1318 69.0458 74.3612 66.2711 74.3612 63.4966C74.3612 54.0942 81.7597 46.5419 91.008 46.5419C91.9326 46.5419 92.858 46.5419 93.7825 46.8499V19.7208C93.7825 18.1795 92.5492 16.9463 91.008 16.9463L91.0066 16.946ZM15.634 28.8149C15.634 29.7396 15.0174 30.3562 14.0927 30.3562C13.1681 30.3562 12.5515 29.7396 12.5515 28.8149V13.4015C12.5515 12.4768 13.1681 11.8602 14.0927 11.8602C15.0174 11.8602 15.634 12.4768 15.634 13.4015V28.8149ZM70.5062 65.8082H64.0324C63.2618 65.8082 62.4911 65.0375 62.4911 64.2669C62.4911 63.3423 63.2618 62.7256 64.0324 62.7256H70.6601C71.4307 62.7256 72.2014 63.3423 72.2014 64.2669C72.0474 65.1915 71.4308 65.8082 70.5062 65.8082ZM83.2991 43.4586H78.8293V38.5261L79.6 38.3721C80.2166 38.2181 80.6786 37.7555 80.8333 37.1388L82.0666 29.8944C82.2206 29.1238 81.6039 28.1992 80.8333 28.0444C80.0627 27.8904 79.138 28.5071 78.9833 29.2777L77.9047 35.4429L71.5849 36.5215C69.581 36.8294 70.0436 39.9127 72.2015 39.6041L75.7468 38.9874V43.4586H61.8747L67.5779 36.0601L68.0406 36.3681C68.8112 36.9848 69.7358 36.6761 70.1985 36.0601C70.6612 35.4435 70.6612 34.3649 69.8906 33.9022L66.1907 31.1277C65.5741 30.665 64.4954 30.665 64.0328 31.4357C63.5701 32.0523 63.5701 33.1309 64.3407 33.5936L65.1114 34.2103L58.4837 42.842L60.6416 24.962C60.9496 22.1875 63.5702 20.1834 66.4987 20.1834H83.1455V43.4577L83.2991 43.4586ZM90.6976 43.4586H86.3817V20.0299H90.6976V43.4586Z"/>
<path d="M49.3898 60.4136C44.92 60.4136 41.2207 64.1127 41.2207 68.7365C41.2207 73.3603 44.9198 77.0594 49.3898 77.0594C53.8595 77.0594 57.5588 73.3603 57.5588 68.7365C57.4049 64.2673 53.8597 60.4136 49.3898 60.4136Z" />
<path d="M91.0066 49.316C83.6081 49.316 77.4424 55.4812 77.4424 63.1881C77.4424 70.8952 83.6076 77.0602 91.0066 77.0602C98.405 77.0602 104.571 70.8951 104.571 63.1881C104.416 55.481 98.405 49.316 91.0066 49.316Z" />
</svg>
