<svg viewBox="0 0 118 86" xmlns="http://www.w3.org/2000/svg">
<path d="M115.687 -2.30345e-06C117.662 -2.38983e-06 118.544 1.43263 117.651 3.18731L86.5395 63.8127C85.6353 65.5674 83.2798 67 81.3039 67L65.3182 67C63.3423 67 62.4493 65.5674 63.3535 63.8127L94.4318 3.20951C95.3361 1.45483 97.6915 0.0222144 99.6674 0.0222143L115.687 -2.30345e-06Z" />
<path d="M77.2812 45.5675C70.5939 45.5675 65.1523 51.0277 65.1523 57.7408C65.1523 64.4281 70.5933 69.8697 77.2812 69.8697C83.9943 69.8697 89.4545 64.4287 89.4545 57.7408C89.4539 51.0283 83.9937 45.5675 77.2812 45.5675ZM77.2953 62.9951C74.3902 62.9951 72.0271 60.6319 72.0271 57.7269C72.0271 54.812 74.3902 52.4418 77.2953 52.4418C80.209 52.4418 82.5791 54.812 82.5791 57.7269C82.5791 60.6324 80.209 62.9951 77.2953 62.9951Z" />
<path d="M77.2953 53.8815C75.1834 53.8815 73.4648 55.6067 73.4648 57.7273C73.4648 59.8392 75.1834 61.5578 77.2953 61.5578C79.4148 61.5578 81.14 59.8392 81.14 57.7273C81.1406 55.6067 79.4154 53.8815 77.2953 53.8815Z" />
<path d="M77.2832 38.7063C66.8096 38.7063 58.2891 47.2457 58.2891 57.7401C58.2891 68.2137 66.8097 76.7343 77.2832 76.7343C87.7778 76.7343 96.317 68.2136 96.317 57.7401C96.3176 47.2455 87.7783 38.7063 77.2832 38.7063ZM77.2801 71.9077C69.4693 71.9077 63.1156 65.5539 63.1156 57.7431C63.1156 49.9069 69.4693 43.5315 77.2801 43.5315C85.1163 43.5315 91.4918 49.9068 91.4918 57.7431C91.4918 65.5539 85.1158 71.9077 77.2801 71.9077Z" />
<path d="M24.2349 54.6533C17.9005 54.6533 12.7637 59.7901 12.7637 66.1245C12.7637 72.4855 17.9005 77.6223 24.2349 77.6223C30.5693 77.6223 35.7061 72.4855 35.7061 66.1245C35.7061 59.7908 30.5693 54.6533 24.2349 54.6533ZM24.2252 72.5427C20.6987 72.5427 17.8306 69.6737 17.8306 66.1493C17.8306 62.6125 20.6995 59.7344 24.2252 59.7344C27.7619 59.7344 30.6387 62.6123 30.6387 66.1493C30.638 69.6737 27.7619 72.5427 24.2252 72.5427Z" />
<path d="M24.2263 61.5375C21.6951 61.5375 19.6348 63.6049 19.6348 66.1473C19.6348 68.6785 21.6951 70.7377 24.2263 70.7377C26.7675 70.7377 28.835 68.679 28.835 66.1473C28.8344 63.6049 26.7669 61.5375 24.2263 61.5375Z" />
<path d="M82.271 19.5063C82.1343 19.6838 81.9296 19.7933 81.7113 19.7933H48.9772C48.7589 19.7933 48.5399 19.6838 48.4175 19.5063C48.2944 19.3289 48.2536 19.0963 48.3359 18.878L50.4664 12.8287C50.5623 12.5553 50.8214 12.3778 51.1083 12.3778H79.5824C79.8694 12.3778 80.1285 12.5553 80.2244 12.8287L82.3549 18.878C82.4216 19.097 82.3944 19.3289 82.2714 19.5063H82.271Z" />
<path d="M78.1069 21.1595H52.3922L50.0026 27.1273C49.7429 27.7828 49.511 28.3704 49.2927 28.9164C48.3366 31.2788 47.5994 33.1223 46.5889 36.7822C46.5889 36.8094 46.5753 36.8231 46.5753 36.8367C46.5073 37.0685 46.4522 37.3011 46.3842 37.533C46.357 37.6561 46.3298 37.7649 46.2883 37.888C46.2611 38.0382 46.2203 38.1749 46.1789 38.3252C46.0694 38.7624 45.947 39.2262 45.8239 39.7321H37.5346C31.2117 39.7321 22.649 41.5076 17.7746 45.4953C16.7369 46.3283 16.1494 47.5436 16.1494 48.841V56.1608C18.3479 54.3716 21.1748 53.2931 24.2341 53.2931C31.3083 53.2931 37.0708 59.0427 37.0708 66.1298C37.0708 66.4847 37.0572 66.8261 37.03 67.1675H58.2657C56.8316 64.327 56.04 61.1317 56.04 57.7445C56.04 46 65.5717 36.454 77.289 36.454C78.4634 36.454 79.6106 36.5499 80.7306 36.741L78.1069 21.1595ZM53.6492 52.6102H50.6449V40.9337C51.9967 35.4848 52.7618 33.6004 53.909 30.7735C54.1273 30.2138 56.2986 24.765 56.2986 24.765H73.6689L75.1575 33.614C64.5323 34.5292 55.8602 42.2998 53.6481 52.6094L53.6492 52.6102Z" />
<path d="M40.6608 27.0316V38.3662H37.5335C36.5366 38.3662 35.4852 38.407 34.3926 38.5029V27.0317H36.8372V22.6754L34.6115 20.4497C34.3517 20.1906 34.3517 19.7533 34.6115 19.4936C34.8848 19.2202 35.3078 19.2202 35.5812 19.4936L38.0122 21.9103C38.1353 22.047 38.2033 22.2109 38.2033 22.402V27.0315L40.6608 27.0316Z" />
<path d="M57.2134 31.0595C56.9815 30.7589 57.0223 30.3359 57.3228 30.1034L59.2486 28.5196C59.5491 28.2877 59.9721 28.3285 60.2183 28.6155C60.4502 28.9161 60.4094 29.339 60.1088 29.5852L58.1831 31.156C57.8825 31.3957 57.444 31.3361 57.2134 31.0595Z" />
<path d="M64.2721 30.5686L58.8368 34.9935C58.5233 35.2377 58.0835 35.1678 57.8807 34.8977C57.6352 34.5971 57.6761 34.1741 57.9766 33.9279L63.4119 29.503C63.6989 29.2711 64.1355 29.3119 64.368 29.5989C64.6135 29.8995 64.5584 30.3231 64.2721 30.5686Z" />
</svg>
