<svg width="80" height="60" viewBox="0 0 80 60" fill="none" xmlns="http://www.w3.org/2000/svg">
<path d="M50.2104 17.0779H56.3971C56.8426 17.0779 57.0657 16.5393 56.7507 16.2243L50.2543 9.72792C49.9393 9.41294 49.4007 9.63602 49.4007 10.0815V16.2682C49.3997 16.4831 49.4846 16.6897 49.637 16.8417C49.7889 16.994 49.9956 17.0789 50.2104 17.0779Z" fill="#E52421"/>
<path d="M46.9009 17.7116V9.87427C46.9009 9.32198 46.4532 8.87427 45.9009 8.87427H25.9166C24.9838 8.87702 24.0898 9.24904 23.43 9.90852C22.7705 10.5683 22.3985 11.4623 22.3958 12.3951V47.6037C22.3985 48.5365 22.7705 49.4305 23.43 50.0903C24.0898 50.7497 24.9838 51.1218 25.9166 51.1245H54.0834C55.0163 51.1218 55.9102 50.7497 56.57 50.0903C57.2295 49.4305 57.6016 48.5365 57.6043 47.6037V20.472C57.6043 19.9198 57.1566 19.472 56.6043 19.472H48.6613C48.1944 19.472 47.7467 19.2867 47.4166 18.9566C47.0865 18.6265 46.9009 18.1786 46.9009 17.7116ZM46.8834 36.9355C45.191 39.4935 43.0458 41.719 40.5553 43.503C40.2232 43.741 39.7772 43.741 39.445 43.503C36.9545 41.719 34.8093 39.4938 33.117 36.9358C31.7085 34.4135 31.6105 28.92 31.7027 25.9555C31.7146 25.5744 31.9475 25.2379 32.2969 25.0852L39.1633 22.085C39.4062 21.9789 39.6812 21.9735 39.928 22.07L47.6686 25.0977C48.0368 25.2418 48.2864 25.5874 48.2985 25.9826C48.3893 28.9533 48.2876 34.4209 46.8834 36.9355Z" fill="#E52421"/>
<path d="M39.331 33.1682L37.0074 30.8446L35.511 32.341L39.331 36.1609L45.4925 29.9994L43.9961 28.5031L39.331 33.1682Z" fill="#E52421"/>
</svg>
