<svg width="80" height="60" viewBox="0 0 80 60" fill="none" xmlns="http://www.w3.org/2000/svg">
<path d="M19.8294 31.3472H26.0249V32.4784C26.0249 42.2337 33.9095 50.1505 43.6249 50.1505C53.3404 50.1505 61.2249 42.2337 61.2249 32.4784C61.2249 29.6511 60.5207 27.1058 59.3942 24.7024H58.9719H27.7143L19.2658 29.227C18.4211 29.792 18.7029 31.3472 19.8294 31.3472Z" fill="#E52421"/>
<path d="M26.7286 20.3199C27.0105 20.7439 27.5733 21.168 28.137 21.168H58.9722C59.8169 21.168 60.5211 20.4609 60.5211 19.6128V14.2402C60.5211 13.3921 59.9583 12.826 59.1127 12.685L23.6311 9.85769C22.3641 9.71667 21.5195 11.1299 22.2227 12.12L26.7286 20.3199Z" fill="#E52421"/>
</svg>
