<svg width="80" height="60" viewBox="0 0 80 60" fill="none" xmlns="http://www.w3.org/2000/svg">
<path fill-rule="evenodd" clip-rule="evenodd" d="M69.0832 30.9599C68.4473 38.2142 62.6776 43.6547 55.4246 43.6547C50.2634 43.6547 45.7773 40.8181 43.4358 36.6288L38.0607 36.6288L33.7947 31.7828L30.5099 35.6362L27.2275 31.7828L23.9491 35.6362L20.6117 31.7281L17.1921 35.7174L17.1131 35.6912L11.3699 29.8973C10.7111 29.2389 10.6708 28.6175 11.3939 27.8841L16.0125 23.2225L43.5131 23.2233C45.8739 19.1152 50.3252 16.3442 55.4206 16.3442C61.8625 16.3442 67.2691 20.776 68.7334 26.7476C68.9546 27.7446 69.137 28.7835 69.1362 29.8084C69.136 30.0741 69.1225 30.5115 69.0832 30.9599ZM57.7272 29.7904C57.7272 27.7658 59.3788 26.1216 61.4134 26.1216C63.4417 26.1216 65.095 27.7689 65.0926 29.7904C65.0926 31.8144 63.4418 33.457 61.4134 33.457C59.3781 33.457 57.7272 31.8127 57.7272 29.7904Z" fill="#E52421"/>
</svg>
