<svg viewBox="0 0 1920 622" fill="none" xmlns="http://www.w3.org/2000/svg">
<mask id="mask0_142_375" style="mask-type:alpha" maskUnits="userSpaceOnUse" x="0" y="0" width="1920" height="622">
<rect width="1920" height="622" fill="#313438"/>
</mask>
<g mask="url(#mask0_142_375)">
<path opacity="0.5" d="M387.834 110.317C388.633 107.891 388.009 105.197 385.964 103.636C384.717 102.706 383.436 101.826 382.112 101.033L380.665 100.187C379.296 99.4205 377.87 98.7179 376.424 98.0889C374.077 97.0773 371.42 97.8352 369.735 99.7447L364.444 105.704C360.775 105.083 356.951 105.051 353.227 105.678L347.905 99.7168C346.211 97.7976 343.543 97.0341 341.213 98.0388C339.56 98.7143 337.952 99.5202 336.374 100.433L336.211 100.527C334.633 101.44 333.132 102.433 331.708 103.506C329.675 105.025 329.014 107.745 329.813 110.15L332.318 117.772C329.905 120.727 328.03 124.024 326.732 127.518L318.925 129.166C316.433 129.673 314.449 131.599 314.15 134.141C313.971 135.71 313.865 137.298 313.819 138.883L313.837 140.525C313.861 142.07 313.981 143.621 314.175 145.192C314.488 147.723 316.472 149.662 318.982 150.205L326.801 151.854C327.449 153.568 328.253 155.285 329.209 156.944C330.166 158.604 331.248 160.16 332.419 161.602L329.935 169.211C329.136 171.637 329.82 174.327 331.864 175.888C333.112 176.818 334.393 177.698 335.73 178.515L337.126 179.328C338.51 180.117 339.922 180.797 341.391 181.412C343.738 182.424 346.395 181.666 348.08 179.756L353.371 173.797C357.04 174.418 360.864 174.45 364.588 173.823L369.924 179.808C371.618 181.727 374.286 182.49 376.615 181.486C378.278 180.773 379.91 179.954 381.511 179.028C383.112 178.102 384.637 177.095 386.084 176.009C388.117 174.49 388.778 171.77 387.979 169.364L385.474 161.742C387.887 158.788 389.762 155.49 391.059 151.997L398.857 150.386C401.35 149.879 403.333 147.952 403.632 145.41C403.811 143.841 403.931 142.276 403.94 140.681L403.932 139.003C403.908 137.458 403.787 135.907 403.607 134.359C403.294 131.828 401.31 129.89 398.8 129.347L390.981 127.698C390.32 125.96 389.516 124.243 388.559 122.584C387.603 120.924 386.521 119.368 385.349 117.926L387.834 110.317ZM347.775 146.206C346.06 143.229 345.589 139.696 346.465 136.384C347.341 133.071 349.493 130.25 352.448 128.541C355.402 126.832 358.917 126.375 362.218 127.271C365.52 128.167 368.339 130.343 370.054 133.319C371.769 136.295 372.24 139.828 371.364 143.141C370.487 146.454 368.335 149.275 365.381 150.984C362.427 152.693 358.912 153.149 355.61 152.253C352.308 151.357 349.49 149.182 347.775 146.206Z" fill="#23262D"/>
<path opacity="0.5" d="M1325.95 -186.727C1329.93 -198.795 1326.82 -212.196 1316.65 -219.96C1310.45 -224.588 1304.07 -228.966 1297.49 -232.912L1290.29 -237.122C1283.48 -240.933 1276.38 -244.428 1269.19 -247.557C1257.52 -252.59 1244.3 -248.819 1235.92 -239.32L1209.59 -209.672C1191.34 -212.762 1172.32 -212.921 1153.79 -209.805L1127.32 -239.459C1118.89 -249.007 1105.62 -252.805 1094.03 -247.807C1085.8 -244.446 1077.8 -240.437 1069.95 -235.896L1069.14 -235.429C1061.29 -230.888 1053.82 -225.948 1046.74 -220.61C1036.63 -213.054 1033.34 -199.523 1037.31 -187.554L1049.77 -149.637C1037.77 -134.94 1028.44 -118.536 1021.99 -101.156L983.15 -92.9571C970.748 -90.436 960.879 -80.8506 959.392 -68.2052C958.501 -60.4017 957.975 -52.4992 957.748 -44.614L957.836 -36.4466C957.955 -28.7617 958.554 -21.0445 959.517 -13.2283C961.077 -0.63923 970.944 9.0048 983.431 11.7068L1022.33 19.9095C1025.55 28.4363 1029.55 36.9781 1034.31 45.2355C1039.07 53.493 1044.45 61.2334 1050.28 68.4073L1037.92 106.26C1033.95 118.328 1037.35 131.712 1047.52 139.476C1053.72 144.104 1060.1 148.482 1066.75 152.544L1073.7 156.588C1080.58 160.516 1087.6 163.895 1094.91 166.957C1106.58 171.989 1119.81 168.219 1128.19 158.72L1154.51 129.072C1172.76 132.161 1191.79 132.321 1210.31 129.205L1236.86 158.975C1245.28 168.522 1258.55 172.321 1270.14 167.323C1278.42 163.779 1286.53 159.703 1294.5 155.095C1302.47 150.488 1310.05 145.481 1317.25 140.077C1327.36 132.52 1330.65 118.989 1326.68 107.021L1314.21 69.1035C1326.22 54.4067 1335.54 38.0022 1342 20.6223L1380.79 12.6066C1393.19 10.0855 1403.06 0.499978 1404.55 -12.1454C1405.44 -19.9488 1406.03 -27.735 1406.08 -35.6698L1406.04 -44.0203C1405.92 -51.7052 1405.32 -59.4224 1404.42 -67.1223C1402.86 -79.7113 1393 -89.3554 1380.51 -92.0574L1341.61 -100.26C1338.32 -108.903 1334.32 -117.445 1329.56 -125.702C1324.81 -133.96 1319.42 -141.7 1313.59 -148.874L1325.95 -186.727ZM1126.67 -8.18797C1118.14 -22.9936 1115.79 -40.57 1120.15 -57.0505C1124.51 -73.531 1135.22 -87.5656 1149.91 -96.0669C1164.61 -104.568 1182.1 -106.84 1198.52 -102.382C1214.95 -97.924 1228.97 -87.1018 1237.5 -72.2962C1246.03 -57.4905 1248.38 -39.9141 1244.02 -23.4336C1239.66 -6.95313 1228.95 7.08147 1214.26 15.5827C1199.56 24.084 1182.07 26.3556 1165.65 21.8977C1149.22 17.4398 1135.2 6.61769 1126.67 -8.18797Z" fill="#23262D"/>
<path opacity="0.5" d="M1738.47 461.066C1739.64 457.517 1738.73 453.577 1735.74 451.294C1733.91 449.934 1732.04 448.646 1730.11 447.486L1727.99 446.248C1725.99 445.128 1723.9 444.1 1721.79 443.18C1718.35 441.7 1714.47 442.809 1712 445.602L1704.26 454.319C1698.9 453.411 1693.3 453.364 1687.86 454.28L1680.07 445.561C1677.59 442.754 1673.69 441.637 1670.28 443.107C1667.86 444.095 1665.51 445.274 1663.2 446.609L1662.97 446.746C1660.66 448.081 1658.46 449.534 1656.38 451.103C1653.41 453.325 1652.44 457.303 1653.61 460.822L1657.27 471.971C1653.74 476.292 1651 481.115 1649.1 486.225L1637.68 488.636C1634.04 489.377 1631.13 492.196 1630.7 495.914C1630.43 498.208 1630.28 500.532 1630.21 502.85L1630.24 505.251C1630.27 507.511 1630.45 509.78 1630.73 512.078C1631.19 515.78 1634.09 518.615 1637.76 519.41L1649.2 521.821C1650.15 524.329 1651.33 526.84 1652.72 529.268C1654.12 531.696 1655.71 533.972 1657.42 536.081L1653.79 547.21C1652.62 550.759 1653.62 554.694 1656.61 556.977C1658.43 558.337 1660.31 559.625 1662.26 560.819L1664.3 562.008C1666.33 563.163 1668.39 564.156 1670.54 565.057C1673.97 566.536 1677.86 565.428 1680.33 562.635L1688.07 553.918C1693.43 554.826 1699.03 554.873 1704.47 553.957L1712.28 562.71C1714.75 565.517 1718.66 566.634 1722.06 565.164C1724.5 564.122 1726.88 562.924 1729.23 561.569C1731.57 560.214 1733.8 558.742 1735.91 557.153C1738.89 554.931 1739.85 550.953 1738.69 547.434L1735.02 536.286C1738.55 531.964 1741.29 527.141 1743.19 522.031L1754.6 519.674C1758.24 518.933 1761.15 516.115 1761.58 512.397C1761.84 510.102 1762.02 507.813 1762.03 505.48L1762.02 503.025C1761.99 500.765 1761.81 498.496 1761.55 496.232C1761.09 492.531 1758.19 489.695 1754.51 488.901L1743.08 486.489C1742.11 483.948 1740.93 481.436 1739.54 479.008C1738.14 476.58 1736.55 474.305 1734.84 472.195L1738.47 461.066ZM1679.88 513.56C1677.37 509.207 1676.68 504.039 1677.96 499.193C1679.25 494.348 1682.39 490.221 1686.71 487.722C1691.04 485.222 1696.18 484.554 1701.01 485.865C1705.84 487.176 1709.96 490.358 1712.47 494.711C1714.98 499.064 1715.67 504.232 1714.38 509.078C1713.1 513.923 1709.95 518.05 1705.63 520.549C1701.31 523.049 1696.17 523.717 1691.34 522.406C1686.51 521.095 1682.39 517.913 1679.88 513.56Z" fill="#23262D"/>
<path opacity="0.5" d="M327.879 552.603C333.577 547.522 335.994 539.617 333.04 532.518C331.204 528.243 329.207 524.049 326.969 520.016L324.492 515.66C322.094 511.627 319.455 507.674 316.656 503.883C312.098 497.753 304.086 495.736 296.869 498.156L274.256 505.658C265.691 498.559 255.843 492.751 245.27 488.799L240.418 465.407C238.908 457.905 233.147 451.936 225.614 451.049C220.326 450.323 214.956 450 209.506 450H208.945C203.495 450 198.125 450.323 192.834 450.968C185.299 451.855 179.519 457.905 177.984 465.326L173.057 488.799C162.391 492.832 152.604 498.559 144.017 505.658L121.347 498.237C114.137 495.817 106.12 497.833 101.541 503.964C98.73 507.755 96.0788 511.707 93.5877 515.74L91.1764 520.016C88.9258 524.049 86.9153 528.243 85.0649 532.599C82.0882 539.617 84.3194 547.602 90.0015 552.765L107.768 568.736C106.878 574.141 106.388 579.787 106.379 585.514C106.37 591.241 106.841 596.888 107.714 602.373L89.8958 618.344C84.1972 623.426 81.9402 631.411 84.8942 638.51C86.7307 642.785 88.7276 646.979 90.9651 651.093L93.3628 655.288C95.7606 659.401 98.3992 663.273 101.278 667.064C105.837 673.195 113.848 675.211 121.065 672.792L143.679 665.29C152.243 672.388 162.092 678.196 172.665 682.148L177.516 705.621C179.027 713.123 184.788 719.092 192.32 719.979C197.689 720.625 203.139 720.947 208.669 720.947C214.199 720.947 219.65 720.625 225.02 719.979C232.556 719.092 238.336 713.042 239.871 705.621L244.798 682.148C255.464 678.115 265.251 672.388 273.838 665.29L296.427 672.792C303.637 675.211 311.655 673.195 316.233 667.064C319.044 663.273 321.695 659.401 324.106 655.288L326.598 650.932C328.849 646.899 330.859 642.704 332.709 638.429C335.686 631.411 333.455 623.426 327.773 618.263L310.006 602.292C310.896 596.807 311.386 591.16 311.395 585.433C311.405 579.706 310.933 574.06 310.06 568.575L327.879 552.603ZM170.497 585.514C170.513 575.245 174.582 565.397 181.809 558.136C189.035 550.875 198.827 546.796 209.03 546.796C219.233 546.796 229.011 550.875 236.214 558.136C243.417 565.397 247.454 575.245 247.438 585.514C247.421 595.783 243.352 605.631 236.126 612.892C228.9 620.153 219.108 624.232 208.905 624.232C198.702 624.232 188.923 620.153 181.72 612.892C174.517 605.631 170.48 595.783 170.497 585.514Z" fill="#23262D"/>
<path opacity="0.5" d="M438.541 63.4784C439.878 62.3156 440.444 60.5067 439.747 58.8824C439.313 57.9041 438.842 56.9443 438.315 56.0214L437.731 55.0247C437.166 54.1018 436.544 53.1974 435.885 52.3299C434.811 50.9271 432.928 50.4656 431.232 51.0194L425.92 52.7359C423.904 51.1116 421.588 49.7827 419.101 48.8782L417.952 43.5255C417.594 41.8089 416.238 40.443 414.467 40.24C413.224 40.0738 411.962 40 410.681 40H410.549C409.268 40 408.006 40.0738 406.763 40.2215C404.992 40.4245 403.636 41.8089 403.278 43.507L402.129 48.8782C399.623 49.8011 397.325 51.1116 395.31 52.7359L389.979 51.0378C388.283 50.4841 386.399 50.9455 385.326 52.3483C384.666 53.2158 384.045 54.1203 383.461 55.0432L382.896 56.0214C382.368 56.9443 381.897 57.9041 381.464 58.9009C380.767 60.5067 381.295 62.334 382.632 63.5153L386.814 67.17C386.607 68.4067 386.494 69.6987 386.494 71.0092C386.494 72.3197 386.607 73.6118 386.814 74.8669L382.632 78.5216C381.295 79.6844 380.767 81.5118 381.464 83.1361C381.897 84.1143 382.368 85.0741 382.896 86.0155L383.461 86.9753C384.026 87.9166 384.648 88.8026 385.326 89.6701C386.399 91.0729 388.283 91.5344 389.979 90.9807L395.291 89.2641C397.306 90.8884 399.623 92.2173 402.11 93.1218L403.259 98.493C403.617 100.21 404.973 101.575 406.744 101.779C408.006 101.926 409.287 102 410.587 102C411.886 102 413.167 101.926 414.429 101.779C416.2 101.575 417.556 100.191 417.914 98.493L419.063 93.1218C421.569 92.1989 423.867 90.8884 425.882 89.2641L431.195 90.9807C432.89 91.5344 434.774 91.0729 435.847 89.6701C436.507 88.8026 437.128 87.9166 437.693 86.9753L438.277 85.9786C438.805 85.0557 439.276 84.0959 439.709 83.1176C440.406 81.5118 439.878 79.6844 438.541 78.5031L434.359 74.8485C434.566 73.5933 434.679 72.3013 434.679 70.9908C434.679 69.6803 434.566 68.3882 434.359 67.1331L438.541 63.4784ZM401.563 71.0092C401.563 68.6595 402.516 66.4059 404.212 64.7444C405.907 63.0829 408.207 62.1494 410.605 62.1494C413.003 62.1494 415.303 63.0829 416.999 64.7444C418.695 66.4059 419.647 68.6595 419.647 71.0092C419.647 73.359 418.695 75.6125 416.999 77.274C415.303 78.9356 413.003 79.869 410.605 79.869C408.207 79.869 405.907 78.9356 404.212 77.274C402.516 75.6125 401.563 73.359 401.563 71.0092Z" fill="#23262D"/>
<path opacity="0.5" d="M470.003 125.526C470.889 124.757 471.263 123.561 470.801 122.487C470.514 121.84 470.203 121.205 469.853 120.595L469.467 119.936C469.092 119.325 468.681 118.727 468.244 118.154C467.533 117.226 466.285 116.921 465.163 117.287L461.645 118.422C460.31 117.348 458.776 116.469 457.129 115.871L456.368 112.331C456.131 111.196 455.233 110.293 454.06 110.159C453.237 110.049 452.401 110 451.553 110H451.465C450.617 110 449.781 110.049 448.958 110.146C447.785 110.281 446.887 111.196 446.65 112.319L445.889 115.871C444.23 116.481 442.708 117.348 441.373 118.422L437.843 117.299C436.72 116.933 435.472 117.238 434.761 118.166C434.325 118.74 433.913 119.338 433.526 119.948L433.152 120.595C432.803 121.205 432.491 121.84 432.204 122.499C431.742 123.561 432.092 124.769 432.977 125.55L435.747 127.967C435.61 128.785 435.535 129.639 435.535 130.506C435.535 131.373 435.61 132.227 435.747 133.057L432.977 135.474C432.092 136.243 431.742 137.451 432.204 138.525C432.491 139.172 432.803 139.807 433.152 140.43L433.526 141.064C433.9 141.687 434.312 142.273 434.761 142.846C435.472 143.774 436.72 144.079 437.843 143.713L441.361 142.578C442.695 143.652 444.23 144.531 445.876 145.129L446.637 148.681C446.874 149.816 447.773 150.719 448.945 150.854C449.781 150.951 450.629 151 451.49 151C452.351 151 453.199 150.951 454.035 150.854C455.208 150.719 456.106 149.804 456.343 148.681L457.104 145.129C458.763 144.519 460.285 143.652 461.62 142.578L465.138 143.713C466.26 144.079 467.508 143.774 468.219 142.846C468.656 142.273 469.067 141.687 469.442 141.064L469.828 140.405C470.178 139.795 470.49 139.16 470.776 138.513C471.238 137.451 470.889 136.243 470.003 135.462L467.234 133.045C467.371 132.215 467.446 131.361 467.446 130.494C467.446 129.627 467.371 128.773 467.234 127.943L470.003 125.526ZM445.515 130.506C445.515 128.952 446.146 127.462 447.268 126.363C448.391 125.264 449.915 124.647 451.503 124.647C453.091 124.647 454.614 125.264 455.737 126.363C456.86 127.462 457.491 128.952 457.491 130.506C457.491 132.06 456.86 133.55 455.737 134.649C454.614 135.748 453.091 136.365 451.503 136.365C449.915 136.365 448.391 135.748 447.268 134.649C446.146 133.55 445.515 132.06 445.515 130.506Z" fill="#23262D"/>
</g>
</svg>
