<svg viewBox="0 0 1230 100" fill="none" xmlns="http://www.w3.org/2000/svg">
<rect x="0.499878" y="0.499451" width="1229" height="99" fill="white" stroke="#DDDFE7"/>
<mask id="mask0_99_3741" style="mask-type:alpha" maskUnits="userSpaceOnUse" x="-1" y="-1" width="1231" height="101">
<rect x="0.499878" y="0.499451" width="1229" height="99" fill="white" stroke="#DDDFE7"/>
</mask>
<g mask="url(#mask0_99_3741)">
<path d="M1230 -18.9545L1230 118L1105.53 117.955C1101.46 117.955 1099.62 115.026 1101.48 111.44L1165.47 -12.4392C1167.34 -16.0259 1172.19 -18.9543 1176.25 -18.9543L1230 -18.9545Z" fill="#F5F6FA"/>
<path d="M1145.99 -19C1150.05 -19 1151.87 -16.0716 1150.03 -12.4848L1085.97 111.439C1084.11 115.026 1079.26 117.954 1075.19 117.954L1022.28 117.954C1018.21 117.954 1016.37 115.026 1018.23 111.439L1082.22 -12.4394C1084.08 -16.0262 1088.93 -18.9546 1093 -18.9546L1145.99 -19Z" fill="#F5F6FA"/>
<path d="M1052.73 -19C1056.8 -19 1058.62 -16.0716 1056.78 -12.4848L992.72 111.439C990.858 115.026 986.008 117.954 981.94 117.954L944.025 117.954C939.957 117.954 938.118 115.026 939.98 111.439L1003.97 -12.4394C1005.83 -16.0262 1010.68 -18.9546 1014.75 -18.9546L1052.73 -19Z" fill="#F5F6FA"/>
<path d="M959.483 -19C963.551 -19 965.367 -16.0716 963.528 -12.4848L899.469 111.439C897.607 115.026 892.757 117.954 888.689 117.954L865.774 117.954C861.706 117.954 859.867 115.026 861.729 111.439L925.719 -12.4394C927.581 -16.0262 932.431 -18.9546 936.499 -18.9546L959.483 -19Z" fill="#F5F6FA"/>
<path d="M0 -18.9545L-0.000250126 118L124.471 117.955C128.54 117.955 130.379 115.026 128.517 111.44L64.5261 -12.4392C62.6643 -16.0259 57.8144 -18.9543 53.746 -18.9543L0 -18.9545Z" fill="#F5F6FA"/>
<path d="M84.0138 -19C79.9454 -19 78.1296 -16.0716 79.9684 -12.4848L144.028 111.439C145.89 115.026 150.74 117.954 154.808 117.954L207.723 117.954C211.791 117.954 213.63 115.026 211.768 111.439L147.778 -12.4394C145.916 -16.0262 141.066 -18.9546 136.997 -18.9546L84.0138 -19Z" fill="#F5F6FA"/>
<path d="M177.265 -19C173.197 -19 171.381 -16.0716 173.22 -12.4848L237.28 111.439C239.142 115.026 243.991 117.954 248.06 117.954L285.975 117.954C290.043 117.954 291.882 115.026 290.02 111.439L226.029 -12.4394C224.167 -16.0262 219.318 -18.9546 215.249 -18.9546L177.265 -19Z" fill="#F5F6FA"/>
<path d="M270.517 -19C266.448 -19 264.633 -16.0716 266.471 -12.4848L330.531 111.439C332.393 115.026 337.243 117.954 341.311 117.954L364.226 117.954C368.294 117.954 370.133 115.026 368.271 111.439L304.28 -12.4394C302.419 -16.0262 297.569 -18.9546 293.5 -18.9546L270.517 -19Z" fill="#F5F6FA"/>
<rect x="0.499878" y="0.499451" width="1229" height="99" stroke="#DDDFE7"/>
</g>
</svg>
