<svg width="1920" height="192" viewBox="0 0 1920 192" fill="none" xmlns="http://www.w3.org/2000/svg">
<rect width="1920" height="192" fill="#313438"/>
<mask id="mask0_67_128" style="mask-type:alpha" maskUnits="userSpaceOnUse" x="0" y="0" width="1920" height="192">
<rect x="-6.10352e-05" width="1920" height="192" fill="#313438"/>
</mask>
<g mask="url(#mask0_67_128)">
<path d="M903 94.538C890 7.00006 769.5 -80.5001 724.5 -20" stroke="#525252" stroke-width="2" stroke-linecap="round" stroke-linejoin="round" stroke-dasharray="14 14"/>
<path d="M1147.5 86.4999C1132.5 41 1075.5 67 1069 112" stroke="#525252" stroke-width="2" stroke-linecap="round" stroke-linejoin="round" stroke-dasharray="14 14"/>
<path d="M1157 85.5001C1153.5 16 911.5 -33.5 918.5 90" stroke="#525252" stroke-width="2" stroke-linecap="round" stroke-linejoin="round" stroke-dasharray="14 14"/>
<path d="M934 93.9999C945.5 9.99977 1057.5 47 1060 110.5" stroke="#525252" stroke-width="2" stroke-linecap="round" stroke-linejoin="round" stroke-dasharray="14 14"/>
<path d="M1006.5 79C1010 57.5001 1034 79.9999 1047.5 110" stroke="#525252" stroke-width="2" stroke-linecap="round" stroke-linejoin="round" stroke-dasharray="14 14"/>
<path d="M946 101.5C961.5 50 987.5 62.4999 995 79" stroke="#525252" stroke-width="2" stroke-linecap="round" stroke-linejoin="round" stroke-dasharray="14 14"/>
<g filter="url(#filter0_i_67_128)">
<path d="M951.4 129.7C951.4 143.884 928.417 195.065 923.585 205.669C923.232 206.444 922.169 206.444 921.815 205.669C916.983 195.065 894 143.884 894 129.7C894 113.849 906.849 101 922.7 101C938.551 101 951.4 113.849 951.4 129.7Z" fill="#525252"/>
</g>
<circle opacity="0.4" cx="922.7" cy="129.7" r="15.0334" fill="white"/>
<g filter="url(#filter1_i_67_128)">
<path d="M1073.47 130.233C1073.47 136.894 1063.25 160.006 1060.13 166.907C1059.78 167.683 1058.69 167.683 1058.34 166.907C1055.22 160.006 1045 136.894 1045 130.233C1045 122.373 1051.37 116 1059.23 116C1067.09 116 1073.47 122.373 1073.47 130.233Z" fill="#525252"/>
</g>
<circle opacity="0.4" cx="1059.23" cy="130.233" r="7.45563" fill="white"/>
<ellipse cx="1059.23" cy="174.967" rx="4.74449" ry="2.03335" fill="#525252"/>
<g filter="url(#filter2_i_67_128)">
<path d="M1007.93 93.4667C1007.93 96.702 1003.34 107.335 1001.36 111.767C1001.01 112.545 999.924 112.545 999.576 111.767C997.596 107.335 993 96.702 993 93.4667C993 89.343 996.343 86 1000.47 86C1004.59 86 1007.93 89.343 1007.93 93.4667Z" fill="#525252"/>
</g>
<circle opacity="0.4" cx="1000.47" cy="93.4668" r="3.91114" fill="white"/>
<ellipse cx="1000.47" cy="116.933" rx="2.48891" ry="1.06668" fill="#525252"/>
<g filter="url(#filter3_i_67_128)">
<path d="M1168.8 104.9C1168.8 110.371 1160.55 129.117 1157.79 135.245C1157.44 136.022 1156.36 136.022 1156.01 135.245C1153.25 129.117 1145 110.371 1145 104.9C1145 98.3279 1150.33 93 1156.9 93C1163.47 93 1168.8 98.3279 1168.8 104.9Z" fill="#525252"/>
</g>
<circle opacity="0.4" cx="1156.9" cy="104.9" r="6.2334" fill="white"/>
<ellipse cx="1156.9" cy="142.3" rx="3.96671" ry="1.70002" fill="#525252"/>
<g opacity="0.1">
<path d="M303.628 77.9108C306.523 77.962 309.425 78.0131 312.32 78.0515C312.973 78.0579 313.627 78.0515 314.28 78.0195C314.555 78.0068 314.837 77.93 315.08 77.802C315.58 77.5524 316.06 77.2581 316.541 76.9638C322.363 73.4125 328.179 69.8484 334.001 66.2972C334.718 65.8621 335.448 65.4462 336.191 65.0494C336.345 64.9663 336.556 64.9791 336.742 64.9919C336.928 64.9983 337.114 65.0366 337.293 65.0878C340.617 66.0412 343.935 66.9946 347.259 67.948C347.618 68.0504 347.977 68.1592 348.335 68.268C349.078 68.4919 349.828 68.4407 350.545 68.2168C351.794 67.8329 353.017 67.3722 354.209 66.8283C358.064 65.043 361.491 62.6307 364.565 59.7193C368.524 55.9697 371.874 51.7274 374.711 47.082C374.807 46.922 374.865 46.7428 374.948 46.5765C375.07 46.3269 374.903 45.9302 374.66 45.9238C374.288 45.911 373.917 45.879 373.545 45.8854C371.771 45.9238 369.99 45.975 368.216 46.0134C368.031 46.0134 367.845 45.9622 367.665 45.9558C367.428 45.9494 367.313 45.8342 367.352 45.5911C367.364 45.5143 367.371 45.4055 367.422 45.3607C367.627 45.1752 367.838 44.9832 368.069 44.8296C371.336 42.6541 374.596 40.4657 377.875 38.3158C379.047 37.5479 380.264 36.8505 381.468 36.1338C382.756 35.366 384.126 34.7709 385.529 34.2526C385.702 34.1886 385.894 34.1822 386.073 34.131C386.278 34.0735 386.445 34.1119 386.592 34.2654C386.701 34.3806 386.701 34.547 386.522 34.7005C386.24 34.9437 385.932 35.1548 385.631 35.3724C385.145 35.7371 384.94 36.2234 384.978 36.8313C384.997 37.1768 385.382 37.4776 385.753 37.452C386.131 37.42 386.483 37.3176 386.829 37.164C388.45 36.441 390.064 35.7051 391.691 34.9949C393.061 34.3998 394.438 33.8175 395.822 33.2544C397.385 32.6146 399.018 32.1923 400.696 32.0259C403.085 31.7891 404.206 33.1968 403.969 35.4108C403.86 36.4282 403.559 37.4136 403.155 38.367C402.682 39.4931 402.099 40.5489 401.426 41.5663C400.292 43.2876 398.973 44.8616 397.519 46.3205C395.136 48.7136 392.478 50.7676 389.647 52.604C389.41 52.7576 389.18 52.9176 388.936 53.0519C385.836 54.7924 382.903 56.7952 379.88 58.6508C373.59 62.5156 367.127 66.0796 360.575 69.4837C352.697 73.5725 344.697 77.4117 336.672 81.1933C333.373 82.7482 330.068 84.2647 326.757 85.7875C322.933 87.5408 319.064 89.1724 315.074 90.5162C314.267 90.7849 313.524 91.1496 312.813 91.6167C311.564 92.4358 310.302 93.2356 309.034 94.0354C308.637 94.285 308.227 94.5025 307.811 94.7137C306.895 95.1808 305.985 95.04 305.14 94.5537C304.826 94.3746 304.544 94.093 304.326 93.7987C303.936 93.2804 303.577 92.7237 303.244 92.167C302.937 91.6615 302.507 91.3416 301.976 91.1112C298.363 89.5308 295.039 87.4512 291.786 85.2565C289.851 83.9511 287.911 82.6522 286.111 81.1549C285.919 80.9949 285.989 80.6046 286.226 80.4638C286.303 80.419 286.367 80.3295 286.444 80.2911C288.256 79.536 290.063 78.781 291.888 78.0515C292.227 77.9172 292.612 77.8532 292.977 77.8468C294.283 77.8276 295.596 77.8532 296.903 77.8596C299.145 77.8596 301.393 77.8596 303.635 77.8596V77.9108H303.628Z" fill="white"/>
<path d="M352.024 47.2869C356.373 47.3125 361.51 47.3509 366.647 47.3701C368.235 47.3701 369.824 47.3253 371.406 47.3061C371.681 47.3061 371.963 47.2933 372.232 47.4213C372.399 47.4981 372.508 47.6325 372.501 47.85C372.488 48.138 372.335 48.3747 372.187 48.5987C369.734 52.2523 366.961 55.6372 363.765 58.6766C361.043 61.2616 358.032 63.45 354.67 65.1456C353.248 65.8623 351.787 66.4574 350.269 66.9437C349.616 67.1548 349.008 67.11 348.354 66.9181C343.788 65.5807 339.214 64.269 334.648 62.9573C327.833 60.9993 321.024 59.0477 314.209 57.0897C313.402 56.8593 312.602 56.6162 311.801 56.373C311.327 56.2323 311.173 55.65 311.494 55.2597C311.609 55.1189 311.718 54.9589 311.846 54.831C312.173 54.4982 312.499 54.1591 312.851 53.8584C313.998 52.8986 315.228 52.0603 316.554 51.3501C318.872 50.1087 321.325 49.2321 323.881 48.6498C326.616 48.0228 329.396 47.6644 332.195 47.5429C338.542 47.2677 344.889 47.063 352.024 47.2805V47.2869Z" fill="white"/>
<path d="M384.197 77.5652C384.158 78.6722 384.03 79.7792 383.78 80.8669C383.678 81.3213 383.134 81.5644 382.685 81.3468C382.602 81.3085 382.512 81.2765 382.429 81.2317C382.262 81.1485 382.096 81.0653 381.936 80.9757C376.197 77.898 370.458 74.8202 364.719 71.736C364.309 71.5185 363.925 71.2625 363.528 71.013C363.451 70.9618 363.329 70.853 363.342 70.821C363.413 70.6547 363.496 70.4691 363.624 70.3539C363.829 70.1748 364.072 70.0276 364.316 69.8932C368.716 67.4681 373.078 64.979 377.356 62.3428C377.51 62.2468 377.696 62.1892 377.862 62.106C378.035 62.0229 378.496 62.1508 378.618 62.33C378.938 62.7843 379.278 63.2258 379.572 63.6993C380.956 65.9132 382.102 68.2424 382.973 70.7123C383.755 72.9326 384.113 75.2105 384.19 77.5588L384.197 77.5652Z" fill="white"/>
<path d="M337.773 46.0519C336.621 46.0711 335.32 46.1031 334.027 46.1095C333.873 46.1095 333.706 45.9879 333.565 45.8919C333.38 45.7704 333.488 45.476 333.809 45.2265C334.827 44.4266 335.852 43.6332 336.87 42.8334C337.242 42.539 337.684 42.4047 338.126 42.2703C338.491 42.1551 338.849 42.1871 339.215 42.2767C339.861 42.4367 340.438 42.7246 340.854 43.2493C341.424 43.9787 341.975 44.7146 342.539 45.4504C342.532 45.6552 342.481 45.8408 342.334 45.9111C342.174 45.9879 341.982 46.0391 341.809 46.0391C340.515 46.0519 339.215 46.0391 337.78 46.0391L337.773 46.0519Z" fill="white"/>
<path d="M386.233 67.9736C386.214 68.3511 386.176 68.7287 385.932 69.023C385.58 69.4453 385.196 69.842 384.805 70.2324C384.671 70.3667 384.491 70.3091 384.344 70.13C384.286 70.0596 384.21 69.9956 384.177 69.9124C383.607 68.5495 383.037 67.193 382.474 65.8301C382.352 65.5357 382.615 65.1006 382.973 64.979C383.338 64.8575 383.704 64.8383 384.062 64.9279C384.235 64.9726 384.421 65.0558 384.549 65.1774C385.234 65.8173 385.728 66.5915 386.118 67.4361C386.195 67.5961 386.201 67.7945 386.233 67.9736Z" fill="white"/>
</g>
<g opacity="0.1">
<path d="M1540.85 60.457C1543.06 62.3298 1545.28 64.2066 1547.49 66.0695C1547.99 66.4882 1548.5 66.8969 1549.03 67.2858C1549.25 67.4503 1549.52 67.5693 1549.79 67.6244C1550.33 67.7476 1550.89 67.824 1551.45 67.9003C1558.2 68.8383 1564.96 69.7624 1571.72 70.7004C1572.55 70.8179 1573.37 70.9583 1574.2 71.1217C1574.37 71.1547 1574.53 71.2984 1574.66 71.4259C1574.8 71.5485 1574.92 71.6958 1575.03 71.849C1577 74.6918 1578.96 77.5306 1580.93 80.3734C1581.14 80.6797 1581.35 80.9911 1581.56 81.3024C1582 81.9462 1582.61 82.3811 1583.31 82.662C1584.51 83.1557 1585.75 83.5737 1587.02 83.9071C1591.13 84.9669 1595.31 85.2696 1599.54 84.963C1604.98 84.5673 1610.25 83.405 1615.39 81.6061C1615.57 81.5432 1615.73 81.441 1615.9 81.365C1616.15 81.2489 1616.27 80.8364 1616.09 80.6773C1615.81 80.4322 1615.54 80.1722 1615.25 79.9419C1613.85 78.8482 1612.44 77.7603 1611.04 76.6666C1610.9 76.549 1610.79 76.3918 1610.65 76.2732C1610.47 76.1182 1610.46 75.9561 1610.64 75.7922C1610.7 75.7409 1610.77 75.6608 1610.84 75.6586C1611.12 75.6447 1611.4 75.63 1611.68 75.6571C1615.58 76.0417 1619.49 76.4123 1623.39 76.8248C1624.79 76.9727 1626.17 77.2034 1627.55 77.4112C1629.04 77.6321 1630.47 78.0395 1631.89 78.5265C1632.06 78.5865 1632.22 78.7032 1632.39 78.7772C1632.58 78.8624 1632.69 78.9975 1632.7 79.2097C1632.71 79.3678 1632.61 79.4965 1632.37 79.5018C1632 79.5116 1631.63 79.4803 1631.26 79.4581C1630.65 79.4322 1630.18 79.6787 1629.83 80.1736C1629.63 80.4532 1629.73 80.9293 1630.04 81.1447C1630.35 81.3592 1630.69 81.503 1631.05 81.6032C1632.76 82.0697 1634.48 82.5221 1636.19 83.0026C1637.63 83.4099 1639.06 83.8312 1640.49 84.2714C1642.1 84.7658 1643.63 85.4731 1645.04 86.407C1647.04 87.7365 1647.01 89.5358 1645.43 91.0993C1644.7 91.8177 1643.84 92.3898 1642.93 92.8722C1641.85 93.4437 1640.73 93.8918 1639.56 94.2534C1637.59 94.8678 1635.58 95.2506 1633.53 95.4591C1630.17 95.8026 1626.81 95.7092 1623.46 95.338C1623.18 95.3068 1622.9 95.2846 1622.62 95.2345C1619.12 94.6186 1615.58 94.3112 1612.07 93.8331C1604.75 92.8417 1597.49 91.508 1590.27 89.9938C1581.58 88.1699 1572.96 86.0758 1564.35 83.9209C1560.81 83.0357 1557.29 82.1167 1553.77 81.1986C1549.7 80.1343 1545.67 78.9475 1541.73 77.4609C1540.94 77.1578 1540.13 76.9697 1539.28 76.881C1537.8 76.7241 1536.32 76.5442 1534.83 76.3602C1534.36 76.3019 1533.91 76.2107 1533.45 76.1105C1532.45 75.8921 1531.83 75.2072 1531.49 74.2955C1531.36 73.9581 1531.32 73.5617 1531.33 73.196C1531.36 72.5475 1531.43 71.8895 1531.53 71.2477C1531.61 70.6618 1531.48 70.1425 1531.22 69.6276C1529.42 66.1169 1528.17 62.4024 1527.04 58.6434C1526.37 56.4083 1525.69 54.1741 1525.24 51.8756C1525.19 51.6301 1525.5 51.3726 1525.77 51.4137C1525.86 51.4277 1525.96 51.3989 1526.05 51.4179C1527.93 51.9813 1529.8 52.5406 1531.68 53.1319C1532.03 53.2428 1532.36 53.4366 1532.65 53.6629C1533.67 54.4754 1534.67 55.3266 1535.68 56.1589C1537.42 57.5784 1539.16 59.0019 1540.89 60.4214L1540.86 60.4611L1540.85 60.457Z" fill="white"/>
<path d="M1597.7 67.3994C1601.05 70.173 1605 73.4554 1608.97 76.7229C1610.2 77.7287 1611.46 78.6999 1612.69 79.6868C1612.91 79.8612 1613.13 80.0297 1613.26 80.2991C1613.34 80.464 1613.34 80.6369 1613.2 80.8013C1613 81.016 1612.73 81.1019 1612.48 81.182C1608.27 82.4565 1603.98 83.3202 1599.58 83.6488C1595.83 83.926 1592.12 83.7135 1588.44 82.8967C1586.89 82.551 1585.38 82.0869 1583.9 81.5021C1583.26 81.2518 1582.82 80.8319 1582.43 80.2696C1579.74 76.3428 1577.04 72.4318 1574.33 68.5249C1570.3 62.6942 1566.26 56.8725 1562.23 51.0418C1561.75 50.3525 1561.28 49.6573 1560.82 48.9621C1560.54 48.5531 1560.79 48.0051 1561.28 47.9057C1561.46 47.8698 1561.65 47.8149 1561.83 47.797C1562.29 47.7463 1562.76 47.6907 1563.22 47.681C1564.72 47.6641 1566.2 47.794 1567.68 48.0838C1570.26 48.5912 1572.71 49.466 1575.06 50.6336C1577.57 51.88 1579.95 53.3628 1582.19 55.0411C1587.28 58.8473 1592.32 62.708 1597.71 67.3944L1597.7 67.3994Z" fill="white"/>
<path d="M1603.43 111.206C1602.7 112.039 1601.9 112.814 1601.02 113.498C1600.65 113.785 1600.08 113.628 1599.87 113.176C1599.83 113.094 1599.78 113.012 1599.74 112.925C1599.67 112.755 1599.59 112.585 1599.52 112.414C1597.03 106.398 1594.54 100.382 1592.05 94.3612C1591.87 93.9333 1591.73 93.4918 1591.58 93.0472C1591.56 92.959 1591.53 92.7977 1591.56 92.7811C1591.72 92.6969 1591.9 92.606 1592.07 92.598C1592.35 92.5891 1592.63 92.6293 1592.9 92.6794C1597.84 93.5887 1602.8 94.4241 1607.78 95.0929C1607.96 95.116 1608.14 95.189 1608.32 95.2301C1608.5 95.2752 1608.78 95.6662 1608.76 95.882C1608.72 96.4364 1608.7 96.993 1608.63 97.5461C1608.3 100.136 1607.71 102.664 1606.82 105.128C1606.02 107.341 1604.86 109.331 1603.43 111.197L1603.43 111.206Z" fill="white"/>
<path d="M1587.46 57.4197C1586.55 56.7046 1585.52 55.906 1584.52 55.0917C1584.4 54.9944 1584.35 54.7948 1584.3 54.6313C1584.23 54.4196 1584.5 54.2607 1584.91 54.2704C1586.2 54.2962 1587.5 54.331 1588.79 54.3568C1589.27 54.3642 1589.7 54.5401 1590.12 54.7159C1590.48 54.8579 1590.74 55.1098 1590.96 55.4103C1591.36 55.9437 1591.62 56.5316 1591.61 57.2013C1591.59 58.1269 1591.55 59.0452 1591.52 59.9716C1591.39 60.1261 1591.23 60.2372 1591.07 60.1984C1590.9 60.1565 1590.72 60.0744 1590.59 59.9649C1589.58 59.1556 1588.58 58.3224 1587.47 57.4139L1587.46 57.4197Z" fill="white"/>
<path d="M1611.08 105.072C1610.83 105.352 1610.56 105.62 1610.18 105.694C1609.64 105.797 1609.1 105.861 1608.55 105.916C1608.36 105.935 1608.25 105.777 1608.25 105.545C1608.25 105.454 1608.23 105.355 1608.26 105.271C1608.68 103.855 1609.1 102.444 1609.53 101.032C1609.62 100.727 1610.1 100.557 1610.45 100.69C1610.81 100.827 1611.11 101.043 1611.33 101.34C1611.43 101.484 1611.53 101.666 1611.55 101.841C1611.67 102.77 1611.56 103.682 1611.33 104.583C1611.29 104.756 1611.17 104.913 1611.08 105.072Z" fill="white"/>
</g>
<g opacity="0.1">
<path d="M739.208 192C725.078 192 710.947 192 696.81 192C695.863 192 694.909 192 693.962 191.985C692.791 191.971 691.657 191.774 690.536 191.432C689.9 191.236 689.416 190.82 689.149 190.223C688.932 189.743 688.751 189.233 688.664 188.716C688.549 187.988 688.513 187.238 688.484 186.495C688.39 184.26 688.072 182.054 687.783 179.84C687.479 177.496 686.706 175.304 685.231 173.411C684.19 172.071 683.28 170.651 682.579 169.086C682.181 168.19 682.022 167.266 682 166.304C681.979 165.256 682.839 164.186 683.836 164.004C684.248 163.931 684.667 163.858 685.087 163.822C685.506 163.785 685.932 163.8 686.351 163.8C691.628 163.8 696.897 163.8 702.173 163.807C702.701 163.807 703.228 163.822 703.749 163.873C705.021 164.004 705.881 164.717 706.358 165.889C706.517 166.275 706.632 166.698 706.69 167.113C706.791 167.848 706.828 168.591 706.893 169.333C706.943 169.865 706.965 170.397 707.052 170.921C707.334 172.595 707.803 172.923 709.22 173.265C709.726 173.389 710.261 173.44 710.781 173.462C712.046 173.506 713.311 173.527 714.576 173.513C720.9 173.44 727.231 173.389 733.556 173.258C742.2 173.076 750.844 173.011 759.496 172.952C761.816 172.938 764.136 172.879 766.456 172.865C768.574 172.858 770.656 172.537 772.744 172.246C773.38 172.159 773.944 171.86 774.515 171.591C774.905 171.409 775.209 171.103 775.455 170.753C775.758 170.324 776.055 169.88 776.315 169.421C777.515 167.302 778.693 165.169 779.712 162.948C779.929 162.467 780.174 161.987 780.485 161.572C780.803 161.149 781.215 160.807 781.779 160.727C782.09 160.683 782.401 160.618 782.719 160.589C783.037 160.56 783.347 160.56 783.665 160.56C792.628 160.56 801.59 160.56 810.56 160.56C811.196 160.56 811.825 160.56 812.446 160.734C812.981 160.88 813.379 161.193 813.682 161.652C813.863 161.928 813.949 162.234 813.978 162.547C814.065 163.516 813.892 164.448 813.444 165.322C813.299 165.613 813.075 165.846 812.735 165.875C812.215 165.919 811.687 165.933 811.16 165.933C808.521 165.933 805.883 165.933 803.252 165.933C802.833 165.933 802.407 165.948 801.995 166.013C801.807 166.042 801.561 166.195 801.496 166.355C801.243 166.953 801.258 167.586 801.453 168.198C801.503 168.365 801.749 168.533 801.93 168.569C802.335 168.656 802.761 168.7 803.18 168.707C805.71 168.722 808.24 168.722 810.777 168.736C811.087 168.736 811.398 168.809 811.694 168.882C811.767 168.897 811.839 169.042 811.861 169.144C811.897 169.341 811.962 169.574 811.897 169.749C810.43 173.411 808.558 176.84 806.144 179.957C805.428 180.874 804.662 181.755 803.852 182.593C801.93 184.573 799.812 186.321 797.572 187.923C795.309 189.546 792.794 190.595 790.098 191.221C789.896 191.272 789.686 191.323 789.476 191.345C787.272 191.563 785.082 191.927 782.863 191.949C781.389 191.964 779.907 191.993 778.433 191.993C765.358 191.993 752.283 192 739.208 192ZM761.57 178.384C761.686 177.51 761.05 176.666 760.19 176.629C759.142 176.578 758.679 177.022 758.484 178.071C758.347 178.799 759.214 179.724 760.031 179.731C760.71 179.738 761.484 179.069 761.57 178.384ZM771.147 178.224C771.202 177.605 770.887 177.103 770.395 176.826C769.636 176.411 768.415 176.535 768.104 177.678C767.981 178.115 768.01 178.508 768.234 178.886C768.82 179.884 770.034 180.051 770.822 179.018C771.002 178.777 771.118 178.558 771.147 178.224ZM750.519 176.629C749.782 176.615 749.413 176.848 749.074 177.605C748.987 177.794 748.922 178.013 748.929 178.217C748.951 178.857 749.659 179.607 750.317 179.753C750.671 179.833 751.676 179.382 751.878 178.872C752.138 178.209 752.037 177.634 751.647 177.095C751.531 176.942 751.321 176.833 751.133 176.753C750.946 176.68 750.729 176.673 750.519 176.629ZM742.518 178.399C742.518 177.889 742.41 177.488 742.171 177.124C742.113 177.037 742.041 176.95 741.954 176.899C741.369 176.571 740.747 176.484 740.162 176.833C739.692 177.11 739.453 177.59 739.396 178.144C739.381 178.246 739.388 178.362 739.432 178.442C739.584 178.719 739.714 179.025 739.931 179.236C740.632 179.899 741.34 179.95 742.135 179.163C742.345 178.959 742.417 178.617 742.518 178.399ZM732.977 178.086C732.934 177.882 732.891 177.656 732.833 177.459C732.732 177.139 732.508 176.928 732.211 176.789C732.117 176.746 732.016 176.709 731.915 176.688C731.113 176.476 730.426 176.768 730.065 177.481C729.703 178.173 729.891 178.894 730.585 179.418C730.838 179.607 731.127 179.738 731.452 179.746C732.276 179.768 733.042 178.923 732.977 178.086ZM721.941 176.622C721.334 176.673 720.871 176.855 720.596 177.379C720.445 177.663 720.3 177.947 720.336 178.275C720.423 178.967 721.102 179.622 721.811 179.731C722.367 179.818 723.365 179.221 723.415 178.508C723.43 178.297 723.451 178.086 723.422 177.882C723.314 177.095 722.7 176.607 721.941 176.622Z" fill="white"/>
<path d="M709.133 149.434C714.193 149.434 719.245 149.434 724.304 149.434C724.832 149.434 725.359 149.463 725.88 149.521C726.971 149.645 727.99 150.621 728.272 151.778C728.337 152.033 728.041 152.419 727.788 152.455C726.53 152.616 725.265 152.492 724.001 152.543C723.69 152.557 723.365 152.565 723.083 152.667C722.916 152.725 722.721 152.951 722.7 153.118C722.548 154.385 722.548 155.652 722.7 156.919C722.729 157.152 723.104 157.479 723.365 157.487C724.839 157.523 726.313 157.552 727.781 157.589C727.998 157.589 728.352 157.996 728.366 158.244C728.366 158.353 728.395 158.455 728.395 158.564C728.395 161.535 728.395 164.506 728.395 167.477C728.395 167.79 728.359 168.117 728.287 168.423C728.07 169.312 727.181 170.265 726.415 170.418C726.003 170.498 725.583 170.6 725.164 170.608C720.531 170.666 715.891 170.753 711.265 170.389C710.347 170.316 709.523 169.53 709.372 168.54C709.126 166.967 708.866 165.394 708.794 163.8C708.772 163.377 708.7 162.955 708.634 162.54C708.577 162.147 707.941 161.564 707.55 161.477C706.82 161.317 706.09 161.302 705.353 161.302C702.296 161.302 699.246 161.302 696.188 161.302C695.133 161.302 694.078 161.302 693.03 161.28C692.603 161.273 692.206 161.127 691.808 160.982C690.833 160.618 690.254 159.875 690.023 158.907C689.77 157.873 689.792 156.802 690.023 155.754C690.059 155.586 690.262 155.39 690.435 155.331C690.724 155.23 691.042 155.193 691.353 155.179C692.82 155.12 694.302 155.266 695.762 155.069C695.921 155.048 696.131 154.807 696.167 154.64C696.275 154.123 696.29 153.577 696.131 153.067C696.073 152.892 695.885 152.681 695.719 152.645C695.314 152.557 694.895 152.543 694.475 152.528C693.211 152.499 691.953 152.485 690.688 152.455C690.276 152.448 690.03 151.968 690.153 151.538C690.37 150.773 690.84 150.227 691.512 149.871C691.881 149.681 692.293 149.521 692.697 149.477C693.427 149.405 694.172 149.412 694.909 149.412C699.65 149.412 704.392 149.412 709.133 149.412V149.426V149.434ZM717.5 155.163C717.818 155.148 718.536 155.149 719.151 155.077C719.31 155.055 719.527 154.829 719.563 154.662C719.671 154.152 719.657 153.628 719.556 153.111C719.512 152.892 719.136 152.572 718.883 152.572C717.749 152.572 716.614 152.572 715.479 152.586C715.378 152.586 715.255 152.586 715.176 152.645C715.017 152.768 714.807 152.9 714.756 153.074C714.605 153.577 714.612 154.108 714.727 154.618C714.764 154.785 714.973 154.975 715.147 155.033C715.848 155.259 716.481 155.141 717.5 155.163ZM709.408 155.193C710.123 155.164 710.752 155.157 711.367 155.098C711.54 155.077 711.807 154.916 711.851 154.764C712.032 154.159 712.039 153.533 711.815 152.936C711.757 152.783 711.504 152.608 711.33 152.601C710.087 152.506 708.844 152.485 707.601 152.616C707.391 152.637 707.03 153.023 707.023 153.256C707.015 153.671 707.001 154.094 707.008 154.509C707.008 154.749 707.37 155.077 707.63 155.091C708.251 155.128 708.844 155.164 709.372 155.193H709.408ZM701.804 155.193C702.455 155.164 703.084 155.149 703.698 155.084C703.879 155.062 704.139 154.909 704.189 154.764C704.392 154.166 704.385 153.54 704.161 152.943C704.103 152.79 703.85 152.63 703.669 152.608C702.426 152.492 701.183 152.492 699.94 152.608C699.737 152.623 699.376 153.023 699.369 153.256C699.354 153.671 699.354 154.094 699.354 154.509C699.354 154.749 699.715 155.091 699.968 155.098C700.59 155.128 701.212 155.157 701.804 155.193Z" fill="white"/>
<path d="M706.936 147.359C703.568 147.359 700.193 147.344 696.824 147.344C696.405 147.344 695.993 146.98 695.964 146.601C695.957 146.499 695.907 146.39 695.914 146.288C695.921 143.958 695.928 141.628 695.95 139.291C695.95 138.832 696.275 138.512 696.723 138.483C697.244 138.446 697.771 138.425 698.299 138.388C698.566 138.366 698.877 138.068 698.942 137.784C699.014 137.471 699.022 137.165 698.892 136.866C698.805 136.655 698.66 136.524 698.443 136.444C697.93 136.262 697.403 136.349 696.882 136.32C696.152 136.284 695.849 135.745 696.109 134.981C696.485 133.845 697.338 133.299 698.436 133.087C698.848 133.007 699.275 133 699.694 133C704.638 133 709.589 133 714.532 133C715.053 133 715.588 133.029 716.101 133.138C717.084 133.349 717.807 133.932 718.182 134.9C718.255 135.09 718.276 135.308 718.291 135.519C718.312 135.825 718.031 136.175 717.792 136.226C716.961 136.408 716.115 136.284 715.277 136.328C714.966 136.342 714.648 136.379 714.337 136.393C714.113 136.408 713.716 136.786 713.701 136.997C713.651 137.842 713.593 138.687 713.716 139.531C713.773 139.903 714.164 140.267 714.583 140.274C715.631 140.296 716.686 140.318 717.734 140.347C717.958 140.347 718.32 140.74 718.327 140.988C718.399 142.895 718.45 144.796 718.298 146.703C718.284 146.914 717.886 147.308 717.669 147.315C717.142 147.33 716.621 147.359 716.094 147.359C713.043 147.359 709.993 147.359 706.936 147.359ZM709.813 138.425C709.625 138.432 710.138 138.432 710.644 138.359C710.817 138.337 711.041 138.17 711.121 138.01C711.302 137.631 711.287 137.201 711.15 136.815C711.092 136.655 710.868 136.48 710.687 136.444C709.777 136.24 708.851 136.298 707.933 136.4C707.767 136.422 707.579 136.612 707.485 136.779C707.391 136.946 707.377 137.172 707.37 137.369C707.348 137.98 707.695 138.417 708.186 138.425C708.497 138.425 708.801 138.425 709.813 138.425ZM702.354 138.425C703.308 138.425 703.72 138.425 704.132 138.425C704.233 138.425 704.334 138.403 704.435 138.403C704.638 138.395 704.985 138.017 704.999 137.762C705.013 137.558 705.013 137.354 705.021 137.143C705.021 136.743 704.645 136.379 704.262 136.357C703.445 136.313 702.621 136.284 701.804 136.4C701.595 136.429 701.233 136.779 701.219 137.019C701.204 137.223 701.204 137.427 701.204 137.638C701.212 138.039 701.573 138.395 701.978 138.41C702.289 138.425 702.592 138.439 702.354 138.425Z" fill="white"/>
<path d="M749.5 164.04C747.606 164.04 745.713 164.033 743.819 164.033C743.4 164.033 742.988 163.96 742.569 163.931C742.381 163.916 741.933 163.487 741.918 163.312C741.911 163.21 741.875 163.101 741.875 162.999C741.875 160.458 741.875 157.924 741.889 155.383C741.889 154.888 742.402 154.429 742.93 154.407C743.14 154.4 743.349 154.393 743.559 154.385C743.667 154.385 743.768 154.385 743.877 154.385C747.556 154.385 751.227 154.385 754.906 154.385C755.326 154.385 755.745 154.451 756.157 154.487C756.381 154.509 756.749 154.895 756.771 155.121C756.778 155.223 756.822 155.332 756.822 155.434C756.822 157.975 756.822 160.509 756.822 163.05C756.822 163.581 756.366 163.997 755.803 164.011C755.383 164.026 754.964 164.04 754.545 164.04C752.861 164.04 751.184 164.04 749.5 164.04Z" fill="white"/>
<path d="M765.813 152.601C763.601 152.565 761.397 152.55 759.185 152.484C759.019 152.484 758.838 152.251 758.701 152.099C758.643 152.033 758.643 151.895 758.636 151.793C758.491 149.142 758.513 146.499 758.621 143.849C758.636 143.441 759.033 143.004 759.402 142.99C760.031 142.968 760.667 142.931 761.296 142.931C764.454 142.931 767.613 142.924 770.771 142.931C771.4 142.931 772.029 142.975 772.665 142.997C772.903 143.004 773.301 143.368 773.33 143.579C773.344 143.681 773.388 143.791 773.388 143.893C773.446 146.543 773.489 149.193 773.359 151.836C773.344 152.062 772.968 152.47 772.759 152.484C772.34 152.514 771.92 152.565 771.501 152.565C769.608 152.572 767.714 152.601 765.813 152.601Z" fill="white"/>
<path d="M782.502 152.572C782.502 152.572 778.093 152.543 775.881 152.499C775.65 152.499 775.267 152.113 775.245 151.888C775.238 151.786 775.202 151.676 775.202 151.575C775.202 149.033 775.202 146.485 775.209 143.944C775.209 143.842 775.26 143.74 775.267 143.631C775.296 143.412 775.686 143.026 775.896 143.004C776.105 142.983 776.315 142.939 776.524 142.939C780.63 142.939 784.735 142.939 788.84 142.946C789.043 142.946 789.267 142.975 789.44 143.07C789.614 143.157 789.802 143.325 789.867 143.5C790.091 144.104 790.033 144.752 790.026 145.385C790.011 147.504 789.982 149.623 789.961 151.742C789.961 152.121 789.534 152.507 789.13 152.521C788.602 152.536 788.082 152.565 787.554 152.572C785.87 152.572 784.186 152.572 782.502 152.572Z" fill="white"/>
<path d="M766.059 164.04C764.057 164.04 762.054 164.033 760.06 164.033C759.85 164.033 759.64 164.004 759.431 163.989C759.04 163.967 758.636 163.574 758.621 163.173C758.592 162.118 758.556 161.055 758.549 159.999C758.542 158.623 758.549 157.239 758.563 155.863C758.563 155.55 758.621 155.222 758.73 154.931C758.795 154.756 759.012 154.633 759.171 154.509C759.25 154.451 759.366 154.443 759.467 154.443C763.782 154.436 768.097 154.421 772.412 154.421C772.983 154.421 773.38 154.836 773.387 155.426C773.387 157.967 773.387 160.516 773.387 163.057C773.387 163.625 772.983 163.989 772.376 164.011C772.058 164.018 771.747 164.04 771.429 164.04C769.636 164.04 767.851 164.04 766.059 164.04Z" fill="white"/>
<path d="M784.164 158.15C784.164 158.15 781.302 158.04 779.726 158.252C779.553 158.273 779.35 158.448 779.249 158.608C779.148 158.776 779.155 159.016 779.112 159.22C779.018 159.635 778.982 160.072 778.816 160.451C778.389 161.419 777.912 162.366 777.428 163.305C777.124 163.895 776.662 164.062 775.809 163.946C775.563 163.909 775.209 163.545 775.202 163.312C775.18 162.358 775.151 161.404 775.151 160.451C775.151 158.754 775.18 157.058 775.202 155.361C775.209 154.808 775.635 154.436 776.243 154.422C776.77 154.407 777.298 154.393 777.818 154.393C779.184 154.393 780.557 154.393 781.923 154.393C784.135 154.393 786.347 154.393 788.559 154.393C788.862 154.393 789.173 154.473 789.469 154.553C789.693 154.611 789.831 154.786 789.874 154.99C790.047 155.827 790.112 156.664 789.867 157.502C789.809 157.706 789.397 158.084 789.187 158.091C788.24 158.113 784.164 158.15 784.164 158.15Z" fill="white"/>
<path d="M749.016 170.579C747.23 170.6 745.452 170.615 743.667 170.63C743.356 170.63 743.046 170.593 742.728 170.564C742.366 170.535 741.918 170.091 741.889 169.741C741.802 168.686 741.774 167.63 741.933 166.581C741.961 166.392 742.373 165.977 742.569 165.948C742.778 165.919 742.981 165.853 743.19 165.853C747.288 165.846 751.379 165.846 755.477 165.853C755.687 165.853 755.889 165.904 756.099 165.933C756.323 165.955 756.735 166.326 756.764 166.523C756.923 167.579 756.879 168.627 756.807 169.69C756.778 170.047 756.366 170.433 755.947 170.448C754.27 170.484 752.586 170.52 750.909 170.55C750.281 170.557 749.652 170.579 749.016 170.579Z" fill="white"/>
<path d="M763.832 170.389C762.358 170.389 760.884 170.389 759.409 170.389C759.012 170.389 758.643 169.989 758.607 169.581C758.527 168.627 758.506 167.681 758.614 166.727C758.657 166.334 759.041 165.919 759.424 165.904C759.843 165.882 760.262 165.853 760.688 165.846C763.009 165.846 765.321 165.831 767.642 165.846C769.326 165.853 771.01 165.89 772.694 165.919C772.918 165.919 773.315 166.305 773.33 166.53C773.337 166.632 773.395 166.734 773.395 166.843C773.409 167.375 773.424 167.906 773.409 168.431C773.395 169.195 773.012 169.639 772.318 169.741C769.918 170.091 767.511 170.375 765.083 170.36C764.664 170.36 764.252 170.389 763.832 170.389Z" fill="white"/>
<path d="M799.227 154.385C801.221 154.385 803.216 154.385 805.211 154.385C805.522 154.385 805.847 154.421 806.136 154.516C806.317 154.574 806.548 154.749 806.592 154.916C806.801 155.739 806.845 156.584 806.635 157.421C806.584 157.632 806.194 158.025 805.992 158.047C805.782 158.069 805.58 158.127 805.37 158.127C801.279 158.127 797.181 158.127 793.09 158.127C792.881 158.127 792.671 158.076 792.469 158.055C792.259 158.033 791.876 157.64 791.833 157.428C791.652 156.584 791.681 155.746 791.876 154.916C791.912 154.749 792.136 154.545 792.31 154.501C792.714 154.407 793.141 154.378 793.553 154.37C795.439 154.356 797.34 154.385 799.227 154.385Z" fill="white"/>
</g>
</g>
<defs>
<filter id="filter0_i_67_128" x="894" y="101" width="57.4001" height="105.25" filterUnits="userSpaceOnUse" color-interpolation-filters="sRGB">
<feFlood flood-opacity="0" result="BackgroundImageFix"/>
<feBlend mode="normal" in="SourceGraphic" in2="BackgroundImageFix" result="shape"/>
<feColorMatrix in="SourceAlpha" type="matrix" values="0 0 0 0 0 0 0 0 0 0 0 0 0 0 0 0 0 0 127 0" result="hardAlpha"/>
<feOffset/>
<feGaussianBlur stdDeviation="2"/>
<feComposite in2="hardAlpha" operator="arithmetic" k2="-1" k3="1"/>
<feColorMatrix type="matrix" values="0 0 0 0 0 0 0 0 0 0 0 0 0 0 0 0 0 0 0.05 0"/>
<feBlend mode="normal" in2="shape" result="effect1_innerShadow_67_128"/>
</filter>
<filter id="filter1_i_67_128" x="1045" y="116" width="28.4669" height="51.4893" filterUnits="userSpaceOnUse" color-interpolation-filters="sRGB">
<feFlood flood-opacity="0" result="BackgroundImageFix"/>
<feBlend mode="normal" in="SourceGraphic" in2="BackgroundImageFix" result="shape"/>
<feColorMatrix in="SourceAlpha" type="matrix" values="0 0 0 0 0 0 0 0 0 0 0 0 0 0 0 0 0 0 127 0" result="hardAlpha"/>
<feOffset/>
<feGaussianBlur stdDeviation="2"/>
<feComposite in2="hardAlpha" operator="arithmetic" k2="-1" k3="1"/>
<feColorMatrix type="matrix" values="0 0 0 0 0 0 0 0 0 0 0 0 0 0 0 0 0 0 0.05 0"/>
<feBlend mode="normal" in2="shape" result="effect1_innerShadow_67_128"/>
</filter>
<filter id="filter2_i_67_128" x="993" y="86" width="14.9335" height="26.3506" filterUnits="userSpaceOnUse" color-interpolation-filters="sRGB">
<feFlood flood-opacity="0" result="BackgroundImageFix"/>
<feBlend mode="normal" in="SourceGraphic" in2="BackgroundImageFix" result="shape"/>
<feColorMatrix in="SourceAlpha" type="matrix" values="0 0 0 0 0 0 0 0 0 0 0 0 0 0 0 0 0 0 127 0" result="hardAlpha"/>
<feOffset/>
<feGaussianBlur stdDeviation="2"/>
<feComposite in2="hardAlpha" operator="arithmetic" k2="-1" k3="1"/>
<feColorMatrix type="matrix" values="0 0 0 0 0 0 0 0 0 0 0 0 0 0 0 0 0 0 0.05 0"/>
<feBlend mode="normal" in2="shape" result="effect1_innerShadow_67_128"/>
</filter>
<filter id="filter3_i_67_128" x="1145" y="93" width="23.8003" height="42.8276" filterUnits="userSpaceOnUse" color-interpolation-filters="sRGB">
<feFlood flood-opacity="0" result="BackgroundImageFix"/>
<feBlend mode="normal" in="SourceGraphic" in2="BackgroundImageFix" result="shape"/>
<feColorMatrix in="SourceAlpha" type="matrix" values="0 0 0 0 0 0 0 0 0 0 0 0 0 0 0 0 0 0 127 0" result="hardAlpha"/>
<feOffset/>
<feGaussianBlur stdDeviation="2"/>
<feComposite in2="hardAlpha" operator="arithmetic" k2="-1" k3="1"/>
<feColorMatrix type="matrix" values="0 0 0 0 0 0 0 0 0 0 0 0 0 0 0 0 0 0 0.05 0"/>
<feBlend mode="normal" in2="shape" result="effect1_innerShadow_67_128"/>
</filter>
</defs>
</svg>
