<svg width="255" height="136" viewBox="0 0 255 136" fill="none" xmlns="http://www.w3.org/2000/svg">
<g clip-path="url(#clip0_42_1300)">
<path d="M42.7763 60.4567C42.6826 60.4098 42.5654 60.3786 42.4873 60.3083C42.0501 59.9179 41.8548 59.3712 41.6128 58.8636C39.0749 53.5224 36.5448 48.1655 34.0226 42.8165C33.7805 42.3011 33.5775 41.7701 33.3588 41.2469C33.2651 41.0205 33.4682 40.4504 33.679 40.3411C34.0773 40.1225 34.4599 39.8725 34.866 39.6773C43.9164 35.3981 52.9746 31.1267 62.0329 26.8552C62.6498 26.5663 63.2823 26.3086 63.907 26.0353C64.1803 25.9182 64.5707 26.1056 64.7504 26.4179C64.9143 26.7147 65.1096 27.0036 65.2501 27.3082C67.9754 33.0711 70.6929 38.834 73.4104 44.5969C73.5041 44.8 73.5587 45.0264 73.6368 45.2372C73.7149 45.4481 73.5197 46.065 73.3323 46.1665C72.934 46.3851 72.5514 46.6272 72.1375 46.8224C62.8841 51.2032 53.6228 55.584 44.3693 59.9569C43.9554 60.1521 43.5338 60.3161 43.1121 60.4723C43.0184 60.5113 42.8856 60.4567 42.7763 60.4489V60.4567Z" fill="#E52421"/>
<path d="M29.0875 57.2313C28.088 55.443 27.2837 53.5611 26.4013 51.7104C24.5428 47.8138 22.6921 43.9016 20.8492 39.9971C20.7008 39.677 20.49 39.4193 20.2245 39.2006C20.1464 39.1304 20.0449 39.0601 19.9434 39.0523C19.834 39.0523 19.7247 39.0991 19.6154 39.146C18.7877 39.513 17.9521 39.88 17.1244 40.247C16.3669 39.2397 15.8515 38.0996 15.3752 36.9439C15.2425 36.6237 15.0785 36.3348 14.7974 36.1239C15.2581 36.1005 15.6954 36.0224 16.1171 35.8194C18.2645 34.7808 20.4119 33.7501 22.5749 32.7271C22.8717 32.5866 23.2231 32.5319 23.551 32.4538C23.8009 32.3913 24.0274 32.4694 24.1523 32.6881C24.4803 33.2815 24.8161 33.8672 25.1128 34.4841C30.5399 45.8772 35.9671 57.2703 41.3864 68.6634C45.8765 78.1121 50.3588 87.5608 54.8332 97.0095C55.169 97.7279 55.4736 98.4619 55.7781 99.1959C55.8016 99.2584 55.7 99.3989 55.6219 99.4614C55.4501 99.602 55.2628 99.7425 55.0597 99.8206C53.6854 100.367 52.3344 100.961 51.0303 101.656C50.7961 101.781 50.2651 101.625 50.1245 101.406C50.0621 101.312 49.9527 101.242 49.9059 101.148C48.7267 98.5634 47.3914 96.0568 46.306 93.4252C46.4544 91.9571 46.2826 90.5672 45.5251 89.2553C45.0254 88.3885 44.6271 87.4748 44.1742 86.5768C44.018 86.2723 43.7603 86.0693 43.4714 85.8897C43.0966 85.6554 42.7296 85.4211 42.3547 85.1869C39.7778 79.791 37.2009 74.4029 34.6318 69.007C33.9524 67.5857 33.2965 66.1489 32.6327 64.7199C32.6561 64.2748 32.7108 63.8375 32.6952 63.3924C32.6796 62.9551 32.6718 62.4866 32.5078 62.0883C31.8909 60.55 31.2115 59.0351 30.3057 57.6373C30.173 57.4343 29.9856 57.3406 29.7435 57.3093C29.5248 57.2859 29.3062 57.239 29.0875 57.2078V57.2313Z" fill="#525252"/>
<path d="M77.838 119.616C78.0411 125.996 74.0117 132.321 67.7022 134.828C66.1092 135.461 64.4849 135.953 62.7513 135.968C62.1813 135.968 61.6113 135.992 61.049 135.999C58.1129 136.031 55.4345 135.14 52.9747 133.626C49.3358 131.384 46.9619 128.136 45.7593 124.044C45.3611 121.92 45.0487 119.804 45.3689 117.617C45.7125 115.204 46.4699 112.971 47.7818 110.941C50.023 107.45 53.2011 105.17 57.1446 103.952C59.0422 103.577 60.9475 103.21 62.8997 103.468C63.2355 103.515 63.5791 103.562 63.9149 103.601C66.1013 103.827 68.1004 104.608 69.9667 105.74C74.0898 108.239 76.5418 111.917 77.6116 116.571C77.6897 116.899 77.7287 117.243 77.7521 117.586C77.799 118.266 77.8224 118.953 77.8615 119.632L77.838 119.616ZM49.5622 119.812C49.5154 126.332 54.9113 131.759 61.541 131.728C68.6314 131.689 73.6915 125.91 73.5432 119.468C73.3948 112.87 67.8349 107.521 61.3536 107.763C55.005 107.653 49.4061 113.19 49.5544 119.819L49.5622 119.812Z" fill="#525252"/>
<path d="M106.84 99.3368C106.793 99.4383 106.762 99.5554 106.699 99.6492C106.504 99.9381 106.231 100.133 105.919 100.282C97.9224 104.069 89.9261 107.864 81.9298 111.659C81.8283 111.706 81.7268 111.768 81.6253 111.815C81.4222 111.909 80.8132 111.698 80.7195 111.487C80.0557 110.043 79.2124 108.7 78.3846 107.349C78.205 107.052 78.3143 106.661 78.6189 106.49C78.9156 106.318 79.1968 106.123 79.5013 105.982C87.1852 102.328 94.8691 98.673 102.553 95.0263C102.967 94.8311 103.389 94.6671 103.802 94.4797C104.068 94.3626 104.529 94.5109 104.677 94.7686C105.481 96.1352 106.083 97.611 106.754 99.04C106.801 99.1337 106.801 99.2431 106.824 99.3446L106.84 99.3368Z" fill="#525252"/>
<path d="M14.7973 36.132C15.0862 36.335 15.2424 36.6317 15.3752 36.9519C15.8515 38.1076 16.3669 39.2477 17.1243 40.255C17.2805 40.8017 17.4445 41.3405 17.5773 41.8949C17.6632 42.2463 17.4914 42.6445 17.2259 42.7773C16.6168 43.0818 16.0155 43.402 15.3986 43.6987C12.0095 45.3152 8.62053 46.9316 5.23149 48.5402C4.82543 48.7354 4.38811 48.876 3.98205 49.0712C3.62284 49.243 2.99032 48.9307 2.81072 48.5949C1.80338 46.6817 0.874139 44.7295 0.0385937 42.7461C-0.0785389 42.4728 0.0854505 42.0042 0.335333 41.8558C0.530554 41.7387 0.702334 41.5903 0.905363 41.4966C5.11433 39.4898 9.32333 37.4907 13.5401 35.4916C14.118 35.2183 14.5006 35.3979 14.7895 36.1476L14.7973 36.132Z" fill="#525252"/>
<path d="M42.3547 85.2106C42.7295 85.4448 43.0966 85.6791 43.4714 85.9134C43.7525 86.093 44.018 86.296 44.1742 86.6006C44.6271 87.4908 45.0253 88.4122 45.5251 89.279C46.2748 90.5909 46.4544 91.9809 46.306 93.4489C45.939 93.16 45.5173 92.9101 45.0722 93.0663C44.4162 93.3005 43.9399 93.1053 43.6588 92.5509C42.9482 91.1375 42.2844 89.7007 41.6129 88.2717C41.3083 87.6079 41.2459 86.9676 41.9096 86.46C42.097 86.3195 42.1908 86.1242 42.2298 85.8822C42.2688 85.6557 42.3157 85.437 42.3625 85.2184L42.3547 85.2106Z" fill="#525252"/>
<path d="M29.0875 57.2316C29.3062 57.2628 29.5248 57.3097 29.7435 57.3331C29.9778 57.3565 30.173 57.458 30.3057 57.661C31.2115 59.0588 31.8909 60.5738 32.5078 62.1121C32.664 62.5103 32.6796 62.9789 32.6952 63.4162C32.7108 63.8534 32.6562 64.2986 32.6327 64.7437C32.2032 64.5875 31.766 64.5718 31.3287 64.6655C30.8289 64.7749 30.4072 64.5641 30.2042 64.1658C29.3999 62.5806 28.658 60.972 27.8928 59.3634C27.7132 58.9885 27.8225 58.4107 28.1426 58.1452C28.4862 57.8641 28.8767 57.6454 29.0953 57.2394L29.0875 57.2316Z" fill="#525252"/>
<path d="M66.9033 74.7205C66.9041 74.7337 66.9049 74.7477 66.9057 74.7625V74.7546C66.9057 74.7502 66.9057 74.7459 66.9057 74.7415C66.9049 74.7344 66.9041 74.7274 66.9033 74.7205Z" fill="#E52421"/>
<path fill-rule="evenodd" clip-rule="evenodd" d="M77.0051 102.972C77.3323 102.824 77.7153 102.652 78.1895 102.437L78.1817 102.445C84.7116 99.3443 91.4588 96.1448 98.2944 92.9035L98.3811 92.8624C103.035 90.6557 107.729 88.4297 112.423 86.2024C112.596 86.12 112.77 86.0368 112.944 85.9533L112.947 85.9519C113.283 85.7903 113.623 85.6276 113.962 85.4683C114.172 85.3673 114.374 85.2662 114.576 85.1652L114.579 85.1638C114.992 84.953 115.227 84.3986 115.055 84.0237L115.053 84.0197C113.804 81.3426 112.556 78.6655 111.291 75.9884C106.286 65.3918 101.28 54.7953 96.2669 44.1987C95.8296 43.2694 95.3845 42.3479 94.9238 41.4343C94.8223 41.2391 94.6817 41.0361 94.5021 40.9189C94.3303 40.8096 94.0648 40.7159 93.8774 40.7706C92.885 41.0524 91.9634 41.5065 91.0426 41.9601C90.7389 42.1097 90.4352 42.2593 90.1292 42.4026C84.8935 44.8671 79.661 47.3445 74.4276 49.8223L74.4267 49.8228L74.4237 49.8242C71.533 51.1928 68.642 52.5616 65.75 53.9284C64.2288 54.6483 62.7071 55.3682 61.1852 56.0882L61.1841 56.0887C56.4332 58.3363 51.6794 60.5852 46.9307 62.8384C46.3495 63.1151 45.7801 63.4193 45.2113 63.7232C44.9777 63.848 44.7442 63.9728 44.51 64.0956C44.2991 64.2049 44.1039 64.7827 44.1976 65.0092C44.2698 65.1842 44.3407 65.3605 44.4119 65.5371C44.5946 65.9908 44.7783 66.4471 44.9863 66.8911C46.094 69.2352 47.2016 71.5798 48.3094 73.9246C51.7703 81.25 55.2322 88.5777 58.6986 95.9009C59.0422 96.6194 59.4014 97.33 59.7684 98.0406C59.8699 98.2436 60.0104 98.4231 60.1509 98.6027C60.2134 98.6808 60.3228 98.7512 60.4244 98.7746C60.4733 98.7851 60.5224 98.796 60.5716 98.8068L60.5733 98.8072C60.8537 98.8691 61.1388 98.932 61.4239 98.9386C61.6157 98.9446 61.8078 98.9495 61.9999 98.9544L62.0021 98.9544C63.0603 98.9814 64.1207 99.0083 65.1643 99.2197C68.1005 99.8054 70.8336 100.875 73.3168 102.57C73.4236 102.645 73.5297 102.72 73.6355 102.796C73.9937 103.051 74.3506 103.305 74.7302 103.522C75.0191 103.694 75.3705 103.718 75.7063 103.561C76.0924 103.383 76.4756 103.21 77.0051 102.972ZM79.1446 68.5804C79.1388 68.5475 79.1326 68.513 79.1265 68.4763V68.4685C79.1265 68.3663 79.1207 68.26 79.1147 68.1516C79.1025 67.9288 79.0898 67.6975 79.1265 67.4768C79.4077 65.7901 79.9308 64.1815 80.8523 62.7212C81.2115 62.1512 81.6175 61.5967 82.0314 61.0579C82.2344 60.7924 82.4609 60.5191 82.7264 60.3239C82.8895 60.203 83.0517 60.0809 83.2141 59.9586C83.9539 59.4018 84.696 58.8433 85.522 58.3951C87.0276 57.5885 88.5937 57.1144 90.3094 57.1141L90.3427 57.1141L90.4025 57.1145C90.5758 57.116 90.7417 57.1172 90.9011 57.1184C93.9589 57.1405 94.5914 57.1451 98.102 59.2307C98.2894 59.34 98.4924 59.5118 98.5783 59.6992C98.6564 59.871 98.6564 60.1521 98.5705 60.3161C98.4768 60.4957 98.2582 60.6441 98.063 60.7378C97.3361 61.0987 96.611 61.4629 95.8861 61.827C93.2699 63.1412 90.6548 64.4548 87.9583 65.6105C86.9215 66.0535 85.9089 66.5571 84.8959 67.061C84.2841 67.3653 83.6719 67.6698 83.0544 67.9609C82.2912 68.3222 81.5193 68.6616 80.7452 69.0021C80.4817 69.1179 80.218 69.2339 79.9543 69.3509C79.9286 69.3619 79.8987 69.3668 79.866 69.3664C79.6218 69.3696 79.2091 69.0653 79.1812 68.8355C79.1755 68.7551 79.1613 68.6747 79.1448 68.5818L79.1446 68.5804ZM63.337 92.2621C63.1371 92.3654 62.9859 92.7913 63.0391 93.0724C63.0453 93.1157 63.0559 93.1558 63.0716 93.1913C63.1653 93.3943 63.2824 93.5973 63.4307 93.7613C63.7665 94.144 64.2663 94.2845 64.6567 94.1284L64.8205 94.0618C65.1858 93.9135 65.546 93.7673 65.9062 93.5974C66.4025 93.3627 66.895 93.1215 67.387 92.8806L67.3886 92.8798L67.3896 92.8794C68.3211 92.4232 69.2512 91.9678 70.201 91.5592C73.1344 90.2926 75.988 88.8666 78.8397 87.4415C79.3283 87.1974 79.8168 86.9533 80.3057 86.71C80.4867 86.6231 80.6409 86.4757 80.7931 86.3302L80.8289 86.2961C80.9797 86.1521 81.0462 85.9659 81.0444 85.7588C81.0446 85.725 81.043 85.6906 81.0397 85.6558C80.9772 85.0701 80.4384 84.5391 79.7903 84.5781L79.7824 84.5704C79.7352 84.5811 79.6739 84.5901 79.6036 84.6003C79.418 84.6274 79.1699 84.6637 78.9547 84.7656C77.9866 85.2214 77.0234 85.6869 76.0597 86.1526L76.0585 86.1531L76.0566 86.1541C75.2877 86.5256 74.5185 86.8973 73.7462 87.2644C72.8546 87.6875 71.9694 88.1237 71.0844 88.5598C69.2259 89.4756 67.3682 90.3909 65.4532 91.1844C64.9345 91.3964 64.4357 91.6681 63.9369 91.9398C63.7374 92.0485 63.5378 92.1572 63.337 92.2621ZM64.4068 89.7067L64.399 89.7085V89.7021C64.2685 89.7257 64.1587 89.7371 64.0647 89.7368C63.8205 89.7378 63.6819 89.662 63.5635 89.5211C63.5443 89.4976 63.5239 89.4747 63.5034 89.4517C63.4492 89.3908 63.3945 89.3294 63.3605 89.2557L62.8135 88.1466C61.8952 86.2849 60.9786 84.4269 60.073 82.5635C60.0147 82.4421 59.9957 82.3026 59.9765 82.1619C59.9648 82.0763 59.9531 81.9902 59.9324 81.9075C59.8543 81.5717 60.1667 80.8846 60.4868 80.7518C60.8845 80.5851 61.2821 80.4207 61.6809 80.2586C61.8551 80.1875 62.0296 80.117 62.2044 80.0476C62.3604 79.9853 62.5167 79.9233 62.6733 79.8616C62.86 79.7861 63.1196 79.8117 63.3531 79.8993C63.5817 79.9825 63.7866 80.1242 63.8759 80.2911C63.9525 80.4363 64.0299 80.5818 64.1074 80.7276L64.1086 80.7298C64.4018 81.2815 64.6977 81.8381 64.9691 82.3995C65.6531 83.8081 66.3194 85.2226 66.9886 86.6429L67.2961 87.2956C67.4523 87.6314 67.2414 88.342 66.9369 88.506C66.8169 88.5729 66.6972 88.6405 66.578 88.7079L66.5768 88.7086C65.8196 89.1363 65.0812 89.5534 64.4068 89.7085V89.7067ZM77.1571 82.1751C77.1849 82.3313 77.2115 82.4812 77.2446 82.6182L77.2524 82.6103L77.2501 82.6204L77.2524 82.6181L77.2215 82.7415C77.1831 82.901 77.1439 83.0464 77.0921 83.1759C77.0226 83.3544 76.931 83.5031 76.7839 83.6176C76.2372 84.0315 75.6438 84.3516 74.98 84.5547C74.4334 84.7265 73.7619 84.5156 73.4729 84.0627C73.4468 84.0235 73.4166 83.9871 73.3863 83.9505C73.3441 83.8997 73.3017 83.8485 73.2699 83.7894C72.2157 81.7747 71.1849 79.7522 70.3025 77.6595C70.2166 77.4564 70.1932 77.2144 70.1854 76.9957C70.1843 76.9712 70.1838 76.9468 70.184 76.9226C70.1841 76.597 70.2961 76.3018 70.5524 76.0821C71.1693 75.5667 71.8877 75.2388 72.6608 75.0279C73.184 74.8796 73.9337 75.1295 74.1523 75.5667L74.4403 76.1424C75.2588 77.778 76.0784 79.4156 76.8541 81.072C77.023 81.4206 77.0931 81.8148 77.1571 82.1751ZM89.9124 66.9258C89.5864 67.1307 89.3531 67.555 89.4498 67.8516C89.4862 67.9583 89.5183 68.0668 89.5504 68.1753C89.6146 68.3922 89.6788 68.6091 89.7778 68.8121C90.9639 71.2624 92.1579 73.705 93.3518 76.1475L93.3522 76.1484L93.3542 76.1524C93.3727 76.1893 93.3909 76.2262 93.409 76.2631C93.4908 76.429 93.5722 76.594 93.6744 76.7537C94.4084 77.886 95.408 78.5185 96.7979 78.4326C97.3425 78.4005 97.8449 78.2842 98.3051 78.0834C98.8573 77.8441 99.3505 77.4816 99.7809 76.9958C100.265 76.457 100.398 75.7932 100.398 74.9421V74.9342C100.381 74.8719 100.361 74.7891 100.338 74.6935C100.297 74.5256 100.247 74.3184 100.187 74.1143C100.156 74.0128 100.078 73.9113 99.9917 73.841C99.7429 73.6232 98.9596 73.7463 98.7372 73.9864C98.7336 73.99 98.7301 73.9935 98.7267 73.9972C98.4846 74.2549 98.3753 74.5672 98.266 74.8874C98.1567 75.2154 98.0083 75.5043 97.774 75.762C97.7632 75.7739 97.7521 75.7856 97.7409 75.797C97.2638 76.2722 96.4249 76.3111 95.9546 75.8635C95.5329 75.4652 95.1893 75.0201 94.9472 74.5048C94.6091 73.7868 94.2536 73.0766 93.8981 72.3665L93.8975 72.3654C93.1861 70.9443 92.4744 69.5226 91.9018 68.039C91.8172 67.8135 91.6716 67.6124 91.5266 67.4123C91.4708 67.3352 91.4151 67.2582 91.363 67.1801C91.1521 66.8755 90.5587 66.7037 90.137 66.8208C90.0592 66.8435 89.9836 66.8796 89.9124 66.9258ZM58.8236 72.7321C59.1521 72.9371 59.4791 73.1439 59.8046 73.3526C60.5104 73.8039 61.2088 74.2661 61.8994 74.7396C62.6616 75.2614 63.4143 75.7966 64.157 76.3476C64.1869 76.3694 64.2093 76.3998 64.2281 76.4344C64.2476 76.4688 64.2641 76.508 64.2807 76.5473C64.2956 76.5826 64.3106 76.6181 64.3279 76.6505C64.3237 76.6798 64.322 76.7103 64.3203 76.7407C64.3161 76.8142 64.312 76.887 64.2741 76.9411C64.2629 76.9562 64.2518 76.9716 64.2406 76.987C64.2326 76.9981 64.2245 77.0092 64.2165 77.0204C64.1019 77.1793 63.9816 77.3462 63.8212 77.4331C62.1694 78.3537 60.4248 79.0832 58.6787 79.8133C58.3364 79.9564 57.994 80.0996 57.6522 80.2443C57.3351 80.3784 56.9561 80.1792 56.7793 79.8772C56.7267 79.7904 56.6902 79.6949 56.6761 79.5961C56.5795 78.9102 56.7325 78.2623 56.8856 77.6139C56.9922 77.1625 57.0988 76.7109 57.1212 76.2461C57.1365 75.9312 57.139 75.6151 57.1414 75.2987C57.1477 74.4855 57.154 73.671 57.3789 72.8727C57.4492 72.615 57.9177 72.3729 58.1988 72.4823C58.2578 72.5075 58.3192 72.5215 58.3791 72.5351C58.4301 72.5466 58.4801 72.558 58.5268 72.576C58.6283 72.615 58.7299 72.6697 58.8236 72.7321ZM64.3279 76.6505L64.3288 76.6444V76.6522L64.3279 76.6505ZM66.8901 74.5453C66.881 74.4692 66.8833 74.6315 66.9057 74.7937C66.9265 74.9206 66.9673 75.0387 67.0258 75.1395C67.1849 75.4218 67.4866 75.5724 67.874 75.4105C70.0604 74.4969 72.1845 73.4505 74.2538 72.3104C74.5036 72.1687 74.5666 71.7935 74.4126 71.5734C74.387 71.5357 74.3549 71.5022 74.3163 71.4749C73.9485 71.2082 73.5805 70.9426 73.2112 70.6791C72.8858 70.4466 72.5591 70.2157 72.2307 69.9873C71.1773 69.2537 70.1087 68.5443 69.0063 67.8828L68.9723 67.8629C68.9639 67.858 68.9556 67.8531 68.9471 67.8482C68.9303 67.8381 68.9134 67.8282 68.8963 67.8187C68.8353 67.784 68.7724 67.7509 68.7095 67.7267C68.6575 67.7067 68.6014 67.6949 68.5444 67.6829C68.4901 67.6714 68.4349 67.6598 68.3816 67.6408C68.1317 67.5549 67.671 67.8516 67.5929 68.0937C67.4529 68.5508 67.4412 69.0218 67.4294 69.4917C67.4215 69.8086 67.4136 70.125 67.3664 70.4363C67.3001 70.8814 67.22 71.3246 67.14 71.7678C67.0599 72.2109 66.9799 72.6541 66.9135 73.0992C66.8843 73.3036 66.8885 73.5141 66.8958 73.882C66.8998 74.0869 66.9048 74.3405 66.9056 74.6692C66.8953 74.5454 66.8901 74.5189 66.8901 74.5453Z" fill="#E52421"/>
<path d="M53.7165 119.046C53.8258 116.493 55.2705 114.205 57.9801 112.713C58.9875 112.159 60.0807 111.862 61.2442 111.886C61.4707 111.886 61.6971 111.893 61.9236 111.886C64.7113 111.854 67.8817 113.971 68.8891 117.008C69.178 117.867 69.4435 118.734 69.4279 119.663C69.3732 123.232 67.0462 126.199 63.9851 127.136C63.2199 127.371 62.4702 127.636 61.6581 127.597C58.4643 127.457 56.0045 126.09 54.4974 123.201C53.8492 121.959 53.6852 121.061 53.7087 119.031L53.7165 119.046Z" fill="#525252"/>
</g>
<defs>
<clipPath id="clip0_42_1300">
<rect width="255" height="136" fill="white"/>
</clipPath>
</defs>
</svg>
