<svg width="52" height="52" viewBox="0 0 52 52" fill="none" xmlns="http://www.w3.org/2000/svg">
<circle cx="26" cy="26" r="26" fill="#F5F6FA"/>
<path d="M19.9996 32.7501C19.5854 32.7501 19.2496 33.0859 19.2496 33.5001C19.2496 33.9143 19.5854 34.2501 19.9996 34.2501H24.4996C24.9139 34.2501 25.2496 33.9143 25.2496 33.5001C25.2496 33.0859 24.9139 32.7501 24.4996 32.7501H19.9996Z" fill="#525252"/>
<path d="M19.2496 30.5001C19.2496 30.0859 19.5854 29.7501 19.9996 29.7501H27.4996C27.9139 29.7501 28.2496 30.0859 28.2496 30.5001C28.2496 30.9143 27.9139 31.2501 27.4996 31.2501H19.9996C19.5854 31.2501 19.2496 30.9143 19.2496 30.5001Z" fill="#525252"/>
<path d="M19.9996 26.7501C19.5854 26.7501 19.2496 27.0859 19.2496 27.5001C19.2496 27.9143 19.5854 28.2501 19.9996 28.2501H24.4996C24.9139 28.2501 25.2496 27.9143 25.2496 27.5001C25.2496 27.0859 24.9139 26.7501 24.4996 26.7501H19.9996Z" fill="#525252"/>
<path fill-rule="evenodd" clip-rule="evenodd" d="M16.25 18.4979L16.25 18.5016V33.493L16.25 33.496L16.25 33.5001C16.25 34.4939 16.7394 35.425 17.4071 36.0927C18.0748 36.7604 19.0058 37.2497 19.9996 37.2497H31.9996C32.9932 37.2497 33.9262 36.7602 34.5949 36.0924C35.263 35.4253 35.754 34.4936 35.7493 33.4983V23.0001C35.7493 22.748 35.6248 22.5249 35.434 22.3891L28.0308 14.9711L28.0281 14.9685L28.0258 14.9662C27.955 14.8963 27.8736 14.8434 27.7869 14.8075C27.6984 14.7708 27.6014 14.7505 27.4996 14.7505H20.0031C19.997 14.7505 19.9909 14.7505 19.9848 14.7506L19.9812 14.7507C19.0006 14.7731 18.0769 15.2553 17.4092 15.9177C16.7414 16.5802 16.25 17.503 16.25 18.4979ZM28.2493 17.3124L33.1775 22.2505H30.4996C29.9984 22.2505 29.4305 21.9895 28.9716 21.5299C28.5133 21.0709 28.2516 20.5018 28.2493 20V17.3124ZM34.25 23.7497L30.4996 23.7497C29.5069 23.7497 28.5771 23.2566 27.9107 22.5892C27.2443 21.9218 26.7531 20.9919 26.75 20.0024L26.75 16.2497H20.0087C19.4919 16.2637 18.9197 16.531 18.4651 16.982C18.0083 17.4352 17.7497 17.9941 17.7493 18.4966L17.7493 18.5001V33.493L17.7492 33.4971L17.7493 33.5001C17.7493 34.0063 18.0099 34.5753 18.4672 35.0326C18.9245 35.4898 19.4934 35.7505 19.9996 35.7505H31.9996C32.5061 35.7505 33.0772 35.4892 33.5355 35.0315C33.9938 34.574 34.2525 34.0069 34.25 33.505L34.25 33.5004L34.8997 23.7509L34.25 33.4999V23.7497Z" fill="#525252"/>
</svg>
