<svg viewBox="0 0 126 44" fill="none" xmlns="http://www.w3.org/2000/svg">
<path d="M15.0959 19.2779C15.0959 19.6947 15.3973 19.8807 15.7663 19.6923L28.5172 13.1304C28.8862 12.9396 29.1876 12.4428 29.1876 12.0261V8.65448C29.1876 8.23773 28.8862 8.04937 28.5172 8.24009L15.771 14.795C15.4019 14.9857 15.1006 15.4825 15.1006 15.8992L15.0959 19.2779Z" fill="#E52421"/>
<path d="M15.2642 0.143035C14.8951 -0.0476783 14.2925 -0.0476783 13.9234 0.143035L0.670363 6.99694C0.301313 7.18765 0 7.68445 0 8.10354V25.5314C0 25.9482 0.301313 26.4473 0.670363 26.6357L5.72494 29.2421C6.09399 29.4328 6.3953 29.2468 6.3953 28.8277V11.3127C6.3953 10.896 6.69661 10.3992 7.06566 10.2085L20.2603 3.41812C20.6294 3.22741 20.6294 2.91662 20.2603 2.7259L15.2642 0.143035Z" fill="#E52421"/>
<path d="M15.0844 32.7976C15.0844 33.2143 15.3857 33.4003 15.7547 33.212L28.5173 26.6359C28.8863 26.4452 29.1876 25.9484 29.1876 25.5316V22.007C29.1876 21.5902 28.8863 21.4042 28.5173 21.5926L15.7594 28.1545C15.3903 28.3453 15.089 28.8421 15.0867 29.2588L15.0844 32.7976Z" fill="#E52421"/>
<path d="M29.1643 14.7618C29.1643 14.3451 28.863 14.1591 28.4939 14.3474L14.7013 21.4438C14.3322 21.6345 14.0309 21.4462 14.0309 21.0294L14.0356 15.2374C14.0356 14.8207 14.3392 14.3239 14.7083 14.1332L27.8866 7.3546C28.2557 7.16389 28.2557 6.8531 27.8866 6.66474L22.7573 4.02536C22.3883 3.83465 21.7856 3.83465 21.4166 4.02536L8.13081 10.8604C7.76176 11.0511 7.46045 11.5479 7.46045 11.9647V29.3973C7.46045 29.814 7.76176 30.3108 8.13081 30.5015L13.3512 33.1904C13.7203 33.3811 14.0216 33.1951 14.0239 32.776V28.5991C14.0239 28.1824 14.3276 27.6856 14.6966 27.4949L28.4939 20.3961C28.863 20.2054 29.1643 19.7086 29.1643 19.2918V14.7618Z" fill="#010202"/>
<path d="M68.6362 13.9099C68.6362 13.9452 68.5638 14.3078 68.475 14.7175C68.475 14.7175 68.3652 15.2213 67.8187 15.6169C67.2791 16.0124 66.3308 16.1184 66.3308 16.1184C65.9197 16.1655 65.2423 16.2032 64.8289 16.2032H62.9112C62.4978 16.2032 62.1591 15.8618 62.1591 15.445V12.476C62.1591 12.0593 62.4978 11.7179 62.9112 11.7179H65.6184C66.5457 11.7179 67.2791 11.8968 67.8187 12.2594C68.3629 12.6149 68.6362 13.1659 68.6362 13.9099ZM125.942 10.8302C125.942 10.4135 125.942 9.72833 125.942 9.31159V6.05062C125.942 5.63388 125.603 5.29248 125.189 5.29248H118.423C118.009 5.29248 117.493 5.58444 117.276 5.93996L113.048 12.8786C112.831 13.2342 112.474 13.2365 112.252 12.8833L107.905 5.93525C107.683 5.58208 107.164 5.29248 106.751 5.29248H99.9843C99.5709 5.29248 99.2322 5.63388 99.2322 6.05062V21.1782C99.2322 21.5949 99.0944 21.6255 98.9262 21.2441L92.1993 5.98705C92.0311 5.60563 91.5546 5.29248 91.1412 5.29248H84.1059C83.6925 5.29248 83.216 5.60563 83.0501 5.98705L75.2253 24.0295C75.0595 24.4132 74.7255 24.4486 74.4849 24.1095L71.8595 20.4318C73.3053 19.7561 74.4452 18.8355 75.2837 17.6818C76.1176 16.521 76.4353 14.1712 76.4353 14.1712C76.4913 13.7569 76.5357 13.3896 76.5357 13.3542C76.5357 12.1746 76.3535 11.1481 75.9938 10.2746C75.6318 9.40106 75.0899 8.6123 74.3658 7.91302C73.5319 7.10779 72.4271 6.46737 71.063 5.99412C69.6943 5.52557 66.576 5.33957 66.576 5.33957C66.1626 5.31602 65.4852 5.29484 65.0718 5.29484H37.8276C37.4141 5.29484 37.0754 5.63623 37.0754 6.05298V27.4435C37.0754 27.8602 37.4141 28.2016 37.8276 28.2016H44.2275C44.641 28.2016 44.9796 27.8602 44.9796 27.4435V22.1294C44.9796 21.7127 45.3183 21.3713 45.7317 21.3713H50.492C50.9054 21.3713 51.2441 21.0299 51.2441 20.6131V15.558C51.2441 15.1413 50.9054 14.7999 50.492 14.7999H45.7317C45.3183 14.7999 44.9796 14.4585 44.9796 14.0417V12.6361C44.9796 12.2194 45.3183 11.878 45.7317 11.878H53.4724C53.8859 11.878 54.2246 12.2194 54.2246 12.6361V27.4082C54.2246 27.8249 54.5632 28.1663 54.9767 28.1663H61.4C61.8134 28.1663 62.1521 27.8249 62.1521 27.4082V22.4355C62.1521 22.0187 62.4908 21.6773 62.9042 21.6773H63.0934C63.5068 21.6773 64.0394 21.9575 64.2776 22.3013L67.8957 27.5471C68.1316 27.8908 68.6642 28.171 69.08 28.171H81.1511C81.5646 28.171 82.0317 27.8555 82.1882 27.467L82.8376 25.8565C82.9941 25.4704 83.4589 25.1526 83.8746 25.1526H91.3561C91.7695 25.1526 92.239 25.4681 92.4001 25.8542L93.0705 27.4694C93.2293 27.8555 93.6988 28.171 94.1146 28.171H106.202C106.616 28.171 106.954 27.8296 106.954 27.4129V17.6229C106.954 17.2062 107.148 17.145 107.382 17.4887L112.219 24.5404C112.455 24.8841 112.833 24.8794 113.06 24.5286L117.626 17.4981C117.853 17.1497 118.04 17.2038 118.037 17.6229L118.03 27.4129C118.03 27.8296 118.369 28.171 118.783 28.171H125.173C125.587 28.171 125.928 27.8296 125.928 27.4129L125.942 10.8302ZM85.8787 18.9132C85.4653 18.9132 85.2738 18.6071 85.4559 18.2304L87.3759 14.2489C87.5581 13.8746 87.8478 13.8769 88.0206 14.256L89.8308 18.2233C90.0037 18.6024 89.8075 18.9132 89.3917 18.9132H85.8787Z" fill="#010202"/>
<path d="M85.143 36.8542C85.143 37.5159 85.0729 38.1115 84.9328 38.6413C84.7926 39.1711 84.5871 39.6231 84.3161 39.9951C84.0452 40.3671 83.7112 40.652 83.3071 40.8522C82.903 41.0523 82.4452 41.1512 81.9267 41.1512C81.7118 41.1512 81.5156 41.13 81.3357 41.0876C81.1559 41.0452 80.983 40.9817 80.8148 40.8969C80.6467 40.8121 80.4808 40.7038 80.315 40.5767C80.1492 40.4495 79.9786 40.2989 79.8035 40.127V43.6257C79.8035 43.6822 79.7871 43.7317 79.7544 43.7764C79.7217 43.8212 79.6657 43.8588 79.5839 43.8894C79.5045 43.9201 79.397 43.9436 79.2662 43.9601C79.1331 43.9766 78.9649 43.986 78.7617 43.986C78.5585 43.986 78.3903 43.9766 78.2572 43.9601C78.1241 43.9436 78.0189 43.9201 77.9395 43.8894C77.8601 43.8588 77.8041 43.8212 77.769 43.7764C77.7363 43.7317 77.72 43.6822 77.72 43.6257V33.2472C77.72 33.1907 77.734 33.1436 77.762 33.1012C77.79 33.0588 77.8368 33.0259 77.9068 32.9976C77.9746 32.9694 78.0657 32.9482 78.1801 32.934C78.2922 32.9199 78.4347 32.9128 78.6052 32.9128C78.7711 32.9128 78.9089 32.9199 79.0233 32.934C79.1354 32.9482 79.2265 32.9694 79.2966 32.9976C79.3643 33.0259 79.4134 33.0612 79.4414 33.1012C79.4695 33.1436 79.4835 33.1907 79.4835 33.2472V34.1207C79.6984 33.8994 79.9086 33.7039 80.1165 33.5344C80.322 33.3649 80.5346 33.2236 80.7494 33.1106C80.9643 32.9976 81.1862 32.9128 81.4151 32.8563C81.644 32.7998 81.887 32.7739 82.1462 32.7739C82.6858 32.7739 83.1459 32.8799 83.5267 33.0941C83.9074 33.3084 84.2157 33.6003 84.4563 33.9724C84.6969 34.3444 84.8697 34.7776 84.9818 35.272C85.0893 35.7641 85.143 36.2915 85.143 36.8542ZM82.9778 37.0026C82.9778 36.6871 82.9544 36.381 82.9077 36.0914C82.861 35.7994 82.7816 35.5404 82.6671 35.3121C82.555 35.0837 82.4055 34.9024 82.221 34.7658C82.0364 34.6293 81.8075 34.561 81.5319 34.561C81.3941 34.561 81.2586 34.5822 81.1232 34.6246C80.9877 34.6669 80.8499 34.7352 80.7097 34.8294C80.5696 34.9236 80.4248 35.046 80.2753 35.1967C80.1258 35.3474 79.9693 35.5334 79.8035 35.7547V38.2034C80.0954 38.5754 80.3734 38.8626 80.6373 39.0651C80.9013 39.2676 81.1769 39.3688 81.4642 39.3688C81.7351 39.3688 81.964 39.3006 82.1532 39.1616C82.3424 39.0227 82.4989 38.8414 82.6204 38.6154C82.7418 38.3894 82.8306 38.1374 82.889 37.8525C82.9497 37.57 82.9778 37.2875 82.9778 37.0026Z" fill="#010202"/>
<path d="M91.5383 33.937C91.5383 34.1371 91.5336 34.2995 91.522 34.429C91.5103 34.5562 91.4939 34.6574 91.4729 34.7281C91.4519 34.801 91.4215 34.8505 91.3865 34.8788C91.3514 34.907 91.3047 34.9211 91.251 34.9211C91.2066 34.9211 91.1576 34.9117 91.1015 34.8929C91.0455 34.874 90.9847 34.8529 90.9147 34.8293C90.8469 34.8081 90.7698 34.7869 90.6881 34.7657C90.6063 34.7469 90.5152 34.7375 90.4148 34.7375C90.298 34.7375 90.1836 34.761 90.0668 34.8081C89.95 34.8552 89.8309 34.9282 89.7071 35.0294C89.5833 35.1283 89.4548 35.2625 89.3193 35.4297C89.1839 35.5969 89.039 35.8017 88.8849 36.0466V40.6778C88.8849 40.7344 88.8685 40.7814 88.8358 40.8238C88.8031 40.8662 88.7471 40.8992 88.6653 40.9274C88.5859 40.9557 88.4785 40.9769 88.3477 40.991C88.2145 41.0051 88.0464 41.0122 87.8431 41.0122C87.6399 41.0122 87.4718 41.0051 87.3386 40.991C87.2055 40.9769 87.1004 40.9557 87.021 40.9274C86.9415 40.8992 86.8855 40.8638 86.8504 40.8238C86.8177 40.7814 86.8014 40.7344 86.8014 40.6778V33.2471C86.8014 33.1906 86.8154 33.1435 86.8434 33.1011C86.8715 33.0587 86.9205 33.0258 86.9929 32.9975C87.0653 32.9693 87.1564 32.9481 87.2709 32.9339C87.383 32.9198 87.5255 32.9128 87.696 32.9128C87.8712 32.9128 88.0183 32.9198 88.1351 32.9339C88.2519 32.9481 88.3407 32.9693 88.4037 32.9975C88.4668 33.0258 88.5135 33.0611 88.5392 33.1011C88.5672 33.1435 88.5812 33.1906 88.5812 33.2471V34.1724C88.7751 33.8946 88.955 33.6662 89.1255 33.4849C89.296 33.3036 89.4595 33.1623 89.6136 33.0564C89.7678 32.9504 89.922 32.8774 90.0761 32.8351C90.2303 32.7927 90.3844 32.7715 90.5386 32.7715C90.611 32.7715 90.6881 32.7762 90.7698 32.7833C90.8516 32.7903 90.938 32.8044 91.0268 32.8256C91.1155 32.8445 91.1926 32.868 91.258 32.8916C91.3234 32.9151 91.3725 32.9434 91.4028 32.9716C91.4332 32.9999 91.4542 33.0305 91.4682 33.0634C91.4822 33.0964 91.4939 33.1435 91.5056 33.2C91.5173 33.2589 91.5243 33.346 91.5313 33.4614C91.5383 33.5767 91.5383 33.7392 91.5383 33.937Z" fill="#010202"/>
<path d="M100.066 36.887C100.066 37.5204 99.9844 38.0972 99.8186 38.6199C99.6527 39.1426 99.4028 39.5923 99.0665 39.9691C98.7301 40.3458 98.3097 40.6377 97.8028 40.8426C97.2959 41.0474 96.7027 41.151 96.0253 41.151C95.369 41.151 94.799 41.0592 94.3155 40.8755C93.8297 40.6919 93.4279 40.4258 93.1079 40.075C92.7879 39.7242 92.552 39.2957 92.3979 38.7847C92.2437 38.2738 92.1666 37.6899 92.1666 37.0354C92.1666 36.402 92.2507 35.8228 92.4189 35.2978C92.5871 34.7727 92.8393 34.323 93.1757 33.9486C93.512 33.5743 93.9325 33.2847 94.437 33.0775C94.9415 32.8726 95.5324 32.769 96.2098 32.769C96.8708 32.769 97.4431 32.8585 97.9289 33.0398C98.4148 33.2211 98.8142 33.4848 99.1319 33.8356C99.4495 34.1864 99.6831 34.615 99.8373 35.1259C99.9891 35.6392 100.066 36.2254 100.066 36.887ZM97.9266 36.9694C97.9266 36.6021 97.8986 36.2654 97.8402 35.957C97.7818 35.6486 97.6837 35.3802 97.5459 35.1541C97.4081 34.9258 97.2259 34.7492 96.997 34.622C96.7681 34.4949 96.4808 34.4313 96.1327 34.4313C95.8244 34.4313 95.5535 34.4878 95.3222 34.6032C95.091 34.7162 94.9018 34.8834 94.7523 35.1023C94.6028 35.3213 94.493 35.585 94.4183 35.8934C94.3436 36.2019 94.3062 36.5527 94.3062 36.9483C94.3062 37.3156 94.3365 37.6522 94.3973 37.9607C94.458 38.2691 94.5561 38.5375 94.6916 38.7636C94.8271 38.9919 95.0092 39.1685 95.2405 39.2933C95.4717 39.4181 95.759 39.4817 96.1 39.4817C96.413 39.4817 96.6863 39.4252 96.9176 39.3098C97.1488 39.1968 97.338 39.0296 97.4875 38.813C97.637 38.5964 97.7467 38.335 97.8192 38.0266C97.8916 37.7158 97.9266 37.365 97.9266 36.9694Z" fill="#010202"/>
<path d="M103.951 40.9274C103.951 41.5113 103.901 41.9822 103.801 42.3424C103.703 42.7027 103.551 43.0064 103.35 43.2536C103.149 43.5008 102.897 43.6868 102.593 43.8116C102.29 43.9364 101.935 44 101.528 44C101.302 44 101.11 43.9835 100.949 43.9553C100.79 43.9246 100.673 43.8917 100.601 43.8587C100.529 43.8258 100.48 43.7834 100.452 43.7339C100.424 43.6845 100.405 43.628 100.393 43.5621C100.382 43.4985 100.374 43.4255 100.367 43.3454C100.363 43.2654 100.358 43.1618 100.358 43.0323C100.358 42.8769 100.363 42.7474 100.37 42.6438C100.379 42.5402 100.393 42.4602 100.414 42.3989C100.435 42.3377 100.461 42.293 100.489 42.2647C100.517 42.2365 100.552 42.2224 100.596 42.2224C100.624 42.2224 100.68 42.2294 100.767 42.2435C100.853 42.2577 100.944 42.2647 101.045 42.2647C101.187 42.2647 101.311 42.2435 101.416 42.1988C101.521 42.1541 101.605 42.0834 101.673 41.9869C101.739 41.8904 101.79 41.7656 101.823 41.6125C101.855 41.4595 101.872 41.217 101.872 40.8827V33.2612C101.872 33.2047 101.888 33.1576 101.921 33.1152C101.953 33.0728 102.01 33.0375 102.087 33.0069C102.164 32.9763 102.269 32.9528 102.4 32.9363C102.533 32.9198 102.701 32.9104 102.904 32.9104C103.107 32.9104 103.276 32.9198 103.409 32.9363C103.542 32.9528 103.647 32.9763 103.726 33.0069C103.806 33.0375 103.862 33.0728 103.897 33.1152C103.93 33.1576 103.946 33.2047 103.946 33.2612V40.9274H103.951ZM104.107 30.7301C104.107 31.1516 104.023 31.4435 103.855 31.6036C103.687 31.7637 103.369 31.8461 102.899 31.8461C102.437 31.8461 102.122 31.7684 101.958 31.6131C101.792 31.4577 101.711 31.1775 101.711 30.7725C101.711 30.351 101.797 30.0567 101.967 29.8943C102.138 29.7295 102.456 29.6494 102.918 29.6494C103.385 29.6494 103.703 29.7295 103.864 29.8872C104.028 30.045 104.107 30.3252 104.107 30.7301Z" fill="#010202"/>
<path d="M112.843 36.7458C112.843 37 112.787 37.1908 112.672 37.3132C112.56 37.4356 112.404 37.4968 112.205 37.4968H107.718C107.718 37.8123 107.755 38.0996 107.83 38.3586C107.905 38.6176 108.024 38.8365 108.185 39.0155C108.349 39.1968 108.557 39.3333 108.814 39.4275C109.07 39.5217 109.376 39.5688 109.734 39.5688C110.098 39.5688 110.416 39.5429 110.691 39.4887C110.967 39.4369 111.205 39.3781 111.406 39.3145C111.607 39.2509 111.773 39.1921 111.906 39.1403C112.039 39.0885 112.147 39.0602 112.228 39.0602C112.277 39.0602 112.319 39.0696 112.352 39.0885C112.385 39.1073 112.413 39.1426 112.434 39.1921C112.455 39.2415 112.471 39.3122 112.478 39.404C112.488 39.4958 112.49 39.6112 112.49 39.7501C112.49 39.8725 112.488 39.9761 112.481 40.0632C112.476 40.1503 112.467 40.2233 112.455 40.2846C112.443 40.3458 112.427 40.3976 112.406 40.4376C112.385 40.48 112.355 40.52 112.319 40.5577C112.284 40.5977 112.186 40.6495 112.025 40.7154C111.866 40.7814 111.661 40.8473 111.413 40.9108C111.166 40.9744 110.881 41.0309 110.563 41.078C110.243 41.1251 109.902 41.1487 109.538 41.1487C108.881 41.1487 108.307 41.0662 107.814 40.8991C107.321 40.7319 106.91 40.48 106.578 40.1409C106.247 39.8019 106.001 39.3757 105.838 38.8577C105.674 38.3421 105.595 37.737 105.595 37.0424C105.595 36.3808 105.681 35.7851 105.852 35.2554C106.022 34.7256 106.27 34.2759 106.595 33.9063C106.919 33.5366 107.314 33.2564 107.781 33.061C108.246 32.8656 108.771 32.769 109.355 32.769C109.972 32.769 110.5 32.8609 110.937 33.0445C111.374 33.2282 111.733 33.4825 112.016 33.8074C112.296 34.1323 112.504 34.5161 112.635 34.9611C112.768 35.4061 112.833 35.8887 112.833 36.4114V36.7458H112.843ZM110.827 36.1454C110.843 35.5568 110.727 35.0953 110.477 34.7586C110.227 34.4219 109.839 34.2547 109.316 34.2547C109.052 34.2547 108.821 34.3042 108.627 34.4054C108.433 34.5066 108.269 34.6409 108.138 34.8104C108.01 34.9799 107.91 35.18 107.842 35.4108C107.774 35.6415 107.732 35.8864 107.723 36.1477H110.827V36.1454Z" fill="#010202"/>
<path d="M120.13 39.4937C120.13 39.6373 120.126 39.7598 120.119 39.8563C120.109 39.9528 120.1 40.0352 120.086 40.1012C120.072 40.1671 120.056 40.2212 120.037 40.2636C120.018 40.306 119.974 40.3578 119.908 40.4214C119.843 40.4849 119.729 40.5626 119.57 40.6545C119.411 40.7463 119.229 40.8287 119.026 40.8993C118.822 40.9723 118.6 41.0288 118.36 41.0736C118.119 41.1183 117.874 41.1395 117.619 41.1395C117.052 41.1395 116.55 41.05 116.111 40.8734C115.671 40.6968 115.305 40.4331 115.008 40.087C114.711 39.7409 114.487 39.3171 114.335 38.8156C114.184 38.3165 114.109 37.7443 114.109 37.0992C114.109 36.3552 114.202 35.7124 114.387 35.1709C114.571 34.6293 114.828 34.182 115.16 33.8265C115.492 33.4709 115.882 33.2072 116.332 33.0354C116.783 32.8635 117.281 32.7764 117.82 32.7764C118.04 32.7764 118.257 32.7952 118.47 32.8352C118.682 32.8753 118.881 32.9271 119.065 32.993C119.25 33.0589 119.416 33.1342 119.56 33.219C119.705 33.3038 119.81 33.3744 119.871 33.4356C119.932 33.4968 119.974 33.5486 120 33.5887C120.025 33.631 120.044 33.6852 120.058 33.7511C120.072 33.817 120.084 33.8995 120.091 33.996C120.1 34.0925 120.102 34.2102 120.102 34.3492C120.102 34.6717 120.074 34.8978 120.021 35.0273C119.965 35.1567 119.894 35.2227 119.806 35.2227C119.712 35.2227 119.612 35.185 119.509 35.1049C119.404 35.0273 119.28 34.9401 119.138 34.846C118.995 34.7518 118.825 34.6647 118.626 34.587C118.428 34.5093 118.192 34.4692 117.916 34.4692C117.376 34.4692 116.963 34.6788 116.676 35.0979C116.388 35.517 116.246 36.1315 116.246 36.9438C116.246 37.3441 116.281 37.6972 116.353 38.001C116.426 38.3071 116.531 38.5613 116.671 38.7662C116.811 38.971 116.989 39.1264 117.199 39.2277C117.412 39.3312 117.657 39.3807 117.939 39.3807C118.227 39.3807 118.472 39.3383 118.68 39.2512C118.885 39.1641 119.068 39.0699 119.222 38.964C119.376 38.858 119.504 38.7638 119.609 38.6767C119.715 38.5896 119.803 38.5472 119.873 38.5472C119.922 38.5472 119.965 38.5613 119.997 38.5896C120.03 38.6178 120.056 38.6696 120.077 38.7426C120.095 38.818 120.112 38.9145 120.121 39.0299C120.126 39.1617 120.13 39.3101 120.13 39.4937Z" fill="#010202"/>
<path d="M125.998 39.9432C125.998 40.1881 125.984 40.3741 125.953 40.5059C125.923 40.6354 125.883 40.7272 125.834 40.7814C125.785 40.8332 125.713 40.8803 125.615 40.9227C125.519 40.9651 125.404 41.0004 125.276 41.031C125.147 41.0616 125.005 41.0851 124.856 41.1016C124.704 41.1181 124.552 41.1275 124.398 41.1275C123.984 41.1275 123.627 41.0757 123.323 40.9698C123.02 40.8638 122.77 40.7013 122.571 40.4824C122.373 40.2634 122.228 39.9879 122.132 39.6536C122.036 39.3193 121.992 38.9261 121.992 38.4717V34.6645H121.107C121.002 34.6645 120.922 34.5985 120.866 34.469C120.81 34.3395 120.784 34.1206 120.784 33.8145C120.784 33.6544 120.791 33.5178 120.805 33.4072C120.819 33.2965 120.84 33.2094 120.868 33.1458C120.896 33.0822 120.931 33.0351 120.971 33.0092C121.013 32.981 121.06 32.9669 121.116 32.9669H121.992V31.3093C121.992 31.2528 122.006 31.2034 122.036 31.1586C122.067 31.1139 122.123 31.0762 122.202 31.0456C122.282 31.015 122.389 30.9938 122.524 30.9797C122.66 30.9656 122.826 30.9585 123.024 30.9585C123.227 30.9585 123.398 30.9656 123.533 30.9797C123.669 30.9938 123.774 31.015 123.851 31.0456C123.928 31.0762 123.984 31.1139 124.017 31.1586C124.05 31.2034 124.066 31.2528 124.066 31.3093V32.9669H125.668C125.724 32.9669 125.771 32.981 125.813 33.0092C125.855 33.0375 125.888 33.0822 125.916 33.1458C125.944 33.2094 125.965 33.2965 125.979 33.4072C125.993 33.5178 126 33.6544 126 33.8145C126 34.1206 125.972 34.3372 125.918 34.469C125.862 34.5985 125.783 34.6645 125.678 34.6645H124.066V38.1538C124.066 38.5588 124.129 38.8625 124.255 39.065C124.381 39.2675 124.608 39.3687 124.933 39.3687C125.042 39.3687 125.143 39.3593 125.229 39.3405C125.318 39.3216 125.395 39.2981 125.465 39.2745C125.533 39.2486 125.591 39.2274 125.638 39.2086C125.685 39.1898 125.727 39.1803 125.766 39.1803C125.799 39.1803 125.832 39.1898 125.862 39.2086C125.893 39.2274 125.916 39.2675 125.932 39.3263C125.949 39.3852 125.965 39.4629 125.977 39.5641C125.991 39.6607 125.998 39.7878 125.998 39.9432Z" fill="#010202"/>
</svg>
