<svg width="90" height="97" viewBox="0 0 90 97" fill="none" xmlns="http://www.w3.org/2000/svg">
<path d="M2.64993 21C0.386642 21 -0.623516 22.6251 0.399437 24.6155L36.0366 93.3846C37.0723 95.3749 39.7704 97 42.0337 97L60.3446 97C62.6079 97 63.6308 95.3749 62.5951 93.3846L26.9963 24.6406C25.9605 22.6503 23.2625 21.0252 20.9992 21.0252L2.64993 21Z" fill="#313438"/>
<path d="M42.7386 61.314L37.3339 72.1525C36.8251 73.1716 35.4212 73.2976 34.7403 72.3849L30.108 66.1782H22.3993C21.2621 66.1782 20.523 64.9823 21.0318 63.9653L26.1941 53.6414C27.3175 56.3211 29.9655 58.2096 33.0482 58.2096H39.4408C39.5631 58.2096 39.6769 58.2583 39.7632 58.343L42.7386 61.314Z" fill="#EFBA00"/>
<path d="M59.2851 58.3432C59.3714 58.2591 59.4852 58.2098 59.6075 58.2098H66C69.0838 58.2098 71.7308 56.3214 72.8542 53.6416L78.0164 63.9655C78.5252 64.9825 77.7856 66.1784 76.649 66.1784H68.9403L64.3069 72.3852C63.6255 73.2984 62.221 73.1724 61.7133 72.1528L56.3086 61.3142L59.2851 58.3432Z" fill="#EFBA00"/>
<path fill-rule="evenodd" clip-rule="evenodd" d="M75.6539 31.4654L71.1482 26.9528C70.4234 26.2275 70.0163 25.2439 70.0163 24.2183V17.8258C70.0163 15.6082 68.219 13.8108 66.0013 13.8108H59.6088C58.5833 13.8108 57.5997 13.4042 56.8733 12.6794L52.3606 8.1737C50.7937 6.60877 48.254 6.60877 46.6865 8.1737L42.1738 12.6794C41.4491 13.4042 40.4659 13.8108 39.4405 13.8108H33.048C30.8303 13.8108 29.033 15.6087 29.033 17.8258V24.2183C29.033 25.2438 28.6264 26.2274 27.9016 26.9538L23.3959 31.4665C21.8309 33.0335 21.8309 35.5731 23.3959 37.1406L27.9016 41.6533C28.6258 42.378 29.033 43.3616 29.033 44.3866V50.7792C29.033 52.9968 30.8303 54.7942 33.048 54.7942H39.4405C40.466 54.7942 41.4496 55.2007 42.176 55.9255L46.6887 60.4313C48.2556 61.9962 50.7953 61.9962 52.3628 60.4313L56.8755 55.9255C57.6002 55.2013 58.5834 54.7942 59.6088 54.7942H66.0013C68.219 54.7942 70.0163 52.9968 70.0163 50.7792V44.3866C70.0163 43.3611 70.4229 42.3775 71.1477 41.6511L75.6534 37.1385C77.2189 35.5724 77.2189 33.0329 75.6539 31.4654ZM47.2601 36.0945L57.354 25.4217C58.5428 24.1577 60.4988 24.1539 61.6955 25.4082C62.8996 26.6594 62.907 28.695 61.7108 29.9564C60.2955 31.454 58.8829 32.9546 57.4702 34.4553C54.8022 37.2896 52.1339 40.1242 49.4463 42.9387C48.2421 44.1969 46.2936 44.1969 45.0895 42.9387L38.2711 35.7983C37.067 34.5394 37.067 32.498 38.2711 31.2391C39.4679 29.9802 41.4159 29.9802 42.62 31.2391L47.2601 36.0945Z" fill="#EFBA00"/>
</svg>
