<svg width="90" height="97" viewBox="0 0 90 97" fill="none" xmlns="http://www.w3.org/2000/svg">
<path d="M2.64993 21C0.386642 21 -0.623516 22.6251 0.399437 24.6155L36.0366 93.3846C37.0723 95.3749 39.7704 97 42.0337 97L60.3446 97C62.6079 97 63.6308 95.3749 62.5951 93.3846L26.9963 24.6406C25.9605 22.6503 23.2625 21.0252 20.9992 21.0252L2.64993 21Z" fill="#23262D"/>
<path d="M42.7388 61.314L37.3341 72.1525C36.8254 73.1716 35.4214 73.2976 34.7405 72.3849L30.1082 66.1782H22.3995C21.2624 66.1782 20.5233 64.9823 21.0321 63.9653L26.1943 53.6414C27.3177 56.3211 29.9658 58.2096 33.0485 58.2096H39.441C39.5633 58.2096 39.6771 58.2583 39.7634 58.343L42.7388 61.314Z" fill="#EFBA00"/>
<path d="M59.2853 58.3432C59.3716 58.259 59.4854 58.2098 59.6077 58.2098H66.0003C69.0841 58.2098 71.7311 56.3214 72.8544 53.6416L78.0167 63.9655C78.5254 64.9825 77.7859 66.1784 76.6492 66.1784H68.9405L64.3071 72.3852C63.6258 73.2984 62.2212 73.1724 61.7135 72.1528L56.3088 61.3142L59.2853 58.3432Z" fill="#EFBA00"/>
<path fill-rule="evenodd" clip-rule="evenodd" d="M75.6544 31.4654L71.1487 26.9528C70.4239 26.2275 70.0168 25.2439 70.0168 24.2183V17.8258C70.0168 15.6082 68.2195 13.8108 66.0018 13.8108H59.6093C58.5838 13.8108 57.6002 13.4042 56.8738 12.6794L52.3611 8.1737C50.7941 6.60877 48.2545 6.60877 46.687 8.1737L42.1743 12.6794C41.4496 13.4042 40.4664 13.8108 39.441 13.8108H33.0484C30.8308 13.8108 29.0334 15.6087 29.0334 17.8258V24.2183C29.0334 25.2438 28.6269 26.2274 27.9021 26.9538L23.3964 31.4665C21.8314 33.0335 21.8314 35.5731 23.3964 37.1406L27.9021 41.6533C28.6263 42.378 29.0334 43.3616 29.0334 44.3866V50.7792C29.0334 52.9968 30.8308 54.7942 33.0484 54.7942H39.441C40.4665 54.7942 41.4501 55.2007 42.1765 55.9255L46.6892 60.4313C48.2561 61.9962 50.7958 61.9962 52.3633 60.4313L56.8759 55.9255C57.6007 55.2013 58.5839 54.7942 59.6093 54.7942H66.0018C68.2195 54.7942 70.0168 52.9968 70.0168 50.7792V44.3866C70.0168 43.3611 70.4234 42.3775 71.1482 41.6511L75.6539 37.1385C77.2194 35.5724 77.2194 33.0329 75.6544 31.4654ZM47.2606 36.0945L57.3545 25.4217C58.5433 24.1577 60.4993 24.1539 61.696 25.4082C62.9001 26.6594 62.9075 28.695 61.7113 29.9564C60.2959 31.454 58.8834 32.9546 57.4707 34.4553C54.8027 37.2896 52.1344 40.1242 49.4467 42.9387C48.2426 44.1969 46.2941 44.1969 45.09 42.9387L38.2716 35.7983C37.0675 34.5394 37.0675 32.498 38.2716 31.2391C39.4683 29.9802 41.4164 29.9802 42.6205 31.2391L47.2606 36.0945Z" fill="#EFBA00"/>
</svg>
