<svg width="90" height="97" viewBox="0 0 90 97" fill="none" xmlns="http://www.w3.org/2000/svg">
<path d="M2.64993 21C0.386642 21 -0.623516 22.6251 0.399437 24.6155L36.0366 93.3846C37.0723 95.3749 39.7704 97 42.0337 97L60.3446 97C62.6079 97 63.6308 95.3749 62.5951 93.3846L26.9963 24.6406C25.9605 22.6503 23.2625 21.0252 20.9992 21.0252L2.64993 21Z" fill="#313438"/>
<path d="M74.4325 20.6702H64.7076V18.8737C64.7076 14.4934 61.1449 10.9302 56.7641 10.9302H43.236C38.8538 10.9302 35.2906 14.4929 35.2906 18.8737V20.6702H25.5644C21.9396 20.6702 19 23.6079 19 27.2345V33.4972L43.1198 39.9605C43.5483 38.3417 45.0097 37.1407 46.7629 37.1407H53.2337C54.9888 37.1407 56.4501 38.3422 56.8768 39.9605L80.999 33.4972V27.2345C80.999 23.6079 78.0575 20.6702 74.4332 20.6702H74.4325ZM61.3182 20.6702H38.6804V18.8737C38.6804 16.3645 40.7221 14.3209 43.235 14.3209H56.7631C59.2742 14.3209 61.3177 16.3644 61.3177 18.8737L61.3182 20.6702Z" fill="#EFBA00"/>
<path d="M53.2346 46.7118H46.7637C45.0382 46.7118 43.6014 45.5516 43.1427 43.9741L19.0012 37.5033V57.0075C19.0012 60.6322 21.9409 63.5718 25.5656 63.5718H74.4319C78.0585 63.5718 81.0001 60.6321 81.0001 57.0075L80.9992 37.5033L56.8553 43.9741C56.3972 45.5515 54.9583 46.7118 53.2347 46.7118H53.2346Z" fill="#EFBA00"/>
<path d="M25.5637 66.8824C25.5637 68.0914 26.5444 69.0698 27.7529 69.0698H35.0452C36.2542 69.0698 37.2344 68.0891 37.2344 66.8824V65.507H25.5636L25.5637 66.8824Z" fill="#EFBA00"/>
<path d="M62.7617 66.8824C62.7617 68.0914 63.7405 69.0698 64.9509 69.0698H72.2451C73.4522 69.0698 74.4306 68.0891 74.4306 66.8824V65.507H62.7617V66.8824Z" fill="#EFBA00"/>
</svg>
