<svg width="90" height="97" viewBox="0 0 90 97" fill="none" xmlns="http://www.w3.org/2000/svg">
<path d="M2.64993 21C0.386642 21 -0.623516 22.6251 0.399437 24.6155L36.0366 93.3846C37.0723 95.3749 39.7704 97 42.0337 97L60.3446 97C62.6079 97 63.6308 95.3749 62.5951 93.3846L26.9963 24.6406C25.9605 22.6503 23.2625 21.0252 20.9992 21.0252L2.64993 21Z" fill="#313438"/>
<path d="M41.8938 22.9718H47.131V35.8844C48.1353 36.602 49.068 37.3912 50.0002 38.1803C50.8609 37.3911 51.8653 36.6021 52.8695 35.8844V22.9718H58.1061C58.9668 22.9718 59.756 22.4694 60.1863 21.6807C60.545 20.8916 60.473 19.9589 59.8995 19.3134L51.7936 9.19837C50.9329 8.12252 49.1395 8.12252 48.2784 9.19837L40.1003 19.3129C39.5264 20.0305 39.4548 20.9627 39.8136 21.6802C40.244 22.4694 41.0332 22.9718 41.8938 22.9718Z" fill="#EFBA00"/>
<path d="M31.922 36.817H30.5589V31.5804C30.5589 30.7197 30.0565 29.9305 29.2679 29.5002C28.4787 29.1415 27.5461 29.2135 26.9006 29.787L16.7855 37.8214C16.2831 38.2517 15.9248 38.8972 15.9248 39.6148C15.9248 40.3324 16.2115 40.978 16.7855 41.4082L26.9006 49.5147C27.3309 49.8735 27.8333 50.0171 28.3352 50.0171C28.694 50.0171 28.9807 49.9455 29.3395 49.8019C30.1286 49.4431 30.6305 48.654 30.6305 47.7218V42.4851H31.9936C40.3152 42.4846 47.1301 49.2995 47.1301 57.6921V68.7393C47.1301 70.3176 48.4211 71.6086 49.9994 71.6086C51.5776 71.6086 52.8686 70.3176 52.8686 68.7393V57.6921C52.8686 46.1424 43.4718 36.817 31.922 36.817Z" fill="#EFBA00"/>
<path d="M83.2139 37.8213L73.0989 29.7869C72.3813 29.2129 71.449 29.1414 70.7315 29.5001C69.9424 29.8589 69.4405 30.6481 69.4405 31.5803V36.8169H68.0774C62.4819 36.8169 57.4604 38.9692 53.73 42.4839C54.8779 44.1337 55.8101 45.8556 56.5992 47.7206C59.3253 44.4926 63.4862 42.4119 68.0774 42.4119H69.4405V47.6486C69.4405 48.5093 69.9429 49.2984 70.7315 49.7287C71.0183 49.8723 71.3771 49.9439 71.7358 49.9439C72.2382 49.9439 72.7401 49.8003 73.1704 49.4415L83.2139 41.4081C83.7163 40.9777 84.0746 40.3322 84.0746 39.6147C84.0746 38.9691 83.7879 38.2516 83.2139 37.8213Z" fill="#EFBA00"/>
</svg>
