<svg width="26" height="44" viewBox="0 0 26 44" fill="none" xmlns="http://www.w3.org/2000/svg">
<path fill-rule="evenodd" clip-rule="evenodd" d="M14.2314 43.1815C17.4739 35.8352 26 19.1422 26 13.2264C26 5.92167 20.1797 0 13 0C5.8203 0 0 5.92167 0 13.2264C0 19.1422 8.5261 35.8352 11.7686 43.1815C12.2503 44.2728 13.7497 44.2728 14.2314 43.1815ZM13.0002 20.1545C16.761 20.1545 19.8097 17.0527 19.8097 13.2264C19.8097 9.40013 16.761 6.2983 13.0002 6.2983C9.23938 6.2983 6.19065 9.40013 6.19065 13.2264C6.19065 17.0527 9.23938 20.1545 13.0002 20.1545Z" fill="#E52421"/>
</svg>
