<svg viewBox="0 0 95 87" fill="none" xmlns="http://www.w3.org/2000/svg">
<path d="M35.3276 49.1187V87H0V57.0937C0 40.9021 1.95247 29.1812 5.85742 21.9312C10.9827 12.2646 19.0976 4.95417 30.2023 0L38.2563 12.6875C31.5446 15.4667 26.6024 19.6354 23.4297 25.1937C20.2569 30.6312 18.4875 38.6062 18.1214 49.1187H35.3276ZM92.0713 49.1187V87H56.7437V57.0937C56.7437 40.9021 58.6962 29.1812 62.6012 21.9312C67.7264 12.2646 75.8414 4.95417 86.9461 0L95 12.6875C88.2884 15.4667 83.3462 19.6354 80.1734 25.1937C77.0006 30.6312 75.2312 38.6062 74.8651 49.1187H92.0713Z" fill="#E0E2E5"/>
</svg>
